<svg height="34" viewBox="0 0 100 34" width="100" xmlns="http://www.w3.org/2000/svg" xmlns:xlink="http://www.w3.org/1999/xlink"><mask id="a" fill="#fff"><path d="m0 0h53.1020071v17.2935185h-53.1020071z" fill="#fff" fill-rule="evenodd"/></mask><mask id="b" fill="#fff"><path d="m0 0h44.7623931v18.2139884h-44.7623931z" fill="#fff" fill-rule="evenodd"/></mask><g fill="none" fill-rule="evenodd"><g transform="translate(0 13.547474)"><path d="m48.2553954 10.4163872h.9833705v.3615291c0 1.332748-.4151229 1.8750066-.6771209 1.8750066-.2187297 0-.3062496-.3391223-.3062496-.7001598zm2.481114-2.66914854h2.3654977v-5.29643353l-1.7509614-2.28956749h-9.5577993v.35984337l-.2728151-.35984337h-10.5442605v4.02289849l-1.4572848-1.76697631-2.1634854-2.25592218h-2.5782569l-.6070908 2.24770401h-1.2715683v-.04207421l-1.6755229-2.2056298h-10.5463677v1.33956135l-1.04377752-1.4098021h-1.67840273c-.11357929.15860362-.27253411.34010571-.52167805.34010571-.22708834 0-.54506822-.11350905-.99826154-.22694786-.45410645-.11315785-1.08922331-.20418986-1.74702794-.20418986-2.51813089 0-4.62816303 1.61047992-4.62816303 4.37824644 0 3.08483327 1.95100708 5.0133633 3.5394314 5.89811578.90715929.4991308 2.79017332.907651 2.79017332 1.7468875 0 .5901628-.6575939.8622754-1.13473932.8622754-.86171352 0-1.56489367-.5446468-1.99560995-1.0888721-.36349588-.4310675-.97564402-1.4063603-1.36133598-2.22311974h-1.89720266v5.61033944l1.52183609 1.9756616h2.01759531c.13500272-.2447188.33722584-.8462606.65295801-.8462606.29290393 0 .67578626.2003969 1.03577011.4453966.45045393.3123606 1.35129155.5348833 2.29757493.5348833 1.40593886 0 2.77668705-.7293799 3.60833755-1.9602788h1.8085589l1.4075544 1.8262595h6.4410768v-1.0696964l.8108592 1.0696964h5.7215305v-.7794616l.5854567.7794616h5.8064516v-1.0801623l.8097354 1.0801623h6.4250618v-1.685778h.9171335l1.2625073 1.685778h9.972009v-5.5023092l-1.7739301-2.36465484h-1.1059406v-1.05389221l-1.9668815-2.73924878-.0226175-.58482448c-.0222664-.44497515.1562856-.81970956.5367095-.81970956.3577362 0 .469419.28082252.469419.77313994v.81865594z" fill="#ff9522" mask="url(#a)"/><path d="m89.7884349 6.55502836h-.4014962v-.59009254c0-.4712452.1890881-.7305038.448417-.7305038h.5421181c.1891583 0 .3780357.18880713.3780357.42446485 0 .4479955-.5664916.89613149-.9670746.89613149zm6.5223453 3.61430804h-1.660983c1.002195-.57379669 1.7662036-1.72054717 1.7662036-3.27349992 0-2.77148928-2.1239398-6.66584719-6.4672063-6.66584719h-7.3734525v1.27999719l-.9659508-1.27999719h-6.6101463v2.08516691h-3.1936362l-1.9293729-2.01562857h-2.7697333l-.5415561 2.01562857h-.5399407l-1.68929-2.22417336h-10.9527807v2.1778847l.7298014.14195656c.4564946.04748275.7927371.37873812.7993397 1.46697807v8.06715013c-.0066026.827998-.1750399 1.4901575-.6309024 1.5855445l-.8982387.1413946v2.2752384l1.524716 2.0068485h6.88549v-1.8766924h.421304l1.6160289 2.1547052h6.0948602v-.8392364l.6242295.8392364h6.1178289v-.0695383h6.6725201v-.9325162l.743709.9325162h6.9713945v-2.0305898l-1.6680774-2.0312923v-2.7496444h1.1263105c.1673837.465064.2394507 2.6289708.9580838 4.1439233.8629779 1.8515462 2.3240557 2.7412155 3.6660052 2.7412155 1.9394876 0 3.0180343-1.1539853 3.0073671-4.2801903v-1.4180203z" fill="#ff9522"/><path d="m52.2591181 13.6474617h.9833705v.3611077c0 1.3326777-.4156145 1.8745851-.6776827 1.8745851-.2189404 0-.3056878-.3382794-.3056878-.7001598zm2.4805521-2.6691485h2.4363004v-5.34616401l-1.7600224-2.31007779h-9.6189791v.3561206l-.2709186-.3561206h-10.5461569v1.8262595h-1.8479639l-1.7640262-1.8262595h-2.5734104l-.495127 1.8262595h-1.6575412l-1.3916098-1.8262595h-10.5698983v1.40994258l-1.0434264-1.40994258h-1.6793861c-.1127364.15853337-.2720424.33968427-.5212566.33968427-.2270181 0-.544717-.11308761-.9983317-.22708835-.45361481-.11259592-1.08880191-.20411962-1.7465363-.20411962-2.51827137 0-4.6279523 1.61146329-4.6279523 4.37887861 0 3.08504399 1.95065587 5.01357399 3.53908019 5.89839679.90737002.4991307 2.78996261.90737 2.78996261 1.7470279 0 .5897413-.65780463.8622052-1.13431788.8622052-.86185401 0-1.5651044-.5451385-1.99631236-1.0892233-.36258276-.4311377-.97522258-1.406571-1.3608443-2.2232602h-1.8972729v5.5577291l1.50806891 1.9580311h2.02848262c.13549441-.2422603.33806873-.838534.65302825-.838534.29339562 0 .6758565.1992027 1.03640227.4413226.45003249.3087783 1.35122129.5294045 2.29736419.5294045 1.3859905 0 2.7367201-.7019158 3.5718124-1.8882118h1.8872987l1.3663231 1.7560187h6.4424816v-1.0587388l.8114212 1.0587388h5.7209686v-.772016l.5859483.772016h5.8762007v-1.0428644l.8088222 1.0428644h6.4259751v-1.6763657l-.0611095-.079653h.8773772l1.3635135 1.7560187h9.9718685v-5.4525084l-1.7571426-2.3442148h-1.1929689v-1.054103l-1.9671624-2.74121548-.0213532-.58517569c-.023039-.44518588.1557237-.81963932.5360072-.81963932.3572444 0 .4691379.28145469.4691379.7730697v.81970956z" fill="#ff421d"/><path d="m36.4054296 6.53386482h-.4014961v-.58960086c0-.47173687.1890881-.73099548.4483467-.73099548h.5425395c.1888072 0 .3775441.18880713.3775441.42481605 0 .44806575-.5663512.89578029-.9669342.89578029zm6.5451034 3.61430808h-1.6686393c1.0031784-.5728836 1.7682406-1.72040673 1.7682406-3.273219 0-2.77127855-2.1265387-6.66612815-6.4749328-6.66612815h-7.3828648v1.28034839l-.9664424-1.28034839-28.2258943-.20882575v2.20190704l.75234868.14364233c.44715261.04762323.77672221.38274185.77672221 1.48313344v8.16099179c0 .8376912-.165136 1.507507-.61151597 1.6035963l-.91755492.14294v2.2022582l1.50547 2.0638137h6.97420408v-2.0156285h.34748099v.0171387l1.59018033 2.0680282h6.0686604l.0538044-.7064815.567475.7064815h12.8514584l.0538044-.8615028.67396.7919644h6.9532723l.0538044-1.8679825-1.6201731-2.0303791v-2.7741584h1.0800218c.1673837.4653449.2393102 2.6289005.9580838 4.1434316.8625564 1.8515461 2.3239855 2.740794 3.6655838 2.740794 1.9397685 0 3.0184557-1.1537043 2.9845295-4.2794177v-1.4189334z" fill="#ff421d" mask="url(#b)" transform="translate(55.237607 2.10633)"/><path d="m27.7071242 5.78049766-.9446679 3.44179675h1.7768803l-.7418828-3.44179675z" fill="#0061a0"/><path d="m51.1352661 11.3997577v.3615291c0 1.3326778-.415193 1.8750066-.677472 1.8750066-.218238 0-.3058985-.3390521-.3058985-.7006515v-1.5358842zm-1.5360247-8.44076074c-1.1472422 0-1.4843275.54190739-1.4843275 1.58118953v2.92608917h2.247704v1.61553725h-2.247704v3.70470789c0 .903858.3370853 1.5587125 1.4843275 1.5587125 1.5749381 0 1.9574692-1.1518781 1.9574692-2.5526894v-1.024953h1.4750558v5.057334h-8.9205753v-1.2873022l.7026182-.1130876c.5265949-.0906106.7021968-.7679421.7021968-1.8072243v-7.81582872c0-1.02052786-.2436652-1.66400337-.6523961-1.79261419l-.7524189-.97149981v-.47131543h8.8503345v4.91685251h-1.404815v-.94874182c0-1.69420689-.9002054-2.57516638-1.9574692-2.57516638zm-6.6119023 4.29655645h-1.2643335v-1.26503591c0-1.3330992-.3370854-2.80127136-1.3038088-2.80127136-.8537763 0-.9438952 1.33267775-.9438952 2.19123044v7.23683422c0 1.0392822.1815021 1.6942069.7713137 1.8072243l.703742.1130876v1.2873022h-5.2680562v-.4744762c-.0970727-.0535235-.1905632-.115827-.280963-.184382v-.6311131l.7260786-.1135793c.5673346-.1135793.7489771-.7715947.7489771-1.8157937v-7.22510402c0-.85855269-.0896272-2.19123044-.9438952-2.19123044-.9668639 0-1.3038088 1.46817216-1.3038088 2.80127136v1.26503591h-1.3345742v-5.68950076h9.6932235zm-9.4122605 8.56937149h-5.5490193v-1.2950989l.5940963-.159306c.5935343-.1818533.867403-.7725781.5023618-2.5001493l-.1600786-.6813353h-2.7628497l-.1827664.6813353c-.3428451 1.3412471 0 2.318296.502432 2.5001493l.5936749.159306v1.2950989h-4.776371v-1.2898309l.4965318-.1586738c.564244-.1810807.9478287-.8601682 1.5796442-3.1913885l2.595185-9.61897905h2.0989341l2.6628269 10.34337195c.406413 1.5843503.7899275 2.2405394 1.1737229 2.376666l.6316751.2490034zm-12.2921313-8.14884012 1.4276432 1.89741338h1.7973906l-.438232 1.62649484c-.5210459 1.897905-.928653 2.6428784-1.4950744 2.8236781l-.5893199.1807997v1.2236641l-.7024075-.9299173zm-1.3359088 6.74845032.7037421.1130876v1.2873022h-5.4787786v-1.2873022l.7260084-.1130876c.5674048-.1130174.7490474-.7679421.7490474-1.8072243v-7.23683422c0-.85855269-.0901891-2.19123044-.9439655-2.19123044-.9667936 0-1.3037385 1.46817216-1.3037385 2.80127136v1.26503591h-1.123852v-3.84532987l-.2107223-.3049151v-1.53925579h9.6932236v5.68950076h-1.3345743v-1.26503591c0-1.3330992-.3370854-2.80127136-1.3038088-2.80127136-.8537763 0-.9438952 1.33267775-.9438952 2.19123044v7.23683422c0 1.0392822.1815723 1.6942069.7713137 1.8072243zm-8.7085185-8.57379669h-1.1060811c-.15818213-.67712084-.42910071-1.30893638-.76794209-1.73775616-.40620226-.51886842-1.51256431-1.2636311-2.48322124-1.2636311-1.26440374 0-1.85161641.97058669-1.85161641 1.85063305-.0224068 1.28610813.79034892 1.69259135 2.50611972 2.18905297 2.95755702.88004636 4.26712562 2.09851266 4.26712562 4.80629353 0 2.5500905-1.7610059 4.2649482-4.06398937 4.2649482-.85763956 0-1.62516024-.2934659-2.1220433-.5412753-.51950059-.2482308-.92577309-.4517182-1.28702127-.4517182s-.60968971.4517182-.81275572.8576395h-1.12890933v-4.9168525h1.12890933c.11287689.607442.33884138 1.1026393.69966812 1.6655487.56459514.9006269 1.69350448 1.6435633 3.22896728 1.6435633.94810965 0 1.64805872-.8104378 1.64805872-1.7110647 0-1.2830175-1.19662142-1.8233796-1.94180554-2.1385499l-1.76100584-.72017837c-2.03178394-.85553233-2.84446942-2.11607284-2.84446942-4.3671484 0-2.38614852 1.82857745-3.87195111 4.06356788-3.87195111.70015979 0 1.44492247.13493248 1.87395297.2699352.36138866.11266617.69980859.22533233 1.03872021.22533233.27070785 0 .45150755-.18009728.60968968-.3375068h1.1060811zm41.4648709 2.9501115h2.3653572v-5.34574253l-1.7667656-2.31049924h-9.6122359v.33968427l-.2719019-.33968427h-10.5451736v6.46615274l2.1047641 1.89249653h1.5477549v2.93781939c0 .7911918-.138304 1.4238502-.5991536 1.5140394l-.8759022.1355646v.6313941c-.3951744-.4991308-.6800007-1.1333345-.8184452-1.6231232l-2.4327181-9.31041148-2.5460165-2.64393208h-2.5070329l-1.880696 6.97982335v-4.7661861l-1.676436-2.21363725h-10.5454546v1.39975767l-1.0406167-1.39975767h-1.6742585c-.11329833.15776073-.2714805.33799849-.52034348.33799849-.22638594 0-.54317172-.1127364-.99552215-.22533232-.45235043-.11266617-1.08585176-.20250409-1.74218133-.20250409-2.51152826 0-4.61537921 1.59839852-4.61537921 4.34544401 0 3.06242647 1.94580926 4.97648687 3.52945721 5.85456657.90484135.4954782 2.78265756.9005566 2.78265756 1.7336119 0 .5856674-.65590812.8557431-1.13122728.8557431-.85939558 0-1.56110067-.5405728-1.9906931-1.080654-.36202083-.4279769-.97297487-1.3959646-1.35761322-2.2066131h-1.99111455v5.6086536l1.52295995 1.9773474h1.97699615c.13619682-.2499166.34066764-.86361.65885824-.86361.29550284 0 .68182696.2043303 1.04553357.4543874.45438741.3181203 1.36323248.5456301 2.31766379.5456301 2.27256925 0 4.45431715-1.9090031 4.45431715-4.772578 0-3.4313309-1.863768-5.54459408-5.06758914-6.65833142-1.5225385-.5224507-1.72736053-.90877483-1.72736053-1.49999122 0-.68133528.38667533-1.15876165 1.2043479-1.15876165.9318138 0 1.31806768.99994731 1.49992098 1.99996487l2.04519989 1.90886263h1.2700933l1.6073191 1.47505575h1.5208527v3.04451504c0 .8198501-.1381636 1.4755475-.5990834 1.5690379l-.8759724.1404815v1.9175023l1.4514549 1.8978348h6.4857499v-1.0842362l.816338 1.0842362h5.7160518v-.7907704l.5898116.7907704h5.8723374v-1.0675892l.8162677 1.0675892h6.4887703v-1.7185804l-1.4750557-1.9216465v-6.8282438l1.4521572 1.89909916h2.2003618v2.93669554c0 .7908406-.1590953 1.4232883-.5899521 1.5134774l-.8851037.1354944v2.0905755l1.4478726 1.8931287h9.9311289v-5.4530002l-1.7645881-2.3437231h-1.1152826v-1.05375172l-1.9671625-2.73995118-.0225473-.58545665c-.0222663-.4450454.1567774-.81942859.5367096-.81942859.3578064 0 .4696297.28089276.4696297.77236728v.81992028z" fill="#0061a0"/><path d="m10.13246 5.85073841c-.15818216-.67712084-.42910074-1.30893638-.76794211-1.73775616-.40620226-.51886842-1.51256432-1.2636311-2.48329149-1.2636311-1.2643335 0-1.85154617.97058669-1.85154617 1.85063305-.0224068 1.28610813.79034892 1.69259135 2.50611972 2.18905297 2.95755705.87997612 4.26712555 2.09851266 4.26712555 4.80629353 0 2.5500905-1.7610058 4.2649482-4.0639893 4.2649482-.8577098 0-1.62516023-.2934659-2.1220433-.5412753-.51950059-.2482308-.92577309-.4517182-1.28702126-.4517182-.36124818 0-.60975996.4517182-.81275573.8576395h-1.12890933v-4.9168525h1.12890933c.11287689.607442.33884138 1.1026393.69966812 1.6655487.56459515.9006269 1.69350448 1.6435633 3.22889704 1.6435633.94817989 0 1.64812896-.8104378 1.64812896-1.7110647 0-1.2830175-1.19669166-1.8233796-1.94180553-2.1385499l-1.76100585-.72017837c-2.03185418-.85553233-2.84453966-2.11607284-2.84453966-4.3671484 0-2.38614852 1.82864769-3.87195111 4.06363812-3.87195111.7001598 0 1.44492247.13493248 1.87388273.2699352.3614589.11273641.69987884.22533233 1.03879046.22533233.27070785 0 .45150754-.18009728.6096897-.3375068h1.1060811v4.28468576z" fill="#62b5e5"/><path d="m4.29874093 14.826846c.36511142 0 .75642264.1874023 1.25147945.4244649l.07621121.0366656c.48599575.243033 1.23939804.5317928 2.07589513.5317928 2.29406291 0 3.95926038-1.7523663 3.95926038-4.1666813 0-2.52473357-1.1356525-3.80178064-4.19000124-4.71196028-1.56974028-.45516007-2.59729222-.85981703-2.57228651-2.28507209 0-.96672344.66848122-1.94721408 1.94672239-1.94721408 1.00479393 0 2.13012099.75550951 2.55669306 1.30113966.32718142.41463115.5984512 1.01631341.766748 1.7002476h.9285828v-4.00372276h-.9655996c-.1593763.15783097-.35647185.33757704-.64916505.33757704-.33322212 0-.65822607-.10149788-1.00226527-.20938767l-.0641298-.02022934c-.41968849-.13191213-1.1515971-.26565051-1.84157199-.26565051-2.33086906 0-3.95890916 1.55203961-3.95890916 3.77396526 0 2.20506787.80545068 3.4437635 2.78005865 4.27695928l1.75735333.71968669c.69952763.2962053 1.99926247.8468928 1.99926247 2.2292307 0 .9977699-.782201 1.809191-1.7435159 1.809191-1.40867825 0-2.64505593-.6317453-3.30714524-1.6897115-.37276766-.5825767-.58419232-1.0722953-.69608584-1.6196112h-.94789892v4.6358895h.96812826c.22378703-.4420952.47869071-.8575693.87217939-.8575693m3.40660615 1.2036455c-.87758794 0-1.66407362-.2999982-2.16931533-.5516006l-.07473616-.0358228c-.47426554-.2262454-.84871898-.4054998-1.17035138-.4054998-.29845295 0-.53123079.4146311-.72593815.8032029l-.02725341.0543664h-1.29004162v-5.057334h1.31111384l.015172.0800744c.10276222.5537079.3083569 1.0417406.68660334 1.6307093.62851423 1.0012819 1.80617065 1.5986092 3.15107029 1.5986092.8554621 0 1.55203962-.7236904 1.55203962-1.6132193 0-1.2523926-1.2260523-1.7700669-1.88455933-2.0482203l-1.76297259-.71975694c-2.067396-.86894832-2.9099338-2.16032451-2.9099338-4.45789945 0-2.30073577 1.75292816-3.97007744 4.16850756-3.97007744.71329482 0 1.47175444.13760163 1.90661492.27429013l.06427029.02022934c.33048273.10311342.64228142.2008183.94628339.2008183.22975749 0 .38786942-.15698807.54022164-.30835689l.0289392-.02837726.0415122-.00084289h1.2061742v4.42516726h-1.2843521l-.0177007-.07578977c-.16113227-.68737598-.42755543-1.29130595-.75059264-1.69891302-.39306724-.50172968-1.47744394-1.22654398-2.40981966-1.22654398-1.20617416 0-1.75608899.90842362-1.75608899 1.75229599-.02058054 1.19079144.70233726 1.59249829 2.43932077 2.09464941 3.16729592.94080461 4.34453092 2.26898695 4.34453092 4.90062691 0 2.5285265-1.752858 4.3632149-4.16871832 4.3632149" fill="#000"/><path d="m13.0647795 1.56605265h9.6932236v5.68950076h-1.3345743v-1.26503591c0-1.3330992-.3370854-2.80127136-1.3038088-2.80127136-.8537763 0-.9438952 1.33267775-.9438952 2.19130068v7.23676398c0 1.0392822.1815723 1.6942069.7713137 1.8072243l.7037421.1130876v1.2873022h-5.4787786v-1.2873022l.7260084-.1130876c.5674048-.1130174.7490474-.7679421.7490474-1.8072243v-7.23676398c0-.85862293-.0901891-2.19130068-.9439655-2.19130068-.9667936 0-1.3037385 1.46817216-1.3037385 2.80127136v1.26503591h-1.3345743z" fill="#62b5e5"/><path d="m15.3124835 15.6844434h5.1978155v-1.1049572l-.6204365-.0995312c-.7578977-.1454685-.8546192-1.0942104-.8546192-1.9047886v-7.16645303c0-.56649166 0-2.28963774 1.048273-2.28963774 1.0399845 0 1.4101533 1.497884 1.4101533 2.89967865v1.16655838h1.123852v-5.47877851h-9.4825013v5.47877851h1.1940927v-1.16655838c0-1.40179465.3700985-2.89967865 1.4101533-2.89967865 1.048273 0 1.048273 1.72314608 1.048273 2.28963774v7.16645303c0 .8093841-.0941226 1.7576343-.8283492 1.9038053l-.6467066.1005145zm5.4085378.2107223h-5.61926v-1.4702794l.8096651-.1260119c.4585316-.0915237.6653906-.619102.6653906-1.7097301v-7.16638278c0-1.40825681-.2749223-2.09296364-.8399389-2.09296364-.8834881 0-1.1970428 1.45616099-1.1970428 2.70293431v1.36330272h-1.6155373v-5.90022301h9.9039458v5.90022301h-1.5452965v-1.36330272c0-1.24677332-.3135547-2.70293431-1.1970429-2.70293431-.5649463 0-.8399389.68470683-.8399389 2.09296364v7.16638278c0 1.1061513.2067186 1.6174337.6912393 1.7106432l.7838165.1255202z" fill="#000"/><path d="m28.5393296 9.22229441-.7418829-3.44179675h-.0903296l-.9446678 3.44179675zm-2.3397194 1.96674099-.1827665.6813353c-.3428451 1.3412471 0 2.318296.5024321 2.5001493l.5936748.159306v1.2950989h-4.776371v-1.2898309l.4965319-.1586738c.5641737-.1810807.9477584-.8601682 1.5796442-3.1914587l2.595185-9.61890885h2.0989341l2.6627566 10.34337195c.4064832 1.5843503.7899977 2.2405394 1.1737229 2.376666l.6317454.2490034v1.2898309h-5.5490193v-1.2950989l.5940963-.159306c.5934641-.1818533.867403-.7725781.5023618-2.5001493l-.1600787-.6813353z" fill="#62b5e5"/><path d="m26.8880679 9.08181291h1.5329341l-.6743815-3.12824205zm1.7769505.21072225h-2.0357175l1.0029677-3.652519h.24507zm-.4984987 6.46207874h5.3382971v-1.1227281l-.5691608-.2242085c-.4531934-.161062-.8453475-.9370818-1.2309692-2.4416387l-2.64042-10.25950445h-1.9448259l-2.5718651 9.53693785c-.6134125 2.2629462-1.0124502 3.0540678-1.6426502 3.2567124l-.4279066.1364075v1.118022h4.5656487v-1.1201994l-.5253305-.1392875c-.569512-.2036279-.9366604-1.2379229-.579135-2.6202609l.2048923-.7560714h2.9490579l.1798865.7578274c.343688 1.608443.1713172 2.3905737-.5761146 2.6172406l-.5294046.1405518zm5.5490193.2107925h-5.7597415v-1.4700686l.6565403-.1793247c.4248863-.1324038.8103675-.519922.4232707-2.3836901l-.1389362-.6028061h-2.5634361l-.1603597.6080742c-.3155917 1.2556236-.0214936 2.2139182.4326128 2.3810912l.6479007.1766555v1.4700686h-4.9870933v-1.4620612l.5657893-.1807997c.4746167-.1522819.8574991-.6958048 1.5164275-3.1261348l2.6177323-9.7005988h2.2534638l2.6850931 10.4270989c.3590005 1.3983528.733173 2.1755667 1.1125433 2.3104992l.698193.2747116z" fill="#000"/><path d="m33.2941156 1.56605265h9.6932235v5.68950076h-1.2643335v-1.26503591c0-1.3330992-.3370854-2.80127136-1.3038088-2.80127136-.8537763 0-.9438952 1.33267775-.9438952 2.19130068v7.23676398c0 1.0392822.1814319 1.6942069.7713137 1.8072243l.703742.1130876v1.2873022h-5.5490192v-1.2873022l.7260084-.1130876c.5674048-.1130174.7490473-.7679421.7490473-1.8072243v-7.23676398c0-.85862293-.0896272-2.19130068-.9438952-2.19130068-.9667936 0-1.3038088 1.46817216-1.3038088 2.80127136v1.26503591h-1.3345742z" fill="#62b5e5"/><path d="m35.5418196 15.6844434h5.2680562v-1.1049572l-.6205067-.0995312c-.7578977-.1454685-.854549-1.0942104-.854549-1.9047886v-7.16645303c0-.56649166 0-2.28963774 1.0481325-2.28963774 1.0400548 0 1.4102938 1.497884 1.4102938 2.89967865v1.16655838h1.0536112v-5.47877851h-9.4825013v5.47877851h1.1940928v-1.16655838c0-1.40179465.3701687-2.89967865 1.4102235-2.89967865 1.0482027 0 1.0482027 1.72314608 1.0482027 2.28963774v7.16645303c0 .8093841-.0941226 1.7576343-.8283491 1.9038053l-.6467066.1005145zm5.4787785.2107223h-5.6895008v-1.4702794l.8097354-.1260119c.4584614-.0915237.6653204-.619102.6653204-1.7097301v-7.16638278c0-1.40825681-.2748521-2.09296364-.8398687-2.09296364-.8834179 0-1.1971131 1.45616099-1.1971131 2.70293431v1.36330272h-1.6155372v-5.90022301h9.9039458v5.90022301h-1.4750558v-1.36330272c0-1.24677332-.3136249-2.70293431-1.1970429-2.70293431-.5650166 0-.8399389.68470683-.8399389 2.09296364v7.16638278c0 1.1061513.2066483 1.6174337.6910988 1.7106432l.783957.1255202z" fill="#000"/><path d="m48.1149139 9.08181291v3.73266369c0 .900065.3370853 1.5522504 1.4843977 1.5522504 1.5749381 0 1.957399-1.1470315 1.957399-2.542083v-1.0570531h1.4750558v5.057334h-8.9205753v-1.2873022l.7026182-.1130876c.5265949-.0906106.7021968-.7679421.7021968-1.8072243v-7.81582872c0-1.06168894-.2631921-1.71703514-.7021968-1.80722426l-.7026182-.11301737v-1.3151878h8.8503345v4.91685251h-1.404815v-.94874182c0-1.69420689-.9002054-2.57516638-1.957399-2.57516638-1.1473124 0-1.4843977.54190739-1.4843977 1.58118953v2.92608917h2.247704v1.61553725z" fill="#62b5e5"/><path d="m44.1814319 15.754628h8.709853v-4.9167823h-1.1940928v1.0082357c0 1.1381109-.2177463 2.6511669-2.103289 2.6511669-1.089996 0-1.6194707-.5419074-1.6194707-1.65719v-3.82847209h2.247704v-1.404815h-2.1774633v-3.03517306c0-1.19289866.4603579-1.67952657 1.588916-1.67952657 1.0270603 0 2.063603.82666338 2.063603 2.67357367v.91727396h1.2643335v-4.77637102h-8.7800937v1.10551917l.6528175.10023355c.5241365.10276222.8222382.79723252.8222382 1.90661492v7.82341477c0 .7604263-.0849913 1.7856603-.8209036 1.9061232l-.6541521.1005848zm8.9205752.1405517h-9.1312975v-1.4702794l.8227299-.1260119c.4446942-.0729801.6523259-.6161518.6523259-1.7097301v-7.81582871c0-.99053506-.2456319-1.6304283-.6567511-1.71064323l-.8183047-.12509878v-1.44176164h9.0610568v5.12757477h-1.5452965v-1.04714911c0-1.71057299-.9298471-2.47682933-1.850914-2.47682933-1.0060583 0-1.3801605.40212829-1.3801605 1.48285248v2.88401496h2.1774632v1.75601875h-2.1774632v3.60630064c0 1.0099917.4259399 1.4603052 1.3801605 1.4603052 1.2799972 0 1.850914-.7570549 1.850914-2.4542821v-1.2075087h1.6155372z" fill="#000"/><path d="m17.8664442 7.22350256c-.3991079 0-.722707-.32402059-.722707-.72263684 0-.39910795.3235991-.72312853.722707-.72312853.399108 0 .7231286.32402058.7231286.72312853 0 .39861625-.3240206.72263684-.7231286.72263684" fill="#f1eb9c"/><path d="m17.8664442 5.85414508c-.3563313 0-.6462851.29030502-.6462851.64670659 0 .35633132.2899538.64628514.6462851.64628514.3564016 0 .6467066-.28995382.6467066-.64628514 0-.35640157-.290305-.64670659-.6467066-.64670659m0 1.44569512c-.4404797 0-.7989885-.35850879-.7989885-.79898853 0-.44090119.3585088-.79948022.7989885-.79948022.4409715 0 .79941.35857903.79941.79948022 0 .44047974-.3584385.79898853-.79941.79898853" fill="#ff9425"/><path d="m17.8664442 5.12973115c-.3991079 0-.722707-.32310745-.722707-.72221539 0-.39952939.3235991-.72354997.722707-.72354997.399108 0 .7231286.32402058.7231286.72354997 0 .39910794-.3240206.72221539-.7231286.72221539" fill="#f1eb9c"/><path d="m17.8664442 3.76041583c-.3563313 0-.6462851.29030502-.6462851.64712803 0 .35590988.2899538.64579345.6462851.64579345.3564016 0 .6467066-.28988357.6467066-.64579345 0-.35682301-.290305-.64712803-.6467066-.64712803m0 1.44569512c-.4404797 0-.7989885-.35808735-.7989885-.79856709 0-.44132264.3585088-.79990167.7989885-.79990167.4409715 0 .79941.35857903.79941.79990167 0 .44047974-.3584385.79856709-.79941.79856709" fill="#ff9425"/><path d="m17.8664442 13.5033768c-.3991079 0-.722707-.3235991-.722707-.7227071 0-.3998103.3235991-.722988.722707-.722988.399108 0 .7231286.3231777.7231286.722988 0 .399108-.3240206.7227071-.7231286.7227071" fill="#f1eb9c"/><path d="m17.8664442 12.1340264c-.3563313 0-.6462851.2903752-.6462851.6466363 0 .3564016.2899538.6463554.6462851.6463554.3564016 0 .6467066-.2899538.6467066-.6463554 0-.3562611-.290305-.6466363-.6467066-.6466363m0 1.4456951c-.4404797 0-.7989885-.3585088-.7989885-.7990588 0-.4409012.3585088-.79941.7989885-.79941.4409715 0 .79941.3585088.79941.79941 0 .44055-.3584385.7990588-.79941.7990588" fill="#ff9425"/><path d="m17.8664442 11.4096476c-.3991079 0-.722707-.3231075-.722707-.7222857 0-.3994591.3235991-.72340945.722707-.72340945.399108 0 .7231286.32395035.7231286.72340945 0 .3991782-.3240206.7222857-.7231286.7222857" fill="#f1eb9c"/><path d="m17.8664442 10.0402901c-.3563313 0-.6462851.2903753-.6462851.6470578 0 .3559801.2899538.6460042.6462851.6460042.3564016 0 .6467066-.2900241.6467066-.6460042 0-.3566825-.290305-.6470578-.6467066-.6470578m0 1.4456951c-.4404797 0-.7989885-.3580171-.7989885-.7986373 0-.4413226.3585088-.7997612.7989885-.7997612.4409715 0 .79941.3584386.79941.7997612 0 .4406202-.3584385.7986373-.79941.7986373" fill="#ff9425"/><path d="m17.8664442 9.31723884c-.3991079 0-.722707-.32444203-.722707-.72354997 0-.39896746.3235991-.72305828.722707-.72305828.399108 0 .7231286.32409082.7231286.72305828 0 .39910794-.3240206.72354997-.7231286.72354997" fill="#f1eb9c"/><path d="m17.8664442 7.94695419c-.3563313 0-.6462851.2904455-.6462851.64670658 0 .35689325.2899538.64712803.6462851.64712803.3564016 0 .6467066-.29023478.6467066-.64712803 0-.35626108-.290305-.64670658-.6467066-.64670658m0 1.446538c-.4404797 0-.7989885-.35850878-.7989885-.79983142 0-.44090119.3585088-.79940998.7989885-.79940998.4409715 0 .79941.35850879.79941.79940998 0 .44132264-.3584385.79983142-.79941.79983142" fill="#ff9425"/><path d="m38.1894393 7.22350256c-.3995996 0-.7231285-.32402059-.7231285-.72263684 0-.39910795.3235289-.72312853.7231285-.72312853.3989675 0 .722988.32402058.722988.72312853 0 .39861625-.3240205.72263684-.722988.72263684" fill="#f1eb9c"/><path d="m38.1894393 5.85414508c-.3564016 0-.6467768.29030502-.6467768.64670659 0 .35633132.2903752.64628514.6467768.64628514.3563313 0 .6466363-.28995382.6466363-.64628514 0-.35640157-.290305-.64670659-.6466363-.64670659m0 1.44569512c-.4409012 0-.7994802-.35850879-.7994802-.79898853 0-.44090119.358579-.79948022.7994802-.79948022s.79941.35857903.79941.79948022c0 .44047974-.3585088.79898853-.79941.79898853" fill="#ff9425"/><path d="m38.1894393 5.12973115c-.3995996 0-.7231285-.32310745-.7231285-.72221539 0-.39952939.3235289-.72354997.7231285-.72354997.3989675 0 .722988.32402058.722988.72354997 0 .39910794-.3240205.72221539-.722988.72221539" fill="#f1eb9c"/><path d="m38.1894393 3.76041583c-.3564016 0-.6467768.29030502-.6467768.64712803 0 .35590988.2903752.64579345.6467768.64579345.3563313 0 .6466363-.28988357.6466363-.64579345 0-.35682301-.290305-.64712803-.6466363-.64712803m0 1.44569512c-.4409012 0-.7994802-.35808735-.7994802-.79856709 0-.44132264.358579-.79990167.7994802-.79990167s.79941.35857903.79941.79990167c0 .44047974-.3585088.79856709-.79941.79856709" fill="#ff9425"/><path d="m38.1894393 13.5033768c-.3995996 0-.7231285-.3235991-.7231285-.7227071 0-.3998103.3235289-.722988.7231285-.722988.3989675 0 .722988.3231777.722988.722988 0 .399108-.3240205.7227071-.722988.7227071" fill="#f1eb9c"/><path d="m38.1894393 12.1340264c-.3564016 0-.6467768.2903752-.6467768.6466363 0 .3564016.2903752.6463554.6467768.6463554.3563313 0 .6466363-.2899538.6466363-.6463554 0-.3562611-.290305-.6466363-.6466363-.6466363m0 1.4456951c-.4409012 0-.7994802-.3585088-.7994802-.7990588 0-.4409012.358579-.79941.7994802-.79941s.79941.3585088.79941.79941c0 .44055-.3585088.7990588-.79941.7990588" fill="#ff9425"/><path d="m38.1894393 11.4096476c-.3995996 0-.7231285-.3231075-.7231285-.7222857 0-.3994591.3235289-.72340945.7231285-.72340945.3989675 0 .722988.32395035.722988.72340945 0 .3991782-.3240205.7222857-.722988.7222857" fill="#f1eb9c"/><path d="m38.1894393 10.0402901c-.3564016 0-.6467768.2903753-.6467768.6470578 0 .3559801.2903752.6460042.6467768.6460042.3563313 0 .6466363-.2900241.6466363-.6460042 0-.3566825-.290305-.6470578-.6466363-.6470578m0 1.4456951c-.4409012 0-.7994802-.3580171-.7994802-.7986373 0-.4413226.358579-.7997612.7994802-.7997612s.79941.3584386.79941.7997612c0 .4406202-.3585088.7986373-.79941.7986373" fill="#ff9425"/><path d="m38.1894393 9.31723884c-.3995996 0-.7231285-.32444203-.7231285-.72354997 0-.39896746.3235289-.72305828.7231285-.72305828.3989675 0 .722988.32409082.722988.72305828 0 .39910794-.3240205.72354997-.722988.72354997" fill="#f1eb9c"/><path d="m38.1894393 7.94695419c-.3564016 0-.6467768.2904455-.6467768.64670658 0 .35689325.2903752.64712803.6467768.64712803.3563313 0 .6466363-.29023478.6466363-.64712803 0-.35626108-.290305-.64670658-.6466363-.64670658m0 1.446538c-.4409012 0-.7994802-.35850878-.7994802-.79983142 0-.44090119.358579-.79940998.7994802-.79940998s.79941.35850879.79941.79940998c0 .44132264-.3585088.79983142-.79941.79983142" fill="#ff9425"/><g fill="#006845"><path d="m96.5043778 12.0638418c.0311868 3.1675769-.8312291 3.9880591-2.1714928 3.9880591-1.6354154 0-2.2937117-.8665601-2.6115511-3.6461974-.1367588-1.3220011-1.5450156-2.76439491-1.5450156-2.76439491h-2.0474476v2.96296551c0 1.0325391.2469665 1.7513829 1.0545244 1.8405184l.5159183.0670097v1.2802782h-5.5618733v-1.2828771l.719476-.1118935c.5400811-.1128769.7201082-.7649218.7201082-1.7994978v-7.76813528c0-1.01476812-.2593289-1.64159658-.6915905-1.72806294l-.3553479-.05541995v-.23621964l-.3271814-.31313327v-.77292921h6.3133791c2.8783254 0 4.2273693 1.43937345 4.2273693 3.75640508 0 1.79942753-.7871179 2.81166698-1.6418073 3.28361458v.04551601c.7649217.56213672 1.057053 1.41703692 1.1692275 2.65418722.1128769 1.2815425.2025041 1.888844.5625582 1.888844.337577 0 .4274852-.7424447.4274852-1.2367289v-1.1003213h1.2432613zm-13.4138059-4.98498602c0-1.19556781.3545051-1.66028061.7529809-1.70488349l.6865331-.1104887v-1.73459533c.3785976.05380442.6542926.35471579.6542926 1.28533549v7.73505185c0 .7749662-.1549511 1.3944897-.5755527 1.4838359l-.8639613.1328955v1.2408028l-.6542926-.8552513zm-.6543628 8.77868892h-4.1877535v-.438232c-.2914289-.2061566-.5446468-.5360072-.7512951-.9016103l.3118689-.0549282c.4765133-.1129472.6357491-.7649218.6357491-1.7995681v-7.74544748c0-1.05677209-.2703567-1.70944914-.7201784-1.79949778l-.7193356-.11217448v-1.28217465h5.4309446v1.28217465l-.7195462.11217448c-.450173.09004864-.7199677.74272569-.7199677 1.79949778v7.74544748c0 1.0346463.1769364 1.6866209.7309955 1.7995681l.7085184.1118935zm-14.1990272-7.32856863v-1.71408503l1.4002494-5.15644371h2.1037807l2.669289 10.30052507c.4070451 1.5777477.791543 2.2310569 1.1759706 2.3666918l.6335716.2477391v1.2841414h-5.5618733v-1.2792947l.5958523-.1575501c.5964142-.179746.8712662-.7635169.5043988-2.4692433l-.1608513-.6743112h-2.7725429l-.1827665.6743112c-.3442499 1.3241084 0 2.2894973.5040477 2.4692433l.595782.1575501v1.2792947h-4.7765817v-1.2805591l.4957592-.1576905c.563682-.1799568.9472668-.8535656 1.5783799-3.1684197l.7034611-2.59104082h.4940734zm-2.0284826-2.09387677h-1.701231v-.94487857c0-1.75447346-1.3239679-2.56427906-2.3791946-2.56427906-1.1442219 0-1.4813775.67480288-1.4813775 1.57472737v2.85051013h2.2247353v1.57037245h-2.2247353v3.48288758c0 1.0337331.2069995 1.5508455.9886386 1.7532091l.7125924.1574096v1.2806996h-5.6926616v-1.2818937l.7200379-.1128769c.539449-.1122447.719476-.7647813.719476-1.7994978v-7.78267512c0-1.05677208-.2700054-1.70944913-.719476-1.79942753l-.7200379-.11189352v-1.17990412h9.5532337zm30.4584263 4.1877535h-1.5404499c.9441761-.5400811 1.6643546-1.61925999 1.6643546-3.08146168 0-2.60895219-2.0019317-6.27551934-6.0954923-6.27551934h-6.9506735v.81472246l-.909407-.81472246h-6.2228387v2.06943298l.7085886.1351432c.4209529.04474336.7309253.35970288.7309253 1.39434913v7.67155421s-.1371802 1.4168262-.5644547 1.5075773l-.3395438.0522591c-.1586036-.3111665-.2788557-.6254237-.3548562-.8952184l-2.4067291-9.26742407-2.5189738-2.66767345h-2.5644195l-1.0659737 4.04776371v-2.03838657l-1.6760847-2.27109418h-10.2982774v2.07933693l.7090804.13493248c.4202504.045516.7305038.36166962.7305038 1.401022v7.70590195c0 .7899275-.1550916 1.4232181-.5754825 1.5132668l-.8641017.1356348v2.0787048l1.4170369 1.8983968h6.5658946v-2.0230741l-1.5049783-1.9765045v-2.6746273l2.2901294-.0220556v-1.84171245l-2.3595273-2.86273201-.0222663-.51015857c-.0233199-.73233006.2517429-1.19858816.7785485-1.19858816.4125239 0 .6871653.42221715.6871653 1.19858816v.82125485l1.4428854 1.86355734h1.7803923l-.6962965 2.59026814c-.5171827 1.8872987-.9217694 2.6281279-1.4843276 2.8076633l-.5846137.1798865v1.8430471l1.5517586 2.0669745h5.7113457v-.7864856l.5852459.7864856h5.8272429v-.0654643h6.2816303v-.9088451l.660544.9088451h6.5370959v-1.9115318l-1.5703725-1.9123747v-2.6539765h1.0585281c.1574798.4457478.2251919 2.4523153.9009079 3.8562172.8111402 1.716403 2.18526 2.5399055 3.4468541 2.5399055 1.824082 0 2.8382882-1.0696261 2.8382882-3.9671273v-1.3142044z"/><path d="m90.6001932 7.15487032h-.3774036v-.55483169c0-.44413226.1775686-.68842959.4214445-.68842959h.5103693c.1774984 0 .3552075.17777934.3552075.39945915 0 .4214445-.5328464.84380213-.9096177.84380213m-.1018491-3.5333907h-1.6021213c-.4738441 0-.76731.27021617-.76731 1.3539607v2.57200555h2.3694313c.7444114 0 1.5346199-.69952763 1.5346199-1.91806416 0-1.42125134-.7902085-2.00790209-1.5346199-2.00790209"/><path d="m70.2932341 5.84620085-.9521134 3.46799656h1.790507l-.7477831-3.46799656z"/></g><path d="m64.5074473 5.56037017c0-1.75482466-1.3242489-2.56427907-2.3794054-2.56427907-1.1445731 0-1.4811667.67445169-1.4811667 1.57472738v2.85058036h2.2247352v1.63583684h-2.2247352v3.48316852c0 1.0334522.2070697 1.5508456.9882873 1.7529282l.7130139.1577607v1.2803484h-5.6927319v-1.2814722l.7192653-.112315c.5401514-.1127364.7202487-.7656944.7202487-1.7999192v-7.78274537c0-1.05719353-.2697948-1.70909794-.7202487-1.79949778l-.7192653-.11259592v-1.24508754h9.4878396v4.90751049h-1.6358368z" fill="#93c911"/><path d="m56.7863101 15.5957785h5.4309445v-1.1047465l-.6344847-.1407625c-.8925492-.2308813-1.0667462-.8532143-1.0667462-1.8500008v-3.57869601h2.2247353v-1.43951393h-2.2247353v-3.02245948c0-1.12560802.5165504-1.67306443 1.579293-1.67306443 1.2011871 0 2.477602.93335909 2.477602 2.66261611v.8551109h1.4395139v-4.71125784h-9.2261225v1.10207737l.6361705.09988235c.5121253.10276222.8033434.79533601.8033434 1.90036349v7.79861977c0 .8068555-.0909618 1.7518746-.7983564 1.8999421l-.6411575.1004442zm5.6272674.1963229h-5.8889845v-1.4638172l.8023601-.1250988c.4392154-.0920154.6371539-.6176971.6371539-1.7031275v-7.78274531c0-.98603965-.2396615-1.62284229-.6411576-1.70319771l-.7983564-.12467733v-1.49268618h9.7495566v5.10376314h-1.8321597v-1.04328586c0-1.60191055-1.1752682-2.46594202-2.2812088-2.46594202-.943825 0-1.3830404.46892725-1.3830404 1.47639033v2.88352328h2.1593411v1.76669535h-2.2247352v3.38490171c0 1.0630938.2303194 1.4814477.9134809 1.6579627l.78775.1743375z" fill="#000"/><path d="m71.0980034 9.31416932-.7478533-3.46799656h-.090751l-.9519027 3.46799656zm-2.33698 1.96301828-.1833284.6733278c-.3432665 1.3250917 0 2.2897782.5033453 2.4695243l.5956415.157269v1.2802079h-4.7111876v-1.2850545l.4942139-.157831c.5619963-.1803782.9434738-.8561645 1.5729012-3.1771998l2.583244-9.57894183h2.0895921l2.6513776 10.29982263c.4043058 1.5773965.7864154 2.230776 1.1683846 2.3665514l.6293572.2475986v1.2850545h-5.5618031v-1.2802079l.5952201-.157269c.5954308-.1797461.8699317-.7628146.5033452-2.4695243l-.1602191-.6733278z" fill="#93c911"/><path d="m69.4431805 9.18330377h1.526472l-.6715718-3.11370221zm1.7767398.1963229h-2.0416879l1.0059178-3.66431945h.2456319zm-.4963212 6.41241853h5.3001563v-1.1195673l-.5669833-.2231548c-.45221-.1605704-.8433105-.9343425-1.2275274-2.4336313l-2.6324828-10.22635083h-1.9385745l-2.5637171 9.50652363c-.6188913 2.2832458-1.0017033 3.0413542-1.6377333 3.2454036l-.4257995.1361266v1.1146504h4.5803291v-1.1070644l-.5197815-.1378124c-.5623475-.2008885-.9250005-1.2223998-.5721109-2.5882311l.2024338-.7472211h2.916115l.17799.7493283c.3401058 1.5887755.169491 2.361494-.569512 2.5851405l-.5228019.1387958zm5.496409.1963229h-5.6926616v-1.4533513l.6730468-.176796c.4359844-.1311395.8311588-.5141623.4338772-2.3548914l-.1425888-.5952903h-2.6280576l-.1642931.6002072c-.3231777 1.2406623-.0217747 2.1874374.4429381 2.3522924l.6652502.1744781v1.4533513h-4.9729047v-1.4553883l.5626987-.1797461c.472369-.1516498.852512-.6915904 1.5080689-3.1089961l2.6027008-9.65121953h2.2408204l.0188245.07389327 2.6513073 10.29954166c.3566826 1.3906966.7286073 2.1638366 1.1060811 2.2979262l.6948918.2735174z" fill="#000"/><path d="m78.4447644 4.8590514c0-1.05930075-.2697245-1.71296118-.7194057-1.8031503l-.7201082-.1127364v-1.28470332h5.3655504v1.28386043l-.7203189.1127364c-.449892.09004864-.7192653.74328762-.7192653 1.80195621v7.80227228c0 1.0360511.1765151 1.6889388.7307146 1.8019562l.7088696.1121042v1.2841414h-5.3655504v-1.2849842l.7201082-.1121043c.5396597-.1131578.7194057-.766467.7194057-1.8031503z" fill="#93c911"/><path d="m77.0706587 15.7920733h5.300086v-1.1001808l-.6270391-.0989693c-.7205999-.1465222-.8124748-1.0904876-.8124748-1.8963597v-7.81126313c0-1.10320123.2777319-1.79422973.7621121-1.89586809l.6120077-.10030379v-1.09982967h-5.2346919v1.10214761l.6369431.09981211c.5113527.10248125.8025708.79491457.8025708 1.90036349v7.79854957c0 .8065745-.0906808 1.7515233-.7975135 1.8993098l-.6420004.1001634zm5.4309445.1963229h-5.6272674v-1.4678209l.803203-.1249583c.4387939-.0922261.6363812-.6184698.6363812-1.7057966v-7.79777692c0-.98828736-.23924-1.62635433-.6403147-1.70649903l-.7992695-.12509877v-1.46739951h5.6272674v1.46592445l-.8033434.12559046c-.3968603.07944229-.6361705.71673662-.6361705 1.7040406v7.80459022c0 1.0869054.2013802 1.6125872.6528175 1.704743l.7866964.1241857z" fill="#000"/><path d="m88.9615678 3.55602929c-.4734227 0-.7672397.27070785-.7672397 1.35438215v2.57165434h2.368799c.7446222 0 1.5345497-.69924667 1.5345497-1.91771296 0-1.42167278-.7899275-2.00832353-1.5345497-2.00832353zm-.7672397 6.01984301v3.022319c0 1.0352784.2468962 1.7546139 1.0551565 1.8442411l.5152862.06708v1.2825961h-5.5618734v-1.2851248l.7196868-.112034c.5398704-.1124555.7198272-.7657647.7198272-1.8030801v-7.79819829c0-1.05958172-.269865-1.71296118-.7198272-1.80308006l-.7196868-.11245544v-1.28512476h6.3770875c2.8791683 0 4.229336 1.43944369 4.229336 3.75633483 0 1.79928706-.7873988 2.81138603-1.642018 3.28361459v.04509456c.7645706.56185576 1.0567721 1.41731787 1.1694383 2.65411697.1127364 1.2818235.202785 1.8890548.5626284 1.8890548.337577 0 .4272042-.7415316.4272042-1.2370801v-1.0341546h1.2432613v1.0526279c0 3.1826786-.8513881 4.0066026-2.1723357 4.0066026-1.6122359 0-2.2623843-.8692995-2.575658-3.6625634-.1340896-1.3280419-.4923175-2.7707869-1.5227493-2.7707869z" fill="#93c911"/><path d="m88.2597714 7.35116512h2.2309164c.6936274 0 1.4109962-.66855146 1.4109962-1.78762709 0-1.38528808-.7601454-1.87662213-1.4109962-1.87662213h-1.5738845c-.3180501 0-.6570319.09524646-.6570319 1.2339895zm2.2707429.26171703h-2.4670658v-2.66964019c0-1.01820991.2589074-1.45264895.8657875-1.45264895h1.6012783c.812545 0 1.6327463.65162344 1.6327463 2.10644985 0 1.26166436-.8301755 2.01583929-1.6327463 2.01583929zm-2.4016015 1.89755387h2.0799691c.9006972 0 1.4565122.96019108 1.6520625 2.85374118.3094105 2.6978067.9238063 3.5640859 2.5276836 3.5640859 1.0987761 0 2.1157217-.4721583 2.1157217-3.8971675v-.9502169h-1.1123326v.9423499c0 .3153107-.0380002 1.3447592-.5255413 1.3447592-.4636591 0-.5490017-.7202487-.6603332-1.9924491-.1213058-1.3441973-.4485575-2.09795077-1.1297523-2.60199839l-.039967-.02957136v-.15361652l.0509246-.02823678c.594026-.33069345 1.5907423-1.18896518 1.5907423-3.22011695 0-2.4098899-1.4282755-3.68356542-4.1303669-3.68356542h-6.2139884v1.10235833l.6365919.09946091c.5117741.10248125.8029923.79505505.8029923 1.90043373v7.79861975c0 .806996-.0909618 1.7521555-.7984267 1.8994504l-.6411575.1001633v1.1022881h5.3655504v-1.095545l-.4298031-.0561926c-1.022003-.1132281-1.1405694-1.1599557-1.1405694-1.9375208zm6.2863365 6.65074538c-1.6949093 0-2.3739267-.9497251-2.690572-3.7636398-.1808699-1.7860818-.6638453-2.69078268-1.4350887-2.69078268h-2.0298172v2.86519048c0 1.1312975.2983827 1.6689904.9679175 1.7430242l.6024549.0783184v1.4642387h-5.6926616v-1.4649411l.8025708-.1248178c.439075-.0914535.6369432-.6166436.6369432-1.7025656v-7.78253459c0-.98632062-.239521-1.62305302-.6408767-1.70319771l-.7986373-.12439637v-1.42750277h6.4231654c2.7825873 0 4.3153107 1.3691327 4.3153107 3.85474213 0 2.01457496-.9567492 2.92939049-1.5927792 3.314661.671923.53614765.9990342 1.31729501 1.1208316 2.65966601.0957382 1.0875375.1795354 1.799849.4636592 1.799849.1901417 0 .3280243-.4789717.3280243-1.1389538v-1.1329833h1.5049784v1.1564437c0 2.8879485-.6837235 4.1201819-2.2854233 4.1201819z" fill="#000"/><path d="m79.7047992 8.58527403c-.337858 0-.6129208-.27513302-.6129208-.61299103 0-.33856042.2750628-.61362319.6129208-.61362319.3385604 0 .6136232.27506277.6136232.61362319 0 .33785801-.2750628.61299103-.6136232.61299103" fill="#ff9425"/><path d="m79.7047992 7.47589864c-.2733068 0-.4957592.22280366-.4957592.49639138 0 .27344724.2224524.49582946.4957592.49582946.2737282 0 .4964616-.22238222.4964616-.49582946 0-.27358772-.2227334-.49639138-.4964616-.49639138" fill="#f1eb9c"/><path d="m79.7047992 6.97941595c-.337858 0-.6129208-.27499254-.6129208-.61320175 0-.33834969.2750628-.61334223.6129208-.61334223.3385604 0 .6136232.27499254.6136232.61334223 0 .33820921-.2750628.61320175-.6136232.61320175" fill="#ff9425"/><path d="m79.7047992 5.87004759c-.2733068 0-.4957592.22273342-.4957592.49618066 0 .27330676.2224524.49611042.4957592.49611042.2737282 0 .4964616-.22280366.4964616-.49611042 0-.27344724-.2227334-.49618066-.4964616-.49618066" fill="#f1eb9c"/><path d="m79.7047992 5.37355787c-.337858 0-.6129208-.27506278-.6129208-.61320175 0-.3387009.2750628-.61369343.6129208-.61369343.3385604 0 .6136232.27499253.6136232.61369343 0 .33813897-.2750628.61320175-.6136232.61320175" fill="#ff9425"/><path d="m79.7047992 4.26385938c-.2733068 0-.4957592.22273342-.4957592.49646162 0 .273377.2224524.49611042.4957592.49611042.2737282 0 .4964616-.22273342.4964616-.49611042 0-.2737282-.2227334-.49646162-.4964616-.49646162" fill="#f1eb9c"/><path d="m79.7047992 13.4031784c-.337858 0-.6129208-.2750628-.6129208-.6136232 0-.3379282.2750628-.6129208.6129208-.6129208.3385604 0 .6136232.2749926.6136232.6129208 0 .3385604-.2750628.6136232-.6136232.6136232" fill="#ff9425"/><path d="m79.7047992 12.29381c-.2733068 0-.4957592.2224525-.4957592.495689 0 .2737282.2224524.4965319.4957592.4965319.2737282 0 .4964616-.2228037.4964616-.4965319 0-.2732365-.2227334-.495689-.4964616-.495689" fill="#f1eb9c"/><path d="m79.7047992 11.7969972c-.337858 0-.6129208-.2749925-.6129208-.6135529 0-.3379985.2750628-.6130613.6129208-.6130613.3385604 0 .6136232.2750628.6136232.6130613 0 .3385604-.2750628.6135529-.6136232.6135529" fill="#ff9425"/><path d="m79.7047992 10.6876218c-.2733068 0-.4957592.2223822-.4957592.4958295 0 .2736579.2224524.4963914.4957592.4963914.2737282 0 .4964616-.2227335.4964616-.4963914 0-.2734473-.2227334-.4958295-.4964616-.4958295" fill="#f1eb9c"/><path d="m79.7047992 10.190802c-.337858 0-.6129208-.2750628-.6129208-.61299105 0-.33820922.2750628-.61320175.6129208-.61320175.3385604 0 .6136232.27499253.6136232.61320175 0 .33792825-.2750628.61299105-.6136232.61299105" fill="#ff9425"/><path d="m79.7047992 9.08176375c-.2733068 0-.4957592.22273341-.4957592.49604017 0 .273377.2224524.49582948.4957592.49582948.2737282 0 .4964616-.22245248.4964616-.49582948 0-.27330676-.2227334-.49604017-.4964616-.49604017" fill="#f1eb9c"/><path d="m59.3349887 8.58527403c-.3379283 0-.6129208-.27513302-.6129208-.61299103 0-.33856042.2749925-.61362319.6129208-.61362319.3385604 0 .6136232.27506277.6136232.61362319 0 .33785801-.2750628.61299103-.6136232.61299103" fill="#ff9425"/><path d="m59.3349887 7.47589864c-.273377 0-.4957592.22280366-.4957592.49639138 0 .27344724.2223822.49582946.4957592.49582946.2737282 0 .4964616-.22238222.4964616-.49582946 0-.27358772-.2227334-.49639138-.4964616-.49639138" fill="#f1eb9c"/><path d="m59.3349887 6.97941595c-.3379283 0-.6129208-.27499254-.6129208-.61320175 0-.33834969.2749925-.61334223.6129208-.61334223.3385604 0 .6136232.27499254.6136232.61334223 0 .33820921-.2750628.61320175-.6136232.61320175" fill="#ff9425"/><path d="m59.3349887 5.87004759c-.273377 0-.4957592.22273342-.4957592.49618066 0 .27330676.2223822.49611042.4957592.49611042.2737282 0 .4964616-.22280366.4964616-.49611042 0-.27344724-.2227334-.49618066-.4964616-.49618066" fill="#f1eb9c"/><path d="m59.3349887 5.37355787c-.3379283 0-.6129208-.27506278-.6129208-.61320175 0-.3387009.2749925-.61369343.6129208-.61369343.3385604 0 .6136232.27499253.6136232.61369343 0 .33813897-.2750628.61320175-.6136232.61320175" fill="#ff9425"/><path d="m59.3349887 4.26385938c-.273377 0-.4957592.22273342-.4957592.49646162 0 .273377.2223822.49611042.4957592.49611042.2737282 0 .4964616-.22273342.4964616-.49611042 0-.2737282-.2227334-.49646162-.4964616-.49646162" fill="#f1eb9c"/><path d="m59.3349887 13.4031784c-.3379283 0-.6129208-.2750628-.6129208-.6136232 0-.3379282.2749925-.6129208.6129208-.6129208.3385604 0 .6136232.2749926.6136232.6129208 0 .3385604-.2750628.6136232-.6136232.6136232" fill="#ff9425"/><path d="m59.3349887 12.29381c-.273377 0-.4957592.2224525-.4957592.495689 0 .2737282.2223822.4965319.4957592.4965319.2737282 0 .4964616-.2228037.4964616-.4965319 0-.2732365-.2227334-.495689-.4964616-.495689" fill="#f1eb9c"/><path d="m59.3349887 11.7969972c-.3379283 0-.6129208-.2749925-.6129208-.6135529 0-.3379985.2749925-.6130613.6129208-.6130613.3385604 0 .6136232.2750628.6136232.6130613 0 .3385604-.2750628.6135529-.6136232.6135529" fill="#ff9425"/><path d="m59.3349887 10.6876218c-.273377 0-.4957592.2223822-.4957592.4958295 0 .2736579.2223822.4963914.4957592.4963914.2737282 0 .4964616-.2227335.4964616-.4963914 0-.2734473-.2227334-.4958295-.4964616-.4958295" fill="#f1eb9c"/><path d="m59.3349887 10.190802c-.3379283 0-.6129208-.2750628-.6129208-.61299105 0-.33820922.2749925-.61320175.6129208-.61320175.3385604 0 .6136232.27499253.6136232.61320175 0 .33792825-.2750628.61299105-.6136232.61299105" fill="#ff9425"/><path d="m59.3349887 9.08176375c-.273377 0-.4957592.22273341-.4957592.49604017 0 .273377.2223822.49582948.4957592.49582948.2737282 0 .4964616-.22245248.4964616-.49582948 0-.27330676-.2227334-.49604017-.4964616-.49604017" fill="#f1eb9c"/></g><g transform="translate(15)"><path d="m43.5471398 7.63985093c-.1122397-.03190443-.2563837-.12377318-.3083595-.37910842l-.0005492-.0346505c.1120399-.81084165.2666191-1.64275321.4596933-2.47391583.1922254-.82721826.4288873-1.64100571.7033951-2.41914408.0538232-.11803139.1282169-.19626962.2248289-.2411555.050378-.02766048.1081455-.04398716.1669614-.04613409.0483809-.00134807.0917689.00669044.1274679.02306705.0695507.01922254.1462911.07119829.2149929.14753923l.010535.01353067c.0432382.06875178.0669044.15038516.0697503.24365192l.0025464.06660485-.00699.01857347c-.2623253.7510271-.4923467 1.53845221-.6826249 2.34155492-.1918259.80629815-.3458559 1.61878745-.4573466 2.41475036l-.0014479.01078459-.0039444.01023538c-.0928673.25568474-.2633737.31425107-.3910414.31829529l-.0324536.00109843c-.0421398-.00359486-.0697504-.0085378-.0954137-.01557774zm-3.0027603-.210699.5430741-.01752497-.0478316-1.5010057c-.0093367-.30771042-.1034522-.45844508-.2804494-.45285307-.1853852.00549215-.2723609.16631241-.2626747.48176177zm2.3093509.81373751c-.009137.21359487-.0528745.44166905-.1319615.68497147-.0796362.24315264-.1803923.46917975-.3039158.67768189-.1235236.20825249-.2626748.38250356-.4156063.5220542-.1529315.1390014-.3130528.2117475-.4783666.2167404l-.6029886.0192724c-.2047575.0067903-.3793581-.0310057-.5239016-.113388-.1448431-.0823823-.2651712-.2240799-.3630813-.4261412-.0969615-.20226106-.1728031-.46972896-.2262767-.803602-.0548217-.33367332-.0887233-.74473609-.1047005-1.23343794-.0164764-.54367333-.0197218-.99727532-.0075392-1.36090585.0118331-.36303139.0446862-.65421541.0964622-.87245364.0520257-.21873752.123923-.37711127.2156919-.47442225.0912696-.09781028.2082025-.14898717.3503495-.15333096l.7921683-.02521398c.1256705-.00414408.2309201.02830956.3164479.0968117.0853281.06850214.1577746.18488587.2180385.34905135.0604137.16406562.1073966.3839515.1391013.66000714.0324537.27525677.0556206.61492154.0685022 1.01769614.0102353.33192582-.0372968.56664052-.1437946.70444366-.1059487.13810271-.3004708.21114836-.584515.22033523-.0777889.00249643-.18199-.00179743-.3139515-.01388017-.1319615-.01133381-.228923-.02032097-.2909843-.02621255l.0238659.74633381c.0078887.25308844.0218688.45869472.0424893.61572039.0207703.15762483.0514265.2829458.0926676.37671184.0417903.09371612.0964622.15747504.1622682.19072754.0667047.03335235.1504351.04848074.2510414.04533523.1728531-.00544222.3442083-.06815264.5140157-.1882311.1696077-.11942938.3266833-.27076319.4710271-.45265335.1441441-.18199001.2659201-.38694722.3650285-.6153709.0990086-.22802425.161719-.44850927.1859344-.66250356zm-8.4645079-4.93789586-.0233167-.73280314c-.0284094-.40187589-.0470827-.69256063-.0568188-.87410128-.0096362-.18119116-.0915192-.26921541-.2454493-.26447218-.1461413.00454351-.2140443.15667617-.2047575.45624821l.1218759 3.83042796c.3165478-.20710413.4530028-1.01240371.4084664-2.41529957zm4.8681455 5.54917261c-.0494793.30181883-.1197289.57223253-.2102995.81174037-.0912696.23960771-.2053067.43273184-.3426106.57907274-.1373538.146341-.2892368.2220828-.4545506.227525-.2128959.0068402-.395535-.0327033-.5481669-.1189301-.1528816-.0853781-.2762054-.2490442-.3707204-.49114838-.0295079-.07554208-.0563695-.16371612-.0818331-.25688302-.0304066.06315977-.0630599.12552068-.09801.18578459-.1195792.20480742-.263923.37526391-.4330813.51077031-.1697076.1356063-.3565906.2064551-.5615478.2129458-.0947147.0028459-.1842867-.0394436-.2704137-.1276177-.0852283-.0876747-.1597718-.1979172-.2236305-.3298787-.0631099-.13201144-.1147861-.27465766-.1550785-.42728961-.0142297-.05382311-.0238659-.1053495-.0333523-.15722539-.0529744.14973609-.1156349.28858773-.1896291.41291013-.1118403.18927957-.2450999.34335947-.3989801.46243937-.1541298.1191298-.3262339.1823894-.5152639.188281-.492097.0157276-.8756491-.378709-1.1481598-1.18231096-.0170256-.03130528-.039144-.22203281-.0661554-.57198288-.0272611-.35039943-.0548217-.79341655-.0836306-1.3289515-.0297575-.53523538-.0585663-1.13203281-.087475-1.79014265-.0292582-.6575107-.053174-1.30603424-.0731954-1.94422254-.0169758-.52030671-.0212697-.96776748-.0135307-1.34308131.0079386-.37501427.039194-.68352354.0948645-.92637661.0553709-.24230385.1421469-.42444365.2609272-.54631954.1180314-.12197575.2797504-.18673324.485107-.19297432.3466548-.01103424.6045863.11483594.774893.37751069.1700071.26322397.2665193.74917975.2895364 1.45821684.0170257.55995007.0254636 1.06088445.0237161 1.50230385-.0010485.44206847-.0296576.83535663-.0843795 1.18041369-.0561697.34495721-.1397503.64917261-.25199.91334522-.1129386.26352354-.2703138.49778888-.4746219.70124822l.0628602 1.97437946c.0180242.56014979.172853.83510699.4639372.82562054.1027033-.00294579.2062553-.04598431.3096077-.1281669.1044508-.08223253.1993153-.18967903.2858916-.32273895.0863267-.13271041.1584736-.28504279.2159914-.45664764.0258131-.07619116.0460343-.1535806.063709-.23191869l-.1153852-3.63046362.9238303.75217546.100107 3.16807418c.0144294.44146933.1158844.65935806.3051141.65321683.1574251-.00544222.2990728-.13805278.4250927-.39828102.02102-.04348788.0405421-.09077033.0595649-.13715407-.0012482-.01662625-.0043937-.03075606-.0064907-.04783167-.052525-.42459344-.0895221-.97161198-.1111412-1.64155492-.0033952-.1100428-.0059415-.24629815-.0073395-.40791726-.0012483-.16136947-.0051427-.35694009-.0125821-.58601284l-.0313552-.99233238.839301-.02656206.1220756 3.83002853c.0182739.58351641.1199786.87170471.3049144.8661127.1854851-.00579173.2693153-.27281027.2529886-.80090585l-.1374536-4.32716833.9115478.75232525.0761911 2.41145506c.0098859.30781027-.0098359.61207561-.0597147.91309558zm4.2237162.9704137c.3546433-.01163339.5244508-.24754637.5099215-.70873752-.0152282-.4610913-.1995649-.68616976-.5545578-.67498574-.3464051.01103424-.5124179.24724679-.4986376.70803852.0150784.46119116.1957703.68621969.5432739.67568474zm-7.7817832-6.26495008c.3545934-.01168331.524301-.24759629.5098217-.70898716-.0151284-.46084165-.1993652-.6860699-.5546077-.67478602-.3464551.01118403-.512418.24729672-.4981883.70813838.0146291.46119115.1954707.68611983.5429743.6756348zm15.6773039 2.08177604h.5492154v-.57902283c0-.51191868.111291-1.02788159.3605848-1.02788159.0892725 0 .2385592.10230385.2385592.78687589v2.86845221c0 .3989301-.0621112.6071826-.1860841.63634094l-.3132026.05626962v.65411554h1.9971469v-.65346647l-.3020684-.05616976c-.1345578-.03020685-.1972183-.23251783-.1972183-.63708987v-2.86845221c0-.68457204.1495863-.78687589.2386591-.78687589.2490442 0 .360485.51596291.360485 1.02788159v.57902283h.5492154v-2.39657632h-3.2952924zm-2.6468688-.40956491-.2173895.95878032h.3883453zm1.6958773 3.044301.25199.12122682v.63918687h-1.8972896v-.67977888l.1911769-.08143367c.102903-.04308844.21005-.18588445.0982097-.90505706l-.035-.1810913h-.6899144l-.040592.18463624c-.0942653.50203281.0023966.85348074.1052497.90410841l.2210841.07883738v.67977888h-1.7475035v-.64363052l.2110485-.08203281c.1579743-.06191156.2789515-.37706134.4629885-1.20422968l.8537304-3.86183309h.8054993l.8758987 4.14907275c.1478888.70619116.2726106.85592725.3334237.88223966zm19.5743866-2.9842368v-2.04707561h-3.1455064v.65401569l.3132525.05601997c.0929672.02116976.1860342.22622682.1860342.63694009v3.08848787c0 .39898003-.061562.61322397-.1814907.63639087l-.317796.05626962v.66360199h3.0456491v-2.14693295h-.5492155v.51706134c0 .64238231-.1785449.9289729-.5791226.9289729-.2939301 0-.4194508-.16067047-.4194508-.53663338v-1.40868759h.7489301v-.84878745h-.7489301v-1.08120542c0-.40327389.1097432-.54577033.4194508-.54577033.3460057 0 .5791226.37721113.5791226.93840942v.43892297zm-6.1661912-1.4168759.2924323.05062768c.09097.01807418.1925249.19387304.201612.63269615l.0211697 1.00047075-1.0509985.02196862-.0210699-1.00047076c-.0090371-.43902282.085378-.61931526.1659629-.64008559l.2917332-.06315977-.0137304-.65331669-1.9354351.04064194.0137304.65391583.2979244.04967903c.0878245.01937233.1802425.2225321.1887803.63314551l.0647076 3.0878388c.0085378.39888017-.0452354.60833096-.1581241.63978602l-.2994223.06256063.0137803.65396576 1.942525-.04079172-.0138303-.65386591-.2975249-.04922967c-.1233738-.02736091-.1877818-.23431527-.1961198-.63324536l-.0240657-1.1433167 1.0508488-.02201854.0240656 1.14321683c.0084879.40457204-.0478816.60808132-.1735021.64018545l-.2915335.06300999.0136305.65336662 1.9352354-.04059201-.0137803-.65336662-.2904851-.04987875c-.1234236-.0275107-.187532-.23441512-.1958701-.63329529l-.0648075-3.08778887c-.0091369-.43917261.0851784-.6193652.1660129-.64013552l.2912839-.06305992-.0138303-.65341655-1.9350356.04064194zm-6.4158345-.63019971h3.2952925v2.39657632h-.5492154v-.57902283c0-.51191868-.1118403-1.02788159-.3604351-1.02788159-.0893724 0-.238709.10230385-.238709.78687589v2.86845221c0 .40457204.0624108.60688302.1969187.63708987l.302368.05616976v.65346647h-1.8972896v-.65411554l.3130029-.05626962c.1239729-.02915834.1862839-.23741084.1862839-.63634094v-2.86845221c0-.68457204-.1494366-.78687589-.2385093-.78687589-.249244 0-.3606348.51596291-.3606348 1.02788159v.57902283h-.6490728z" fill="#fff"/><path d="m27.1611983 8.42475464c0 1.24367332.1431455 2.33411556.9236804 2.33411556.7675535 0 .9236805-1.17557063.9236805-2.33411556v-4.53192582c0-.95408702-.156127-1.89109843-.9236805-1.89109843-.7805349 0-.9236804.93701141-.9236804 1.89109843zm3.5948645-.54706848c.0129814 2.14403714-1.0524965 3.96478604-2.6896577 3.96478604-1.6241797 0-2.7156205-1.5314622-2.7026391-3.84565622l.0129316-3.25005706c0-2.0078816 1.0655278-3.84565621 2.6897075-3.84565621 1.6242297 0 2.6766762 1.71864479 2.6896577 3.84565621zm-8.6428531-1.83682596c0-1.68094865-.4204494-4.00707561-1.4452853-4.00707561-.7884237 0-.9460984.93381598-.9460984 1.88465764v4.48928673c0 1.33639087.3495506 2.31763904 1.1132596 2.31763904.7766904 0 1.2426747-.6598074 1.2426747-2.53757485h1.3331955c0 1.81011413-.737796 3.62022825-2.6147147 3.62022825-2.0452283 0-2.8219187-2.16540656-2.8219187-4.2292582v-2.80818831c0-1.77631241 1.0485521-3.84016405 2.679572-3.84016405.3753638 0 .7118831.10145507 1.0484522.32139087.2071541.15228246.4659844.28758916.6213624.28758916.1294151 0 .2070542-.10145506.2070542-.54132668h.9357133v5.04279601zm-7.3894936 0c0-1.68094865-.4204493-4.00707561-1.4453352-4.00707561-.7883738 0-.9459986.93381598-.9459986 1.88465764v4.48928673c0 1.33639087.3495007 2.31763904 1.1132596 2.31763904.7766406 0 1.2426249-.6598074 1.2426249-2.53757485h1.3332453c0 1.81011413-.737796 3.62022825-2.6147646 3.62022825-2.0451783 0-2.8218688-2.16540656-2.8218688-4.2292582v-2.80818831c0-1.77631241 1.0485022-3.84016405 2.6794722-3.84016405.3754137 0 .7119829.10145507 1.048602.32139087.2070542.15228246.4659344.28758916.6213124.28758916.1294152 0 .2070542-.10145506.2070542-.54132668h.9357133v5.04279601zm-5.53684021-4.94293866v.96661912l-.40302425.08487874c-.36412981.06785307-.50717546.71233238-.66320257 1.86563481l-1.0531455 7.76760339h-1.05649073l-1.04196148-6.3939158-.74248931 6.3939158h-1.05499286l-1.47184736-8.51388727c-.10415122-.57662625-.27345935-1.06847361-.54706848-1.11935093l-.40372325-.08487874v-.96661912h2.9957204v.96661912l-.41680457.08487874c-.27350927.05087732-.26042796.33916548-.1302639 1.06847361l.72940798 4.22296719.72945792-6.34293866h1.12379458l1.0271826 6.37689016.55910128-4.12126248c.11703281-.78013553.10400143-1.13627675-.27300998-1.20412982l-.40307418-.08487874v-.96661912z" fill="#3d3d3d"/><path d="m28.2596291 7.59854494c0 1.52022824-.2776534 2.25922254-.8487874 2.25922254-.5870115 0-.8487875-.69675464-.8487875-2.25922254v-4.53192582c0-1.23907989.2697147-1.81620543.8487875-1.81620543.5790727 0 .8487874.57712554.8487874 1.81620543zm1.1439658-6.44024965c-.5023324-.74698288-1.216612-1.15829529-2.0112269-1.15829529-.7875249 0-1.5036519.42738944-2.0164194 1.20348074-.4824607.73025678-.7481811 1.69517832-.7481811 2.7167689l-.0129316 3.24995721c-.007689 1.37094151.3692725 2.50936519 1.0615835 3.20557065.4653852.4680313 1.0587375.715378 1.7159486.715378.6019401 0 1.161341-.2427033 1.6177889-.7018973.7262625-.7306562 1.1549501-1.97847361 1.1467618-3.33793152v-3.13122682c-.0064907-1.06832383-.2740585-2.04912268-.7533238-2.76180457zm-9.2813909 9.90080601c-.9598788 0-1.7355706-.4768188-2.2431954-1.37888019-.4214979-.74898003-.6536163-1.78784593-.6536163-2.92527104v-2.80823823c0-.91084879.2765549-1.89259629.7396933-2.62614836.5248502-.83116262 1.240378-1.2889087 2.0147717-1.2889087.3949359 0 .7411413.10599857 1.0894437.33362339.2220827.16311698.4593438.27540657.5803709.27540657.0428887 0 .1322111 0 .1322111-.4664836v-.07489301h1.0854494v5.19258203h-1.5030528v-.07489301c0-.92333096-.125321-1.9000856-.335271-2.61266762-.1773467-.60194009-.5008346-1.31946505-1.0351213-1.31946505-.5944009 0-.8712054.57502853-.8712054 1.80971469v4.48933666c0 1.40429387.3881455 2.24274608 1.0383666 2.24274608.5012839 0 1.1677817-.25528531 1.1677817-2.46273181v-.07489301h1.4829815v.07489301c0 .98833809-.2182882 1.88625535-.6146719 2.52828816-.4712767.76340944-1.1887518 1.16688304-2.0749358 1.16688304zm-7.3894936 0c-.9598787 0-1.7355207-.4768188-2.2431455-1.37888019-.4214979-.74898003-.65361626-1.78789586-.65361626-2.92527104v-2.80823823c0-.91084879.27650496-1.89259629.73969326-2.62614836.5248003-.83116262 1.2402782-1.2889087 2.0146719-1.2889087.3949858 0 .7411912.10599857 1.0895435.33362339.2220329.16311698.459244.27540657.5803709.27540657.0428888 0 .1321612 0 .1321612-.4664836v-.07489301h1.0854993v5.19258203h-1.5031027v-.07489301c0-.92333096-.125321-1.9000856-.335271-2.61266762-.1773467-.60194009-.5008845-1.31946505-1.0351712-1.31946505-.594301 0-.8711056.57502853-.8711056 1.80971469v4.48933666c0 1.40429387.3881455 2.24274608 1.0383667 2.24274608.5012838 0 1.1677318-.25528531 1.1677318-2.46273181v-.07489301h1.4830313v.07489301c0 .98833809-.2182881 1.88625535-.6146719 2.52828816-.4713266.76340944-1.1888017 1.16688304-2.0749857 1.16688304zm-6.27383736-.0753424h-1.18555635l-.96587019-5.92673322-.68821683 5.92673322h-1.18470756l-1.48263195-8.57599856c-.15742511-.8713552-.37266762-1.03721826-.48695435-1.05848787l-.46493581-.09766049v-1.10237517h3.14550642v1.1027746l-.4767689.09701141c-.18992868.03539943-.20440799.23721113-.07144793.98194722l.64078459 3.71.6775321-5.89173323h1.25440799l.95703281 5.94146219.49124821-3.62097717c.12412268-.82741798.07848788-1.06807418-.212097-1.12039943l-.46468616-.09776035v-1.10232524h2.64621968v1.10232524l-.4624893.09736092c-.31125535.05806704-.45230385.67818117-.60438659 1.80237518z" fill="#000"/><path d="m28.4094151 7.59854494c0 1.62103423-.3266334 2.40900856-.9985734 2.40900856-.879943 0-.9985735-1.21776035-.9985735-2.40900856v-4.53192582c0-.84394437.1035021-1.96599145.9985735-1.96599145.9985734 0 .9985734 1.47978602.9985734 1.96599145zm.8698574-6.35666905c-.4805136-.71447931-1.1329815-1.09208987-1.8869045-1.09208987-.7355991 0-1.4072895.40352354-1.8914479 1.13627675-.4596933.69575606-.7233666 1.65598431-.7233666 2.63448645l-.0129315 3.25035663c-.0074893 1.33094864.3540442 2.43152639 1.0179957 3.09922255.4366762.4391227.9933309.6712411 1.6097503.6712411.5611484 0 1.0838517-.2274251 1.5115407-.6577104.6988017-.70304569 1.1112126-1.9111698 1.103224-3.23168335v-3.13142653c-.006341-1.03871612-.2648217-1.99015692-.7278602-2.67867333zm-9.2994152-1.06043509c-.7211697 0-1.3917118.43298145-1.8881027 1.21910842-.448709.71058487-.7165763 1.6624251-.7165763 2.54616262v2.80823823c0 1.11206134.2252782 2.12491441.6343937 2.85182596.4863552.86431527 1.1971398 1.30253927 2.112632 1.30253927.8433951 0 1.4986091-.3686734 1.9474679-1.09578463.3720685-.60258916.5812696-1.4435378.5919543-2.37470756h-1.1832596c-.0116334 1.73077746-.4310841 2.53762482-1.3173181 2.53762482-.7550713 0-1.1881526-.87205421-1.1881526-2.3925321v-4.48933666c0-.57867332.0597147-1.01250356.1825392-1.32615549.1646148-.42024964.4466619-.63334522.8384522-.63334522 1.0985307 0 1.507796 2.36791726 1.5198787 4.00702568h1.2037804v-4.89300999h-.7866263c-.0067903.32793153-.0634094.54137661-.2812482.54137661-.1877817 0-.4670328-.15607704-.665699-.30216833-.3194437-.208602-.6395863-.30686163-1.0041156-.30686163zm-7.3895435 0c-.7211198 0-1.3916619.43298145-1.8880028 1.21910842-.448709.71058487-.71657634 1.6624251-.71657634 2.54616262v2.80823823c0 1.11206134.22527814 2.12491441.63439374 2.85182596.4863552.86431527 1.1971398 1.30253927 2.112582 1.30253927.8433952 0 1.4986091-.3686734 1.9475178-1.09578463.3720186-.60258916.5812697-1.4435378.5919544-2.37470756h-1.1833096c-.0116333 1.73077746-.4310841 2.53762482-1.3172681 2.53762482-.7550714 0-1.1881527-.87205421-1.1881527-2.3925321v-4.48933666c0-.57872325.0597147-1.01250356.1825392-1.32615549.1645649-.42024964.446612-.63334522.8383524-.63334522 1.0985307 0 1.5078459 2.36791726 1.5199287 4.00702568h1.2038302v-4.89300999h-.7866262c-.0067903.32793153-.0634095.54137661-.2812483.54137661-.1878816 0-.4670827-.15607704-.665699-.30216833-.3194436-.208602-.6396362-.30686163-1.0042154-.30686163zm-7.18962906 10.6525321h.92732525l1.04440798-7.70279601c.16870899-1.2471184.3200428-1.85390157.7236662-1.92914408l.34186162-.07199715v-.83101283h-2.34664764v.83101283l.34360913.07234665c.47437232.0853281.43677603.58791013.33167617 1.2885592l-.62690442 4.62044936-1.09728245-6.81236804h-.9932311l-.78133381 6.79424393-.81808131-4.73638374c-.11987875-.67159058-.17485022-1.08689729.1903281-1.15485021l.35564194-.07239658v-.8306134h-2.84593438v.8309629l.3442582.07239658c.27261056.0506776.47117689.43652639.60538517 1.17931526l1.46116262 8.45227533h.92522825l.79671184-6.86104851z" fill="#ff421d"/></g></g></svg>