<svg height="34" viewBox="0 0 100 34" width="100" xmlns="http://www.w3.org/2000/svg"><g fill="none" fill-rule="evenodd" transform="translate(0 .345)"><path d="m52.9285008 28.7750733c-.1090142 0-.1849896-.0846184-.2336417-.2142645v-2.0042866h.2091065v1.4455538l.3760434.4949553c-.1173088.1906355-.2467458.278042-.3515082.278042zm.2070155-8.4940488c.3544357 0 .4654713.2792967.4654713.7671423v.813355l.8203948 1.1299422v1.03919c-.0004182.0485825-.0014637.0964679-.0029972.1438654l-1.7936466-2.499451-.0211894-.580689c-.0228623-.4417725.1545297-.8133549.5319671-.8133549zm45.0665115 4.8932335h-.879572v-.5552477l-.0259292-.0334571c.6022967-.6305957 1.0043389-1.5383971 1.0043389-2.6594175 0-2.0080505-1.1254116-4.6102426-3.4125497-5.8684369-.9478105-1.9493613-2.8379249-3.6521859-5.6988514-3.6521859h-7.3169182v1.2701134l-.9585446-1.2701134h-6.5594644v2.0691794h-3.1691497l-1.9145799-2.0001742h-2.7484969l-.5374039 2.0001742h-.5358008l-1.6763378-2.20712h-10.8688026v2.1611862l.7242058.1407985c.4529946.0471187.7865893.3759039.793211 1.4558v.2849426h-1.7265233v-1.610748l-1.7375364-2.2720128h-9.484517v.3570844l-.2706536-.3570844h-10.4634843v3.8827608h-.090125l-1.3559167-1.6441354-2.146967-2.2386254h-2.5584888l-.6023664 2.2304703h-1.2618885v-.0417517l-1.6626761-2.1887186h-10.4655057v1.3293603l-1.03577464-1.3990625h-1.66553394c-.11270845.1573876-.27044452.3375678-.5176782.3375678-.2253472 0-.54088903-.1127085-.99060759-.2252775-.45062469-.1122903-1.08087193-.2025546-1.73356328-.2025546-2.49889337 0-4.5927473 1.5980622-4.5927473 4.3446772 0 3.0611113 1.93604816 4.9748547 3.51229358 5.8528236.46616828.256504 1.19162872.4890306 1.78319125.769094.23113247.5183752.52074509.9811978.84402387 1.3892344-.21781936.2921916-.64627875.4308293-.9844738.4308293-.85510652 0-1.55289519-.5404708-1.98030904-1.0805234-.36070886-.4277624-.96816349-1.3955077-1.35089824-2.2060745h-1.88265627v5.5673931l1.51016775 1.9604439h2.00212583c.13396762-.2428424.33464024-.839772.6479516-.839772.17007336 0 .37074597.0683778.57950405.1735584v2.605956l1.49650611 1.9430183h2.01292968c.13445553-.2404028.33547666-.8321047.6480213-.8321047.29114607 0 .67074422.1976754 1.02845588.4379388.446582.3064109 1.3408611.5253455 2.2797497.5253455 1.3753637 0 2.7158066-.6965341 3.5444263-1.8737344h1.8728282l1.3558471 1.7425548h6.3930853v-1.0506211l.8051998 1.0506211h5.6771043v-.7660968l.5814557.7660968h5.8311462v-1.0348684l.8026208 1.0348684h6.3767052v-1.6635125l-.0606409-.0790423h.8707198l1.353059 1.7425548h9.8953418v-.2100824h6.4911562v-2.0002438h.3448865v.0170073l1.577988 2.052172h6.0221302l.0533222-.7010647.563124.7010647h12.7529226l.0533919-.8548277.6687925.7858922h6.8999597l.0533919-1.8537298-1.6077509-2.0148117v-.4289473c.542771.6967432 1.1914894 1.1618659 1.8591667 1.4038719.0504644.1313887.1045533.2599892.1633122.3839197.855943 1.8372802 2.3061668 2.7197796 3.6375484 2.7197796 1.9248261 0 2.9952424-1.1448585 2.9623474-4.2466062v-1.408054z" fill="#fff"/><path d="m95.9905723 22.6171214h-1.6482478c.994511-.5693972 1.7526617-1.7073552 1.7526617-3.2484011 0-2.7502394-2.1076549-6.6147382-6.4176204-6.6147382h-7.3169182v1.2701831l-.9585446-1.2701831h-6.5594644v2.069249h-3.1691497l-1.9145798-2.0002438h-2.748497l-.5374039 2.0002438h-.5358008l-1.6763377-2.2071897h-10.8688026v2.161256l.7242058.1407984c.4529945.0471187.7866589.375904.7932109 1.4557304v8.005297c-.006552.8217192-.1736978 1.4787321-.6260651 1.5733876l-.8913516.1403106v2.2577934l1.5130255 1.9914614h6.832697v-1.8623032h.4180738l1.6036384 2.1381845h6.0481291v-.8327321l.6194434.8327321h6.0709217v-.0689355h6.62136v-.925436l.7380068.925436h6.9179428v-2.0150904l-1.6552877-2.0157178v-2.7285621h1.1176747c.1661003.4614983.2376148 2.6088138.9507379 4.1122204.8563612 1.8372802 2.3062366 2.7201978 3.6378273 2.7201978 1.9246867 0 2.9949639-1.145207 2.9843784-4.2474426v-1.4071479zm-45.2248051-2.4035408h2.3472911v-5.2558242l-1.7374666-2.2720128h-9.4845867v.3570844l-.2706537-.3570844h-10.4634843v3.9920538l-1.4460417-1.7534284-2.146967-2.2386254h-2.5584888l-.6023663 2.2304703h-1.2618886v-.0417517l-1.6626064-2.1887186h-10.4655754v1.3293603l-1.03577462-1.3990625h-1.66553394c-.11270844.1573876-.27044451.3375678-.51767819.3375678-.2253472 0-.54088903-.1127085-.99060759-.2252775-.45062469-.1122903-1.08080223-.2025546-1.73356328-.2025546-2.49889338 0-4.5926776 1.5980622-4.5926776 4.3446772 0 3.0611113 1.93597845 4.9748547 3.51222388 5.8528236.90027354.4953038 2.76884998.9006917 2.76884998 1.7335632 0 .5855682-.65262165.8555945-1.12610866.8555945-.85510652 0-1.55289519-.5404708-1.98030905-1.0805234-.36070885-.4277624-.96816348-1.3955077-1.35089823-2.2060745h-1.88265627v5.5673931l1.51016774 1.9604439h2.00212584c.13403732-.2428424.33464023-.839772.6479516-.839772.29072785 0 .67060481.1988603 1.02789826.4420513.44693047.3099656 1.34086112.5307125 2.27988908.5307125 1.39522883 0 2.75539745-.7237179 3.58067145-1.9452488h1.7946921l1.3967623 1.812257h6.3916912v-1.061425l.8047118 1.061425h5.6775923v-.7734155l.5809678.7734155h5.7619319v-1.0718106l.8035966 1.0718106h6.3757294v-1.6728527h.9101713l1.2528272 1.6728527h9.8954812v-5.4601214l-1.7602592-2.3465244h-1.0975308v-1.045742l-1.9517311-2.7183159-.0225139-.5803405c-.0220955-.4415634.1551571-.8134246.5325945-.8134246.3549933 0 .4658198.2787391.4658198.7672121v.8124488z" fill="#ff9522"/><path d="m52.2762486 21.1871391-.0211895-.580689c-.0228623-.4417725.1545298-.8133549.5318975-.8133549.3545053 0 .4655409.2792967.4655409.7671423v.8134247l1.4857023 2.0462473h2.0114659v3.0937319c0 .0743722-.0018122.1467928-.0045306.2181678l-1.3329848-1.7784514h-1.1838221v-1.0460209zm4.2696079-3.8729328-.1389165-.1824106c.0511614.0492097.0977225.1095021.1389165.1824106zm41.3076812 7.3721223h-1.6558453c.9954868-.5684911 1.7546831-1.7072158 1.7546831-3.2481222 0-2.7500304-2.110234-6.6150171-6.4252877-6.6150171h-7.3262583v1.2705316l-.9590325-1.2705316-28.009548-.2072246v1.2064056h-9.3681841v.3533901l-.2688414-.3533901h-10.4652966v1.812257h-1.833795l-1.7505009-1.812257h-2.5536793l-.4913308 1.812257h-1.6448324l-1.3809398-1.812257h-10.488856v1.3991321l-1.0354261-1.3991321h-1.6665097c-.1118721.1573178-.2699566.3370798-.5173297.3370798-.2252078 0-.5404708-.1122205-.9906076-.2253472-.4501368-.1117326-1.08045373-.2025546-1.73314508-.2025546-2.49896308 0-4.59246849 1.5991078-4.59246849 4.3453045 0 3.0613901 1.93569964 4.9751336 3.51187537 5.8531721.90048265.4953038 2.7685712.900413 2.7685712 1.733633 0 .5852196-.6526914.8555944-1.12555107.8555944-.85524593 0-1.553174-.5409587-1.98100607-1.0808719-.35980273-.4278321-.96781497-1.3957865-1.35041032-2.2062139h-1.88272597v5.5151165l1.49650611 1.9430183h2.01292968c.13438583-.2404028.33547666-.8321048.6480213-.8321048.29107636 0 .67067451.1976755 1.02845588.4379389.44658196.3064109 1.34086116.5254152 2.27974966.5254152 1.3753637 0 2.7157369-.6966038 3.5444263-1.8738041h1.8728283l1.3558471 1.7425548h6.3930852v-1.0506211l.8051998 1.0506211h5.6771043v-.7660968l.5814557.7660968h5.8311462v-1.0348684l.8026208 1.0348684h6.3767053v-1.6634428l-.0607106-.079112h.8707198l1.353059 1.7425548h9.8954114v-.2100824h6.4911563v-2.0001741h.3448167v.0170073l1.577988 2.052172h6.0221302l.0533919-.7010647.5630543.7010647h12.7529923l.0533919-.8548974.6687926.7858922h6.8999596l.0533919-1.8537298-1.6077508-2.0148117v-2.7528184h1.0717409c.1661004.4617073.2374057 2.608744.950738 4.1116627.8558732 1.8373499 2.3061668 2.7197796 3.6374787 2.7197796 1.9248958 0 2.9953124-1.1448585 2.962417-4.2466062v-1.408054z" fill="#ff421d"/><path d="m51.1614247 23.8381296v.3587572c0 1.3224597-.4120097 1.8606304-.6722777 1.8606304-.2165647 0-.303553-.3364525-.303553-.6952794v-1.5241082zm-28.9264107 3.9974906-.697022-.9227874v-6.7698256l1.4166971 1.8828654h1.7836095l-.434872 1.614024c-.5169812 1.8833533-.9215327 2.6226147-1.4836112 2.8020282l-.5848014.1794134zm30.4825122-6.5764718h2.3472214v-5.3046855l-1.7532193-2.2928537h-9.5385362v.3370798l-.2698172-.3370798h-10.4643208v6.4165749l2.0886263 1.8779863h1.5358879v2.9152942c0 .7851256-.1372437 1.4129332-.5945598 1.5024308l-.8691863.1345253v.626553c-.3921446-.4953038-.674787-1.1246449-.81217-1.6106783l-2.4140658-9.2390259-2.5264954-2.6236603h-2.4878108l-1.8662762 6.9263071v-4.7296424l-1.6635823-2.1966647h-10.4645996v1.3890253l-1.032638-1.3890253h-1.6614215c-.1124296.1565511-.269399.335407-.51635386.335407-.22465017 0-.53900707-.1118023-.9878892-.2236047-.44888213-.1118023-1.07752622-.2009514-1.72882353-.2009514-2.49227167 0-4.5799918 1.5861431-4.5799918 4.3121263 0 3.0389459 1.93089019 4.9383308 3.50239587 5.8097476.89790367.4916096 2.76132214.8935821 2.76132214 1.7201804 0 .5812466-.65087909.8492516-1.12255384.8492516-.85280635 0-1.54913128-.5364281-1.9754299-1.0723683-.35924511-.4246955-.9655148-1.3852614-1.34720401-2.1896944h-1.97584811v5.5656505l1.51128298 1.9621865h1.96183797c.13515255-.2480004.33805564-.8569885.65380658-.8569885.29323713 0 .6765992.2027637 1.03751717.4509035.45090349.3156812 1.35278019.5414466 2.29989361.5414466 2.25514483 0 4.42016463-1.8943662 4.42016463-4.7359853 0-3.4050219-1.849478-5.5020821-5.02873449-6.6072801-1.51086477-.5184449-1.71411637-.901807-1.71411637-1.4884903 0-.6761113.38371058-1.1498772 1.19511383-1.1498772.92466931 0 1.30796168.9922805 1.48842063 1.9845609l2.0295188 1.8942966h1.2603551l1.5949953 1.4637461h1.5091919v3.0211719c0 .813564-.1371042 1.464234-.59449 1.5570076l-.869256.1394044v1.9028002l1.4403261 1.8832836h6.4360218v-1.0759231l.8101486 1.0759231h5.6721555v-.7847073l.5852894.7847073h5.8273125v-1.0594037l.8100092 1.0594037h6.4390191v-1.7054036l-1.4637461-1.9069126v-6.7758898l1.4410231 1.8845383h2.183491v2.914179c0 .784777-.1578755 1.4124453-.5854288 1.5018732l-.8783173.1344555v2.0745464l1.4367713 1.8786136h9.8549842v-5.4111905l-1.7510585-2.3257531h-1.1067315v-1.0456723l-1.9520796-2.7189432-.0223744-.5809678c-.0220956-.4416331.1555753-.8131458.5325944-.8131458.355063 0 .4660289.2787391.4660289.7664453v.8136337z" fill="#0061a0"/><path d="m53.1130862 28.2990701h-9.0612853v-1.4590064l.8164218-.1250457c.4412846-.0724206.6473243-.6114277.6473243-1.6966211v-7.7559026c0-.9829404-.2437486-1.6178577-.6517156-1.6974576l-.8120305-.1242093v-1.4307072h8.9915831v5.0882602h-1.5334483v-1.0391203c0-1.6974576-.9227177-2.4578388-1.8367225-2.4578388-.9983446 0-1.3695785.3990451-1.3695785 1.471483v2.8619024h2.1607681v1.7425549h-2.1607681v3.5786501c0 1.0022478.4226741 1.4491086 1.3695785 1.4491086 1.270183 0 1.8367225-.7512503 1.8367225-2.4354644v-1.1982504h1.6031505zm-11.9887775 0h-5.6458778v-1.4590064l.8035269-.1250457c.4549463-.090822.6602192-.6143552.6602192-1.6966211v-7.1114361c0-1.3974593-.2727447-2.0769163-.8334291-2.0769163-.8766445 0-1.1879345 1.4449962-1.1879345 2.6822101v1.3528499h-1.6031505v-5.8549843h9.8280094v5.8549843h-1.463746v-1.3528499c0-1.2372139-.3112203-2.6822101-1.1878648-2.6822101-.5606845 0-.8334989.679457-.8334989 2.0769163v7.1114361c0 1.0976701.2050639 1.6050324.6857999 1.6974575l.7779462.1246275zm-14.0241512-6.7611129.8519699-3.1042569.6691411 3.1042569zm6.0822832 5.1120983c-.3764616-.1338979-.7477652-.9051527-1.1040131-2.2927839l-2.6645058-10.3471514h-2.2361858l-2.5976614 9.6262216c-.6538763 2.4116959-1.0338229 2.9510515-1.5048007 3.1021658l-.5614511.1794135v1.4508512h4.9488558v-1.4587973l-.6430028-.175301c-.450555-.1658215-.7424677-1.1168383-.4292958-2.3628347l.1591998-.6034119h2.5437816l.137871.598254c.3841288 1.8494083.0016031 2.2339553-.4200255 2.3653439l-.6515064.1779497v1.4587973h5.71558v-1.4461115zm-12.2020662 1.6490146h-5.5761756v-1.4590064l.8034572-.1250457c.455016-.090822.6602889-.6143552.6602889-1.6966211v-7.1114361c0-1.3974593-.2728144-2.0769163-.8334988-2.0769163-.8767142 0-1.1878648 1.4449962-1.1878648 2.6822101v1.3528499h-1.6031505v-5.8549843h9.8280094v5.8549843h-1.5334483v-1.3528499c0-1.2372139-.3111506-2.6822101-1.1878648-2.6822101-.5606147 0-.8334988.679457-.8334988 2.0769163v7.1114361c0 1.0976701.2051336 1.6050324.6859393 1.6974575l.7778068.1246275zm-12.91588636.1342464c-.87085921 0-1.65131469-.2976981-2.15268257-.5473713l-.07416314-.0355482c-.47055951-.224441-.84221161-.402321-1.16137796-.402321-.29616463 0-.5271577.4113823-.72037218.7970446l-.02704445.0539495h-1.28015051v-5.018558h1.30113087l.01498597.0793908c.10197431.5495321.30599263 1.0338229.68133895 1.6182758.62369524.9936048 1.79232223 1.5862825 3.12691015 1.5862825.84890303 0 1.54013969-.718072 1.54013969-1.6007805 0-1.2428599-1.21665181-1.7565651-1.87010988-2.032516l-1.74938568-.7142384c-2.05161439-.8622859-2.88769221-2.1437607-2.88769221-4.4237892 0-2.2830257 1.73948796-3.939568 4.13654643-3.939568.70789549 0 1.46047008.1365466 1.89199637.272187l.06384721.0200046c.32787912.1023925.63728716.1992785.93895826.1992785.22799584 0 .38489554-.1557147.53607954-.3059229l.028787-.0281597.0411243-.0008364h1.1969261v4.3912382h-1.2745046l-.017565-.0752783c-.1598968-.6821057-.42427721-1.2813355-.7447679-1.685887-.39005348-.4978828-1.46618567-1.2171397-2.3914126-1.2171397-1.19692608 0-1.74255486.9014585-1.74255486 1.7388606-.02049244 1.1816613.69695224 1.5803579 2.42054811 2.0785892 3.14301135.9335912 4.31122015 2.2516597 4.31122015 4.8631221 0 2.5091396-1.7394183 4.3296912-4.13675556 4.3296912z" fill="#000"/><path d="m44.2609075 28.1596029h8.6430721v-4.8790839h-1.1849373v1.0005053c0 1.1293847-.2160768 2.6308397-2.0871625 2.6308397-1.0816387 0-1.6070538-.5377525-1.6070538-1.6444839v-3.7991181h2.2304702v-1.3940439h-2.160768v-3.0119015c0-1.1837524.4568281-1.6666492 1.5767333-1.6666492 1.0191855 0 2.0477808.8203251 2.0477808 2.6530746v.910241h1.2546395v-4.7397493h-8.7127743v1.0970429l.6478122.099465c.5201177.1019743.8159338.7911199.8159338 1.8919964v7.7634304c0 .754596-.0843396 1.7719692-.8146095 1.8915085l-.6491365.0998135zm-8.57337-.0696325h5.2276646v-1.0964852l-.6157492-.0988377c-.7520866-.1442835-.8479969-1.0857511-.8479969-1.8901841v-7.1114361c0-.5621482 0-2.2720824 1.0400962-2.2720824 1.0320804 0 1.3994806 1.4863993 1.3994806 2.8773763v1.1576837h1.045533v-5.4367712h-9.4097963v5.4367712h1.1849373v-1.1576837c0-1.390977.3673306-2.8773763 1.399411-2.8773763 1.0401658 0 1.0401658 1.7099342 1.0401658 2.2720824v7.1114361c0 .8031784-.0934009 1.744158-.821998 1.889278l-.6417481.0997438zm-8.8441629-6.3428997.9952776-3.6245141h.243191l.7816404 3.6245141zm6.2580024 5.0758533c-.4497883-.1597575-.8388659-.9298273-1.2216007-2.4228483l-2.6201054-10.180842h-1.9299144l-2.5521459 9.4638155c-.6087092 2.2455259-1.0046874 3.0306514-1.6300555 3.2317422l-.4246257.1353617v1.1094498h4.5306426v-1.1116106l-.5213027-.1382194c-.5651454-.2020667-.9294788-1.2285012-.5747643-2.6001707l.203391-.7502744h2.9264466l.1785073.7519473c.3410529 1.5961802.169934 2.3723142-.5716974 2.5972432l-.5253454.139474v1.1116106h5.2973668v-1.1141198zm-17.4880715 1.2670464h5.1579624v-1.0964852l-.6156795-.0988377c-.7520867-.1442835-.8480666-1.0857511-.8480666-1.8901841v-7.1114361c0-.5621482 0-2.2720824 1.0402356-2.2720824 1.0320107 0 1.3993412 1.4863993 1.3993412 2.8773763v1.1576837h1.1152351v-5.4367712h-9.4097962v5.4367712h1.1849373v-1.1576837c0-1.390977.3672609-2.8773763 1.3993412-2.8773763 1.0402356 0 1.0402356 1.7099342 1.0402356 2.2720824v7.1114361c0 .8031784-.0934009 1.744158-.821998 1.889278l-.6417481.0997438zm-10.92930409-.8510637c.36231201 0 .75062293.1859654 1.241884.4212103l.07562688.0363846c.48226949.2412393 1.22989522.5277153 2.05997866.5277153 2.27647365 0 3.92890355-1.7388607 3.92890355-4.1347342 0-2.5053757-1.126945-3.7725616-4.15787526-4.6757626-1.55770464-.4517399-2.57737805-.8532943-2.55256407-2.2676215 0-.9592416.66342549-1.9322842 1.93179633-1.9322842.99708989 0 2.11378875.7497865 2.53709017 1.2912331.32467283.4113824.59386273 1.0084514.76086913 1.6872113h.921463v-3.9730251h-.958196c-.1581543.1566209-.3537387.3349888-.64418771.3349888-.33059751 0-.65317926-.1007894-.99451091-.2077823l-.06370781-.0201439c-.41647061-.1309007-1.14276748-.2636137-1.82745213-.2636137-2.31299762 0-3.92855509 1.5401397-3.92855509 3.7450292 0 2.188161.79927507 3.4173592 2.75874316 4.2442363l1.7438792.714099c.69416416.2939342 1.98393356.8404691 1.98393356 2.2121386 0 .9901894-.77620363 1.7953194-1.73014787 1.7953194-1.39780781 0-2.62477554-.6268318-3.28178842-1.676756-.36990955-.57811-.57971315-1.0640737-.69074875-1.6071235h-.94063111v4.6003448h.96070534c.2221409-.4387753.47502046-.8510637.86549215-.8510637z" fill="#62b5e5"/><path d="m82.8716853 19.5503364c0-1.1864011.351787-1.6475508.7472075-1.6918117l.6812693-.1096415v-1.7212957c.3757645.0533919.6493456.3519961.6493456 1.2755501v7.6756754c0 .7690243-.1538327 1.3837977-.5712094 1.4724589l-.8572673.1318765v1.2312893l-.6493457-.8486939zm13.4724584 3.5168242h-1.5286388c.9370066-.5359402 1.6516632-1.6068447 1.6516632-3.0578353 0-2.5888789-1.9865823-6.2274031-6.0487565-6.2274031h-6.8973806v.8084757l-.902504-.8084757h-6.1750569v2.0536357l.7031558.1340373c.4176555.0444003.725321.356945.725321 1.3836583v7.6127343s-.1361981 1.405963-.5601965 1.4960182l-.3368707.0518584c-.1574573-.3087807-.2767874-.6206283-.3521355-.8883544l-2.3883457-9.1963682-2.4996601-2.6472196h-2.5446877l-1.0578702 4.0167283v-2.0227576l-1.6632338-2.2536811h-10.2192478v2.0633941l.7035739.1338979c.4170979.045167.7249028.3589663.7249028 1.3902799v7.6468187c0 .7838709-.1538327 1.4123059-.5710003 1.5016641l-.8574764.1345949v2.0627668l1.406172 1.8839109h6.5154824v-2.0076323l-1.4934393-1.9613501v-2.6540504l2.2726401-.0218865v-1.8276613l-2.3415058-2.8407826-.0220956-.5062471c-.0230714-.726715.2498823-1.1893982.7726488-1.1893982.4092913 0 .6818966.4190496.6818966 1.1893982v.8149581l1.4318225 1.8492689h1.7667415l-.6910276 2.5704079c-.5131475 1.8728282-.9147019 2.6079773-1.4728771 2.7861361l-.5801313.1785073v1.8289159l1.5398609 2.0511265h5.6675551v-.7804555l.5807587.7804555h5.7825637v-.0649625h6.2333976v-.9018767l.6554794.9018767h6.4870439v-1.8968755l-1.5584017-1.897712v-2.6336277h1.0504121c.1562723.4423301.2235349 2.4335127.89407 3.8266505.8048513 1.7032428 2.168505 2.5205011 3.4203564 2.5205011 1.810166 0 2.816596-1.0614251 2.816596-3.93678v-1.3041281z" fill="#006845"/><path d="m90.2150903 19.8205788h-2.2138114v-2.4116263c0-1.1300119.3363828-1.2245281.6519944-1.2245281h1.561817c.6458606 0 1.4001777.4875668 1.4001777 1.8622335 0 1.1104954-.7118685 1.7739209-1.4001777 1.7739209zm4.6689318 3.5062992v1.1242964c0 .6549218-.1368254 1.130221-.3255092 1.130221-.2818757 0-.3651001-.7068499-.4601042-1.786049-.1208636-1.3320786-.445397-2.1072367-1.1122379-2.6392736.6311533-.3823165 1.5805669-1.2901179 1.5805669-3.2892465 0-2.4665516-1.5209019-3.8251868-4.2821543-3.8251868h-6.3739869v1.4165577l.792514.1234426c.3982783.0795302.6359628.7113806.6359628 1.6901388v7.7228638c0 1.0775959-.1963511 1.5988289-.6320595 1.6895115l-.7964173.1238608v1.4537089h5.6490144v-1.4530119l-.5978357-.077718c-.6644014-.0734661-.9604963-.6070364-.9604963-1.7296599v-2.8432222h2.0143237c.7652604 0 1.2445327.8977642 1.4240159 2.6701516.3142175 2.7923396.9880286 3.734783 2.6699425 3.734783 1.5894192 0 2.2679003-1.2227856 2.2679003-4.0885913v-1.1475769zm-12.59672 5.0647008h-5.5841216v-1.456497l.7970446-.1240699c.4354296-.091519.6314322-.6137279.6314322-1.6927178v-7.7379892c0-.9807098-.2374057-1.6138846-.6353355-1.6934148l-.7931413-.1241396v-1.4561485h5.5841216v1.4546848l-.7972537.1246275c-.3938174.0788332-.631223.7113109-.631223 1.6909752v7.7447503c0 1.0785717.1998361 1.6002229.6477424 1.6916722l.7807343.1232335zm-12.958335-6.752888.8483455-3.0898983.6664226 3.0898983zm6.035304 5.0421174c-.3745796-.1330615-.7436528-.9003433-1.0976005-2.280377l-2.630979-10.2205025-.0187499-.0733267h-2.2235697l-2.5827451 9.5771512c-.6505306 2.3989404-1.0277589 2.9346715-1.4965062 3.0851585l-.5583842.1784376v1.4442295h4.9348456v-1.4422081l-.6602192-.1731402c-.4611497-.1636608-.7602418-1.1031767-.4396117-2.3343265l.1631031-.5955356h2.6079076l.1414955.5906564c.3942356 1.8266854.0020911 2.2067715-.4305505 2.3369055l-.6678864.1754404v1.4422081h5.6490144v-1.4393503zm-13.0110299 1.515953h-5.843832v-1.4525938l.7962082-.1240699c.4358478-.0913795.6322686-.6129611.6322686-1.6901388v-7.7230031c0-.9785491-.2378239-1.6103995-.6362416-1.6901388l-.7922352-.1237911v-1.4812414h9.674804v5.0647009h-1.8180423v-1.0352867c0-1.5896283-1.1663268-2.4471047-2.2637879-2.4471047-.9365884 0-1.3724362.4654016-1.3724362 1.4650705v2.8614145h2.1427849v1.7531496h-2.2076776v3.3590184c0 1.0549427.2285535 1.4700193.906477 1.6451809l.7817101.1730009z" fill="#000"/><path d="m90.2546254 20.0803031h-2.4481502v-2.649241c0-1.010403.2569223-1.4414414.8591493-1.4414414h1.5890009c.806315 0 1.6202972.6466272 1.6202972 2.0902991 0 1.2519908-.8238799 2.0003833-1.6202972 2.0003833zm4.8242283 3.4414064v.9351247c0 .3128931-.0377089 1.3344485-.5215118 1.3344485-.4601042 0-.5447924-.7147263-.6552007-1.9771725-.1204453-1.3338909-.4451879-2.0819348-1.1211597-2.5820481l-.0396606-.0293446v-.1524387l.0504644-.0280203c.5895412-.3281579 1.5786153-1.179849 1.5786153-3.1954274 0-2.3914126-1.4173941-3.6553225-4.0986982-3.6553225h-6.166344v1.0939063l.631711.0986983c.5078502.1016955.7968355.7889591.7968355 1.8858626v7.7388255c0 .8008085-.0902644 1.7387213-.7923049 1.8848171l-.6362416.0993953v1.0939062h5.3244112v-1.0871451l-.4265077-.0557618c-1.0141669-.1123599-1.1318242-1.151062-1.1318242-1.9226653v-3.0380398h2.0640214c.8937912 0 1.4453447.9527593 1.6393956 2.8318607.3070381 2.6770522.9167232 3.5367591 2.5083031 3.5367591 1.0903515 0 2.0994998-.4685382 2.0994998-3.8672869v-.9429313zm-18.1809113 4.6750656h5.2595185v-1.0917455l-.6222315-.0982103c-.7150748-.1453988-.806315-1.0821266-.806315-1.8818896v-7.7513022c0-1.0947427.2756722-1.7804729.7562688-1.881332l.6073152-.0995347v-1.091397h-5.194556v1.0936275l.6320595.0991165c.507432.1016955.796487.7888197.796487 1.8857929v7.7387558c0 .8003903-.0900553 1.7380939-.7914685 1.8847473l-.637078.0993954zm-7.831878-6.3633224.9981354-3.6361544h.2438183l.78408 3.6361544zm6.2304004 5.0308256c-.4487428-.1593392-.8368446-.9271786-1.2181156-2.4149023l-2.6122988-10.1480122h-1.9237109l-2.5440604 9.4336344c-.614146 2.2657396-.994023 3.0180354-1.6251764 3.2205202l-.4225347.1351526v1.1061041h4.5452104v-1.0985763l-.5157962-.1368254c-.5580358-.1992785-.9179082-1.2129576-.5677244-2.5683167l.2008817-.741492h2.8937564l.1766253.743583c.337498 1.576594.1681914 2.3433878-.5651454 2.5652499l-.5187934.1378012v1.0985763h5.2594488v-1.111053zm-18.5273313 1.1376792h5.389304v-1.0962761l-.6295502-.1396832c-.8857755-.2291111-1.0586369-.8466726-1.0586369-1.8358164v-3.5512571h2.2076776v-1.4284768h-2.2076776v-2.9992854c0-1.1169777.5125899-1.6601669 1.5672538-1.6601669 1.1919075 0 2.4585358.9261331 2.4585358 2.6422011v.8484848h1.4284768v-4.6750656h-9.1553833v1.0936274l.6312928.0990469c.5081987.1019743.797184.7892379.797184 1.8857928v7.7388256c0 .8006691-.0902643 1.7384424-.7922351 1.8853746l-.6362417.0997439z" fill="#93c911"/><path d="m43.1705909 3.27909792c0-.819419.1238608-1.62420054.7994842-1.62420054.6644013 0 .7994841.80478154.7994841 1.62420054v3.89230995c0 .99506852-.1350828 2.00470481-.7994841 2.00470481-.6756234 0-.7994842-.93651868-.7994842-2.00470481zm3.1115756.73340649c-.011222-1.82682482-.9222297-3.30290819-2.3280533-3.30290819-1.4058235 0-2.328123 1.5784062-2.328123 3.30290819l-.0111523 2.79136378c-.0112918 1.98755808.9334518 3.30290821 2.3392753 3.30290821 1.4170457 0 2.3392754-1.56376875 2.3280533-3.40523103zm-6.309582 1.11147119v-4.33115496h-.8098698c0 .3778556-.0672626.46498334-.179274.46498334-.1344556 0-.3585481-.11626326-.5378222-.24702458-.2912855-.18889294-.5825709-.27602069-.9075226-.27602069-1.4117482 0-2.3193405 1.77259651-2.3193405 3.29816844v2.41190504c0 1.77259651.6723474 3.63239051 2.442574 3.63239051 1.6246188 0 2.2632303-1.55463779 2.2632303-3.10934524h-1.1539896c0 1.61276937-.4033666 2.17944822-1.0756442 2.17944822-.6609859 0-.9635632-.84276924-.9635632-1.99055528v-3.85571629c0-.81663091.1364769-1.61862436.8188614-1.61862436.8870999 0 1.251015 1.9978043 1.251015 3.44154585zm-6.3960128 0v-4.33115496h-.8099395c0 .3778556-.0671929.46498334-.1792043.46498334-.1345253 0-.3585481-.11626326-.5378222-.24702458-.2912854-.18889294-.5826406-.27602069-.9075922-.27602069-1.4116786 0-2.3192709 1.77259651-2.3192709 3.29816844v2.41190504c0 1.77259651.6722777 3.63239051 2.4425043 3.63239051 1.6246188 0 2.2633-1.55463779 2.2633-3.10934524h-1.1540592c0 1.61276937-.4032969 2.17944822-1.0755746 2.17944822-.6610556 0-.9635631-.84276924-.9635631-1.99055528v-3.85571629c0-.81663091.1364769-1.61862436.8187917-1.61862436.8870998 0 1.2510149 1.9978043 1.2510149 3.44154585zm-8.1246969-4.24535156v.83022284l.3489292.07283879c.326276.05834074.3376374.36419397.2362904 1.03424117l-.4839423 3.53961684-.8891212-5.47691964h-.9726941l-.6313625 5.44778412-.6313625-3.62702339c-.1126387-.62634392-.1240002-.87392612.1127085-.9176991l.3607785-.07283879v-.83022284h-2.5929216v.83022284l.3494171.07283879c.2368481.04377298.3833621.46616828.4735567.96140237l1.273947 7.31231786h.9131685l.6426542-5.49148743.9018767 5.49148743h.9144231l.911635-6.67133648c.1350131-.99053788.2588042-1.54404301.5739976-1.60238375l.3488595-.07283879v-.83022284zm32.5509946 6.43274583c-.0966073-.02746266-.2206772-.10657465-.265426-.32634567l-.0004879-.02983254c.0964678-.69792808.2294596-1.41404842.3956993-2.12954145.1654731-.71200792.3692126-1.41251497.605503-2.08235306.0462823-.1015561.1103386-.16895812.1934933-.20757313.0433548-.02376845.0930524-.0378483.1437259-.03966055.0416819-.00118494.0789726.00571558.1097113.01979542.0598742.01658912.1259518.06133793.1850593.1270671l.0090613.01164027c.037221.05917716.057574.12943697.0600833.2096642l.0021608.0573649-.0060641.01596181c-.2257654.64648785-.4237894 1.32434169-.5875198 2.01557836-.1651245.69402475-.2976981 1.39341657-.3937477 2.07858914l-.001185.00927039-.0034154.00885218c-.0799484.22004983-.2267412.27051422-.3365919.27399933l-.0279506.00090612c-.0362451-.0031366-.0600135-.00731873-.0821091-.01338282zm-2.5846968-.18143481.4674229-.01505567-.041194-1.29206958c-.0080157-.26479864-.0890097-.39458413-.2413787-.38977468-.1595483.00473975-.2344085.14316831-.2261139.41472806zm1.9878369.70050705c-.0078764.18380469-.0455853.38015577-.1136146.58954117-.0685173.20938539-.1552965.40392421-.2615923.58340736-.1063656.17927405-.226114.32927317-.3577814.44937005-.1315978.11960897-.2694687.18227124-.4117309.18652307l-.5190722.01658913c-.1762072.00585498-.3265548-.02669594-.4509732-.09758308-.1246972-.07088713-.228205-.19286597-.312475-.36684265-.0835032-.17404637-.1488141-.40427272-.1948176-.69165487-.0471884-.28724274-.0763936-.64112079-.0901249-1.06177353-.0142193-.46798053-.0169377-.85838253-.0064823-1.17141508.0101765-.31254464.0384756-.56319373.0830153-.75097145.0448185-.18833532.1066443-.32460311.1856866-.40838515.0785544-.08420025.1792044-.12825204.3016014-.13201596l.6818269-.02167738c.1081778-.00355481.1987907.02432606.2723962.08329412.0734661.05896806.1358496.15919981.187708.30048616.0519978.14121665.0924251.33052781.1197484.56807289.0279505.23698746.0478157.52938816.058968.87608688.0087825.28570929-.0321327.48770625-.1237911.60633939-.0912402.11884224-.2586648.18178332-.5031104.18965967-.0669838.00216077-.1566906-.00153345-.2702354-.01191907-.1136146-.00982801-.1971178-.01749526-.2505097-.02258352l.0204924.64244513c.0068308.21781936.0188196.39479323.0365937.53001549.0179134.13564047.0443306.24353947.079809.32425461.0359663.08064544.0830153.13557077.1396832.16414867.0573649.0287173.129437.04175161.2160768.03903322.1487445-.00467004.296304-.05868924.4424695-.1620576.1459564-.10274103.2811787-.23301443.4054577-.38956556.1240699-.15669054.2288323-.33310679.3142175-.52973668.0851761-.19628138.1391953-.38608046.1600362-.57023365zm-7.2861098-4.25043982-.0200743-.63080486c-.0244654-.34593199-.0405666-.59616287-.0489309-.75243519-.0082946-.15592381-.0787635-.23169009-.2112674-.22764736-.1258124.00390332-.1842229.13487374-.1762071.39270216l.1048321 3.29719261c.2724659-.17829821.3899838-.87148654.3516476-2.07900736zm4.1904262 4.77655199c-.042588.25984978-.1030895.49258541-.1810166.6987645-.0785544.20624879-.1767648.37248853-.2949797.49844039-.1182149.12595187-.2489065.19119312-.3912384.19586317-.1832471.00592469-.3404255-.02815969-.4718839-.10239253-.131528-.07346611-.2377541-.21433424-.3190966-.4227438-.0253716-.06503215-.0485127-.14093784-.0703992-.22109537-.026208.05436772-.054298.10803841-.0843397.15989684-.1029501.17627685-.2272291.32306967-.372837.43968144-.1460958.11668147-.3068988.1777406-.4833847.18324707-.0815516.00250928-.1586422-.03387527-.2327357-.10985066-.0733964-.07541777-.1375224-.17035216-.1925174-.28389704-.0543677-.11361457-.0988377-.23642984-.1334797-.36781848-.0122676-.04628225-.0205622-.09068255-.0287173-.13536166-.0455853.12887936-.0995348.24841862-.1632426.35541149-.0962587.16296373-.2109885.29560701-.3434227.39806923-.132713.10260163-.2808301.15703905-.443515.16212731-.42365.01352222-.7537596-.32599716-.9883075-1.01772174-.0147071-.02697475-.0337358-.19112342-.0569467-.49237631-.0234896-.30160139-.0471883-.6829421-.0720023-1.14388271-.0256504-.46080121-.0503947-.97450638-.0752784-1.54097612-.0252322-.56598182-.0457943-1.12422669-.0630108-1.67354969-.0146374-.4479063-.0183317-.83301092-.0116402-1.15608059.0068308-.32286057.0336661-.58835623.0816212-.79746281.0476763-.20854897.1223971-.3653092.2246502-.47021101.1015561-.1050412.2407514-.16073326.4175161-.16610033.2983951-.0095492.5204663.09883772.66705.32495164.146305.22653213.22939.644815.2491854 1.25519711.0147072.48199068.0219562.91316845.0204227 1.29311512-.0009061.38057398-.025511.71904784-.0726296 1.01611859-.0483734.29693135-.1202363.55880249-.2169133.78617105-.0971648.22688064-.2326659.42852909-.4085245.603621l.0541586 1.69947891c.0154739.48219978.1487444.71890844.3993238.71068358.0883824-.00250928.1775315-.03959085.2664715-.11026887.0899159-.07081743.1716068-.16331225.2461185-.27783295.0743025-.1142419.1364072-.24535173.1858957-.39305068.022235-.06558976.0396606-.13222506.0548557-.19962708l-.0993257-3.12509789.7952324.64753338.0861519 2.72695896c.012407.38001636.0997438.56758497.2626378.5622876.1355011-.00467004.2574103-.11884224.3659366-.34279539.0180528-.03743008.0348511-.07813616.0512311-.11807552-.0011153-.01428895-.0037639-.02648683-.0055762-.04119399-.0452367-.36551831-.0770906-.83635664-.0957011-1.41300289-.0029275-.09472528-.0050883-.21203408-.0062732-.35115966-.0011152-.13891647-.0043912-.30724727-.0108038-.50436508l-.0270445-.85427009.7224632-.02279262.105111 3.2968441c.0157527.50220431.1032289.75034412.2624287.74546497.1596877-.00494886.2318295-.23475699.2177497-.68935471l-.1182846-3.72474587.7846376.64753339.0655897 2.07580106c.0085037.26493804-.0085036.52680918-.0513705.78589224zm3.6356665.8353808c.3052956-.01003712.4514611-.21307961.4389147-.61010331-.013104-.39688429-.1717462-.59065639-.4773206-.58096779-.298186.0094795-.4411452.2128008-.4292262.60947599.0129647.396954.16854.5906564.4676321.58159511zm-6.6984506-5.39278909c.3052956-.01003711.4513217-.21307961.438845-.61031241-.0129646-.39667519-.1716068-.59051699-.4773903-.58082839-.298186.0096189-.4410755.2128705-.4288079.60954569.0126161.3970237.1682611.5905867.4673532.58159511zm13.3980861 2.89884457h.4841514v-.51049887c0-.45125201.0981407-.90612853.3178421-.90612853.0787634 0 .2103612.09019464.2103612.69367624v2.52879562c0 .35164757-.0547162.53524315-.164079.56096326l-.2760904.04962796v.57664626h1.7606775v-.57608864l-.2663321-.04948856c-.1185635-.02662624-.1738373-.20499415-.1738373-.56166028v-2.52879562c0-.6034816.1318765-.69367624.2103612-.69367624.2195619 0 .317842.45487652.317842.90612853v.51049887h.4841515v-2.11281292h-2.9050481zm-2.3334901-.36105737-.1916113.84520881h.3423772zm1.4951121 2.6837436.2221409.10692316v.56347255h-1.6726436v-.59922977l.1685399-.07186296c.0907523-.037918.1851988-.16380016.0865702-.79781132l-.0308781-.15968773h-.6082214l-.0357572.16282433c-.083085.44253923.0021608.75236548.0927736.79697489l.1949571.06956279v.59922977h-1.5405579v-.56744557l.1860351-.07228118c.139265-.05457681.2459094-.33240976.4081761-1.06163412l.7525746-3.40453399h.7101259l.7722307 3.65776206c.1303431.62258.2402634.75459596.2939341.77773709zm17.2563814-2.63083963v-1.80465952h-2.7729624v.57657655l.2761601.04934916c.0819001.01874989.1639396.19948768.1639396.56152088v2.72284652c0 .35164757-.0542283.54054052-.1599666.56096326l-.2801331.04962797v.58501052h2.6849982v-1.89269339h-.4842211v.45585235c0 .56633033-.1573876.81893108-.5105686.81893108-.259083 0-.3697701-.14163486-.3697701-.47306879v-1.241884h.6602889v-.74825306h-.6602889v-.95317751c0-.3555509.0967466-.48115425.3697701-.48115425.3050168 0 .5105686.33254917.5105686.82729535v.38691688zm-5.4360044-1.24906333.2578284.04460941c.0802272.0159618.1697248.17090978.1777406.55775696l.0186802.88201157-.9265513.01944691-.0185408-.88201157c-.0080157-.38705629.0752087-.54604699.1463049-.56430897l.2571314-.05569205-.0120585-.57594923-1.70624.03582692.0120585.57643715.2626379.04384268c.0774391.01707704.158921.19621168.1664488.55817518l.0570861 2.7221495c.0074581.35164757-.0399394.53628869-.1394044.56403016l-.2640319.05520414.0121979.57650685 1.7124435-.03596633-.0121282-.57643715-.2622893-.04342447c-.1088052-.02411696-.1656125-.2065973-.1729312-.55824488l-.0211895-1.00789373.9264119-.01944691.0211895 1.00782403c.0074581.35666613-.0422396.53607958-.1529266.56437867l-.2570617.05555265.0120584.57601893 1.706031-.03582692-.0121282-.57594924-.2560859-.04398208c-.1088051-.02425637-.1653336-.20666701-.1726523-.55831458l-.0571558-2.7221495c-.0080855-.38712599.0750692-.54597729.1463746-.56430897l.2567829-.05562235-.0121979-.57601894-1.7058915.03582693zm-5.6560543-.55559619h2.905048v2.11281292h-.4841514v-.51049887c0-.45125201-.0985589-.90612853-.3177723-.90612853-.0787635 0-.2104309.09019464-.2104309.69367624v2.52879562c0 .35666613.0550647.53503404.1735584.56166028l.2666109.04948856v.57608864h-1.6726435v-.57664626l.275951-.04962796c.109293-.02572011.1642183-.20931569.1642183-.56096326v-2.52879562c0-.6034816-.1317371-.69367624-.2102218-.69367624-.219771 0-.3179814.45487652-.3179814.90612853v.51049887h-.5721853z" fill="#3d3d3d"/><path d="m42.5871765 2.5695017c0-.819419.1238608-1.62420054.7994842-1.62420054.6644013 0 .7994842.80478154.7994842 1.62420054v3.89230994c0 .99506853-.1350829 2.00470482-.7994842 2.00470482-.6756234 0-.7994842-.93651868-.7994842-2.00470482zm3.1115757.73340649c-.011222-1.82682482-.9222297-3.30290819-2.3280533-3.30290819s-2.328123 1.57840619-2.328123 3.30290819l-.0111523 2.79136378c-.0112918 1.98755808.9334517 3.30290819 2.3392753 3.30290819 1.4170456 0 2.3392754-1.56376873 2.3280533-3.40523101zm-6.309582 1.11349256v-4.33108526h-.8098698c0 .37778589-.0672627.46491363-.1792741.46491363-.1344555 0-.3585481-.11619355-.5378221-.24702457-.2912855-.18882325-.582571-.27602069-.9075226-.27602069-1.4117482 0-2.3193405 1.7725965-2.3193405 3.29816844v2.41190503c0 1.77259651.6723474 3.63239047 2.442574 3.63239047 1.6246187 0 2.2632302-1.55463775 2.2632302-3.1093452h-1.1539895c0 1.61283908-.4033666 2.17951792-1.0756443 2.17951792-.6609859 0-.9635631-.84276923-.9635631-1.99055527v-3.85571629c0-.81663092.1364769-1.61869407.8188614-1.61869407.8870998 0 1.251015 1.997874 1.251015 3.44154586zm-6.3960128 0v-4.33108526h-.8099395c0 .37778589-.0671929.46491363-.1792044.46491363-.1345252 0-.358548-.11619355-.5378221-.24702457-.2912855-.18882325-.5826406-.27602069-.9075923-.27602069-1.4116785 0-2.3192708 1.7725965-2.3192708 3.29816844v2.41190503c0 1.77259651.6722777 3.63239047 2.4425043 3.63239047 1.6246188 0 2.2633-1.55463775 2.2633-3.1093452h-1.1540593c0 1.61283908-.4032969 2.17951792-1.0755745 2.17951792-.6610556 0-.9635632-.84276923-.9635632-1.99055527v-3.85571629c0-.81663092.1364072-1.61869407.8187917-1.61869407.8870998 0 1.251015 1.997874 1.251015 3.44154586zm-8.1246969-4.28821841v.83022284l.3489292.07283879c.3262759.05834073.3376374.36419396.2362904 1.03424116l-.4839423 3.53961684-.8891212-5.47691963h-.9726941l-.6313625 5.44778411-.6313625-3.62702339c-.1126387-.62634392-.1240002-.87392611.1127084-.91769909l.3607786-.07283879v-.83022284h-2.5929216v.83022284l.3494171.07283879c.236848.04377298.383362.46616827.4735567.96140237l1.273947 7.31231782h.9131684l.6426543-5.4914874.9018767 5.4914874h.9144231l.911635-6.67133644c.1350131-.99053789.2588042-1.54404302.5739975-1.60238375l.3488595-.07283879v-.83022284zm32.7858909 6.69524429c-.0966072-.02746266-.2206771-.10657466-.2654259-.32634567l-.000488-.02983254c.0964679-.69792808.2295294-1.41404842.3956994-2.12947175.165473-.71207762.3692125-1.41258467.605503-2.08235306.0462822-.1016258.1103385-.16895812.1934933-.20757314.0434244-.02383815.0931221-.03791799.1437259-.03973025.0416819-.00118493.0789726.00578529.1097112.01986513.0598742.01651942.1259519.06126823.1850594.1269974l.009131.01164026c.0371512.05917717.0575043.12943698.0600135.20973391l.0021608.0572952-.0059944.0159618c-.2258351.64655756-.423859 1.3243417-.5875895 2.01564806-.1651245.69402476-.2976981 1.39341658-.393678 2.07858915l-.0012546.00920069-.0034154.00885218c-.0799484.22011953-.2266716.27051421-.3365919.27399932l-.0279506.00090613c-.0362451-.0030669-.0600136-.00731873-.0821092-.01338282zm-2.5846968-.18136511.4674927-.01512538-.0412637-1.29199987c-.0080158-.26486834-.0890097-.39465383-.2413787-.38977468-.1595484.00467005-.2344085.14309861-.2260443.41465836zm1.9878369.70043735c-.0078763.18387439-.0455155.38022547-.1136146.58961087-.0685172.20931569-.1552267.40385451-.2615923.58333766-.1063655.17927405-.2261139.32927317-.3577814.44937005-.1315977.11967867-.2694686.18227124-.4117308.18659277l-.5190723.01658913c-.1762071.00578528-.3265547-.02669594-.4509035-.09758308-.1246972-.07095683-.2282746-.19293567-.3125446-.36684265-.0835032-.17411608-.1488142-.40434243-.1948176-.69172457-.0471884-.28724275-.0763936-.64105109-.090125-1.06177353-.0141495-.46798054-.0169376-.85838253-.0064823-1.17141508.0101766-.31247494.0384756-.56312403.083085-.75097145.0447489-.18833533.1066444-.32460312.185617-.40838516.0785544-.08420025.1792043-.12825203.3016014-.13194625l.6818269-.02174708c.1082475-.00355482.1987906.02439576.2723961.08336382.0734661.05896806.1358496.15913011.187708.30041646.0519979.14121665.0924251.33052781.1197484.56814259.0279506.23691776.0478854.52931846.0589681.87601718.0087824.28570929-.0321327.48777595-.1237911.60633939-.0911705.11891194-.2586649.18178332-.5031105.18972937-.0669838.00216077-.1566905-.00160315-.2702354-.01198878-.1136146-.0097583-.1971178-.01749525-.2505097-.02258351l.0204925.64244513c.0068308.21788906.0188893.39486293.0365936.53001549.0179135.13571017.0443306.24353946.079809.3242546.0359664.08064544.0830154.13557077.1396832.16414867.0574347.02871731.1295067.04175162.2160768.03910293.1487445-.00473975.2963041-.05868924.4424696-.1620576.1460261-.10281073.2811786-.23308414.4054576-.38963527.1240699-.15669053.2288323-.33303708.3142175-.52973667.0851761-.19628138.1391953-.38608046.1600363-.57023366zm-7.2861098-4.25043982-.0200742-.63080486c-.0244655-.34593199-.0405667-.59609317-.0489309-.75236549-.0082946-.15599351-.0787635-.23175979-.2112674-.22771707-.1258125.00397303-.1842229.13487375-.1762071.39277187l.1048321 3.29719261c.2724658-.17829821.3899837-.87148654.3516475-2.07907706zm4.1904263 4.77662169c-.0425881.25984978-.1030896.49258541-.1810166.6987645-.0785544.20617909-.1766951.37248853-.2949797.49844039-.1182149.12595187-.2489066.19112342-.3912384.19579347-.1832471.00592468-.3404256-.02808999-.4718839-.10232283-.131528-.07346611-.2377542-.21440395-.3190269-.42274381-.0254413-.06503214-.0485825-.14100753-.070469-.22116506-.026208.05436771-.054298.1080384-.0843396.15996654-.1029502.17627685-.2272292.32299997-.3728371.43961174-.1460958.11675117-.3068987.17774059-.4833847.18331677-.0814818.00243958-.1585725-.03394497-.2327356-.10985066-.0733964-.07548747-.1375224-.17035216-.1925175-.28396674-.054298-.11361458-.0988377-.23636014-.1334797-.36781848-.0122676-.04628226-.0205621-.09068255-.0287173-.13529196-.0455852.12887936-.0995347.24841862-.1632425.35541149-.0962587.16289403-.2109189.29553731-.3434227.39806923-.132713.10253193-.2808302.15696935-.4435151.16205761-.4235802.01352222-.7537595-.32599717-.9883074-1.01772175-.0147072-.02690504-.0336662-.19112341-.0569467-.4923066-.0234896-.30167109-.0471884-.6830118-.0720024-1.14395241-.0256504-.46073151-.0503946-.97450638-.0752783-1.54097612-.0252322-.56591212-.0457944-1.12415699-.0630108-1.67354969-.0146375-.4478366-.0183317-.83301093-.0116403-1.1560806.0068308-.32279086.0337359-.58835622.081691-.7973931.0476066-.20861867.1223273-.36537891.2245805-.47028071.1015561-.1049715.2407513-.16073326.4175161-.16610033.2984648-.0095492.5204663.09883771.66705.32495163.1463049.22660184.2293899.64488471.2492551 1.25519712.0146374.48199068.0218864.91316845.020353 1.29318482-.0009061.38050428-.025511.71904784-.0726297 1.01604889-.0483733.29693134-.1202363.55880249-.2168435.78624075-.0972346.22681094-.2327356.42845939-.4085943.603621l.0541586 1.69947891c.0154739.48219978.1487445.71883873.3993239.71068358.0883824-.00250928.1775315-.03959085.2664715-.11033858.0899158-.07081743.1716068-.16324254.2461184-.27776324.0743026-.1142419.1364072-.24535173.1858958-.39312038.022235-.06558976.0396605-.13215536.0548556-.19962708l-.0993256-3.12502819.7952323.64746368.0861519 2.72702866c.012407.38001636.0997439.56751527.2626379.5622876.1355011-.00467004.2574102-.11884224.3659365-.34286509.0180529-.03743008.0348511-.07813616.0512311-.11807552-.0010455-.01428895-.0037639-.02641713-.0055761-.04112429-.0451671-.36551831-.0770907-.83635664-.0956314-1.41307259-.0029275-.09465558-.0050883-.21196438-.0063429-.35108996-.0011153-.13891647-.0043913-.30724727-.0108039-.50443478l-.0270444-.85420039.7224632-.02286232.1051109 3.2968441c.0157527.50227401.103229.75034412.2624288.74553467.1596877-.00501856.2318295-.2348267.2177496-.68942441l-.1182846-3.72474587.7846376.64760309.0655898 2.07573135c.0085036.26493804-.008434.52687889-.0513705.78596195zm3.6356664.8353111c.3052956-.01003712.4514611-.21307961.4389844-.61003361-.0131737-.39688429-.1718159-.59065639-.4773903-.58103749-.298186.0094795-.4410755.2128705-.4292261.60947599.0129646.39695399.1685399.59065639.467632.58159511zm-6.6983809-5.39278909c.3052259-.01003712.451252-.21307961.4388451-.61024271-.0130344-.39667519-.1716766-.59051699-.4773904-.58082839-.2982557.0096189-.4411452.2128008-.4288776.60954569.0126161.3970237.1682611.5905867.4674229.58152541zm13.1889099 2.82914237h.4841514v-.51042917c0-.45132171.0981407-.90619823.3179117-.90619823.0786938 0 .2102915.09019464.2102915.69374594v2.52872592c0 .35171727-.0547162.53531285-.1640789.56103296l-.2760904.04955826v.57671596h1.7606774v-.57608864l-.2663321-.04955826c-.1185634-.02662624-.1738372-.20499415-.1738372-.56166028v-2.52872592c0-.6035513.1318765-.69374594.2103612-.69374594.2195619 0 .317842.45487652.317842.90619823v.51042917h.4841514v-2.11274321h-2.905048zm-2.3334204-.36105736-.191681.84527851h.3423772zm1.4950424 2.68381329.2221409.10685347v.56354224h-1.6726436v-.59929947l.1685399-.07179326c.0907523-.03798769.1851988-.16386986.0865701-.79788102l-.0308083-.15968773h-.6082214l-.0358269.16282433c-.083085.44260893.0021608.75236549.0928433.79704459l.1948874.06949309v.59929947h-1.5405579v-.56744557l.1860351-.07235087c.139265-.05457682.2459094-.33240977.4081761-1.06156443l.7526443-3.40453398h.7100562l.7722306 3.65776206c.1303431.6225103.2402635.75452625.2939342.77773708zm17.2564511-2.63083963v-1.80465951h-2.7730321v.57657655l.2761601.04934915c.0819698.01868019.1640092.19941798.1640092.56152088v2.72277683c0 .35171727-.054298.54061022-.1600362.56103296l-.2801331.04955826v.58508022h2.6849982v-1.89276309h-.4842211v.45585235c0 .56633033-.1573876.81900079-.5105686.81900079-.2590831 0-.3697701-.14163486-.3697701-.4731385v-1.2418143h.6602888v-.74832276h-.6602888v-.95317751c0-.35548119.0967466-.48115425.3697701-.48115425.3050865 0 .5105686.33261888.5105686.82736505v.38691688zm-5.4360742-1.24913302.2578285.0446791c.0802272.01596181.1697945.17090978.1777405.55775696l.0186802.88201157-.9265512.01937721-.0185408-.88201157c-.0080158-.38705628.0752086-.54597729.1463049-.56430896l.2571314-.05569206-.0120585-.57594923-1.70624.03582693.0120585.57650685.2626378.04377298c.0774392.01707703.158921.19621167.1664489.55817517l.0570861 2.72221921c.0074581.35164757-.0399394.53628868-.1394044.56403016l-.2640319.05513443.0121979.57650685 1.7125132-.03596633-.0121979-.57643715-.2622894-.04335476c-.1088051-.02418667-.1656124-.20659731-.1729311-.55831458l-.0211895-1.00789373.9264119-.01944692.0211895 1.00789374c.0075278.35666612-.0422396.53607957-.1529267.56437866l-.256992.05555265.0119888.57594924 1.7061006-.03575723-.0121978-.57601893-.2560859-.04398209c-.1088051-.02418666-.1653336-.2065973-.1726523-.55831458l-.0571558-2.7221495c-.0080855-.38712599.0750692-.54597729.1463746-.56430897l.2567828-.05562235-.0121978-.57601894-1.7058915.03582693zm-5.6560542-.55552649h2.905048v2.11274321h-.4841514v-.51042917c0-.45132171-.0985589-.90619823-.3177723-.90619823-.0787635 0-.210431.09019464-.210431.69374594v2.52872592c0 .35666613.0550648.53503404.1736282.56166028l.2665412.04955826v.57608864h-1.6726436v-.57671596l.2760207-.04955826c.1092234-.02572011.1641487-.20931569.1641487-.56103296v-2.52872592c0-.6035513-.1317371-.69374594-.2102218-.69374594-.219771 0-.3179814.45487652-.3179814.90619823v.51042917h-.5721853z" fill="#fff"/><path d="m79.5119071 22.6384433c-.3352675 0-.6082213-.2729538-.6082213-.608291 0-.3356161.2729538-.6085002.6082213-.6085002.3359646 0 .6089184.2728841.6089184.6085002 0 .3353372-.2729538.608291-.6089184.608291m0 1.5938801c-.3352675 0-.6082213-.2728841-.6082213-.6088487 0-.3354069.2729538-.6083607.6082213-.6083607.3359646 0 .6089184.2729538.6089184.6083607 0 .3359646-.2729538.6088487-.6089184.6088487m0 1.5938801c-.3352675 0-.6082213-.2730235-.6082213-.6089881 0-.3352675.2729538-.6081516.6082213-.6081516.3359646 0 .6089184.2728841.6089184.6081516 0 .3359646-.2729538.6089881-.6089184.6089881m0-7.9680761c-.3352675 0-.6082213-.2729538-.6082213-.6085001 0-.336104.2729538-.6089184.6082213-.6089184.3359646 0 .6089184.2728144.6089184.6089184 0 .3355463-.2729538.6085001-.6089184.6085001m0 1.5935316c-.3352675 0-.6082213-.2728841-.6082213-.6085002 0-.3357554.2729538-.6086395.6082213-.6086395.3359646 0 .6089184.2728841.6089184.6086395 0 .3356161-.2729538.6085002-.6089184.6085002m0 1.5936013c-.3352675 0-.6082213-.2730235-.6082213-.6083608 0-.3358949.2729538-.6089184.6082213-.6089184.3359646 0 .6089184.2730235.6089184.6089184 0 .3353373-.2729538.6083608-.6089184.6083608m-20.2220704 1.0430933c-.335616 0-.6085698-.2728841-.6085698-.6086396 0-.3353372.2729538-.6081516.6085698-.6081516.3356161 0 .6085699.2728144.6085699.6081516 0 .3357555-.2729538.6086396-.6085699.6086396m0 1.5931831c-.335616 0-.6085698-.2729538-.6085698-.6082911 0-.3352675.2729538-.608291.6085698-.608291.3356161 0 .6085699.2730235.6085699.608291 0 .3353373-.2729538.6082911-.6085699.6082911m0 1.59388c-.335616 0-.6085698-.2729537-.6085698-.608291 0-.3359646.2729538-.6088487.6085698-.6088487.3356161 0 .6085699.2728841.6085699.6088487 0 .3353373-.2729538.608291-.6085699.608291m0-7.9677275c-.335616 0-.6085698-.2728841-.6085698-.6089184 0-.3353372.2729538-.6078728.6085698-.6078728.3356161 0 .6085699.2725356.6085699.6078728 0 .3360343-.2729538.6089184-.6085699.6089184m0 1.5935316c-.335616 0-.6085698-.2729538-.6085698-.6085699 0-.3353373.2729538-.6082214.6085698-.6082214.3356161 0 .6085699.2728841.6085699.6082214 0 .3356161-.2729538.6085699-.6085699.6085699m0 1.59388c-.335616 0-.6085698-.2729538-.6085698-.6089183 0-.3356161.2729538-.6086396.6085698-.6086396.3356161 0 .6085699.2730235.6085699.6086396 0 .3359645-.2729538.6089183-.6085699.6089183m-20.9749934 1.3521529c-.4375207 0-.7933504-.35576-.7933504-.7936989 0-.4375207.3558297-.7932807.7933504-.7932807.4375206 0 .7932806.35576.7932806.7932807 0 .4379389-.35576.7936989-.7932806.7936989m0 2.0764284c-.4375207 0-.7933504-.3552721-.7933504-.7924443 0-.4379389.3558297-.7936989.7933504-.7936989.4375206 0 .7932806.35576.7932806.7936989 0 .4371722-.35576.7924443-.7932806.7924443m0 2.077683c-.4375207 0-.7933504-.35576-.7933504-.7929322 0-.4375206.3558297-.7932806.7933504-.7932806.4375206 0 .7932806.35576.7932806.7932806 0 .4371722-.35576.7929322-.7932806.7929322m0-8.3094077c-.4375207 0-.7933504-.3553418-.7933504-.7924443 0-.4379389.3558297-.7937686.7933504-.7937686.4375206 0 .7932806.3558297.7932806.7937686 0 .4371025-.35576.7924443-.7932806.7924443m0 2.077683c-.4375207 0-.7933504-.35576-.7933504-.7928625 0-.4374509.3558297-.7933503.7933504-.7933503.4375206 0 .7932806.3558994.7932806.7933503 0 .4371025-.35576.7928625-.7932806.7928625m-20.1671451 2.0776133c-.4371024 0-.7928624-.35576-.7928624-.7936989 0-.4375207.35576-.7932807.7928624-.7932807.4375904 0 .7932807.35576.7932807.7932807 0 .4379389-.3556903.7936989-.7932807.7936989m0 2.0764284c-.4371024 0-.7928624-.3552721-.7928624-.7924443 0-.4379389.35576-.7936989.7928624-.7936989.4375904 0 .7932807.35576.7932807.7936989 0 .4371722-.3556903.7924443-.7932807.7924443m0 2.077683c-.4371024 0-.7928624-.35576-.7928624-.7929322 0-.4375206.35576-.7932806.7928624-.7932806.4375904 0 .7932807.35576.7932807.7932806 0 .4371722-.3556903.7929322-.7932807.7929322m0-8.3094077c-.4371024 0-.7928624-.3553418-.7928624-.7924443 0-.4379389.35576-.7937686.7928624-.7937686.4375904 0 .7932807.3558297.7932807.7937686 0 .4371025-.3556903.7924443-.7932807.7924443m0 2.077683c-.4371024 0-.7928624-.35576-.7928624-.7928625 0-.4374509.35576-.7933503.7928624-.7933503.4375904 0 .7932807.3558994.7932807.7933503 0 .4371025-.3556903.7928625-.7932807.7928625" fill="#ff9425"/><path d="m79.5119071 21.5379014c-.2712112 0-.4919581.2210257-.4919581.4922369 0 .271281.2207469.4920278.4919581.4920278.2716295 0 .4926551-.2207468.4926551-.4920278 0-.2712112-.2210256-.4922369-.4926551-.4922369m0 1.5935316c-.2712112 0-.4919581.2206772-.4919581.4920278 0 .2715597.2207469.4925854.4919581.4925854.2716295 0 .4926551-.2210257.4926551-.4925854 0-.2713506-.2210256-.4920278-.4926551-.4920278m0 1.5938801c-.2712112 0-.4919581.2208165-.4919581.4919581 0 .2715597.2207469.4926551.4919581.4926551.2716295 0 .4926551-.2210954.4926551-.4926551 0-.2711416-.2210256-.4919581-.4926551-.4919581m0-7.9683549c-.2712112 0-.4919581.220956-.4919581.4926551 0 .271281.2207469.4922369.4919581.4922369.2716295 0 .4926551-.2209559.4926551-.4922369 0-.2716991-.2210256-.4926551-.4926551-.4926551m0 1.5938801c-.2712112 0-.4919581.2209559-.4919581.4923066 0 .2712809.2207469.4923763.4919581.4923763.2716295 0 .4926551-.2210954.4926551-.4923763 0-.2713507-.2210256-.4923066-.4926551-.4923066m0 1.5935316c-.2712112 0-.4919581.2210953-.4919581.4925854 0 .2713506.2207469.4920278.4919581.4920278.2716295 0 .4926551-.2206772.4926551-.4920278 0-.2714901-.2210256-.4925854-.4926551-.4925854m-20.2220704 1.0434418c-.2712809 0-.4923066.2207469-.4923066.4918884 0 .2712809.2210257.4922369.4923066.4922369.271281 0 .4923763-.220956.4923763-.4922369 0-.2711415-.2210953-.4918884-.4923763-.4918884m0 1.5935316c-.2712809 0-.4923066.2205377-.4923066.4918884 0 .2712809.2210257.4920278.4923066.4920278.271281 0 .4923763-.2207469.4923763-.4920278 0-.2713507-.2210953-.4918884-.4923763-.4918884m0 1.593183c-.2712809 0-.4923066.220956-.4923066.4925855 0 .2712809.2210257.4920277.4923066.4920277.271281 0 .4923763-.2207468.4923763-.4920277 0-.2716295-.2210953-.4925855-.4923763-.4925855m0-7.967379c-.2712809 0-.4923066.2206771-.4923066.4916096 0 .2716991.2210257.4926551.4923066.4926551.271281 0 .4923763-.220956.4923763-.4926551 0-.2709325-.2210953-.4916096-.4923763-.4916096m0 1.5935316c-.2712809 0-.4923066.2206771-.4923066.4919581 0 .2712112.2210257.4922369.4923066.4922369.271281 0 .4923763-.2210257.4923763-.4922369 0-.271281-.2210953-.4919581-.4923763-.4919581m0 1.5932527c-.2712809 0-.4923066.220956-.4923066.4922369 0 .2716992.2210257.4926551.4923066.4926551.271281 0 .4923763-.2209559.4923763-.4926551 0-.2712809-.2210953-.4922369-.4923763-.4922369m-20.9749934 1.0178612c-.3535993 0-.6418178.2882186-.6418178.6417481 0 .3541568.2882185.6421663.6418178.6421663.3535992 0 .6416784-.2880095.6416784-.6421663 0-.3535295-.2880792-.6417481-.6416784-.6417481m0 2.0772648c-.3535993 0-.6418178.2881489-.6418178.6421663 0 .353181.2882185.6409814.6418178.6409814.3535992 0 .6416784-.2878004.6416784-.6409814 0-.3540174-.2880792-.6421663-.6416784-.6421663m0 2.077683c-.3535993 0-.6418178.2881489-.6418178.6417481s.2882185.6413299.6418178.6413299c.3535992 0 .6416784-.2877307.6416784-.6413299s-.2880792-.6417481-.6416784-.6417481m0-8.3094077c-.3535993 0-.6418178.2880791-.6418178.6421663 0 .353181.2882185.6409117.6418178.6409117.3535992 0 .6416784-.2877307.6416784-.6409117 0-.3540872-.2880792-.6421663-.6416784-.6421663m0 2.077683c-.3535993 0-.6418178.2880792-.6418178.6418178 0 .3535295.2882185.6412602.6418178.6412602.3535992 0 .6416784-.2877307.6416784-.6412602 0-.3537386-.2880792-.6418178-.6416784-.6418178m-20.1671451 2.0767769c-.3535992 0-.6413299.2882186-.6413299.6417481 0 .3541568.2877307.6421663.6413299.6421663.3536689 0 .6417481-.2880095.6417481-.6421663 0-.3535295-.2880792-.6417481-.6417481-.6417481m0 2.0772648c-.3535992 0-.6413299.2881489-.6413299.6421663 0 .353181.2877307.6409814.6413299.6409814.3536689 0 .6417481-.2878004.6417481-.6409814 0-.3540174-.2880792-.6421663-.6417481-.6421663m0 2.077683c-.3535992 0-.6413299.2881489-.6413299.6417481s.2877307.6413299.6413299.6413299c.3536689 0 .6417481-.2877307.6417481-.6413299s-.2880792-.6417481-.6417481-.6417481m0-8.3094077c-.3535992 0-.6413299.2880791-.6413299.6421663 0 .353181.2877307.6409117.6413299.6409117.3536689 0 .6417481-.2877307.6417481-.6409117 0-.3540872-.2880792-.6421663-.6417481-.6421663m0 2.077683c-.3535992 0-.6413299.2880792-.6413299.6418178 0 .3535295.2877307.6412602.6413299.6412602.3536689 0 .6417481-.2877307.6417481-.6412602 0-.3537386-.2880792-.6418178-.6417481-.6418178" fill="#f1eb9c"/></g></svg>