<svg xmlns="http://www.w3.org/2000/svg">



<symbol id="navicon" viewBox="0 0 32 32">
<path fill-rule="evenodd" d="m1 1h30v6h-30zm0 12h30v6h-30zm0 12h30v6h-30z"/>
</symbol>



<symbol id="eye" viewBox="0 0 32 32">
<path fill-rule="evenodd" d="m16 25.4117647c-6.58823529 0-11.91529412-4.3576471-14.73882353-9.5247059 2.85176471-5.1482353 8.22588235-9.29882351 14.73882353-9.29882351 6.5129412 0 11.9435294 4.14117651 14.7388235 9.31764711-2.7952941 5.1482352-8.0564706 9.5058823-14.7388235 9.5058823zm0 6.5882353c8.836556 0 16-7.163444 16-16s-7.163444-16-16-16-16 7.163444-16 16 7.163444 16 16 16zm0-7.84c4.5066436 0 8.16-3.6533564 8.16-8.16s-3.6533564-8.16-8.16-8.16-8.16 3.6533564-8.16 8.16 3.6533564 8.16 8.16 8.16z"/>
</symbol>



<symbol id="cbs-new-york" viewBox="0 0 317 32">
<path fill-rule="evenodd" d="m29.7976268 25.8623517s-4.3840346 6.1376483-13.1451996 6.1376483c-9.42394824 0-16.6524272-7.228479-16.6524272-15.996548 0-8.76806904 7.22847896-15.99654801 16.6524272-15.99654801 8.5471413 0 12.9311758 6.13764833 12.9311758 6.13764833l-4.3840345 4.37713048s-3.0653722-4.38403447-8.5471413-4.38403447c-5.4817692 0-9.85889969 4.38403447-9.85889969 9.85889967s4.38403449 9.8588997 9.85889969 9.8588997c5.6957929 0 8.768069-4.3840345 8.768069-4.3840345zm2.4578209-25.19956853h12.9311758c6.1376483 0 9.8588997 3.72815534 9.8588997 8.10528587 0 4.81898596-4.1631068 6.35167206-4.1631068 6.35167206s5.6957929 1.5326861 5.6957929 7.4494067c0 4.818986-3.9421791 8.768069-10.5147789 8.768069h-13.8079827zm12.4893204 11.82653723c2.1885652 0 3.5072276-1.3117584 3.5072276-3.06537218 0-1.75361381-1.3117584-3.06537217-3.5072276-3.06537217h-5.9167206v6.13764835h5.9167206zm.8768069 13.1521035c2.6304207 0 4.1631068-1.532686 4.1631068-3.7281553 0-2.1954692-1.5326861-3.7281553-4.1631068-3.7281553h-6.7935275v7.4563106zm16.1277238-2.8513484s2.6304207 3.2862999 7.228479 3.2862999c3.5072276 0 5.0399137-1.5326861 5.0399137-3.5072276 0-5.2608414-15.3406688-2.8513484-15.3406688-13.58705503 0-4.81898597 4.1631067-8.98209277 11.177562-8.98209277 6.7935275 0 10.3007551 4.1631068 10.3007551 4.1631068l-4.3840345 4.38403452s-2.1885653-2.63042072-5.6957929-2.63042072c-3.2862999 0-4.6049622 1.31175836-4.6049622 3.06537217 0 5.26084143 15.3406688 2.85134843 15.3406688 13.58705503 0 5.0399137-4.3840345 9.4239482-11.6125135 9.4239482-7.8912621 0-11.8334412-4.818986-11.8334412-4.818986zm31.3648328-22.12729233h2.8513484l18.840992 24.75771303v-24.75771303h3.2863v30.67443363h-2.851348l-18.8409925-24.75771302v24.75771302h-3.2862999zm30.8953614 0h21.036462v3.06537217h-17.750162v10.07982736h14.242934v3.0653722h-14.242934v11.3915858h18.185113v3.0653721h-21.471413zm23.88781 0h3.507228l8.105286 25.63451993 8.326213-25.63451993h3.065372l8.326214 25.63451993 8.105286-25.63451993h3.507227l-10.079827 30.67443363h-3.2863l-8.105286-25.63451993-8.105286 25.63451993h-3.286299zm63.979288 19.93872703-11.391586-19.93872703h3.728156l9.20302 16.43149943h.220928l9.20302-16.43149943h3.728156l-11.391586 19.93872703v10.7357066h-3.2863v-10.7357066zm15.340669-4.6049622c0-2.1885653.407335-4.2459547 1.22891-6.1583603.814671-1.91240561 1.940022-3.58317152 3.376052-5.01920172 1.429126-1.42912622 3.106796-2.55447681 5.019202-3.37605178 1.912406-.81467098 3.969795-1.22891047 6.15836-1.22891047 2.188566 0 4.245955.40733549 6.158361 1.22891047 1.912405.82157497 3.583171 1.94002157 5.019201 3.37605178 1.429126 1.42912621 2.554477 3.10679611 3.376052 5.01920172.814671 1.9124056 1.228911 3.962891 1.228911 6.1583603s-.407336 4.2459547-1.228911 6.1583603-1.946926 3.5900755-3.376052 5.0192017-3.106796 2.5544768-5.019201 3.3760518c-1.912406.814671-3.969795 1.2289105-6.158361 1.2289105-2.188565 0-4.245954-.4073355-6.15836-1.2289105-1.912406-.814671-3.590076-1.9400216-5.019202-3.3760518-1.429126-1.4291262-2.554477-3.1067961-3.376052-5.0192017s-1.22891-3.962891-1.22891-6.1583603zm15.77562 12.7102481c1.753614 0 3.38986-.3244876 4.908738-.9665588s2.844445-1.5326861 3.969795-2.6718446c1.125351-1.1391586 2.009062-2.4854369 2.651133-4.031931s.966559-3.231068.966559-5.0399137-.324488-3.4934196-.966559-5.0399137c-.642071-1.54649406-1.525782-2.89277238-2.651133-4.03193096-1.12535-1.13915857-2.444013-2.02977346-3.969795-2.67184466-1.518878-.64207119-3.155124-.96655879-4.908738-.96655879s-3.38986.3244876-4.908738.96655879c-1.518878.6420712-2.844444 1.53268609-3.969795 2.67184466-1.12535 1.13915858-2.009061 2.4854369-2.651132 4.03193096-.642072 1.5464941-.966559 3.231068-.966559 5.0399137s.317583 3.4934196.966559 5.0399137c.642071 1.5464941 1.525782 2.8927724 2.651132 4.031931 1.125351 1.1391585 2.444013 2.0297734 3.969795 2.6718446s3.155124.9665588 4.908738.9665588zm21.25739-28.04401293h12.268392c1.373895 0 2.637325.23473571 3.790292.70420712 1.152966.46947141 2.147141 1.11154261 2.982524 1.92621359.835383.82157498 1.484358 1.78813377 1.953829 2.91348436.469472 1.12535059.704208 2.34735707.704208 3.65911543 0 1.75361383-.338296 3.18964403-1.007983 4.31499463s-1.40151 2.0228694-2.188565 2.6925566c-.932039.7594391-1.98835 1.3462783-3.155124 1.7536138l7.228478 12.7102481h-3.728155l-6.793527-12.2683926h-8.768069v12.2683926h-3.2863zm12.268392 15.33376483c1.870982 0 3.362244-.5523193 4.466883-1.6638619 1.111542-1.1115426 1.663862-2.6028048 1.663862-4.46688243 0-1.87098166-.55232-3.3622438-1.663862-4.46688242-1.111543-1.11154261-2.602805-1.66386192-4.466883-1.66386192h-8.982092v12.26839267h8.982092zm15.554693-15.33376483h3.2863v17.30830633l15.77562-17.30830633h4.163107l-11.612514 12.71024813 12.710249 17.9710895h-3.94218l-10.956634-15.5546925-6.137648 6.5725997v8.9820928h-3.2863z"/>
</symbol>



<symbol id="cbs-chicago" viewBox="0 0 288 32">
<path fill-rule="evenodd" d="m284.649111 16.0000554c0-1.8112163-.321157-3.4923085-.964579-5.0410618-.642314-1.54875325-1.526604-2.89318404-2.651762-4.03273865-1.124604-1.14010832-2.447994-2.03104289-3.966846-2.67446488-1.51996-.64231455-3.156201-.96402554-4.909277-.96402554-1.753629 0-3.390978.32171099-4.90983.96402554-1.51996.64342199-2.843349 1.53435656-3.9674 2.67446488-1.125711 1.13955461-2.010001 2.4839854-2.652316 4.03273865-.642868 1.5487533-.964579 3.2298455-.964579 5.0410618 0 1.8123237.321711 3.4928622.964579 5.0410617.642315 1.5498607 1.526605 2.8931841 2.652316 4.0327387 1.124051 1.1401083 2.44744 2.0321503 3.9674 2.6744649 1.518852.643422 3.156201.9640255 4.90983.9640255 1.753076 0 3.389317-.3206035 4.909277-.9640255 1.518852-.6423146 2.842242-1.5343566 3.966846-2.6744649 1.125158-1.1395546 2.009448-2.482878 2.651762-4.0327387.643422-1.5481995.964579-3.228738.964579-5.0410617zm3.28854 0c0 2.1916215-.410306 4.2453669-1.227596 6.159575-.818951 1.9136544-1.943555 3.5875482-3.376027 5.0183593-1.431919 1.4324721-3.104705 2.5581838-5.018913 3.3754736-1.914208.8183974-3.966846 1.227596-6.158468 1.227596-2.192175 0-4.245367-.4091986-6.159575-1.227596-1.914762-.8172898-3.587548-1.9430015-5.019466-3.3754736-1.431919-1.4308111-2.557077-3.1047049-3.37492-5.0183593-.818398-1.9142081-1.227043-3.9679535-1.227043-6.159575 0-2.1916216.408645-4.2448132 1.227043-6.15846761.817843-1.91420809 1.943001-3.58754823 3.37492-5.0194667 1.431918-1.43191846 3.104704-2.55707636 5.019466-3.37547369 1.914208-.81839733 3.9674-1.22759599 6.159575-1.22759599 2.191622 0 4.24426.40919866 6.158468 1.22759599s3.586994 1.94355523 5.018913 3.37547369c1.432472 1.43191847 2.557076 3.10525861 3.376027 5.0194667.81729 1.91365441 1.227596 3.96684601 1.227596 6.15846761zm-46.247755 2.6301673h7.013411v5.9175996c-.642315.7890502-1.431365 1.4906128-2.367151 2.1041339-.78905.5260335-1.782423 1.0016784-2.980672 1.4252738-1.197695.4235954-2.630167.6351162-4.295755.6351162-1.753629 0-3.38987-.3206035-4.90983-.9640255-1.519406-.6423146-2.841688-1.5343566-3.966846-2.6744649-1.124604-1.1395546-2.009448-2.482878-2.651763-4.0327387-.643422-1.5481995-.964025-3.228738-.964025-5.0410617 0-1.8112163.320603-3.4923085.964025-5.0410618.642315-1.54875325 1.527159-2.89318404 2.651763-4.03273865 1.125158-1.14010832 2.44744-2.03104289 3.966846-2.67446488 1.51996-.64231455 3.156201-.96402554 4.90983-.96402554 1.753076 0 3.273589.27021509 4.558772.81119898 1.28629.54098389 2.3522 1.14730667 3.200498 1.81896835.992819.75970307 1.841118 1.63679465 2.54268 2.63016732l2.191622-1.97290235c-.876538-1.16890173-1.914208-2.22041494-3.113011-3.15620079-1.052067-.7890502-2.3522-1.51940614-3.9004-2.19162154-1.54986-.67166167-3.376027-1.00832309-5.480161-1.00832309-2.192175 0-4.244813.40919866-6.159021 1.22759599-1.913655.81839733-3.587549 1.94355523-5.01836 3.37547369-1.432472 1.43191847-2.558183 3.10525861-3.376027 5.0194667-.818397 1.91365441-1.227596 3.96684601-1.227596 6.15846761 0 2.1916215.409199 4.2453669 1.227596 6.159575.817844 1.9136544 1.943555 3.5875482 3.376027 5.0183593 1.430811 1.4324721 3.104705 2.5581838 5.01836 3.3754736 1.914208.8183974 3.966846 1.227596 6.159021 1.227596 2.104134 0 3.952449-.3283556 5.5455-.9861743 1.592497-.657265 2.943573-1.3809763 4.054888-2.1700265 1.285736-.9346784 2.395944-2.001142 3.331729-3.1999446v-9.8634043h-10.30195zm-28.492741 1.0958108-5.918153-14.46592033-5.9176 14.46592033zm-4.383797-19.0684363 12.712291 30.6849163h-3.506705l-3.506705-8.5477669h-14.46592l-3.507259 8.5477669h-3.506705l12.71229-30.6849163zm-21.479884 25.4245817c-.876538.6733228-1.972349 1.2790919-3.287432 1.8195221-1.315084.5409838-2.84944.8106452-4.602516.8106452-1.75363 0-3.390424-.3206035-4.90983-.9640255-1.519407-.6423146-2.842796-1.5343566-3.9674-2.6744649-1.125158-1.1395546-2.010002-2.482878-2.651763-4.0327387-.643422-1.5481995-.964579-3.228738-.964579-5.0410617 0-1.8112163.321157-3.4923085.964579-5.0410618.641761-1.54875325 1.526605-2.89318404 2.651763-4.03273865 1.124604-1.14010832 2.447993-2.03104289 3.9674-2.67446488 1.519406-.64231455 3.1562-.96402554 4.90983-.96402554 1.753076 0 3.272482.27021509 4.558772.81119898 1.285736.54098389 2.3522 1.14730667 3.199945 1.81896835.993372.75970307 1.841117 1.63679465 2.542679 2.63016732l2.191622-1.97290235c-.876538-1.16890173-1.914208-2.22041494-3.112457-3.15620079-1.052067-.7890502-2.352754-1.51940614-3.901507-2.19162154-1.548754-.67166167-3.37492-1.00832309-5.479054-1.00832309-2.192175 0-4.245367.40919866-6.159575 1.22759599s-3.587548 1.94355523-5.018913 3.37547369c-1.432472 1.43191847-2.557077 3.10525861-3.375474 5.0194667-.817843 1.91365441-1.227042 3.96684601-1.227042 6.15846761 0 2.1916215.409199 4.2453669 1.227042 6.159575.818397 1.9136544 1.943002 3.5875482 3.375474 5.0183593 1.431365 1.4324721 3.104705 2.5581838 5.018913 3.3754736 1.914208.8183974 3.9674 1.227596 6.159575 1.227596 2.104134 0 3.937499-.3283556 5.500649-.9861743 1.563703-.657265 2.886539-1.3809763 3.967953-2.1700265 1.25639-.9346784 2.337804-2.001142 3.243689-3.1999446l-2.192176-1.9729023c-.730356.9944801-1.606893 1.8710179-2.630167 2.6301673zm-32.437992 5.2603346h3.286879v-30.68547002h-3.286879zm-10.740496-17.0960876h-17.096088v-13.5888287h-3.286878v30.6849163h3.286878v-14.0273745h17.096088v14.0273745h3.28854v-30.6849163h-3.28854zm-27.178211 9.2055857 2.192175 1.9729023c-.906439 1.1988026-1.987853 2.2652662-3.244242 3.1999446-1.081414.7890502-2.403696 1.5127615-3.966846 2.1700265-1.563704.6578187-3.397623.9861743-5.501756.9861743-2.191622 0-4.244814-.4091986-6.158468-1.227596-1.9147618-.8172898-3.5881019-1.9430015-5.0194667-3.3754736-1.4319184-1.4308111-2.5581838-3.1047049-3.3754736-5.0183593-.8189511-1.9142081-1.227596-3.9679535-1.227596-6.159575 0-2.1916216.4086449-4.2448132 1.227596-6.15846761.8172898-1.91420809 1.9435552-3.58754823 3.3754736-5.0194667 1.4313648-1.43191846 3.1047049-2.55707636 5.0194667-3.37547369 1.913654-.81839733 3.966846-1.22759599 6.158468-1.22759599 2.104133 0 3.9303.33666142 5.479607 1.00832309 1.549307.6722154 2.84944 1.40257134 3.901507 2.19162154 1.197695.93578585 2.235366 1.98729906 3.112457 3.15620079l-2.192175 1.97290235c-.701009-.99337267-1.548753-1.87046425-2.542126-2.63016732-.847744-.67166168-1.914762-1.27798446-3.199945-1.81896835-1.28629-.54098389-2.805696-.81119898-4.559325-.81119898-1.753076 0-3.389871.32171099-4.909277.96402554-1.520513.64342199-2.8427955 1.53435656-3.966846 2.67446488-1.1257116 1.13955461-2.0100015 2.4839854-2.6528698 4.03273865-.6423145 1.5487533-.9640255 3.2298455-.9640255 5.0410618 0 1.8123237.321711 3.4928622.9640255 5.0410617.6428683 1.5498607 1.5271582 2.8931841 2.6528698 4.0327387 1.1240505 1.1401083 2.446333 2.0321503 3.966846 2.6744649 1.519406.643422 3.156201.9640255 4.909277.9640255 1.753629 0 3.287986-.2696614 4.603069-.8106452 1.315084-.5404302 2.410895-1.1461993 3.287433-1.8195221 1.022719-.7591494 1.899257-1.6356872 2.630167-2.6301673zm-51.4856086-14.46569885c0-1.75362946 1.3150837-3.06871312 4.6019623-3.06871312 3.5072589 0 5.6988804 2.63016732 5.6988804 2.63016732l4.3837968-4.38324306s-3.5072589-4.16452389-10.3008427-4.16452389c-7.0139641 0-11.1790417 4.16452389-11.1790417 8.98631275 0 10.73994225 15.3424582 8.32904775 15.3424582 13.58938245 0 1.9723486-1.5332491 3.5067052-5.0405081 3.5067052-4.6030696 0-7.233237-3.287986-7.233237-3.287986l-4.3837968 4.3837967s3.945251 4.8217889 11.835753 4.8217889c7.2337907 0 11.6170338-4.3832431 11.6170338-9.4243048 0-10.7399422-15.3424582-8.3290478-15.3424582-13.58938245zm-15.6935162 12.93156375c0-2.1916215-1.5338029-3.7259781-4.1639702-3.7259781h-6.7946912v7.4519562h6.7946912c2.6301673 0 4.1639702-1.5343566 4.1639702-3.7259781zm-10.9586614-9.4248586h5.9175996c2.1921752 0 3.5072589-1.3150836 3.5072589-3.06815936 0-1.75362946-1.3150837-3.06871312-3.5072589-3.06871312h-5.9175996zm17.7533526 10.0826773c0 4.8217888-3.945251 8.7670398-10.5206693 8.7670398h-13.8081016v-30.68547003h12.9315637c6.1368725 0 9.8628506 3.72653181 9.8628506 8.10977488 0 4.82178885-4.1639702 6.35614545-4.1639702 6.35614545s5.6983268 1.5343565 5.6983268 7.4525099zm-31.167206-1.0963645 4.3832431 4.3837968s-4.3832431 6.1368725-13.1508367 6.1368725c-9.42430479 0-16.6575418-7.2326833-16.6575418-15.9997231 0-8.76759361 7.23323701-16.0002769 16.6575418-16.0002769 8.5483207 0 12.9321175 6.13687252 12.9321175 6.13687252l-4.3837968 4.38379678s-3.0687131-4.38379678-8.5483207-4.38379678c-5.4790538 0-9.86285059 4.38379678-9.86285059 9.86340438 0 5.4790538 4.38379679 9.8628506 9.86285059 9.8628506 5.6988805 0 8.7675936-4.3837968 8.7675936-4.3837968z"/>
</symbol>



<symbol id="cbs-los-angeles" viewBox="0 0 372 32">
<path fill-rule="evenodd" d="m370.113835 18.6960178c-.818651-1.0668741-1.848188-1.9138739-3.090685-2.5423824s-2.579028-1.1325598-4.010285-1.512154c-1.43264-.3795942-2.769171-.8034399-4.011668-1.2715369-1.241805-.4674057-2.272725-1.0592684-3.089994-1.7748969-.818651-.7163198-1.227285-1.73202822-1.227285-3.04712513 0-.70110844.145891-1.36557118.438365-1.99407964.291092-.62850846.715629-1.1837255 1.270846-1.66565113.554526-.48261706 1.241805-.86981699 2.060457-1.16159979.817268-.29247424 1.753462-.43836564 2.805816-.43836564 1.139474 0 2.125451.1604114 2.958623.48192563.83248.32151423 1.541194.67206845 2.126142 1.0523541.671377.46740563 1.241114.97906268 1.709211 1.53427972l2.191828-2.19182818c-.643028-.73083987-1.402908-1.38838832-2.279639-1.97264536-.75988-.49713705-1.695383-.95002269-2.805125-1.35934833-1.110434-.40863421-2.411011-.61329703-3.90104-.61329703-1.520451 0-2.886713.22678853-4.099479.67898273-1.212074.45357707-2.249908 1.05995981-3.112119 1.81914825-.86152.76057129-1.519069 1.64421685-1.972646 2.65231953-.452885 1.00810267-.678982 2.06737106-.678982 3.17780514 0 1.37386833.240617 2.52094813.723234 3.44123943.481925.9202912 1.110434 1.6953825 1.884834 2.3231995.773708.6285085 1.658045 1.1401656 2.652319 1.5342798.992891.3948056 2.016206.7529656 3.06856 1.0737883 1.051662.3222057 2.074285.6361142 3.068559.942417.992891.3069943 1.877228.6796742 2.651628 1.1180398.773709.4383657 1.402217.9721484 1.884834 1.5999655.481926.6291998.723234 1.439554.723234 2.4331367 0 1.6656511-.591862 3.0319137-1.775588 4.0980964-1.183725 1.0675655-2.929582 1.5999654-5.23757 1.5999654-1.43264 0-2.674446-.1894514-3.726108-.569737-1.052354-.3789028-1.914566-.8172685-2.586634-1.3150969-.78892-.5254857-1.46168-1.1539941-2.016206-1.884834l-1.972645 2.2353882c.672069.8767312 1.504548 1.6518225 2.498822 2.323891.847.5849485 1.92148 1.1104341 3.221366 1.5778397 1.300577.4667142 2.827942.7011085 4.581405.7011085 1.635919 0 3.096908-.2191829 4.382964-.6575485 1.285366-.4383656 2.367451-1.0516627 3.244183-1.8405825.876731-.7896113 1.541194-1.7168169 1.994079-2.783691.452886-1.0668741.679675-2.2284738.679675-3.4847993 0-1.812234-.409326-3.2504052-1.227286-4.3179707zm-40.416067-1.8191482h14.246192v-3.0685595h-14.246192v-10.08171819h17.753117v-3.06855946h-21.040859v30.68421165h21.479224v-3.0685594h-18.191482zm-24.109419-16.21883715h-3.28705v30.68421165h19.068213v-3.0685594h-15.781163zm-26.301246 16.21883715h14.246191v-3.0685595h-14.246191v-10.08171819h17.753117v-3.06855946h-21.04086v30.68421165h21.479225v-3.0685594h-18.191482zm-19.944945 1.7534625h7.013158v5.9179361c-.642337.7889198-1.431256 1.4900283-2.366759 2.1040168-.78892.5254856-1.782503 1.0011883-2.980748 1.4243426-1.198246.4238456-2.630194.6354227-4.295845.6354227-1.753463 0-3.390074-.3208228-4.909834-.9638513-1.519068-.642337-2.842462-1.5342797-3.966725-2.6744452-1.125645-1.1394741-2.009291-2.4829195-2.652319-4.0324107-.642337-1.5487997-.964543-3.2289709-.964543-5.0412048 0-1.8115425.322206-3.4917137.964543-5.0412048.643028-1.54879975 1.526674-2.89293665 2.652319-4.03241074 1.124263-1.14016551 2.447657-2.03141678 3.966725-2.67444523 1.51976-.64233703 3.156371-.96385126 4.909834-.96385126 1.753462 0 3.272531.27034852 4.558588.81104557s2.352239 1.14707979 3.19993 1.81914825c.993583.75987986 1.841274 1.63661113 2.542383 2.62950238l2.191828-1.97264536c-.876731-1.16851408-1.913874-2.22017674-3.112119-3.15567943-1.052354-.78891986-2.35224-1.51975973-3.901731-2.19182818-1.5488-.67206846-3.374862-1.00810268-5.478879-1.00810268-2.191828 0-4.244679.40932564-6.158553 1.22728549-1.914566.81865129-3.587823 1.94360537-5.019771 3.37555369-1.431257 1.43194831-2.556902 3.10520516-3.374862 5.0190791-.81796 1.9138739-1.227286 3.966725-1.227286 6.1585532s.409326 4.2453707 1.227286 6.1585532c.81796 1.9145653 1.943605 3.5878222 3.374862 5.0190791 1.431948 1.4326397 3.105205 2.5582852 5.019771 3.3755537 1.913874.8179598 3.966725 1.2272855 6.158553 1.2272855 2.104017 0 3.952205-.3284286 5.545256-.985977 1.59236-.6575485 2.943411-1.3807826 4.054536-2.1697025 1.286057-.9355027 2.3958-2.0016853 3.331303-3.1999308v-9.8632269h-10.300901zm-27.177978 6.7946674-18.849031-24.76696705h-2.849377v30.68421165h3.287742v-24.76696699l18.849031 24.76696699h2.849377v-30.68421165h-3.287742zm-33.75208-5.6987533-5.917936-14.46537457-5.917936 14.46537457zm-4.383656-19.06821375 12.711912 30.68421165h-3.506925l-3.506234-8.5474385h-14.466066l-3.506925 8.5474385h-3.506234l12.711912-30.68421165zm-30.618526 15.49560295c-1.242497-.6285085-2.579028-1.1325598-4.010977-1.512154-1.431948-.3795942-2.768479-.8034399-4.010976-1.2715369-1.242497-.4674057-2.272725-1.0592684-3.089994-1.7748969-.818651-.7163198-1.227285-1.73202822-1.227285-3.04712513 0-.70110844.145891-1.36557118.438365-1.99407964.291092-.62850846.715629-1.1837255 1.270846-1.66565113.554525-.48261706 1.241805-.86981699 2.060456-1.16159979.817269-.29247424 1.753463-.43836564 2.805817-.43836564 1.139474 0 2.125451.1604114 2.957931.48192563.833171.32151423 1.541885.67206845 2.126834 1.0523541.671377.46740563 1.241114.97906268 1.709211 1.53427972l2.191828-2.19182818c-.643028-.73083987-1.402908-1.38838832-2.279639-1.97264536-.75988-.49713705-1.695383-.95002269-2.805126-1.35934833-1.110434-.40863421-2.411011-.61329703-3.901039-.61329703-1.520451 0-2.886714.22678853-4.099479.67898273-1.212074.45357707-2.249908 1.05995981-3.11212 1.81914825-.861519.76057129-1.519068 1.64421685-1.972645 2.65231953-.452886 1.00810267-.678983 2.06737106-.678983 3.17780514 0 1.37386833.240617 2.52094813.723234 3.44123943.481926.9202912 1.110435 1.6953825 1.884834 2.3231995.773709.6285085 1.658046 1.1401656 2.65232 1.5342798.9922.3948056 2.016205.7529656 3.068559 1.0737883 1.051663.3222057 2.074286.6361142 3.067868.942417.993583.3069943 1.87792.6796742 2.65232 1.1180398.773708.4383657 1.402217.9721484 1.884834 1.5999655.481926.6291998.723234 1.439554.723234 2.4331367 0 1.6656511-.591863 3.0319137-1.775588 4.0980964-1.183726 1.0675655-2.929583 1.5999654-5.237571 1.5999654-1.432639 0-2.674445-.1894514-3.726108-.569737-1.052354-.3789028-1.914565-.8172685-2.586633-1.3150969-.78892-.5254857-1.46168-1.1539941-2.016206-1.884834l-1.972645 2.2353882c.671377.8767312 1.504548 1.6518225 2.498822 2.323891.847.5849485 1.920789 1.1104341 3.221365 1.5778397 1.299886.4667142 2.827943.7011085 4.581405.7011085 1.63592 0 3.096908-.2191829 4.382965-.6575485 1.285366-.4383656 2.367451-1.0516627 3.244183-1.8405825.876731-.7896113 1.540502-1.7168169 1.994079-2.783691.452886-1.0668741.679674-2.2284738.679674-3.4847993 0-1.812234-.409325-3.2504052-1.227285-4.3179707-.818651-1.0668741-1.84888-1.9138739-3.090685-2.5423824zm-22.421642-.1534971c0-1.8115425-.321514-3.4917137-.963851-5.0412048-.64372-1.54879975-1.528057-2.89293665-2.65232-4.03241074-1.124954-1.14016551-2.447657-2.03141678-3.967416-2.67444523-1.51976-.64233703-3.15568-.96385126-4.909142-.96385126-1.753463 0-3.390074.32151423-4.909834.96385126-1.519759.64302845-2.842462 1.53427972-3.967416 2.67444523-1.124954 1.13947409-2.009291 2.48361099-2.651628 4.03241074-.643029 1.5494911-.963851 3.2296623-.963851 5.0412048 0 1.8122339.320822 3.4924051.963851 5.0412048.642337 1.5494912 1.526674 2.8929366 2.651628 4.0324107 1.124954 1.1401655 2.447657 2.0321082 3.967416 2.6744452 1.51976.6430285 3.156371.9638513 4.909834.9638513 1.753462 0 3.389382-.3208228 4.909142-.9638513 1.519759-.642337 2.842462-1.5342797 3.967416-2.6744452 1.124263-1.1394741 2.0086-2.4829195 2.65232-4.0324107.642337-1.5487997.963851-3.2289709.963851-5.0412048zm2.060457-6.1585532c.81796 1.9138739 1.227285 3.966725 1.227285 6.1585532s-.409325 4.2453707-1.227285 6.1585532c-.818652 1.9145653-1.943606 3.5878222-3.375554 5.0190791-1.431948 1.4326397-3.105205 2.5582852-5.019079 3.3755537-1.913874.8179598-3.966725 1.2272855-6.158553 1.2272855s-4.245371-.4093257-6.159245-1.2272855c-1.913874-.8172685-3.587822-1.942914-5.019079-3.3755537-1.431948-1.4312569-2.557594-3.1045138-3.374862-5.0190791-.818651-1.9131825-1.227286-3.966725-1.227286-6.1585532s.408635-4.2446793 1.227286-6.1585532c.817268-1.91387394 1.942914-3.58713079 3.374862-5.0190791 1.431257-1.43194832 3.105205-2.5569024 5.019079-3.37555369 1.913874-.81795985 3.967417-1.22728549 6.159245-1.22728549s4.244679.40932564 6.158553 1.22728549c1.913874.81865129 3.587131 1.94360537 5.019079 3.37555369 1.431948 1.43194831 2.556902 3.10520516 3.375554 5.0190791zm-47.4292261 18.4320996h15.7804711v3.0685594h-19.0682133v-30.68421165h3.2877422zm-30.1308615-19.28718916c0-1.75346255 1.315097-3.06855945 4.6028392-3.06855945 3.5069251 0 5.6980619 2.63019381 5.6980619 2.63019381l4.3836563-4.38365636s-3.5069251-4.16447354-10.300901-4.16447354c-7.0138502 0-11.1783237 4.16447354-11.1783237 8.98649554 0 10.73926666 15.3427973 8.32894706 15.3427973 13.58864326 0 1.9726454-1.5342798 3.5069251-5.0412049 3.5069251-4.6028391 0-7.233033-3.2877423-7.233033-3.2877423l-4.3836563 4.3836564s3.9452907 4.822022 11.8358722 4.822022c7.2323415 0 11.6159979-4.3836564 11.6159979-9.4248612 0-10.7392666-15.3421059-8.3282556-15.3421059-13.58864326zm-15.6919686 12.93109486c0-2.1918282-1.5342797-3.7254165-4.1644735-3.7254165h-6.7946674v7.4515244h6.7946674c2.6301938 0 4.1644735-1.5342797 4.1644735-3.7261079zm-10.9591409-9.4241698h5.9179361c2.1918282 0 3.5069251-1.3150969 3.5069251-3.06855943 0-1.75346254-1.3150969-3.06855945-3.5069251-3.06855945h-5.9179361zm17.7531169 10.0817182c0 4.822022-3.9452908 8.7673127-10.5200839 8.7673127h-13.8085175v-30.68490305h12.9317862c6.1364275 0 9.8625354 3.72610791 9.8625354 8.10976427 0 4.82202198-4.1644735 6.35630168-4.1644735 6.35630168s5.6987533 1.5342798 5.6987533 7.4515244zm-31.1668288-1.0959141 4.3836564 4.3836564s-4.3836564 6.1371189-13.1502777 6.1371189c-9.42486113 0-16.6572027-7.233033-16.6572027-15.9996543 0-8.76731271 7.23234157-16.0003457 16.6572027-16.0003457 8.5474385 0 12.9310949 6.1371189 12.9310949 6.1371189l-4.3836564 4.3836564s-3.0685594-4.3836564-8.5474385-4.3836564c-5.4795704 0-9.86322677 4.3836564-9.86322677 9.8632268 0 5.478879 4.38365637 9.8625354 9.86322677 9.8625354 5.6980619 0 8.7666213-4.3836564 8.7666213-4.3836564z"/>
</symbol>



<symbol id="cbs-dallas" viewBox="0 0 190 32">
<path fill-rule="evenodd" d="M25.4248201,21.4797122 L29.8090646,25.8631654 C29.8090646,25.8631654 25.4248201,32 16.6579136,32 C7.23348911,32 1.32160949e-12,24.7673021 1.32160949e-12,15.9996044 C1.32160949e-12,7.23269787 7.23348911,0 16.6579136,0 C25.2056475,0 29.5898919,6.13683456 29.5898919,6.13683456 L25.2056475,10.5202878 C25.2056475,10.5202878 22.1372302,6.13683456 16.6579136,6.13683456 C11.178597,6.13683456 6.79514378,10.5202878 6.79514378,15.9996044 C6.79514378,21.4797122 11.178597,25.8631654 16.6579136,25.8631654 C22.3564028,25.8631654 25.4248201,21.4797122 25.4248201,21.4797122 L25.4248201,21.4797122 Z M45.1954603,0.657517988 C51.3322948,0.657517988 55.0582301,4.38345326 55.0582301,8.76690651 C55.0582301,13.5887051 50.8939495,15.1229137 50.8939495,15.1229137 C50.8939495,15.1229137 56.5924387,16.6571224 56.5924387,22.5755755 C56.5924387,27.3973741 52.6473308,31.342482 46.0721509,31.342482 L32.2634819,31.342482 L32.2634819,0.657517988 L45.1954603,0.657517988 Z M45.6338056,18.191331 L38.8386618,18.191331 L38.8386618,25.6439928 L45.6338056,25.6439928 C48.2638776,25.6439928 49.7980862,24.1097841 49.7980862,21.9180575 C49.7980862,19.7263309 48.2638776,18.191331 45.6338056,18.191331 Z M44.757115,6.35600722 L38.8386618,6.35600722 L38.8386618,12.4928418 L44.757115,12.4928418 C46.9488416,12.4928418 48.2638776,11.1778058 48.2638776,9.4244245 C48.2638776,7.6710432 46.9488416,6.35600722 44.757115,6.35600722 Z M65.4914818,8.98607917 C65.4914818,7.23269787 66.8065178,5.91766189 70.0933165,5.91766189 C73.6000791,5.91766189 75.792597,8.54773385 75.792597,8.54773385 L80.1760502,4.16428059 C80.1760502,4.16428059 76.6692876,0 69.8749351,0 C62.8614099,0 58.6963381,4.16428059 58.6963381,8.98607917 C58.6963381,19.7263309 74.0384244,17.3146404 74.0384244,22.5755755 C74.0384244,24.5481295 72.505007,26.0823381 68.9982444,26.0823381 C64.3948273,26.0823381 61.7647553,22.7947482 61.7647553,22.7947482 L57.3813021,27.1782014 C57.3813021,27.1782014 61.32641,32 69.2166259,32 C76.450115,32 80.8343595,27.6165467 80.8343595,22.5755755 C80.8343595,11.8353238 65.4914818,14.2462231 65.4914818,8.98607917 L65.4914818,8.98607917 Z M92.9195656,31.3407799 L102.565023,31.3407799 C111.552836,31.3407799 118.567714,24.3259018 118.567714,15.995734 C118.567714,7.66556617 111.552836,0.65068803 102.565023,0.65068803 L92.9195656,0.65068803 L92.9195656,31.3407799 Z M96.2077897,28.2717707 L96.2077897,3.71969722 L102.565023,3.71969722 C109.799116,3.71969722 115.27949,9.20007077 115.27949,15.995734 C115.27949,22.7913972 109.799116,28.2717707 102.565023,28.2717707 L96.2077897,28.2717707 Z M124.238413,31.3407799 L127.526638,31.3407799 L127.526638,17.3110236 L141.556394,17.3110236 L141.556394,14.2420144 L127.526638,14.2420144 L127.526638,3.71969722 L145.063833,3.71969722 L145.063833,0.65068803 L124.238413,0.65068803 L124.238413,31.3407799 Z M156.434121,31.3407799 L159.722345,31.3407799 L167.833298,5.69263169 L175.944251,31.3407799 L179.232475,31.3407799 L189.316362,0.65068803 L185.808923,0.65068803 L177.697971,26.2988362 L169.367803,0.65068803 L166.298794,0.65068803 L157.968626,26.2988362 L149.857673,0.65068803 L146.350234,0.65068803 L156.434121,31.3407799 Z"/>
</symbol>



<symbol id="cw31-sacramento" viewBox="0 0 261 32">
<path fill-rule="evenodd" d="m25.8422617 14.0220386c-.4278854 7.474917-5.980419 12.6360537-12.9922204 12.6360537-7.26155852 0-12.8500413-5.7306619-12.8500413-13.3124379 0-3.52392022 1.35285824-6.76258358 3.95054738-9.32621086 2.49244786-2.45604929 5.48198328-3.66600947 9.21980132-3.66600947 4.9477781 0 8.969415 2.49172888 11.3189648 6.8701616h-3.061254c-2.3491005-2.99034427-4.9830983-4.44952226-8.4006089-4.44952226-6.01555928 0-10.39390213 4.98318813-10.39390213 10.60726059 0 6.3002769 4.6274708 10.8917985 10.42985133 10.8917985 4.5205219 0 8.6855063-3.1674839 9.8239275-8.008493h-12.7788618v-2.2426009zm11.0344269-7.58177598c5.6602015 0 10.0032242 4.62738098 10.0032242 9.93078658 0 5.6600217-4.3072533 10.3223632-9.8245567 10.3223632-5.7305719 0-9.8950171-4.7339703-9.8950171-10.0726062 0-5.7312011 4.5558421-10.18054358 9.7163496-10.18054358zm.1786675 17.90458858c4.0222661 0 7.2616484-3.2747024 7.2616484-7.7956737 0-4.5916115-3.2393823-7.7599942-7.4750068-7.7599942-3.6665488 0-7.1192896 3.1324335-7.1192896 7.7957636 0 4.413663 3.1682928 7.7599043 7.332648 7.7599043zm20.681125-17.90458858c5.6601116 0 10.0030445 4.62738098 10.0030445 9.93078658 0 5.6600217-4.3077926 10.3223632-9.8250061 10.3223632-5.7306618 0-9.8956462-4.7339703-9.8956462-10.0726062 0-5.7312011 4.5558421-10.18054358 9.7176078-10.18054358zm.1780384 17.90458858c4.0220863 0 7.2615586-3.2747024 7.2615586-7.7956737 0-4.5916115-3.2394723-7.7599942-7.4749171-7.7599942-3.6660993 0-7.1192895 3.1324335-7.1192895 7.7957636 0 4.413663 3.1677536 7.7599043 7.332648 7.7599043zm28.085312-18.54574255v-4.9473288h2.4560493v25.30850595h-2.4560493v-2.8837549c-1.744345 2.1715114-4.4494324 3.3815614-7.2615585 3.3815614-5.5178426 0-9.7886974-4.4137528-9.7886974-10.0731454 0-5.4462138 4.0222661-9.96727498 9.7886974-9.96727498 2.9901645 0 5.5172135 1.17472996 7.2615585 3.45328008zm-7.1898399 3.09693365c-3.844677 0-7.3327379 3.1682928-7.3327379 7.5819557 0 4.6628808 3.4880609 7.9015442 7.4032882 7.9015442 3.6666386 0 7.1899298-3.4168815 7.1899298-7.5812368 0-4.5564711-3.5591505-7.9022631-7.2604801-7.9022631zm12.9563611 17.2642435v-25.30850595h8.4721473c3.986946 0 6.727444.56952519 9.255032 3.02539474 2.384331 2.31378034 3.630779 5.6243421 3.630779 9.75346711 0 4.5916115-1.744884 8.2935702-5.019497 10.6424908-2.206741 1.6020761-4.591611 1.8871533-7.724045 1.8871533zm16.3032313-12.671913c0-5.26817545-2.990704-8.32933964-8.0808406-8.32933964h-3.2387532v16.65813994h3.3104718c5.446124 0 8.009122-2.5628184 8.009122-8.3288003zm21.963253 10.3223632c-1.06841 1.9217543-2.990164 2.7763566-5.944469 2.7763566-5.694893 0-9.931506-4.3778036-9.931506-10.0733251 0-2.6696774.961461-5.1612265 2.741576-7.01225081 1.921754-2.02879306 4.199675-2.95439507 7.082442-2.95439507 2.777255 0 4.769649.92560201 6.016098 2.81212611v-2.31378034h4.343113v19.11481841h-4.307254zm-5.80229-1.7085756c2.776266 0 5.303945-2.4911896 5.303945-5.4460341 0-3.2036129-2.563538-5.6954316-5.375125-5.6954316-2.954754 0-5.446124 2.3849597-5.446124 5.4820731 0 3.3100226 2.527139 5.6593926 5.517304 5.6593926zm15.627386-15.05669301 4.662252 13.34838711 5.125816-13.34838711h4.663331l-10.322274 25.30796671h-4.591701l2.669947-6.7273534-6.90656-18.58061331zm22.325281-6.69122644h.806882v31.82341275h-.806882zm26.621021 15.23515055v-4.163117h-.853406v1.6955943h-1.769532v-1.6955943h-.853039v4.1605421h.853039v-1.7640139h1.769532v1.7665888zm3.501727-3.4789201v-.6841969h-2.693565v4.163117h2.76971v-.6853003h-1.914832v-1.0812885h1.682168v-.7009339h-1.682168v-1.0113974zm-8.823012 3.4789201v-3.4789201h1.237623v-.6841969h-3.329022v.6841969h1.237808v3.4789201zm-.55214 10.6525032c-6.680483 0-12.113962-5.7137792-12.113962-12.7146577 0-7.04336494 5.433479-12.75953517 12.113962-12.75953517h9.928211v6.77465215h-9.928211c-2.945173 0-5.340414 2.68492082-5.340414 5.98488302 0 3.2771557 2.395241 5.9429484 5.340414 5.9429484l9.911474.0009196c2.836658-.0844211 5.147846-2.7112219 5.197137-5.8805982v-12.81912649h6.776859v15.09058639c0 2.2126043 1.769348 4.0246223 3.982136 4.0246223 2.21334 0 4.025174-1.812018 4.025174-4.0246223v-15.09058639h6.77686v15.09058639c0 2.2126043 1.811098 4.0246223 4.026277 4.0246223 2.211501 0 3.980849-1.812018 3.980849-4.0246223v-15.09058639h6.776675v15.09058639c0 5.7124918-4.668908 10.379928-10.381767 10.379928-3.096727 0-5.884645-1.3713364-7.789728-3.5377758-1.906555 2.1664394-4.693554 3.5377758-7.7912 3.5377758-3.081644 0-5.858343-1.3588296-7.762875-3.5066926-2.096548 2.0936055-4.901019 3.4165699-7.992596 3.5066926zm65.774858-14.581669c.649251-.4780182 2.185751-1.6394975 2.185751-4.47413227 0-3.55267364-2.936161-6.83185248-6.864959-6.83185248-1.570526 0-6.251572.78572281-6.729039 6.62622558h4.543288c.066948-.71693528.581383-2.32240681 2.254539-2.32240681 1.126901 0 2.2527.58101553 2.2527 2.39064257 0 1.98086018-1.570343 2.698899-3.17563 2.698899h-.785171v4.30289911h.751145c3.723171 0 5.020938 2.186671 5.020938 4.2015571 0 2.493456-2.116964 4.0998472-4.029956 4.0998472-1.570342 0-3.825985-1.1269016-4.099663-3.8261685h-4.542369c.306786 5.0899095 4.337477 8.1296194 8.539218 8.1296194 4.406449 0 8.676058-3.2446011 8.676058-8.471166 0-.7173031 0-4.8500727-3.99685-6.5239639zm3.882265-10.75292564v4.30381876h3.176733v20.97265598h4.543288v-25.27647474z"/>
</symbol>



<symbol id="cbs-pittsburgh" viewBox="0 0 344 32">
<path fill-rule="evenodd" d="M65.4914818,8.98607917 C65.4914818,7.23269787 66.8065178,5.91766189 70.0933165,5.91766189 C73.6000791,5.91766189 75.792597,8.54773385 75.792597,8.54773385 L80.1760502,4.16428059 C80.1760502,4.16428059 76.6692876,0 69.8749351,0 C62.8614099,0 58.6963381,4.16428059 58.6963381,8.98607917 C58.6963381,19.7263309 74.0384244,17.3146404 74.0384244,22.5755755 C74.0384244,24.5481295 72.505007,26.0823381 68.9982444,26.0823381 C64.3948273,26.0823381 61.7647553,22.7947482 61.7647553,22.7947482 L57.3813021,27.1782014 C57.3813021,27.1782014 61.32641,32 69.2166259,32 C76.450115,32 80.8343595,27.6165467 80.8343595,22.5755755 C80.8343595,11.8353238 65.4914818,14.2462231 65.4914818,8.98607917 L65.4914818,8.98607917 Z M49.7980862,21.9180575 C49.7980862,19.7263309 48.2638776,18.191331 45.6338056,18.191331 L38.8386618,18.191331 L38.8386618,25.6439928 L45.6338056,25.6439928 C48.2638776,25.6439928 49.7980862,24.1097841 49.7980862,21.9180575 L49.7980862,21.9180575 Z M38.8386618,12.4928418 L44.757115,12.4928418 C46.9488416,12.4928418 48.2638776,11.1778058 48.2638776,9.4244245 C48.2638776,7.6710432 46.9488416,6.35600722 44.757115,6.35600722 L38.8386618,6.35600722 L38.8386618,12.4928418 Z M56.5924387,22.5755755 C56.5924387,27.3973741 52.6473308,31.342482 46.0721509,31.342482 L32.2634819,31.342482 L32.2634819,0.657517988 L45.1954603,0.657517988 C51.3322948,0.657517988 55.0582301,4.38345326 55.0582301,8.76690651 C55.0582301,13.5887051 50.8939495,15.1229137 50.8939495,15.1229137 C50.8939495,15.1229137 56.5924387,16.6571224 56.5924387,22.5755755 L56.5924387,22.5755755 Z M25.4248201,21.4797122 L29.8090646,25.8631654 C29.8090646,25.8631654 25.4248201,32 16.6579136,32 C7.23348911,32 2.55795385e-13,24.7673021 2.55795385e-13,15.9996044 C2.55795385e-13,7.23269787 7.23348911,0 16.6579136,0 C25.2056475,0 29.5898919,6.13683456 29.5898919,6.13683456 L25.2056475,10.5202878 C25.2056475,10.5202878 22.1372302,6.13683456 16.6579136,6.13683456 C11.178597,6.13683456 6.79514378,10.5202878 6.79514378,15.9996044 C6.79514378,21.4797122 11.178597,25.8631654 16.6579136,25.8631654 C22.3564028,25.8631654 25.4248201,21.4797122 25.4248201,21.4797122 L25.4248201,21.4797122 Z M92.9195656,31.350401 L96.2091237,31.350401 L96.2091237,19.9465994 L104.542671,19.9465994 C110.244572,19.9465994 114.411345,15.7798258 114.411345,10.2972289 C114.411345,4.81463195 110.244572,0.647858303 104.542671,0.647858303 L92.9195656,0.647858303 L92.9195656,31.350401 Z M96.2091237,16.8763451 L96.2091237,3.71811257 L104.542671,3.71811257 C108.490141,3.71811257 111.121787,6.34975908 111.121787,10.2972289 C111.121787,14.2446986 108.490141,16.8763451 104.542671,16.8763451 L96.2091237,16.8763451 Z M119.865042,31.350401 L123.1546,31.350401 L123.1546,0.647858303 L119.865042,0.647858303 L119.865042,31.350401 Z M136.72254,31.350401 L140.012098,31.350401 L140.012098,3.71811257 L149.661468,3.71811257 L149.661468,0.647858303 L127.073169,0.647858303 L127.073169,3.71811257 L136.72254,3.71811257 L136.72254,31.350401 Z M159.501242,31.350401 L162.790801,31.350401 L162.790801,3.71811257 L172.440171,3.71811257 L172.440171,0.647858303 L149.851872,0.647858303 L149.851872,3.71811257 L159.501242,3.71811257 L159.501242,31.350401 Z M173.727094,27.1836273 C173.727094,27.1836273 177.016652,31.7890087 184.034376,31.7890087 C190.613492,31.7890087 194.341658,28.0608428 194.341658,23.0168537 C194.341658,12.0516599 177.674564,16.4377374 177.674564,8.54279785 C177.674564,5.77956901 180.043045,3.27950482 184.25368,3.27950482 C188.815201,3.27950482 191.0521,6.34975908 191.0521,6.34975908 L193.245139,4.15672032 C193.245139,4.15672032 190.131024,0.20925055 184.25368,0.20925055 C178.157032,0.20925055 174.385005,4.06899877 174.385005,8.54279785 C174.385005,19.5079917 191.0521,15.1219141 191.0521,23.0168537 C191.0521,26.3064118 188.639757,28.7187545 184.034376,28.7187545 C178.332475,28.7187545 175.700829,24.9467278 175.700829,24.9467278 L173.727094,27.1836273 Z M199.576051,31.350401 L212.076372,31.350401 C217.778272,31.350401 221.506438,27.6222351 221.506438,22.5782459 C221.506438,16.8763451 216.462449,14.9026103 216.462449,14.9026103 C216.462449,14.9026103 219.971311,13.3674831 219.971311,8.54279785 C219.971311,4.15672032 216.462449,0.647858303 211.41846,0.647858303 L199.576051,0.647858303 L199.576051,31.350401 Z M202.865609,13.5429262 L202.865609,3.71811257 L211.41846,3.71811257 C214.708018,3.71811257 216.681753,5.69184746 216.681753,8.54279785 C216.681753,11.6130521 214.708018,13.5429262 211.41846,13.5429262 L202.865609,13.5429262 Z M202.865609,28.2801467 L202.865609,16.4377374 L212.076372,16.4377374 C215.804538,16.4377374 218.21688,19.2886878 218.21688,22.5782459 C218.21688,25.8678041 215.804538,28.2801467 212.076372,28.2801467 L202.865609,28.2801467 Z M226.740831,19.2886878 C226.740831,26.3064118 232.223428,31.7890087 239.241152,31.7890087 C246.258876,31.7890087 251.741473,26.3064118 251.741473,19.2886878 L251.741473,0.647858303 L248.451915,0.647858303 L248.451915,19.2886878 C248.451915,24.7712847 244.504445,28.7187545 239.241152,28.7187545 C233.977859,28.7187545 230.030389,24.7712847 230.030389,19.2886878 L230.030389,0.647858303 L226.740831,0.647858303 L226.740831,19.2886878 Z M258.9496,31.350401 L262.239158,31.350401 L262.239158,19.0693839 L271.011313,19.0693839 L277.809734,31.350401 L281.537899,31.350401 L274.300872,18.6307762 C274.300872,18.6307762 280.660684,16.8763451 280.660684,9.8586211 C280.660684,4.59532807 276.713214,0.647858303 271.230617,0.647858303 L258.9496,0.647858303 L258.9496,31.350401 Z M262.239158,15.9991296 L262.239158,3.71811257 L271.230617,3.71811257 C274.958783,3.71811257 277.371126,6.13045521 277.371126,9.8586211 C277.371126,13.586787 274.958783,15.9991296 271.230617,15.9991296 L262.239158,15.9991296 Z M303.439387,18.6307762 L310.457111,18.6307762 L310.457111,24.5519808 C310.457111,24.5519808 307.386856,28.7187545 300.80774,28.7187545 C293.790016,28.7187545 288.307419,23.2361576 288.307419,15.9991296 C288.307419,8.76210172 293.790016,3.27950482 300.80774,3.27950482 C307.825464,3.27950482 311.115022,8.54279785 311.115022,8.54279785 L313.308061,6.56906296 C313.308061,6.56906296 309.141287,0.20925055 300.80774,0.20925055 C292.035585,0.20925055 285.017861,7.22697459 285.017861,15.9991296 C285.017861,24.7712847 292.035585,31.7890087 300.80774,31.7890087 C309.141287,31.7890087 313.746669,25.4291963 313.746669,25.4291963 L313.746669,15.5605219 L303.439387,15.5605219 L303.439387,18.6307762 Z M320.296885,31.350401 L323.586443,31.350401 L323.586443,17.3149529 L340.692145,17.3149529 L340.692145,31.350401 L343.981703,31.350401 L343.981703,0.647858303 L340.692145,0.647858303 L340.692145,14.2446986 L323.586443,14.2446986 L323.586443,0.647858303 L320.296885,0.647858303 L320.296885,31.350401 Z"/>
</symbol>



<symbol id="cbs-bay-area" viewBox="0 0 285 32">
<path fill-rule="evenodd" d="m93.3524193 31.3475712h12.4980167c5.70085 0 9.428328-3.7274786 9.428328-8.770538 0-5.7008498-5.043059-7.6742208-5.043059-7.6742208s3.508215-1.5348442 3.508215-6.35864011c0-4.38526903-3.508215-7.89348426-8.551274-7.89348426h-11.8402267zm3.2889518-17.8041922v-9.82300265h8.5512749c3.288951 0 5.262323 1.97337107 5.262323 4.82379594 0 3.06968831-1.973372 4.99920671-5.262323 4.99920671zm0 14.7345039v-11.8402264h9.2090649c3.727479 0 6.139377 2.8504249 6.139377 6.1393767s-2.411898 5.7008497-6.139377 5.7008497zm19.7048159 3.0696883h3.508215l3.508215-8.5512746h14.471388l3.508215 8.5512746h3.508215l-12.71728-30.69688317h-3.069688zm8.332011-11.6209629 5.920113-14.47138779 5.920113 14.47138779zm28.25609 11.6209629h3.288952v-10.7439091l11.401699-19.95297407h-3.727479l-9.209065 16.44475887h-.219263l-9.209065-16.44475887h-3.727479l11.4017 19.95297407zm19.895184 0h3.508215l3.508215-8.5512746h14.471388l3.508215 8.5512746h3.508215l-12.71728-30.69688317h-3.069688zm8.332011-11.6209629 5.920113-14.47138779 5.920113 14.47138779zm24.090084 11.6209629h3.288952v-12.2787532h8.770538l6.797167 12.2787532h3.727479l-7.235694-12.7172801s6.35864-1.7541077 6.35864-8.7705381c0-5.26232284-3.946742-9.20906497-9.428329-9.20906497h-12.278753zm3.288952-15.3484416v-12.27875325h8.989801c3.727479 0 6.139377 2.41189797 6.139377 6.13937665 0 3.7274787-2.411898 6.1393766-6.139377 6.1393766zm24.747875 15.3484416h21.487818v-3.0696883h-18.198866v-11.4016995h14.252124v-3.0696883h-14.252124v-10.08611875h17.760339v-3.06968832h-21.049291zm22.774504 0h3.508215l3.508215-8.5512746h14.471388l3.508215 8.5512746h3.508215l-12.71728-30.69688317h-3.069688zm8.332011-11.6209629 5.920113-14.47138779 5.920113 14.47138779zm-198.4705734-10.74052913c0-1.7533813 1.315036-3.06841728 4.6018347-3.06841728 3.5067626 0 5.6992804 2.63007196 5.6992804 2.63007196l4.3834533-4.38345326s-3.5067626-4.16428059-10.3011152-4.16428059c-7.0135252 0-11.178597 4.16428059-11.178597 8.98607917 0 10.74025173 15.3420864 8.32856123 15.3420864 13.58949633 0 1.972554-1.5334174 3.5067626-5.04018 3.5067626-4.6034172 0-7.2334891-3.2875899-7.2334891-3.2875899l-4.3834533 4.3834532s3.945108 4.8217986 11.8353238 4.8217986c7.2334891 0 11.6177336-4.3834533 11.6177336-9.4244245 0-10.7402517-15.3428776-8.3293524-15.3428776-13.58949633zm-15.6933957 12.93197833c0-2.1917266-1.5342086-3.7267265-4.1642805-3.7267265h-6.7951438v7.4526618h6.7951438c2.6300719 0 4.1642805-1.5342087 4.1642805-3.7259353zm-10.9594243-9.4252157h5.9184531c2.1917266 0 3.5067626-1.315036 3.5067626-3.0684173s-1.315036-3.06841728-3.5067626-3.06841728h-5.9184531zm17.7537769 10.0827337c0 4.8217986-3.9451079 8.7669065-10.5202878 8.7669065h-13.808669v-30.68496401h12.9319783c6.1368346 0 9.8627699 3.72593527 9.8627699 8.10938852 0 4.82179859-4.1642806 6.35600719-4.1642806 6.35600719s5.6984892 1.5342087 5.6984892 7.4526618zm-31.1676186-1.0958633 4.3842445 4.3834532s-4.3842445 6.1368346-13.151151 6.1368346c-9.42442454 0-16.65791365-7.2326979-16.65791365-16.0003956 0-8.76690653 7.23348911-15.9996044 16.65791365-15.9996044 8.5477338 0 12.9319783 6.13683456 12.9319783 6.13683456l-4.3842445 4.38345324s-3.0684173-4.38345324-8.5477338-4.38345324c-5.4793166 0-9.86276987 4.38345324-9.86276987 9.86276984 0 5.4801078 4.38345327 9.863561 9.86276987 9.863561 5.6984892 0 8.7669065-4.3834532 8.7669065-4.3834532z"/>
</symbol>



<symbol id="cbs-minnesota" viewBox="0 0 337 32">
<path fill-rule="evenodd" d="m92.9195656 31.3370069h3.2881433v-24.98988889l12.2757351 16.22150689 12.275735-16.22150689v24.98988889h3.288143v-30.68933725h-2.849724l-12.714154 16.65992595-12.7141543-16.65992595h-2.8497241zm38.7712024 0h3.288143v-30.68933725h-3.288143zm10.93159 0h3.288143v-24.77067934l18.852021 24.77067934h2.849725v-30.68933725h-3.288144v24.77067935l-18.852021-24.77067935h-2.849724zm32.633335 0h3.288143v-24.77067934l18.852022 24.77067934h2.849724v-30.68933725h-3.288143v24.77067935l-18.852022-24.77067935h-2.849724zm32.633335 0h21.482536v-3.0689337h-18.194393v-11.3988967h14.248621v-3.0689337h-14.248621v-10.08363942h17.755974v-3.06893373h-21.044117zm23.864953-4.1649815s3.288143 4.6034006 10.302849 4.6034006c6.576287 0 10.302849-3.7265623 10.302849-8.768382 0-10.9604776-16.659926-6.5762866-16.659926-14.46783047 0-2.76204036 2.367463-5.26102925 6.576287-5.26102925 4.559558 0 6.795496 3.06893373 6.795496 3.06893373l2.192095-2.19209552s-3.112775-3.94577194-8.987591-3.94577194c-6.094026 0-9.86443 3.85808812-9.86443 8.32996298 0 10.96047757 16.659926 6.57628657 16.659926 14.46783047 0 3.2881432-2.411305 5.6994483-7.014706 5.6994483-5.699448 0-8.329963-3.7704043-8.329963-3.7704043zm23.864953-11.1796871c0 8.7683821 7.014706 15.7830877 15.783088 15.7830877s15.783088-7.0147056 15.783088-15.7830877c0-8.76838209-7.014706-15.78308775-15.783088-15.78308775s-15.783088 7.01470566-15.783088 15.78308775zm15.783088 12.714154c-7.014706 0-12.494945-5.4802388-12.494945-12.714154 0-7.23391522 5.480239-12.71415402 12.494945-12.71415402s12.494944 5.4802388 12.494944 12.71415402c0 7.2339152-5.480238 12.714154-12.494944 12.714154zm26.495468 2.6305146h3.288143v-27.62040352h9.64522v-3.06893373h-22.578584v3.06893373h9.645221zm10.49317 0h3.507353l3.507353-8.5491725h14.46783l3.507353 8.5491725h3.507353l-12.714154-30.68933725h-3.068934zm8.329963-11.6181062 5.918658-14.46783045 5.918658 14.46783045zm-251.2291412-10.73282153c0-1.7533813 1.315036-3.06841728 4.6018347-3.06841728 3.5067626 0 5.6992805 2.63007196 5.6992805 2.63007196l4.3834532-4.38345326s-3.5067626-4.16428059-10.3011151-4.16428059c-7.0135252 0-11.178597 4.16428059-11.178597 8.98607917 0 10.74025173 15.3420863 8.32856123 15.3420863 13.58949633 0 1.972554-1.5334174 3.5067626-5.04018 3.5067626-4.6034171 0-7.2334891-3.2875899-7.2334891-3.2875899l-4.3834532 4.3834532s3.9451079 4.8217986 11.8353238 4.8217986c7.2334891 0 11.6177336-4.3834533 11.6177336-9.4244245 0-10.7402517-15.3428777-8.3293524-15.3428777-13.58949633zm-15.6933956 12.93197833c0-2.1917266-1.5342086-3.7267265-4.1642806-3.7267265h-6.7951438v7.4526618h6.7951438c2.630072 0 4.1642806-1.5342087 4.1642806-3.7259353zm-10.9594244-9.4252157h5.9184532c2.1917266 0 3.5067626-1.315036 3.5067626-3.0684173s-1.315036-3.06841728-3.5067626-3.06841728h-5.9184532zm17.7537769 10.0827337c0 4.8217986-3.9451079 8.7669065-10.5202878 8.7669065h-13.808669v-30.68496401h12.9319784c6.1368345 0 9.8627698 3.72593527 9.8627698 8.10938852 0 4.82179859-4.1642806 6.35600719-4.1642806 6.35600719s5.6984892 1.5342087 5.6984892 7.4526618zm-31.1676186-1.0958633 4.3842445 4.3834532s-4.3842445 6.1368346-13.151151 6.1368346c-9.42442449 0-16.6579136-7.2326979-16.6579136-16.0003956 0-8.76690653 7.23348911-15.9996044 16.6579136-15.9996044 8.5477339 0 12.9319783 6.13683456 12.9319783 6.13683456l-4.3842444 4.38345324s-3.0684173-4.38345324-8.5477339-4.38345324-9.86276982 4.38345324-9.86276982 9.86276984c0 5.4801078 4.38345322 9.863561 9.86276982 9.863561 5.6984892 0 8.7669065-4.3834532 8.7669065-4.3834532z"/>
</symbol>



</svg>
