<svg xmlns="http://www.w3.org/2000/svg">

	<symbol id="headshot" viewBox="0 0 100 100">
		<path fill-rule="evenodd" d="M100 100.064H0V89.581c0-11.975 10.947-14.92 10.947-14.92 2.127-.626 4.913-1.627 7.758-2.716l1.808-.7 2.796-1.11c4.752-1.913 8.7-3.622 8.7-3.622 1.828-2.853 5.476-4.338 5.476-4.338v-3.22c-4.766-5.274-4.973-12.37-4.973-12.37-1.193 0-2.89-2.643-2.89-3.588 0-.945-.515-3.346-.944-4.47-.741-1.948.92-2.865.92-2.865-2.283-17.927 7.038-24.79 7.038-24.79 3.93-4.207 9.322-3.294 9.322-3.294 7.311-4.116 14.349 1.464 14.349 1.464 13.512 6.6 10.206 25.74 10.206 25.74.365.34.61.745.777 1.138.305.727.305 1.548.012 2.283-.52 1.32-.79 2.724-.793 4.143 0 2.846-3.216 4.834-3.216 4.834 0 5.78-2.724 9.637-4.77 11.72v3.275l.252.11c.856.393 3.688 1.825 5.224 4.228l4.008 1.697a374.29 374.29 0 0 0 7.488 3.035l1.002.39 1.75.669c2.318.875 4.551 1.669 6.368 2.224l.71.215C90.995 75.287 100 78.72 100 89.58v10.483Z"/>
	</symbol>

</svg>
