<svg xmlns="http://www.w3.org/2000/svg">

	<symbol id="caret" viewBox="0 0 100 100">
		<path fill-rule="evenodd" d="M25.654 14.566A8.824 8.824 0 1 1 39.052 3.08l35.294 41.177a8.824 8.824 0 0 1 0 11.484L39.052 96.92a8.824 8.824 0 0 1-13.398-11.485L56.026 50z"/>
	</symbol>

	<symbol id="headshot" viewBox="0 0 100 100">
		<path fill-rule="evenodd" d="M100 100.064H0V89.581c0-11.975 10.947-14.92 10.947-14.92 2.127-.626 4.913-1.627 7.758-2.716l1.808-.7 2.796-1.11c4.752-1.913 8.7-3.622 8.7-3.622 1.828-2.853 5.476-4.338 5.476-4.338v-3.22c-4.766-5.274-4.973-12.37-4.973-12.37-1.193 0-2.89-2.643-2.89-3.588 0-.945-.515-3.346-.944-4.47-.741-1.948.92-2.865.92-2.865-2.283-17.927 7.038-24.79 7.038-24.79 3.93-4.207 9.322-3.294 9.322-3.294 7.311-4.116 14.349 1.464 14.349 1.464 13.512 6.6 10.206 25.74 10.206 25.74.365.34.61.745.777 1.138.305.727.305 1.548.012 2.283-.52 1.32-.79 2.724-.793 4.143 0 2.846-3.216 4.834-3.216 4.834 0 5.78-2.724 9.637-4.77 11.72v3.275l.252.11c.856.393 3.688 1.825 5.224 4.228l4.008 1.697a374.29 374.29 0 0 0 7.488 3.035l1.002.39 1.75.669c2.318.875 4.551 1.669 6.368 2.224l.71.215C90.995 75.287 100 78.72 100 89.58v10.483Z"/>
	</symbol>

	<symbol id="icon-gallery" viewBox="0 0 100 100">
		<path fill-rule="evenodd" d="M96.096 23.574c-2.604-2.654-5.748-3.98-9.428-3.98H75.004l-2.656-7.22c-.662-1.734-1.867-3.23-3.62-4.49C66.97 6.63 65.175 6 63.334 6H36.67c-1.842 0-3.64.63-5.391 1.884-1.755 1.26-2.962 2.756-3.622 4.49L25 19.594H13.335c-3.683 0-6.824 1.326-9.43 3.98C1.302 26.227 0 29.43 0 33.182v47.572c0 3.75 1.302 6.954 3.905 9.609 2.606 2.654 5.747 3.98 9.43 3.98H86.67c3.679 0 6.823-1.326 9.427-3.98 2.603-2.655 3.904-5.858 3.904-9.61v-47.57c0-3.752-1.3-6.956-3.904-9.61ZM73.27 56.452c0 12.852-10.418 23.27-23.27 23.27s-23.27-10.418-23.27-23.27S37.148 33.182 50 33.182 73.27 43.6 73.27 56.452Zm-23.269 15.01c8.285 0 15-6.716 15-15 0-8.285-6.716-15-15-15-8.284 0-15 6.715-15 15 0 8.284 6.716 15 15 15Z"/>
	</symbol>

	<symbol id="icon-video" viewBox="0 0 100 100">
		<path fill-rule="evenodd" d="M96.574 44.074c5.211 3.274 5.209 8.583 0 11.855L28.436 98.734C23.224 102.008 19 98.707 19 91.421V8.583c0-7.313 4.226-10.586 9.436-7.314l68.138 42.805Z"/>
	</symbol>

</svg>
