<svg xmlns="http://www.w3.org/2000/svg" width="1000" height="1000">

<path id="Warren" fill-rule="nonzero" d="m428.471 108.045 8.609 10.401 24.537 30.401 11.704 14.674 16.579 20.314-6.542 5.964-.576 2.62-3.672 1.754-1.428 6.704 1.967 2.369-2.268 1.441-.238 2.368-3.409 1.968-.952 2.28 1.679 2.958-3.947 3.258-3.735 7.243-2.343 2.957-2.657 1.128-1.766-.727-.815 2.607-7.18 3.722-4.65 2.932.577 3.584-3.333 2.168-.615 1.692-3.784 3.22-1.115 2.268-4.963 5.84-1.654 2.907-3.709 2.97-2.256 4.399-3.007-.213-.351 1.741-3.196 1.266-3.471 3.709-4.549-.338-5.388 4.511-3.158 1.98-1.604-.313-8.784 6.491-.828 1.755-3.082 1.679-2.018 2.832-3.07 1.353-1.053 2.231-5.877 2.03-2.794 1.754-2.832.451-1.391 3.484-1.492-.501-2.13 1.428-.614 2.97-3.371 3.171-2.318 3.696-2.958 1.028-.563-4.549-2.807-4.95 1.102-1.917 2.268-.251.677-1.917-.626-4.636-3.046-4.562 1.229-3.383 1.842-2.782 2.556-1.642 1.679-2.719-.012-2.118-6.065-1.516-2.156-4.223 3.045-9.248 2.557-2.557 1.24-3.96-1.002-3.032-2.983-3.409-.351-2.531 4.261-3.146 1.754-2.005.614-3.571 1.279-1.98 2.493-.238 4.462 1.516 4.686.451 3.597-5.325 4.574-1.755 2.443-3.571.188-3.196 3.083-3.421 2.08-3.509-.476-2.318-3.747-4.499.577-2.518 1.516-.853 4.474-.263 1.829 1.04 2.293-.839-.112-2.456 3.884-3.522-.626-3.972-6.918-9.123-.012-4.674-.978-2.82-5.05-4.26-3.095-5.025-1.892-4.875-1.892-2.043-1.454-7.067-3.496-.364-.527-2.431 1.592-5.839 6.742-5.314 5.163-2.368 3.621-2.82 1.905-.112 10.414-5.928 4.599-3.195.238-2.845 2.944-4.248 1.254-3.985 2.105-.426 2.13-2.632 5.326-2.117 4.449-3.534z"/>
<path id="Mercer" fill-rule="nonzero" d="m434.436 418.083 3.371.927 23.985-2.882-4.173-12.82 21.341-2.882-1.98-13.058 19.01-3.02 8.17 20.176 4.487-1.704 10.764-2.081 6.178-2.669 9.925 2.757 1.591 2.907-.827 1.454-1.579 4.373-.977 7.056-.865 2.418 2.431 2.343.251 3.96 2.093-.05 3.947 1.466 1.754 2.82 1.341-.539 2.97 1.629 1.441 3.333 6.329 3.221 2.443 2.256 2.97-.514.764 1.428 2.532-2.03 1.842.088 2.431 2.694 1.103-.263 3.847 3.133 4.323 1.015 2.193 1.303-.927 8.484-.213 1.855 1.316 2.431-19.524 10.789-1.692 3.709-2.782 3.409-1.479 3.659-2.644 1.98-4.173.376-3.183 2.206-1.879-3.033-4.725 1.804 8.434 18.183-3.02.151-8.221-1.993.076-2.443-3.146-.201-1.717-2.168-2.944-.501-4.311-2.732-.163-1.128-3.897-2.092-3.208-3.284-1.918.439-1.792-2.431-3.809.351-1.441 2.757 1.391 1.378.664 4.148-2.406 3.747-2.619.965-.038-4.248-3.634-5.727-6.88-5.05-1.215-4.198-3.835-7.582-7.443-5.839-7.632-3.772-5.301-3.196-1.879-1.779-5.69-14.048-2.418-4.386-5.94-6.24-2.932-1.993-3.747-.764-9.875-8.735z"/>
<path id="Camden" fill-rule="nonzero" d="m396.591 562.018 3.359.175.501-1.165 4.01-.702 5.326 2.869 1.429 3.572-.727 4.11-1.216.389.702 4.085 1.429 1.228-.665 3.985 3.421 2.205 3.121.89 5.94-.125.188.802-2.82 4.511 2.782 2.143 3.847.589 2.231 2.92 1.98 6.153 5.952 5.137 4.774 21.254 3.873 17.819 2.543 3.183 5.953.827 2.143-1.178 8.358-2.268 7.569.827 3.985 1.88 5.125 5.025 3.008 5.251 1.353.325 1.542 3.033 5.175 3.408 6.215 5.138-45.112 49.837-4.737-4.223-.075-2.644-3.208-2.769-1.542-3.735-.802-9.147-2.669-6.128-5.689-7.08-2.268-1.429-2.995-.313-1.993-1.642-3.972.313-5-1.867-1.943-1.529-.213-2.318-1.641-1.642-5.113-2.518-2.719-1.893.702-6.503-4.073-3.509-4.399-6.78-.651-3.696-3.597-1.73-3.057 1.868-4.787.05 1.666-4.825 1.642.539.94-5.376-3.597-3.935-1.015-3.233 1.855-2.707-.088-2.719-3.446-7.556-5.94-4.888-2.844-1.065-1.053-3.258-1.942-1.328 1.253-1.692-3.847-2.819 2.844-4.913.953-4.762-2.206-6.403-.163-8.158 1.817-4.762 3.471-2.732 5.389-2.832 5.225-1.09 3.259-1.191 3.646-3.258z"/>
<path id="Cumberland" fill-rule="nonzero" d="m394.912 736.153 24.324 22.293 28.145 25.79 7.97 6.992 4.699 4.474 1.228 3.884-.062 3.071-1.304 2.08-.213 3.358 1.918 4.875-.502 4.411-1.691 3.258-2.056 10.664.226 4.148.915 1.892-1.053-.238-2.957 4.837-2.694 1.73-4.7 30.175-5.275 3.296-2.795.802-1.366 2.544 1.003 6.015-1.028 1.19.99 5.151 1.88.012.589 4.612-1.028.363-2.895-2.143-7.005-2.306-4.561-1.917-4.21-.125-8.785.501-1.153-.626-6.065-.527-.514-2.418 1.366-1.266-.877-4.373 1.642-2.281-2.707-2.782-.689 2.08-3.71-.238-1.616 2.343-8.083.401-6.541.802-1.93-2.042-2.331-.577-1.115 1.654-2.494.878-2.093 4.398-1.516.414.589 4.148-4.699 1.466-2.87-1.379-1.654-3.107-3.421-2.406 1.428-4.524-1.14-1.905-1.178-6.479-3.997-4.812-2.832.201-2.306-4.537-2.131-2.456-2.13-.075-9.298-4.749-.501-4.862-2.97-4.361.338-1.604-10.012-2.193-.314 2.832-1.428 2.857-2.895-2.168-5.652-5.727-3.408-9.073-.213-2.919-2.181-2.369-5.225-1.93-2.131.865-.313 2.481-2.155.038-1.216-3.797-2.556-1.542-2.03-.037-2.344-1.567-1.353-2.28-.238-3.146-1.291-3.345-2.469-.69-1.804-1.366-1.303-1.253 2.418-3.082-.689-4.349-2.293-2.067.213-2.068 3.245-3.935-2.431-3.847 2.206-3.559-.313-2.87-1.391-.927 2.268-2.669 2.519-1.416 4.223 1.867 4.298.89 1.591-.401 3.66-5.539 1.729-.501.514-3.396 2.481-4.411 5.163.927 2.594-1.441 4.173-4.662 3.596-3.308 7.694-8.033 10.188-11.366 20.552 16.968 19.323 17.218 9.186 8.045 1.152-6.028 2.294-5.388-.176-2.907-1.829-3.822.914-1.416-.35-2.92 1.879-5.05-.651-8.359z"/>
<path id="Hunterdon" fill-rule="nonzero" d="m357.18 314.624 2.958-1.028 2.318-3.696 3.371-3.171.614-2.97 2.13-1.428 1.492.501 1.391-3.484 2.832-.451 2.794-1.754 5.877-2.03 1.053-2.231 3.07-1.353 2.018-2.832 3.082-1.679.828-1.755 8.784-6.491 1.604.313 3.158-1.98 5.388-4.511 4.549.338 3.471-3.709 3.196-1.266.351-1.741 3.007.213 2.256-4.399 3.709-2.97 1.654-2.907 4.963-5.84 1.115-2.268 3.784-3.22.615-1.692 3.333-2.168-.577-3.584 4.65-2.932 14.285 12.055.326 1.065 4.862 4.937 6.028 1.228 3.208-.426 1.353.765 7.118 1.792 5.664 2.042 4.875 3.935 3.659.865 2.707 6.015.1 2.581-1.291.765-1.015 3.696 1.943 1.592-1.567 5.727-2.544 1.854 1.003 2.857 2.494 2.808-1.379 2.042.602 2.243-1.767 2.131.338 1.578 4.173.74.539 2.306 2.769 1.616-3.333 3.709-2.669 4.687.99.439-2.005 4.486 3.759 1.867-3.672 7.419-1.929 1.065-3.898 4.248-10.213 20.025-1.904-.188-1.93-2.982-3.246-1.429 4.812 11.504 10.727 26.24-19.01 3.02 1.98 13.058-21.341 2.882 4.173 12.82-23.985 2.882-3.371-.927-1.767-9.537-4.749-12.569-1.303-1.604-2.745-1.14-3.772-2.87-2.356-.739-8.972 2.87-3.033-1.103-3.684-3.271-3.985-1.716-.814-1.98-1.517-10.026-1.265-3.295 1.153-4.173-.201-3.446 1.541-3.271-.075-7.293-.488-1.717-.013-9.323-1.065-6.629-3.095-2.519-6.805-8.083-5.326-2.268-6.103-1.078-3.358 1.04-3.496 3.208-5.313.088-3.572-1.842-2.281-2.845-.175-2.343z"/>
<path id="Essex" fill-rule="nonzero" d="m645.514 189.436 1.804 1.391.639 2.945 3.509 2.18 4.01.464 34.612 24.787-1.855.677-1.115 5.363.413 2.92-2.869 4.837-.439 3.496-2.13 2.97-2.707 5.99-.439 4.612 1.893 4.373 4.01.013 3.245-2.92 4.399-.276 1.829 2.043-1.353 6.641.351 2.093 2.381 5.263-7.456 11.842-5.401-4.711-3.522-1.73-1.328.639-10.201.777-2.343-1.591-1.19-4.161-2.82-2.681-10.702-2.469-9.16-3.571-2.682.902-1.077 1.98-1.98.827-4.098-2.506-2.832.914-4.975-3.02-5.501-4.749-4.01-1.504 3.847-4.787.589-1.453-3.973-1.943.201-4.887-1.003-1.93 1.842-1.779-.075-5.314 1.003-2.481 4.047-3.095.389-2.205 3.671-.577 1.755-3.509-.815-2.368 1.867-1.491.452-7.845 1.817-5.551-4.963-1.579.501-3.559-1.441-1.454.715-3.007-.301-2.82 1.441-4.649 4.9.827 8.245-1.027-.012 1.892 2.707 1.316z"/>
<path id="Burlington" fill-rule="nonzero" d="m503.91 497.143 2.619-.965 2.406-3.747-.664-4.148-1.391-1.378 1.441-2.757 3.809-.351 1.792 2.431 1.918-.439 3.208 3.284 3.897 2.092.163 1.128 4.311 2.732 2.944.501 1.717 2.168 3.146.201-.076 2.443 8.221 1.993 3.02-.151 10.977 24.361 7.845 17.482 6.942 18.684 11.479 28.321 11.454 27.744 1.529 4.01 12.656 29.687-.125 72.919-.602.677-2.706 9.198-1.391 1.09-3.459-.35-.99 1.077 1.504 2.82-.953 1.541-3.333 1.679-1.942-1.015-1.416 1.78 1.315 1.955-2.117 1.842-1.542-1.755.69-3.458-2.895-.89-.263 3.446h-1.955l-.827-3.095-4.311 1.905-2.168-2.858-3.008 1.153-1.365-2.844-3.108-2.945-2.018-.125-1.529-1.73-1.491 1.617-2.218.1-3.797-2.318-.451-4.198-2.256-1.855-1.679-3.371-2.882.727-3.96-.689-2.982-2.707-1.141-2.82-2.732-1.19-4.536-3.421-4.06-1.366-2.481 1.704-.877-2.406-4.198 1.191-3.584-2.507-.239-3.283.564-7.306-.701-4.912-1.416-2.468-.953-3.672-2.606-3.271-19.086-15.752-6.215-5.138-5.175-3.408-1.542-3.033-1.353-.325-3.008-5.251-5.125-5.025-3.985-1.88-7.569-.827-8.358 2.268-2.143 1.178-5.953-.827-2.543-3.183-3.873-17.819-4.774-21.254-5.952-5.137-1.98-6.153-2.231-2.92-3.847-.589-2.782-2.143 2.82-4.511-.188-.802-5.94.125-3.121-.89-3.421-2.205.665-3.985-1.429-1.228-.702-4.085 1.216-.389.727-4.11-1.429-3.572-5.326-2.869-4.01.702-.501 1.165-3.359-.175 2.131-5.314 2.017-2.205 4.098-2.143 6.98-2.218 1.165-1.303 13.284-11.805 10.902-6.566 3.709-1.053 3.76.514 15.601-5.99 1.667-3.434 5.263-3.133 3.772-9.523 3.195-1.492 4.913 2.043 5.852.84 3.997-3.421 3.371-2.005 5.802-.577 5.125-4.499z"/>
<path id="Monmouth" fill-rule="nonzero" d="m578.935 454.812 7.644.802 21.278-11.667-.276-3.596 5.264-7.03 36.879-37.644 3.923-4.111.112-10.263 3.497-4.912 3.107-.514 1.291-3.133 3.96 1.98 1.228 3.346 3.772-.714 4.148-7.018 1.228.276 3.684 3.584 4.148.188 4.399-3.672 1.353.063 3.684 2.895 4.323 2.418 6.379 2.193 3.759 1.918 5.439 4.498 3.509 1.554 13.095 3.145 1.767-.2 1.654-3.271 1.14-9.661-.952-1.742-2.431-.852-1.203-6.316-3.647-2.406.163-2.82 4.787.251 1.203 1.516 3.822 7.619.965 6.492.201 5.062 2.255 8.396 1.404 14.085.05 7.231-1.78 22.569-1.29 8.233-3.572 17.218-4.536 17.13-.401 3.898-6.579 26.391-.965 8.521-3.797-1.341-3.283 1.855-.464 1.453-3.997 3.271-4.211-2.506-3.408-4.913-.151-2.569-1.416-5.764-2.744-3.797-13.434 15.764-1.303-.338-1.88-3.007-3.671-.264-3.534-1.002-5.99-.927-7.093 1.453-4.824-1.378-1.579-2.369.852-5.288-1.454-1.93-.827-3.346-3.421-2.155.401-4.662-.94-2.744-45.952-2.118-19.875 18.058-18.283 15.777-8.171 4.586-10.977-24.361-8.434-18.183 4.725-1.804 1.879 3.033 3.183-2.206 4.173-.376 2.644-1.98 1.479-3.659 2.782-3.409 1.692-3.709 19.524-10.789-1.316-2.431z"/>
<path id="Passaic" fill-rule="nonzero" d="m573.183 111.917 6.479-7.293 8.07-9.962 4.336-4.913 6.328-8.533 17.093-17.77 7.005 4.699 13.396 7.983 18.358 10.551 9.95 5.464-12.118 29.987-6.754 17.682 2.481 2.444 4.95 8.17 7.519 4.424 16.691 1.691.264-2.819 9.16 7.193-2.193 9.975 2.419 2.519-.602 2.656 1.128 2.619 2.97 1.216-1.253 3.02.576 2.97-.363 3.546 1.341 1.04-.452 3.885 2.682 1.704 1.78 2.369 2.869 6.528-4.524.715.602 2.706-1.441 5.076.94 2.33-.815 4.224-1.967 1.19-34.612-24.787-4.01-.464-3.509-2.18-.639-2.945-1.804-1.391 1.666-4.235-1.566-3.171-3.434-.589-2.08-4.9 1.291-1.077 1.403-3.434.953-6.328-.953-1.103.364-3.07-.84-1.629.99-2.569-1.992-1.391-3.822-.338 1.416-3.472-.84-2.732-1.842-1.867-2.519.351-1.892-1.629-3.509.602-4.336-2.005-2.982.764-.326-2.744-1.303-1.341-2.77 1.215-11.165-2.681-1.942-2.745-2.807-1.566-2.619.125-1.429 2.882-1.892-1.027 1.767-3.371-1.303-2.757-2.607-2.857-.288-2.268-1.579-1.617-4.461 1.003-1.554 1.253-3.02.451-4.612 4.323-2.707.74-.714-2.682 1.429-6.654 3.045-3.822-1.354-4.374z"/>
<path id="Bergen" fill-rule="nonzero" d="m664.198 92.143 9.048 4.962 27.919 16.015 36.492 21.128 23.145 13.509 2.832.037-.739 6.304-3.396 12.544-2.118 9.699-4.762 16.215-7.105 15.527-3.183 9.987-6.692 12.068-2.682-1.466.038-1.842-6.078-4.474.339-1.704-5.251 2.168-3.008 3.333-6.691.614-3.033 3.22-1.992.74-4.587 7.694.677 5.576-2.469.665-.827-3.973-3.396-2.168-3.12 2.256-2.494.439-1.002-2.557-5.401-3.659 2.869-4.837-.413-2.92 1.115-5.363 1.855-.677 1.967-1.19.815-4.224-.94-2.33 1.441-5.076-.602-2.706 4.524-.715-2.869-6.528-1.78-2.369-2.682-1.704.452-3.885-1.341-1.04.363-3.546-.576-2.97 1.253-3.02-2.97-1.216-1.128-2.619.602-2.656-2.419-2.519 2.193-9.975-9.16-7.193-.264 2.819-16.691-1.691-7.519-4.424-4.95-8.17-2.481-2.444 6.754-17.682z"/>
<path id="Cape-May" fill-rule="nonzero" d="m441.103 897.469-.589-4.612-1.88-.012-.99-5.151 1.028-1.19-1.003-6.015 1.366-2.544 2.795-.802 5.275-3.296 4.7-30.175 2.694-1.73 2.957-4.837 1.053.238.213 1.792 3.07 1.341 4.298.577 3.923 3.922 6.378-.414 1.516-.827 2.72 1.354 2.681-.815 3.233 2.569 3.66 1.729 2.518-.964.664 1.704 3.635-.201 2.995-1.265 3.17.163.639 1.666 3.296 1.128 2.519-.977.626 1.867 6.028-1.867 1.654-1.191 4.436-.413 1.14 3.37 2.883-.1 1.854-2.293 3.396.15 2.619 1.116 2.118-.439 8.408-6.504 2.594.201 4.988 4.022 3.596.113 2.632-.94-1.228 6.04-2.582 3.559-6.253 2.945-5.564 5-5.188 5.677-10.839 15.063-1.341 3.897-2.845 2.519-3.584 5.2-7.543 13.133-4.687 10.063-1.592 1.478.063 2.131 3.108 2.794-.476 2.03-10.138 11.504-4.599 7.882-6.341 9.536-2.13 1.178-3.071-1.566-3.571 2.97 1.216 1.867.3 3.258 2.093 5.288-2.093 2.795-9.373 8.058-9.06 8.182-4.436 5.803-1.93-1.291-4.336.438-7.456 4.261-4.311 1.153-4.236.238-1.177-1.128-3.221-.326-3.221.552-3.22-1.166-1.504-2.869 2.907-8.973-.338-2.769 2.907-13.308 1.93-5.903 3.622-8.032 11.24-21.466 1.905-4.675 1.704-5.914.376-5.74.677-.313-.038-5.138 1.178-1.328-.376-6.266-4.047-5.977z"/>
<path id="Middlesex" fill-rule="nonzero" d="m536.278 405.188 5.577-2.87 4.636-5.513.652-3.823-.05-5.025.576-1.265 9.474-4.787 5.651-3.296 3.033-2.682 5.902-6.641 3.935-3.283 3.271-4.386 2.03-1.78 5.865-2.932.25-2.068-2.506-2.832.012-2.456-4.636-1.216-4.248-7.092-5.213-4.424-1.291-2.13-.539-3.108-1.854-2.481-.752-3.985 5.075-6.579 8.333-2.156 4.135-3.659 2.131-.351 2.005 1.391 48.396-5.376-.752 3.346 4.561 3.547 9.825-2.243.576-2.043 4.812 1.14 2.118-1.265 1.867 1.516 5.414-1.654.313 1.854 2.005 1.817-.564.427-2.331 11.466-1.854 2.531-3.597-1.391-2.155 1.867-4.261 2.093-.739 1.704.614 5.364 1.128 5.05-3.171 5.012-.914 3.108-3.271 6.266 1.804 3.822 1.617 5.94 3.709 1.315 1.642 1.416 2.594.088 2.067 2.118 2.469.15-1.291 3.133-3.107.514-3.497 4.912-.112 10.263-3.923 4.111-36.879 37.644-5.264 7.03.276 3.596-21.278 11.667-7.644-.802.927-8.484-2.193-1.303-4.323-1.015-3.847-3.133-1.103.263-2.431-2.694-1.842-.088-2.532 2.03-.764-1.428-2.97.514-2.443-2.256-6.329-3.221-1.441-3.333-2.97-1.629-1.341.539-1.754-2.82-3.947-1.466-2.093.05-.251-3.96-2.431-2.343.865-2.418.977-7.056z"/>
<path id="Morris" fill-rule="nonzero" d="m489.9 183.835 4.348-1.103 2.369-2.531 3.27.375 5.978 2.707 1.729 1.955.476 3.496 4.524-3.383 5.439-.702 4.173-3.22 4.122-1.905-.275-2.544 1.115-1.466 2.744-.94 1.705-3.697.413-3.321-1.93-3.559.126-2.468 8.157-10.426 20.915-23.597 8.045-9.361 5.84-6.228 3.596 3.183 1.354 4.374-3.045 3.822-1.429 6.654.714 2.682 2.707-.74 4.612-4.323 3.02-.451 1.554-1.253 4.461-1.003 1.579 1.617.288 2.268 2.607 2.857 1.303 2.757-1.767 3.371 1.892 1.027 1.429-2.882 2.619-.125 2.807 1.566 1.942 2.745 11.165 2.681 2.77-1.215 1.303 1.341.326 2.744 2.982-.764 4.336 2.005 3.509-.602 1.892 1.629 2.519-.351 1.842 1.867.84 2.732-1.416 3.472 3.822.338 1.992 1.391-.99 2.569.84 1.629-.364 3.07.953 1.103-.953 6.328-1.403 3.434-1.291 1.077 2.08 4.9 3.434.589 1.566 3.171-1.666 4.235-3.684-.225-2.707-1.316.012-1.892-8.245 1.027-4.9-.827-1.441 4.649.301 2.82-.715 3.007 1.441 1.454-.501 3.559 4.963 1.579-1.817 5.551-.452 7.845-1.867 1.491.815 2.368-1.755 3.509-3.671.577-.389 2.205-4.047 3.095-1.003 2.481.075 5.314-1.842 1.779 1.003 1.93-.201 4.887 3.973 1.943-.589 1.453-3.847 4.787.188 2.093-4.111 4.16-2.042-.376.012 2.87-3.458.125-3.584 3.434-.802 1.754-2.432 1.04-5.062 5.502-3.847 1.767-.715 4.661-2.142.238-2.707 2.306-4.762 1.015-2.231 1.654-3.696.74-1.266 2.907-1.692 1.241-3.183.175-1.98-6.391 1.153-3.571-.902-2.782 1.341-3.735 3.02-2.343.313-2.556-1.516-2.156-2.281-1.253.564-1.667-2.206-2.594.452-2.819-3.196-2.995-2.418-1.316-.452-4.148-2.155-4.636-53.233 15.877-3.659-.865-4.875-3.935-5.664-2.042-7.118-1.792-1.353-.765-3.208.426-6.028-1.228-4.862-4.937-.326-1.065-14.285-12.055 7.18-3.722.815-2.607 1.766.727 2.657-1.128 2.343-2.957 3.735-7.243 3.947-3.258-1.679-2.958.952-2.28 3.409-1.968.238-2.368 2.268-1.441-1.967-2.369 1.428-6.704 3.672-1.754.576-2.62z"/>
<path id="Atlantic" fill-rule="nonzero" d="m419.236 758.446 34.649-38.296 45.112-49.837 19.086 15.752 2.606 3.271.953 3.672 1.416 2.468.701 4.912-.564 7.306.239 3.283 3.584 2.507 4.198-1.191.877 2.406 2.481-1.704 4.06 1.366 4.536 3.421 2.732 1.19 1.141 2.82 2.982 2.707 3.96.689 2.882-.727 1.679 3.371 2.256 1.855.451 4.198 3.797 2.318 2.218-.1 1.491-1.617 1.529 1.73 2.018.125 3.108 2.945 1.365 2.844 3.008-1.153 2.168 2.858 4.311-1.905.827 3.095h1.955l.263-3.446 2.895.89-.69 3.458 1.542 1.755 2.117-1.842-1.315-1.955 1.416-1.78 1.942 1.015 3.333-1.679.376 3.058 2.143 1.115 2.506 3.784 6.692 16.204 6.328-1.442 2.156-1.466 4.987-.539 3.898.213.977 2.645 3.584 6.716-.288 4.086-4.762 7.957.877 2.506-1.028 3.547-6.077 7.932-6.191 7.581-6.892 6.479-5.439 5.564-.839 3.183-1.429 1.754-3.496 2.231-4.875 1.14-6.729 3.146-10.313 6.29-9.273 7.005-4.411 4.098-4.424.689-2.632.94-3.596-.113-4.988-4.022-2.594-.201-8.408 6.504-2.118.439-2.619-1.116-3.396-.15-1.854 2.293-2.883.1-1.14-3.37-4.436.413-1.654 1.191-6.028 1.867-.626-1.867-2.519.977-3.296-1.128-.639-1.666-3.17-.163-2.995 1.265-3.635.201-.664-1.704-2.518.964-3.66-1.729-3.233-2.569-2.681.815-2.72-1.354-1.516.827-6.378.414-3.923-3.922-4.298-.577-3.07-1.341-.213-1.792-.915-1.892-.226-4.148 2.056-10.664 1.691-3.258.502-4.411-1.918-4.875.213-3.358 1.304-2.08.062-3.071-1.228-3.884-4.699-4.474-7.97-6.992z"/>
<path id="Salem" fill-rule="nonzero" d="m286.216 641.529-4.424 2.694 1.83 1.955 1.729-1.078 1.767 2.118 1.579 5.514-2.406.05.514 3.221 4.21.338-1.403 2.03.764 2.293 4.774 2.13.589 3.221-.614 4.411 4.938 4.248.188 1.228 3.208.852.877 1.717 3.609 1.366.25 1.491 2.707 1.654-.062 2.294 3.772-.238 6.303 2.205 2.631 2.632 5.852-.953 2.068.251 3.346 2.055.188 3.358 1.704 1.88 3.847 1.128 10.614-2.218 20.878 19.361 22.869 21.416-4.072 9.937.651 8.359-1.879 5.05.35 2.92-.914 1.416 1.829 3.822.176 2.907-2.294 5.388-1.152 6.028-9.186-8.045-19.323-17.218-20.552-16.968-10.188 11.366-7.694 8.033-3.596 3.308-4.173 4.662-2.594 1.441-5.163-.927-2.481 4.411-.514 3.396-1.729.501-3.66 5.539-1.591.401-4.298-.89-4.223-1.867-2.519 1.416-2.268 2.669 1.391.927.313 2.87-2.206 3.559 2.431 3.847-3.245 3.935-.213 2.068 2.293 2.067.689 4.349-2.418 3.082-3.509-.213-4.599-6.015-2.707-5.814-1.792-2.619-2.644-6.73-2.418.715-4.913-2.619-.05-1.893-3.346-.388-2.143-1.717-.839-2.569-8.948-.689-2.017-4.098-.426-3.772.614-6.98 4.749-.589-.626-5.225 1.128-2.569-.276-7.506-1.993-2.256 4.85-5.99 2.606-5.213-.112-3.734-2.557-2.532-2.08-.889-4.223-3.71-4.411-3.245-1.015-1.943-.827-7.218 1.128-4.398 2.907-2.281 1.667-2.243 2.205-.464 6.642-8.734.94-2.343 1.566-9.311 3.496-1.792 1.604-3.973 1.968-1.917 2.005.84 1.616-8.898 1.604-3.333 3.208-9.11 2.281-1.291.551-2.494 3.985-3.797z"/>
<path id="Sussex" fill-rule="nonzero" d="m615.489 63.446-17.093 17.77-6.328 8.533-4.336 4.913-8.07 9.962-6.479 7.293-5.84 6.228-8.045 9.361-20.915 23.597-8.157 10.426-.126 2.468 1.93 3.559-.413 3.321-1.705 3.697-2.744.94-1.115 1.466.275 2.544-4.122 1.905-4.173 3.22-5.439.702-4.524 3.383-.476-3.496-1.729-1.955-5.978-2.707-3.27-.375-2.369 2.531-4.348 1.103-16.579-20.314-11.704-14.674-24.537-30.401-8.609-10.401-2.556.088-4.06 2.393-1.066-1.679 2.995-6.566 2.92-2.068 2.682-.363 5.138-3.81.89-2.268 4.36-1.754 2.494-1.955 5.614-7.193 1.755-4.311 5.501-6.015 2.556-7.281 4.612-9.035-2.507-2.995 3.234-8.722 2.543-.902 1.241-2.82-.388-2.08 2.493-5.839 2.607-4.073 2.544-2.719 3.07-1.78 1.616-2.042 4.462-3.071-1.003-3.245 1.153-1.629 6.391-1.053 2.519-2.669 1.002-3.597 2.206-2.38 7.105.075 2.945-.577L513.622 0l16.566 10.138 10.627 6.24 33.496 20.79 13.082 7.87 16.604 10.676z"/>
<path id="Union" fill-rule="nonzero" d="m586.429 281.754 2.142-.238.715-4.661 3.847-1.767 5.062-5.502 2.432-1.04.802-1.754 3.584-3.434 3.458-.125-.012-2.87 2.042.376 4.111-4.16-.188-2.093 4.01 1.504 5.501 4.749 4.975 3.02 2.832-.914 4.098 2.506 1.98-.827 1.077-1.98 2.682-.902 9.16 3.571 10.702 2.469 2.82 2.681 1.19 4.161 2.343 1.591 10.201-.777 1.328-.639 3.522 1.73 5.401 4.711-7.457 11.98-6.152-.952-1.467.313-5.576 5.464-1.115 3.032.513 3.121-.388 5.313 1.579 1.704-1.316 3.283-2.005-1.817-.313-1.854-5.414 1.654-1.867-1.516-2.118 1.265-4.812-1.14-.576 2.043-9.825 2.243-4.561-3.547.752-3.346-48.396 5.376-2.005-1.391 5.601-4.072 2.281-.276 4.624-4.599.251-1.792 2.318-2.644.263-3.709 1.855-1.517 1.817-4.987.301-3.233-1.015-1.416-4.637 4.123-3.145-2.983-1.93.627-4.687 3.834z"/>
<path id="Ocean" fill-rule="nonzero" d="m557.368 526.541 8.171-4.586 18.283-15.777 19.875-18.058 45.952 2.118.94 2.744-.401 4.662 3.421 2.155.827 3.346 1.454 1.93-.852 5.288 1.579 2.369 4.824 1.378 7.093-1.453 5.99.927 3.534 1.002 3.671.264 1.88 3.007 1.303.338 13.434-15.764 2.744 3.797 1.416 5.764.151 2.569 3.408 4.913 4.211 2.506 3.997-3.271.464-1.453 3.283-1.855 3.797 1.341-1.892 8.459-7.519 42.28-1.742 14.925-2.281 13.358-4.285 45.376-1.905 12.958-.84 2.769.401 2.118-3.458 4.574-2.293 4.298-7.795 18.797-15.652 26.617-15.601 28.671-2.795 3.108-4.26 6.917-1.04.464-6.166 7.506-1.742 1.391-10.501.426-.814.614-3.898-.213-4.987.539-2.156 1.466-6.328 1.442-6.692-16.204-2.506-3.784-2.143-1.115-.376-3.058.953-1.541-1.504-2.82.99-1.077 3.459.35 1.391-1.09 2.706-9.198.602-.677.125-72.919-12.656-29.687-1.529-4.01-11.454-27.744-11.479-28.321-6.942-18.684z"/>
<path id="Hudson" fill-rule="nonzero" d="m684.662 235 5.401 3.659 1.002 2.557 2.494-.439 3.12-2.256 3.396 2.168.827 3.973 2.469-.665-.677-5.576 4.587-7.694 1.992-.74 3.033-3.22 6.691-.614 3.008-3.333 5.251-2.168-.339 1.704 6.078 4.474-.038 1.842 2.682 1.466-9.073 16.579-2.919 16.278-.401 3.546-2.72-.313-2.143 1.967-4.523 6.066-3.146-2.081-1.591 2.193.05 2.757-2.444 3.835 4.286 2.368-1.867 3.321-5.263-2.418-1.203 1.303 1.065 4.06-2.381 1.88-3.935-.351-4.022 1.717-7.219.952-5.401-.677 7.457-11.98 7.456-11.842-2.381-5.263-.351-2.093 1.353-6.641-1.829-2.043-4.399.276-3.245 2.92-4.01-.013-1.893-4.373.439-4.612 2.707-5.99 2.13-2.97z"/>
<path id="Gloucester" fill-rule="nonzero" d="m286.216 641.529-3.021-2.318 7.858-5.439 11.591-10.013 4.035-2.506 3.609-1.165 6.604-.426 5.176.626 6.754-.075 11.817-2.995 4.348-1.992 6.88-4.762 3.371-3.058 2.005-.514 10.84-.626 2.945-1.842 3.847 2.819-1.253 1.692 1.942 1.328 1.053 3.258 2.844 1.065 5.94 4.888 3.446 7.556.088 2.719-1.855 2.707 1.015 3.233 3.597 3.935-.94 5.376-1.642-.539-1.666 4.825 4.787-.05 3.057-1.868 3.597 1.73.651 3.696 4.399 6.78 4.073 3.509-.702 6.503 2.719 1.893 5.113 2.518 1.641 1.642.213 2.318 1.943 1.529 5 1.867 3.972-.313 1.993 1.642 2.995.313 2.268 1.429 5.689 7.08 2.669 6.128.802 9.147 1.542 3.735 3.208 2.769.075 2.644 4.737 4.223-34.649 38.296-24.324-22.293-22.869-21.416-20.878-19.361-10.614 2.218-3.847-1.128-1.704-1.88-.188-3.358-3.346-2.055-2.068-.251-5.852.953-2.631-2.632-6.303-2.205-3.772.238.062-2.294-2.707-1.654-.25-1.491-3.609-1.366-.877-1.717-3.208-.852-.188-1.228-4.938-4.248.614-4.411-.589-3.221-4.774-2.13-.764-2.293 1.403-2.03-4.21-.338-.514-3.221 2.406-.05-1.579-5.514-1.767-2.118-1.729 1.078-1.83-1.955z"/>
<path id="Somerset" fill-rule="nonzero" d="m503.396 262.707 53.233-15.877 2.155 4.636.452 4.148 2.418 1.316 3.196 2.995-.452 2.819 2.206 2.594-.564 1.667 2.281 1.253 1.516 2.156-.313 2.556-3.02 2.343-1.341 3.735.902 2.782-1.153 3.571 1.98 6.391 3.183-.175 1.692-1.241 1.266-2.907 3.696-.74 2.231-1.654 4.762-1.015 2.707-2.306 3.195 7.97 4.687-3.834 1.93-.627 3.145 2.983 4.637-4.123 1.015 1.416-.301 3.233-1.817 4.987-1.855 1.517-.263 3.709-2.318 2.644-.251 1.792-4.624 4.599-2.281.276-5.601 4.072-2.131.351-4.135 3.659-8.333 2.156-5.075 6.579.752 3.985 1.854 2.481.539 3.108 1.291 2.13 5.213 4.424 4.248 7.092 4.636 1.216-.012 2.456 2.506 2.832-.25 2.068-5.865 2.932-2.03 1.78-3.271 4.386-3.935 3.283-5.902 6.641-3.033 2.682-5.651 3.296-9.474 4.787-.576 1.265.05 5.025-.652 3.823-4.636 5.513-5.577 2.87.827-1.454-1.591-2.907-9.925-2.757-6.178 2.669-10.764 2.081-4.487 1.704-8.17-20.176-10.727-26.24-4.812-11.504 3.246 1.429 1.93 2.982 1.904.188 10.213-20.025 3.898-4.248 1.929-1.065 3.672-7.419-3.759-1.867 2.005-4.486-.99-.439 2.669-4.687 3.333-3.709-2.769-1.616-.539-2.306-4.173-.74-.338-1.578 1.767-2.131-.602-2.243 1.379-2.042-2.494-2.808-1.003-2.857 2.544-1.854 1.567-5.727-1.943-1.592 1.015-3.696 1.291-.765-.1-2.581z"/>

</svg>