<svg xmlns="http://www.w3.org/2000/svg">

	<symbol id="chevron-right" viewBox="0 0 24 24">
		<path fill-rule="evenodd" d="M6.27 3.496A2.118 2.118 0 0 1 9.485.74l8.47 9.882c.68.793.68 1.963 0 2.756l-8.47 9.883a2.118 2.118 0 0 1-3.215-2.757L13.559 12l-7.29-8.504Z"/>
	</symbol>

	<symbol id="logo-PLACEHOLDER" viewBox="0 0 100 80">
	
	<path class="campaign" fill="#101010" d="M4.253 80c2.262 0 3.984-1.37 3.984-3.693v-1.514H5.58v1.348c0 .768-.519 1.286-1.286 1.286-.851 0-1.37-.518-1.37-1.41V68.63c0-.81.457-1.349 1.349-1.349.788 0 1.307.498 1.307 1.286v1.39h2.656V68.32c0-2.283-1.743-3.569-3.963-3.569-2.386 0-4.274 1.37-4.274 3.817v7.573C0 78.734 1.805 80 4.253 80Zm5.02-.228h2.698l.602-3.32h3.008l.602 3.32h2.966l-2.883-14.813h-3.984L9.274 79.772Zm3.777-5.685 1.016-5.83h.063l.975 5.83H13.05Zm7.406 5.685h2.573V69.398h.042l1.7 6.287h2.013l1.68-6.307h.042v10.394h2.573V64.979H27.53l-1.68 5.892h-.063l-1.597-5.892h-3.735v14.793Zm12.386 0h2.926v-5.394h1.452c2.593 0 3.734-1.847 3.734-4.876 0-2.925-1.203-4.523-3.63-4.523h-4.482v14.793Zm2.926-7.78v-4.585h.975c.913 0 1.286.705 1.286 2.157 0 1.64-.436 2.428-1.307 2.428h-.954Zm5.31 7.78h2.698l.602-3.32h3.008l.602 3.32h2.966l-2.883-14.813h-3.984L41.08 79.772Zm3.777-5.685 1.016-5.83h.063l.975 5.83h-2.054Zm7.406 5.685h2.926V64.979H52.26v14.793Zm8.86.228c2.489 0 4.086-1.328 4.086-3.651v-4.42h-4.356v2.22h1.514v2.054c0 .768-.353 1.266-1.245 1.266-.871 0-1.369-.56-1.369-1.432v-7.406c0-.83.498-1.39 1.37-1.39.788 0 1.39.456 1.39 1.244v1.328h2.676v-1.556c0-2.282-1.888-3.506-4.108-3.506-2.386 0-4.253 1.37-4.253 3.817V76.1c0 2.572 1.846 3.9 4.294 3.9Zm5.725-.228h2.594v-8.86h.062l3.465 8.86h2.635V64.979h-2.594v7.905h-.062l-3.112-7.905h-2.988v14.793Zm13.465-9.129h2.552v-3.029h-.871l.601-2.655h-1.307l-.975 2.8v2.884Zm4.067 9.129h6.95v-2.428h-3.714v-.062l1.224-2.033c1.203-1.971 2.47-4.315 2.47-6.743 0-2.24-1.1-3.755-3.466-3.755-2.282 0-3.527 1.41-3.527 3.527v.975h2.47v-.913c0-.664.207-1.224.891-1.224.685 0 .913.643.913 1.328v.436c0 1.327-.58 2.946-1.556 4.626l-2.655 4.482v1.784ZM96.245 80C98.32 80 100 78.797 100 76.473v-3.34c0-2.137-1.266-2.905-2.739-2.905-.809 0-1.473.228-2.033.664.042-.643.145-3.485.145-3.506h4.108v-2.407h-6.39l-.27 7.905 2.386.166c.229-.374.56-.726 1.017-.726.664 0 .996.456.996 1.182v2.863c0 .81-.311 1.287-.954 1.287-.706 0-1.038-.457-1.038-1.08v-1.223h-2.53v1.431c0 1.992 1.265 3.216 3.547 3.216Z"/>
	<path class="stars" fill="#CE0008" d="M59.605 56.105h2.735l-2.213 1.615.852 2.62-2.228-1.617-2.223 1.617.853-2.62-2.219-1.614h2.741l.848-2.606.854 2.605Zm12.497 0h2.74l-2.218 1.615.854 2.62-2.229-1.617-2.224 1.617.853-2.62-2.218-1.614h2.741l.848-2.606.853 2.605Zm12.487 0h2.736l-2.214 1.615.854 2.62-2.229-1.617-2.223 1.617.852-2.62-2.222-1.614h2.746l.847-2.606.853 2.605Zm12.675 0H100l-2.213 1.615.853 2.62-2.229-1.617-2.224 1.617.854-2.62-2.219-1.614h2.742l.847-2.606.853 2.605ZM52.437 58.95H0v-2.744h52.437v2.744Z"/>
	<path class="decides" fill="#CE0008" d="M39.65 26.512c3.35 0 5.984 1.942 5.984 5.388v2.475h-4.01v-2.098c0-1.19-.786-1.943-1.974-1.943-1.35 0-2.035.814-2.035 2.036v11.153c0 1.346.781 2.13 2.065 2.13 1.158 0 1.945-.784 1.945-1.943v-2.036h4.01v2.287c-.001 3.508-2.604 5.575-6.015 5.575-3.7 0-6.422-1.91-6.422-5.826V32.277c0-3.697 2.848-5.765 6.452-5.765Zm49.056 0c2.786 0 5.385 1.41 5.573 6.297l-3.883.125c-.157-1.63-.533-2.913-1.914-2.913-1.096 0-1.594.845-1.594 1.879 0 1.19 1.218 2.319 2.284 3.32l1.975 1.943c2.162 2.068 3.38 3.979 3.38 6.485 0 3.289-2.253 5.888-5.979 5.888-3.73 0-5.893-2.474-6.111-6.452l4.137-.126c.127 1.378.436 2.976 2.005 2.976 1.253 0 1.63-1.065 1.63-2.067 0-1.222-.788-2.13-2.072-3.352l-2.127-2.099c-1.944-1.942-3.228-3.728-3.228-6.172 0-3.1 1.944-5.732 5.924-5.732Zm-76.777.345c3.411 0 6.107 1.754 6.107 5.387v11.279c0 3.884-2.696 5.67-6.143 5.67h-6.42V26.857h6.456Zm19.324 3.727h-6.329v5.264h5.015v3.759h-5.015v5.795h6.36v3.79H20.508V26.858h10.746v3.727Zm21.082 18.609h-4.417V26.857h4.417v22.336Zm9.147-22.336c3.416 0 6.107 1.754 6.107 5.387v11.279c0 3.884-2.69 5.67-6.137 5.67H55.03V26.857h6.45Zm19.33 3.727h-6.33v5.264h5.01v3.759h-5.01v5.795h6.36v3.79H70.066V26.858h10.746v3.727ZM9.888 45.402h1.63c1.508 0 2.102-1.066 2.102-2.13v-10.62c0-1.16-.722-2.037-2.163-2.037H9.888v14.787Zm49.559 0h1.63c1.502 0 2.095-1.066 2.095-2.13v-10.62c0-1.16-.72-2.037-2.162-2.037h-1.563v14.787Z"/>
	<path class="america" fill="#005599" d="M76.934 0c3.35 0 5.98 1.942 5.98 5.388v2.475h-4.006V5.765c0-1.19-.787-1.943-1.974-1.943-1.35 0-2.036.815-2.036 2.036v11.153c0 1.346.783 2.13 2.067 2.13 1.157 0 1.943-.784 1.943-1.943v-2.036h4.006v2.287c0 3.509-2.6 5.575-6.01 5.575-3.701 0-6.427-1.91-6.427-5.826V5.765C70.477 2.068 73.33 0 76.934 0Zm-62.02 22.68h-4.482l-.91-5.011H4.98l-.908 5.012H0L4.543.313h6.016l4.355 22.368Zm10.02-13.439h.096L27.568.345h5.356V22.68H29.04V6.985h-.066l-2.539 9.525h-3.035l-2.569-9.493h-.065V22.68h-3.884V.345h5.64l2.41 8.896ZM46.33 4.072H40v5.264h5.016v3.759H40v5.795h6.36v3.79H35.584V.346H46.33v3.727ZM55.102.345c3.756 0 6.045 2.067 6.045 6.61 0 3.226-1.036 5.043-2.604 5.889l2.884 9.837h-4.575l-2.284-8.867h-1.471v8.867H48.68V.345h6.42ZM68.005 22.68h-4.416V.345h4.416V22.68ZM95.04.313l4.35 22.368h-4.477l-.91-5.012h-4.542l-.908 5.012h-4.072L89.025.313h6.016ZM5.701 14.097h3.1l-1.47-8.803h-.093L5.7 14.097Zm86.015-8.803-1.533 8.803h3.101l-1.472-8.803h-.096Zm-38.62 5.232h1.63c1.253 0 2.005-.878 2.005-3.29 0-2.098-.66-3.226-2.04-3.226h-1.594v6.516Z"/>
		
	</symbol>

</svg>
