<svg xmlns="http://www.w3.org/2000/svg">

	<symbol id="ny" viewBox="0 0 1000 1000">
	
		<path id="statenisland" fill-rule="evenodd" d="m326.239 636.92-1 2.663 3.664 3.33 1.998-1.332s5.328 4.996 5.328 6.994c0 1.998.666 12.987.666 16.65 0 3.663-.333 19.315.333 21.646.666 2.33 3.996 8.325 3.996 8.325l3.33 5.661-1.998 3.33 3.663-.333 1.666 3.663-1.333 3.663 4.33 4.996s.999 5.994 2.33 7.326c1.333 1.332 4.996 4.329 6.328 6.993 1.332 2.664 3.996 3.663 3.996 3.663l5.328 4.662-11.655 30.304s-9.657 5.994-11.656 8.659c-1.998 2.664-5.66 10.323-7.326 11.655-1.665 1.332-7.659 5.994-9.99 7.992-2.331 1.998-1 4.662-3.663 6.327-2.664 1.665-17.317 15.985-19.315 18.316-1.998 2.33-3.33 3.663-6.327 6.66-2.997 2.997-5.994 9.99-5.994 9.99l-5.994 7.993h-4.995l-8.326 14.985-3.663-1.332-5.661 5.661c-2.664 2.664-5.328 7.66-6.66 9.657-1.332 1.999-1.665 2.998-2.997 2.998-1.332 0-3.33 1.665-3.996 3.33-.666 1.665-1.998 1.665-4.33 2.664-2.33.999-4.329 1.332-4.329 1.332l-21.312 25.975-6.66 3.996-1.333-2.997-3.663-5.329 1-4.995h10.323l9.657-11.988 1.332-4.995-2.997-5.994-5.328-2.664-6.327.333v2.33l-6.66 1-.667 2.33 1 1.999-3.664.999s0 5.328.333 7.659c.333 2.331 0 5.328 0 5.328l-3.33.333-.999 2.997-2.664 1.998-.333 2.664-6.993 3.33-36.631 23.644-4.33-.666-9.657 7.326h-3.996l-2.33-1.332h-3.997v2.664l-5.328 1.666-9.657 13.653-2.665 1.665 1 2.997-6.328 1.665-2.664-2.33-4.329-1.999-.666-2.331h-7.992l-9.324 4.995-.666 3.663-3.997 3.996-4.329 3.33-2.997 5.995s-5.661 2.664-8.991 2.664-2.997.999-4.662 1.998-3.33-1.665-7.66-1.665c-4.329 0-12.987 2.33-14.652 5.328-1.665 2.997-.999 3.996-4.995 5.994-3.996 1.998-5.328 2.331-7.992 2.331h-5.328c-1.999 0-5.662.333-7.327-1.665s-2.997-5.661-4.329-7.66C4.551 984.25.888 975.924.888 973.927c0-1.999-1.998-6.994 0-7.993 1.998-.999 4.33-3.33 4.33-5.994 0-2.664 1.331-5.328 1.331-5.328l.333-1.665 7.992-5.661h2.665l1.998-3.996 3.33-.666 1.332.666 2.33-1.666-3.662-7.326 1.665-2.33-2.664-4.996 4.329-13.653-1-5.329v-2.664l-3.33-3.996-3.662-.666v-1.998l2.33-2.997-3.662-9.324-2.332-1.998 2.998-4.995 5.328-5.662 2.664 1.665 9.324-7.992 1.665-3.996 3.996-.999 8.991-8.991h5.662l4.662 1.332 1.665 1.332 8.991 1.332 3.33-2.997 2.997-1 4.995-9.657-.666-5.994s3.997-16.317 4.663-17.65c.666-1.331 1.332-4.661 4.329-4.328 2.997.333 6.327 1.332 7.992.333 1.665-1 5.661-4.662 5.661-4.662l1-9.99 8.324 2.996s0 2.331 1.998 2.331c1.999 0 3.997-.999 3.997-.999l-.333-1.998h-3.664l-4.662-5.328-7.992 1.332s1 1-.333 2.664c-1.332 1.665-2.331 9.325-2.331 9.325l-12.321 1.998 3.33-18.316 1.332-1.665 1.332-9.99-1.665-4.662 1.665-4.663s7.326-8.658 9.324-11.322c1.998-2.664 2.997-6.327 2.997-6.327s.666-7.66 1.332-8.991c.666-1.332 1.665-1.665 1-3.664-.667-1.998-2.665-6.993-2.665-6.993l-.999 1.665.666 3.663-1.998 4.33-4.995-7.993-3.33-2.664.666-17.65 2.997-1.664s.666 1.665 2.331 1.665 2.997-.333 2.997-.333 2.331.999 1 3.33c-1.333 2.33-2.332 4.995-3.33 6.993-1 1.998.998 6.993.998 6.993s.333-1.665 1.332-3.33c1-1.665 1.998-4.995 1.998-4.995l2.664-8.991h1.665l-2.997-5.994h-2.997l-4.995-1.666-1.332-5.328.333-3.996-1-7.659s2.665-11.988 3.331-14.652c.666-2.665 0-2.998 3.33-5.995s5.994-6.327 6.993-8.658c1-2.331 2.331-5.994 4.662-7.66 2.332-1.664 4.996-5.66 4.996-5.66l2.664 3.663-.333-4.662 4.329-3.663 1.998 1.665.999-2.332h4.662l1.332-1.665 2.664.333-.999 4.663 1.665.999 2.664-2.664 1.665.999 1-4.33 4.662 1.332 2.664 3.664v2.997l2.664 1.665v-1.665l3.996.999 3.996.333v-3.33l2.331 3.33h2.997l2.664 2.664s5.328.999 8.325 1.332c2.998.333 2.998 1.665 2.998 1.665l1.332 2.997 3.663-.333-1.332-3.33 3.33 1.332 1.332 2.997 2.33-.666v-2.997l6.661-.333 1.665 1.332 1.665-2.331h1.665l.333-2.331 3.33 1.998s0-1.998 1.998-2.331c1.998-.333 2.664-2.331 2.664-2.331s3.664-.666 5.662-.666c1.998 0 4.329.666 4.329.666l5.994.333s2.997 1.332 2.997 2.664 7.326.666 7.326.666l5.328-2.664-.333-2.331 3.997-.666 8.658-4.33 2.997-.333 2.33-1.998 15.32-1.332 5.328 1.665.666-1.998 8.325.333 6.327-3.663s3.663-3.663 5.994-3.663 8.658.666 10.657.666c1.998 0 4.662-1.998 4.662-1.998s2.33 1.998 3.663 1.998c1.332 0 2.997 1 3.33 1Z"/>
	
	
	
	</symbol>

</svg>
