<svg xmlns="http://www.w3.org/2000/svg" width="104" height="22" viewBox="0 0 104 22">
  <g fill="#F5F5F5" fill-rule="evenodd">
    <path d="M11.0000971 16.5833144C14.083986 16.5833144 16.5839639 14.083113 16.5839639 11 16.5839639 7.91592386 14.083986 5.41630037 11.0000971 5.41630037 7.91679102 5.41630037 5.41700734 7.91592386 5.41700734 11 5.41700734 14.083113 7.91679102 16.5833144 11.0000971 16.5833144M11.0000971 17.4615344C6.48284874 17.442271 2.8099985 14.4768576.864794229 10.9212125 2.8292291 7.38483092 6.52130994 4.51804634 11.0000971 4.51804634 15.5571664 4.51804634 19.2100091 7.36614539 21.1355943 10.9212125 19.2100091 14.4768576 15.5965989 17.4804126 11.0000971 17.4615344M0 11C0 17.0741467 4.92478169 22 11.0000971 22 17.0752183 22 22 17.0741467 22 11 22 4.92508275 17.0752183 0 11.0000971 0 4.92478169 0 0 4.92508275 0 11zM35.46 21.36C40.44 21.36 43.05 18.57 44.34 15.99L39.9 13.89C39.24 15.48 37.53 16.8 35.46 16.8 32.34 16.8 30.03 14.28 30.03 11.01 30.03 7.74 32.34 5.22 35.46 5.22 37.53 5.22 39.24 6.54 39.9 8.13L44.34 6.03C43.02 3.39 40.44.66 35.46.66 29.46.66 24.78 4.83 24.78 11.01 24.78 17.16 29.46 21.36 35.46 21.36zM46.56 21L46.56.99 57.9.99C61.86.99 63.75 3.57 63.75 6.09 63.75 8.58 62.22 10.26 60.33 10.68 62.46 11.01 64.14 13.05 64.14 15.57 64.14 18.48 62.19 21 58.26 21L46.56 21zM51.72 8.73L56.73 8.73C57.78 8.73 58.5 7.98 58.5 6.99 58.5 6 57.78 5.28 56.73 5.28L51.72 5.28 51.72 8.73zM51.72 16.71L56.91 16.71C58.14 16.71 58.89 15.96 58.89 14.88 58.89 13.86 58.17 12.99 56.91 12.99L51.72 12.99 51.72 16.71zM65.52 18.18C67.53 20.1 70.35 21.36 74.4 21.36 79.77 21.36 82.74 18.69 82.74 14.67 82.74 10.14 78.18 9.18 74.88 8.49 72.66 8.07 71.43 7.71 71.43 6.66 71.43 5.79 72.09 5.1 73.8 5.1 75.57 5.1 77.76 5.79 79.44 7.17L82.26 3.48C80.13 1.65 77.34.69 74.13.69 69 .69 66.15 3.6 66.15 6.96 66.15 11.7 70.77 12.54 74.07 13.2 76.2 13.65 77.49 14.1 77.49 15.24 77.49 16.2 76.41 16.95 74.64 16.95 71.91 16.95 69.69 15.75 68.25 14.31L65.52 18.18zM98.76 21L103.74 21 103.74.99 98.55.99 98.55 12.51 90.45.99 85.14.99 85.14 21 90.3 21 90.3 8.91 98.76 21z"/>
  </g>
</svg>
