<svg xmlns="http://www.w3.org/2000/svg" width="100" height="55" viewBox="0 0 100 55">
  <path fill="#F1F1F2" fill-rule="evenodd" d="M82.9602649,132.605507 C82.8587936,132.605507 82.7582447,132.603662 82.6567734,132.599972 C82.557147,132.596282 82.4565981,132.590748 82.3569717,132.58429 C82.2573453,132.576911 82.1586414,132.567686 82.0599375,132.556616 C81.9612335,132.546469 81.8634521,132.533555 81.7656706,132.519718 C81.6678891,132.505881 81.5710301,132.490199 81.4750936,132.472672 C81.3782346,132.455145 81.2822981,132.435773 81.187284,132.414557 C81.0922699,132.394262 80.9972559,132.372123 80.9031643,132.348139 C80.8090727,132.324155 80.7159035,132.298326 80.6236569,132.270652 C80.5314102,132.2439 80.4391635,132.215304 80.3478393,132.184862 C80.2565151,132.154421 80.1661134,132.123057 80.0766341,132.088926 C79.9862324,132.055717 79.8976756,132.020663 79.8091188,131.984687 C79.720562,131.948711 79.6329276,131.909967 79.5462158,131.871224 C79.4595039,131.831558 79.3737145,131.790969 79.2888476,131.748536 C79.2039806,131.706102 79.1191137,131.662746 79.0360917,131.617545 C78.9521472,131.572344 78.8700477,131.526221 78.7879482,131.478253 C78.7067711,131.431207 78.625594,131.381394 78.5453394,131.331581 C78.4660073,131.280845 78.3866752,131.229187 78.309188,131.176606 C78.2317008,131.123103 78.1542136,131.068678 78.0785713,131.01333 C78.0020066,130.957059 77.9263643,130.900789 77.852567,130.842673 C77.7787696,130.784558 77.7058948,130.724598 77.6339424,130.664637 C77.56199,130.603754 77.49096,130.541949 77.4208526,130.479221 C77.3507451,130.416494 77.2824826,130.351921 77.21422,130.287348 C77.14688,130.221853 77.0804624,130.155436 77.0149672,130.088096 C76.9494721,130.020756 76.8858219,129.95157 76.8221717,129.882385 C76.759444,129.812278 76.6967162,129.742171 76.6367559,129.669296 C76.5758731,129.598266 76.5159127,129.525391 76.4577973,129.451594 C76.3996819,129.376874 76.342489,129.302154 76.287141,129.226512 C76.2308705,129.150869 76.176445,129.073382 76.1229419,128.995895 C76.0694389,128.917485 76.0177807,128.839076 75.9670451,128.759744 C75.9163094,128.679489 75.8674187,128.599234 75.8194504,128.517135 C75.7714821,128.435958 75.7244363,128.353858 75.6792355,128.270836 C75.6340346,128.186892 75.5906787,128.102947 75.5482452,128.01808 C75.5906787,127.933213 75.6340346,127.849269 75.6792355,127.765324 C75.7244363,127.682302 75.7714821,127.600203 75.8194504,127.518103 C75.8674187,127.436926 75.9163094,127.356672 75.9670451,127.276417 C76.0177807,127.197085 76.0694389,127.117753 76.1229419,127.040266 C76.176445,126.961856 76.2308705,126.885291 76.287141,126.809649 C76.342489,126.734007 76.3996819,126.658364 76.4577973,126.584567 C76.5159127,126.51077 76.5758731,126.437895 76.6367559,126.365943 C76.6967162,126.294913 76.759444,126.223883 76.8221717,126.153775 C76.8858219,126.08459 76.9494721,126.015405 77.0149672,125.948065 C77.0804624,125.880725 77.14688,125.814307 77.21422,125.748812 C77.2824826,125.68424 77.3507451,125.619667 77.4208526,125.556939 C77.49096,125.494212 77.56199,125.432406 77.6339424,125.371523 C77.7058948,125.310641 77.7787696,125.251603 77.852567,125.193487 C77.9263643,125.135372 78.0020066,125.078179 78.0785713,125.022831 C78.1542136,124.967483 78.2317008,124.913058 78.309188,124.859554 C78.3866752,124.806974 78.4660073,124.755316 78.5453394,124.70458 C78.625594,124.653844 78.7067711,124.604954 78.7879482,124.556985 C78.8700477,124.50994 78.9521472,124.462894 79.0360917,124.418615 C79.1191137,124.373415 79.2039806,124.329136 79.2888476,124.286703 C79.3737145,124.245192 79.4595039,124.204603 79.5462158,124.164937 C79.6329276,124.126193 79.720562,124.088372 79.8091188,124.051474 C79.8976756,124.014575 79.9862324,123.980444 80.0766341,123.947235 C80.1661134,123.913104 80.2565151,123.88174 80.3478393,123.851298 C80.4391635,123.820857 80.5314102,123.792261 80.6236569,123.765509 C80.7159035,123.737835 80.8090727,123.712006 80.9031643,123.688022 C80.9972559,123.664038 81.0922699,123.641898 81.187284,123.620682 C81.2822981,123.600387 81.3782346,123.581016 81.4750936,123.563489 C81.5710301,123.545962 81.6678891,123.53028 81.7656706,123.515521 C81.8634521,123.501684 81.9612335,123.489691 82.0599375,123.478622 C82.1586414,123.468475 82.2573453,123.45925 82.3569717,123.452793 C82.4565981,123.445413 82.557147,123.439878 82.6567734,123.436188 C82.7582447,123.432499 82.8587936,123.430654 82.9602649,123.430654 C83.0617363,123.430654 83.1622851,123.432499 83.2637565,123.436188 C83.3633829,123.439878 83.4639318,123.445413 83.5635582,123.452793 C83.6631846,123.45925 83.7618885,123.468475 83.8605924,123.478622 C83.9592964,123.489691 84.0570778,123.501684 84.1548593,123.515521 C84.2526408,123.53028 84.3494998,123.545962 84.4454363,123.563489 C84.5422953,123.581016 84.6382318,123.600387 84.7332459,123.620682 C84.82826,123.641898 84.923274,123.664038 85.0164432,123.688022 C85.1114572,123.712006 85.2046264,123.737835 85.296873,123.765509 C85.3891197,123.792261 85.4813664,123.820857 85.5726906,123.851298 C85.6640148,123.88174 85.7544165,123.913104 85.8438958,123.947235 C85.9342975,123.980444 86.0228543,124.014575 86.1114111,124.051474 C86.1999679,124.088372 86.2876022,124.126193 86.3743141,124.164937 C86.461026,124.204603 86.5468154,124.245192 86.6316823,124.286703 C86.7165493,124.329136 86.8014162,124.373415 86.8844382,124.418615 C86.9683827,124.462894 87.0504822,124.50994 87.1325817,124.556985 C87.2137588,124.604954 87.2949359,124.653844 87.374268,124.70458 C87.4545226,124.755316 87.5338547,124.806974 87.6113419,124.859554 C87.6888291,124.913058 87.7663163,124.967483 87.8419586,125.022831 C87.9185233,125.078179 87.9941656,125.135372 88.0679629,125.193487 C88.1417603,125.251603 88.2146351,125.310641 88.2865875,125.371523 C88.3585399,125.432406 88.4295699,125.494212 88.4996773,125.556939 C88.5697848,125.619667 88.6380473,125.68424 88.7063099,125.748812 C88.7736499,125.814307 88.8400675,125.880725 88.9055627,125.948065 C88.9710578,126.015405 89.034708,126.08459 89.0983582,126.153775 C89.1610859,126.223883 89.2238137,126.294913 89.283774,126.365943 C89.3446568,126.437895 89.4046171,126.51077 89.4627325,126.584567 C89.5208479,126.658364 89.5780409,126.734007 89.6333889,126.809649 C89.6896593,126.885291 89.7440849,126.961856 89.7975879,127.040266 C89.851091,127.117753 89.9027491,127.197085 89.9534848,127.276417 C90.0042205,127.356672 90.0531112,127.436926 90.1010795,127.518103 C90.1490478,127.600203 90.1960936,127.682302 90.2412944,127.765324 C90.2864953,127.849269 90.3298512,127.933213 90.3722847,128.01808 C90.3298512,128.102947 90.2864953,128.186892 90.2412944,128.270836 C90.1960936,128.353858 90.1490478,128.435958 90.1010795,128.517135 C90.0531112,128.599234 90.0042205,128.679489 89.9534848,128.759744 C89.9027491,128.839076 89.851091,128.917485 89.7975879,128.995895 C89.7440849,129.073382 89.6896593,129.150869 89.6333889,129.226512 C89.5780409,129.302154 89.5208479,129.376874 89.4627325,129.451594 C89.4046171,129.525391 89.3446568,129.598266 89.283774,129.669296 C89.2238137,129.742171 89.1610859,129.812278 89.0983582,129.882385 C89.034708,129.95157 88.9710578,130.020756 88.9055627,130.088096 C88.8400675,130.155436 88.7736499,130.221853 88.7063099,130.287348 C88.6380473,130.351921 88.5697848,130.416494 88.4996773,130.479221 C88.4295699,130.541949 88.3585399,130.603754 88.2865875,130.664637 C88.2146351,130.724598 88.1417603,130.784558 88.0679629,130.842673 C87.9941656,130.900789 87.9185233,130.957059 87.8419586,131.01333 C87.7663163,131.068678 87.6888291,131.123103 87.6113419,131.176606 C87.5338547,131.229187 87.4545226,131.280845 87.374268,131.331581 C87.2949359,131.381394 87.2137588,131.431207 87.1325817,131.478253 C87.0504822,131.526221 86.9683827,131.572344 86.8844382,131.617545 C86.8014162,131.662746 86.7165493,131.706102 86.6316823,131.748536 C86.5468154,131.790969 86.461026,131.831558 86.3743141,131.871224 C86.2876022,131.909967 86.1999679,131.948711 86.1114111,131.984687 C86.0228543,132.020663 85.9342975,132.055717 85.8438958,132.088926 C85.7544165,132.123057 85.6640148,132.154421 85.5726906,132.184862 C85.4813664,132.215304 85.3891197,132.2439 85.296873,132.270652 C85.2046264,132.298326 85.1114572,132.324155 85.0164432,132.348139 C84.923274,132.372123 84.82826,132.394262 84.7332459,132.414557 C84.6382318,132.435773 84.5422953,132.455145 84.4454363,132.472672 C84.3494998,132.490199 84.2526408,132.505881 84.1548593,132.519718 C84.0570778,132.533555 83.9592964,132.546469 83.8605924,132.556616 C83.7618885,132.567686 83.6631846,132.576911 83.5635582,132.58429 C83.4639318,132.590748 83.3633829,132.596282 83.2637565,132.599972 C83.1622851,132.603662 83.0617363,132.605507 82.9602649,132.605507 Z M82.9602649,120.059038 C82.8228174,120.059038 82.6862923,120.062728 82.5506897,120.069185 C82.4150871,120.075642 82.280407,120.086712 82.1466493,120.099626 C82.0128917,120.113463 81.8800565,120.13099 81.7481437,120.151285 C81.616231,120.170656 81.4852407,120.193718 81.3560954,120.22047 C81.2269501,120.247221 81.0978047,120.27674 80.9705043,120.309026 C80.8441264,120.342235 80.7177485,120.378211 80.5932155,120.416955 C80.4686825,120.455699 80.3450719,120.49721 80.2233063,120.541488 C80.1015407,120.586689 79.9806976,120.633735 79.8616994,120.68447 C79.7427012,120.735206 79.6255479,120.787787 79.5093171,120.844057 C79.3930863,120.900327 79.2787004,120.958443 79.1661595,121.019326 C79.0536186,121.081131 78.9420001,121.144781 78.8322266,121.211199 C78.7233755,121.277616 78.6154469,121.346801 78.5093632,121.418754 C78.404202,121.489784 78.2999633,121.563581 78.1975695,121.640146 C78.0951757,121.71671 77.9955493,121.796043 77.8968454,121.87722 C77.7981414,121.958397 77.7022049,122.041419 77.6081133,122.127208 C77.5140217,122.212075 77.421775,122.300632 77.3313733,122.390111 C77.2409716,122.480513 77.1533372,122.57276 77.0675478,122.666851 C76.9826809,122.760943 76.8987364,122.857802 76.8175594,122.955583 C76.7363823,123.054287 76.6579726,123.153914 76.5814079,123.256307 C76.5048431,123.358701 76.4310458,123.46294 76.3590934,123.569024 C76.2880635,123.674185 76.2188785,123.782113 76.1524609,123.891887 C76.0860433,124.000738 76.0223931,124.111434 75.9605878,124.224897 C75.899705,124.337438 75.8406671,124.451824 75.7853191,124.568055 C75.7290487,124.684286 75.6764681,124.801439 75.6257324,124.920437 C75.5749967,125.039435 75.5279509,125.160279 75.4827501,125.282044 C75.4384717,125.40381 75.3969607,125.52742 75.3582171,125.651953 C75.3194735,125.776486 75.2834973,125.902864 75.2502885,126.030165 C75.2180021,126.156543 75.1884832,126.284765 75.1617317,126.414833 C75.1349801,126.544901 75.1119185,126.674969 75.0916242,126.806882 C75.0713299,126.938794 75.0547255,127.07163 75.0408885,127.205387 C75.0270515,127.339145 75.0169044,127.473825 75.0104471,127.609428 C75.0030674,127.74503 75.0003,127.881555 75.0003,128.019003 C75.0003,128.15645 75.0030674,128.292975 75.0104471,128.428578 C75.0169044,128.564181 75.0270515,128.699783 75.0408885,128.833541 C75.0547255,128.967299 75.0713299,129.100134 75.0916242,129.231124 C75.1119185,129.363037 75.1349801,129.494027 75.1617317,129.623172 C75.1884832,129.75324 75.2180021,129.881463 75.2502885,130.008763 C75.2834973,130.136064 75.3194735,130.261519 75.3582171,130.386052 C75.3969607,130.510585 75.4384717,130.634196 75.4827501,130.755961 C75.5279509,130.877727 75.5749967,130.99857 75.6257324,131.117568 C75.6764681,131.236567 75.7290487,131.354642 75.7853191,131.470873 C75.8406671,131.586181 75.899705,131.700567 75.9605878,131.814031 C76.0223931,131.926572 76.0860433,132.037268 76.1524609,132.147041 C76.2188785,132.256815 76.2880635,132.363821 76.3590934,132.469905 C76.4310458,132.575988 76.5048431,132.680227 76.5814079,132.781698 C76.6579726,132.884092 76.7363823,132.984641 76.8175594,133.082422 C76.8987364,133.181126 76.9826809,133.277063 77.0675478,133.372077 C77.1533372,133.466169 77.2409716,133.557493 77.3313733,133.647894 C77.421775,133.738296 77.5140217,133.825931 77.6081133,133.91172 C77.7022049,133.997509 77.7981414,134.080531 77.8968454,134.161708 C77.9955493,134.242885 78.0951757,134.321295 78.1975695,134.39786 C78.2999633,134.474425 78.404202,134.548222 78.5093632,134.620174 C78.6154469,134.691204 78.7233755,134.760389 78.8322266,134.826807 C78.9420001,134.893224 79.0536186,134.956875 79.1661595,135.01868 C79.2787004,135.080485 79.3930863,135.138601 79.5093171,135.194871 C79.6255479,135.250219 79.7427012,135.303722 79.8616994,135.353535 C79.9806976,135.404271 80.1015407,135.451317 80.2233063,135.496518 C80.3450719,135.540796 80.4686825,135.58323 80.5932155,135.621973 C80.7177485,135.660717 80.8441264,135.69577 80.9705043,135.728979 C81.0978047,135.761266 81.2269501,135.791707 81.3560954,135.817536 C81.4852407,135.844288 81.616231,135.867349 81.7481437,135.887644 C81.8800565,135.907938 82.0128917,135.924542 82.1466493,135.938379 C82.280407,135.951294 82.4150871,135.962363 82.5506897,135.968821 C82.6862923,135.9762 82.8228174,135.97989 82.9602649,135.97989 C83.0977125,135.97989 83.2342375,135.9762 83.3698402,135.968821 C83.5054428,135.962363 83.6401229,135.951294 83.7738806,135.938379 C83.9076382,135.924542 84.0404734,135.907938 84.1723862,135.887644 C84.3042989,135.867349 84.4352892,135.844288 84.5644345,135.817536 C84.6935798,135.791707 84.8227252,135.761266 84.9500256,135.728979 C85.0764035,135.69577 85.2027814,135.660717 85.3273144,135.621973 C85.4518474,135.58323 85.575458,135.540796 85.6972236,135.496518 C85.8189892,135.451317 85.9398323,135.404271 86.0588305,135.353535 C86.1778287,135.303722 86.294982,135.250219 86.4112128,135.194871 C86.5274436,135.138601 86.6418294,135.080485 86.7543704,135.01868 C86.8669113,134.956875 86.9785298,134.893224 87.0883033,134.826807 C87.1971544,134.760389 87.305083,134.691204 87.4111667,134.620174 C87.5163279,134.548222 87.6205666,134.474425 87.7229604,134.39786 C87.8253542,134.321295 87.9249806,134.242885 88.0236845,134.161708 C88.1223885,134.080531 88.218325,133.997509 88.3124166,133.91172 C88.4065082,133.825931 88.4987549,133.738296 88.5891566,133.647894 C88.6786359,133.557493 88.7671927,133.466169 88.8529821,133.372077 C88.937849,133.277063 89.0217935,133.181126 89.1029705,133.082422 C89.1841476,132.984641 89.2625573,132.884092 89.339122,132.781698 C89.4156867,132.680227 89.4894841,132.575988 89.5614365,132.469905 C89.6324664,132.363821 89.7016514,132.256815 89.768069,132.147041 C89.8344866,132.037268 89.8981368,131.926572 89.9599421,131.814031 C90.0208249,131.700567 90.0798628,131.586181 90.1352108,131.470873 C90.1914812,131.354642 90.2440618,131.236567 90.2947975,131.117568 C90.3455332,130.99857 90.392579,130.877727 90.4368574,130.755961 C90.4820582,130.634196 90.5235692,130.510585 90.5623128,130.386052 C90.6010564,130.261519 90.6370326,130.136064 90.669319,130.008763 C90.7025278,129.881463 90.7320467,129.75324 90.7587982,129.623172 C90.7855498,129.494027 90.8086114,129.363037 90.8289057,129.231124 C90.8492,129.100134 90.8658044,128.967299 90.8796414,128.833541 C90.8934784,128.699783 90.9036255,128.564181 90.9100828,128.428578 C90.91654,128.292975 90.9202299,128.15645 90.9202299,128.019003 C90.9202299,127.881555 90.91654,127.74503 90.9100828,127.609428 C90.9036255,127.473825 90.8934784,127.339145 90.8796414,127.205387 C90.8658044,127.07163 90.8492,126.938794 90.8289057,126.806882 C90.8086114,126.674969 90.7855498,126.544901 90.7587982,126.414833 C90.7320467,126.284765 90.7025278,126.156543 90.669319,126.030165 C90.6370326,125.902864 90.6010564,125.776486 90.5623128,125.651953 C90.5235692,125.52742 90.4820582,125.40381 90.4368574,125.282044 C90.392579,125.160279 90.3455332,125.039435 90.2947975,124.920437 C90.2440618,124.801439 90.1914812,124.684286 90.1352108,124.568055 C90.0798628,124.451824 90.0208249,124.337438 89.9599421,124.224897 C89.8981368,124.111434 89.8344866,124.000738 89.768069,123.891887 C89.7016514,123.782113 89.6324664,123.674185 89.5614365,123.569024 C89.4894841,123.46294 89.4156867,123.358701 89.339122,123.256307 C89.2625573,123.153914 89.1841476,123.054287 89.1029705,122.955583 C89.0217935,122.857802 88.937849,122.760943 88.8529821,122.666851 C88.7671927,122.57276 88.6786359,122.480513 88.5891566,122.390111 C88.4987549,122.300632 88.4065082,122.212075 88.3124166,122.127208 C88.218325,122.041419 88.1223885,121.958397 88.0236845,121.87722 C87.9249806,121.796043 87.8253542,121.71671 87.7229604,121.640146 C87.6205666,121.563581 87.5163279,121.489784 87.4111667,121.418754 C87.305083,121.346801 87.1971544,121.277616 87.0883033,121.211199 C86.9785298,121.144781 86.8669113,121.081131 86.7543704,121.019326 C86.6418294,120.958443 86.5274436,120.900327 86.4112128,120.844057 C86.294982,120.787787 86.1778287,120.735206 86.0588305,120.68447 C85.9398323,120.633735 85.8189892,120.586689 85.6972236,120.541488 C85.575458,120.49721 85.4518474,120.455699 85.3273144,120.416955 C85.2027814,120.378211 85.0764035,120.342235 84.9500256,120.309026 C84.8227252,120.27674 84.6935798,120.247221 84.5644345,120.22047 C84.4352892,120.193718 84.3042989,120.170656 84.1723862,120.151285 C84.0404734,120.13099 83.9076382,120.113463 83.7738806,120.099626 C83.6401229,120.086712 83.5054428,120.075642 83.3698402,120.069185 C83.2342375,120.062728 83.0977125,120.059038 82.9602649,120.059038 Z M82.9602649,123.796873 C82.8873901,123.796873 82.8145152,123.798718 82.7434853,123.802408 C82.6715329,123.806098 82.5995805,123.811632 82.5285505,123.819012 C82.4575206,123.826392 82.3874131,123.835616 82.3173057,123.845764 C82.2471982,123.856833 82.1780132,123.868825 82.1097507,123.882662 C82.0405657,123.897422 81.9723031,123.913104 81.9049631,123.929708 C81.837623,123.947235 81.7702829,123.966607 81.7047878,123.986901 C81.6383702,124.007195 81.5737975,124.029334 81.5083024,124.053319 C81.4437297,124.077303 81.3800795,124.102209 81.3164293,124.128961 C81.2537016,124.155712 81.1918963,124.184309 81.1300911,124.213828 C81.0682858,124.243347 81.007403,124.273788 80.9474427,124.306997 C80.8874823,124.339283 80.8284445,124.373415 80.7712515,124.408468 C80.7131361,124.443522 80.6559432,124.480421 80.5996727,124.518242 C80.5434023,124.556063 80.4880543,124.594807 80.4345512,124.635395 C80.3801257,124.675984 80.3266226,124.718417 80.2749645,124.761773 C80.2223839,124.804206 80.1716482,124.848485 80.121835,124.893686 C80.0720218,124.938887 80.0222086,124.985932 79.9751628,125.033901 C79.9271945,125.081869 79.8810712,125.129837 79.8349478,125.180573 C79.789747,125.230386 79.7454686,125.282044 79.7021126,125.333702 C79.6596792,125.38536 79.6172457,125.438864 79.5775796,125.493289 C79.5369911,125.547715 79.497325,125.60214 79.4595039,125.658411 C79.4216828,125.714681 79.3847841,125.771874 79.3497304,125.829989 C79.3146766,125.888105 79.2805454,125.947143 79.248259,126.007103 C79.2150502,126.066141 79.1846088,126.127024 79.1541674,126.188829 C79.1246485,126.249712 79.0969745,126.312439 79.070223,126.37609 C79.0434714,126.438817 79.0185648,126.502468 78.9945807,126.567963 C78.9705966,126.631613 78.9484574,126.697108 78.9281631,126.763526 C78.9078688,126.829943 78.888497,126.896361 78.8709702,126.963701 C78.8534433,127.031963 78.8377614,127.099304 78.8239244,127.167566 C78.8100874,127.236751 78.7980953,127.305936 78.7870257,127.376044 C78.7759561,127.446151 78.7676539,127.516258 78.7602742,127.587288 C78.7528944,127.658318 78.7473596,127.729348 78.7436698,127.801301 C78.7399799,127.874176 78.738135,127.946128 78.738135,128.019003 C78.738135,128.091878 78.7399799,128.164753 78.7436698,128.236705 C78.7473596,128.308657 78.7528944,128.379687 78.7602742,128.450717 C78.7676539,128.521747 78.7759561,128.591855 78.7870257,128.661962 C78.7980953,128.73207 78.8100874,128.801255 78.8239244,128.869517 C78.8377614,128.938702 78.8534433,129.006965 78.8709702,129.074305 C78.888497,129.141645 78.9078688,129.208062 78.9281631,129.27448 C78.9484574,129.339975 78.9705966,129.406393 78.9945807,129.470965 C79.0185648,129.535538 79.0434714,129.599188 79.070223,129.662838 C79.0969745,129.725566 79.1246485,129.787371 79.1541674,129.849177 C79.1846088,129.910982 79.2150502,129.971865 79.248259,130.030903 C79.2805454,130.090863 79.3146766,130.149901 79.3497304,130.208016 C79.3847841,130.266132 79.4216828,130.323325 79.4595039,130.379595 C79.497325,130.435866 79.5369911,130.491214 79.5775796,130.545639 C79.6172457,130.599142 79.6596792,130.652645 79.7021126,130.704303 C79.7454686,130.756884 79.789747,130.80762 79.8349478,130.857433 C79.8810712,130.908168 79.9271945,130.956137 79.9751628,131.004105 C80.0222086,131.052073 80.0720218,131.099119 80.121835,131.14432 C80.1716482,131.189521 80.2223839,131.233799 80.2749645,131.277155 C80.3266226,131.319589 80.3801257,131.362022 80.4345512,131.401688 C80.4880543,131.442277 80.5434023,131.481943 80.5996727,131.519764 C80.6559432,131.557585 80.7131361,131.594484 80.7712515,131.629537 C80.8284445,131.664591 80.8874823,131.698722 80.9474427,131.731009 C81.007403,131.763295 81.0682858,131.794659 81.1300911,131.824178 C81.1918963,131.854619 81.2537016,131.882293 81.3164293,131.909045 C81.3800795,131.935796 81.4437297,131.960703 81.5083024,131.984687 C81.5737975,132.008671 81.6383702,132.03081 81.7047878,132.051105 C81.7702829,132.071399 81.837623,132.090771 81.9049631,132.107375 C81.9723031,132.124902 82.0405657,132.141506 82.1097507,132.155343 C82.1780132,132.16918 82.2471982,132.182095 82.3173057,132.192242 C82.3874131,132.202389 82.4575206,132.211614 82.5285505,132.218994 C82.5995805,132.226373 82.6715329,132.231908 82.7434853,132.235598 C82.8145152,132.239288 82.8873901,132.241133 82.9602649,132.241133 C83.0331398,132.241133 83.1060147,132.239288 83.1770446,132.235598 C83.248997,132.231908 83.3209494,132.226373 83.3919794,132.218994 C83.4630093,132.211614 83.5331168,132.202389 83.6032242,132.192242 C83.6733317,132.182095 83.7425167,132.16918 83.8107792,132.155343 C83.8799642,132.141506 83.9482268,132.124902 84.0155668,132.107375 C84.0829069,132.090771 84.1493245,132.071399 84.2157421,132.051105 C84.2821597,132.03081 84.3467324,132.008671 84.4122275,131.984687 C84.4768002,131.960703 84.5404504,131.935796 84.6031781,131.909045 C84.6668283,131.882293 84.7286336,131.854619 84.7904388,131.824178 C84.8522441,131.794659 84.9131269,131.763295 84.9730872,131.731009 C85.0330476,131.698722 85.091163,131.664591 85.1492784,131.629537 C85.2073938,131.594484 85.2645867,131.557585 85.3208572,131.519764 C85.3771276,131.481943 85.4324756,131.442277 85.4859787,131.401688 C85.5404042,131.362022 85.5929848,131.319589 85.6455654,131.277155 C85.698146,131.233799 85.7488817,131.189521 85.7986949,131.14432 C85.8485081,131.099119 85.8983213,131.052073 85.9453671,131.004105 C85.9933354,130.956137 86.0394587,130.908168 86.085582,130.857433 C86.1307829,130.80762 86.1750613,130.756884 86.2184172,130.704303 C86.2608507,130.652645 86.3032842,130.599142 86.3429502,130.545639 C86.3835388,130.491214 86.4232048,130.435866 86.461026,130.379595 C86.4988471,130.323325 86.5357458,130.266132 86.5707995,130.208016 C86.6058532,130.149901 86.6399845,130.090863 86.6722709,130.030903 C86.7054797,129.971865 86.7359211,129.910982 86.76544,129.849177 C86.7958814,129.787371 86.8235554,129.725566 86.8503069,129.662838 C86.8770585,129.599188 86.9019651,129.535538 86.9259492,129.470965 C86.9499333,129.406393 86.9720725,129.339975 86.9923668,129.27448 C87.0126611,129.208062 87.0320329,129.141645 87.0495597,129.074305 C87.0670866,129.006965 87.0818461,128.938702 87.0966055,128.869517 C87.1104425,128.801255 87.1224346,128.73207 87.1335042,128.661962 C87.1445738,128.591855 87.152876,128.521747 87.1602557,128.450717 C87.1676355,128.379687 87.1731703,128.308657 87.1768601,128.236705 C87.18055,128.164753 87.1823949,128.091878 87.1823949,128.019003 C87.1823949,127.946128 87.18055,127.874176 87.1768601,127.801301 C87.1731703,127.729348 87.1676355,127.658318 87.1602557,127.587288 C87.152876,127.516258 87.1445738,127.446151 87.1335042,127.376044 C87.1224346,127.305936 87.1104425,127.236751 87.0966055,127.167566 C87.0818461,127.099304 87.0670866,127.031963 87.0495597,126.963701 C87.0320329,126.896361 87.0126611,126.829943 86.9923668,126.763526 C86.9720725,126.697108 86.9499333,126.631613 86.9259492,126.567963 C86.9019651,126.502468 86.8770585,126.438817 86.8503069,126.37609 C86.8235554,126.312439 86.7958814,126.249712 86.76544,126.188829 C86.7359211,126.127024 86.7054797,126.066141 86.6722709,126.007103 C86.6399845,125.947143 86.6058532,125.888105 86.5707995,125.829989 C86.5357458,125.771874 86.4988471,125.714681 86.461026,125.658411 C86.4232048,125.60214 86.3835388,125.547715 86.3429502,125.493289 C86.3032842,125.438864 86.2608507,125.38536 86.2184172,125.333702 C86.1750613,125.282044 86.1307829,125.230386 86.085582,125.180573 C86.0394587,125.129837 85.9933354,125.081869 85.9453671,125.033901 C85.8983213,124.985932 85.8485081,124.938887 85.7986949,124.893686 C85.7488817,124.848485 85.698146,124.804206 85.6455654,124.761773 C85.5929848,124.718417 85.5404042,124.675984 85.4859787,124.635395 C85.4324756,124.594807 85.3771276,124.556063 85.3208572,124.518242 C85.2645867,124.480421 85.2073938,124.443522 85.1492784,124.408468 C85.091163,124.373415 85.0330476,124.339283 84.9730872,124.306997 C84.9131269,124.273788 84.8522441,124.243347 84.7904388,124.213828 C84.7286336,124.184309 84.6668283,124.155712 84.6031781,124.128961 C84.5404504,124.102209 84.4768002,124.077303 84.4122275,124.053319 C84.3467324,124.029334 84.2821597,124.007195 84.2157421,123.986901 C84.1493245,123.966607 84.0829069,123.947235 84.0155668,123.929708 C83.9482268,123.913104 83.8799642,123.897422 83.8107792,123.882662 C83.7425167,123.868825 83.6733317,123.856833 83.6032242,123.845764 C83.5331168,123.835616 83.4630093,123.826392 83.3919794,123.819012 C83.3209494,123.811632 83.248997,123.806098 83.1770446,123.802408 C83.1060147,123.798718 83.0331398,123.796873 82.9602649,123.796873 Z M127.842881,172.18763 L128.042134,171.820488 L128.240464,171.453346 L128.439717,171.086205 L128.638047,170.71814 L128.836378,170.350999 L129.03563,169.984779 L129.234883,169.617638 L129.433214,169.250496 C129.623242,169.418385 129.819727,169.575204 130.021747,169.719109 C130.222845,169.863936 130.4304,169.996771 130.644412,170.118537 C130.858425,170.240303 131.077972,170.350076 131.303976,170.449703 C131.52998,170.549329 131.76152,170.637886 132.000438,170.716295 C132.239357,170.793783 132.484733,170.862045 132.736567,170.919238 C132.989323,170.976431 133.248536,171.023477 133.514206,171.061298 C133.779877,171.098197 134.053849,171.125871 134.333357,171.14432 C134.614709,171.162769 134.902519,171.171994 135.197708,171.171994 C135.459688,171.171994 135.708754,171.161847 135.944906,171.142475 C136.179212,171.123103 136.400604,171.095429 136.607237,171.056686 C136.813869,171.018864 137.005743,170.970896 137.181934,170.914626 C137.358125,170.857433 137.518634,170.791938 137.662539,170.716295 C137.807366,170.640653 137.934666,170.556709 138.045362,170.46354 C138.156058,170.369448 138.249228,170.267054 138.32487,170.156358 C138.400512,170.04474 138.457705,169.924819 138.496449,169.795674 C138.53427,169.666528 138.554564,169.529081 138.554564,169.382409 C138.554564,169.277247 138.543495,169.182233 138.518588,169.096444 C138.492759,169.009732 138.453093,168.931322 138.3959,168.85937 C138.337784,168.787418 138.26122,168.721922 138.162516,168.66104 C138.064734,168.600157 137.943891,168.543886 137.798141,168.491306 C137.651469,168.437803 137.47989,168.387989 137.27787,168.338176 C137.07585,168.289286 136.844311,168.241317 136.57864,168.193349 C136.313893,168.144458 136.015936,168.095568 135.680158,168.043909 C135.34438,167.992251 134.970781,167.938748 134.557516,167.880633 C134.151631,167.81975 133.746668,167.75979 133.349085,167.694295 C132.951502,167.627877 132.561298,167.555925 132.183087,167.472903 C131.805798,167.389881 131.442346,167.294866 131.097343,167.183248 C130.752341,167.070707 130.42671,166.941562 130.125986,166.78751 C129.826184,166.63438 129.551289,166.458189 129.307758,166.251557 C129.064227,166.045847 128.852982,165.810618 128.678636,165.539412 C128.503367,165.268207 128.366842,164.961948 128.273673,164.614178 C128.180504,164.267331 128.130691,163.87805 128.130691,163.441723 C128.130691,163.04414 128.173124,162.665929 128.255224,162.308012 C128.336401,161.950095 128.458166,161.611549 128.616831,161.296066 C128.774572,160.980582 128.96829,160.686315 129.197062,160.416032 C129.425834,160.14575 129.686892,159.898529 129.980236,159.676214 C130.272658,159.4539 130.595522,159.257414 130.946981,159.085836 C131.297519,158.915179 131.677575,158.770352 132.080693,158.653199 C132.484733,158.536045 132.912758,158.446566 133.363844,158.386606 C133.814008,158.326645 134.286311,158.296204 134.777986,158.296204 C135.222614,158.296204 135.646027,158.320188 136.049145,158.366312 C136.452263,158.413357 136.834164,158.480697 137.196693,158.569254 C137.5583,158.656889 137.899613,158.764817 138.219709,158.890273 C138.540727,159.015728 138.840529,159.15871 139.120036,159.318297 C139.399544,159.476039 139.658757,159.650385 139.897676,159.837646 C140.135672,160.025829 140.353374,160.226927 140.551704,160.439094 C140.749112,160.651261 140.926226,160.875421 141.083045,161.10696 C141.239865,161.339422 141.375467,161.581108 141.491698,161.830174 L141.132858,162.017435 L140.774019,162.205618 L140.415179,162.392879 L140.05634,162.581062 L139.6975,162.768322 L139.338661,162.955583 L138.979821,163.143766 L138.620059,163.33195 C138.559176,163.176975 138.485379,163.031225 138.397745,162.893778 C138.309188,162.757253 138.207717,162.628108 138.094253,162.509109 C137.979867,162.391034 137.851644,162.280338 137.712352,162.179789 C137.572137,162.07924 137.419008,161.988838 137.253886,161.906739 C137.089687,161.825562 136.911651,161.753609 136.722545,161.691804 C136.534362,161.629999 136.333264,161.57834 136.120175,161.535907 C135.908007,161.494396 135.68477,161.463032 135.449541,161.441815 C135.214312,161.420599 134.968014,161.410452 134.711568,161.410452 C134.432983,161.410452 134.176537,161.421521 133.940386,161.444583 C133.704234,161.466722 133.4893,161.499931 133.294659,161.543287 C133.099096,161.58572 132.923828,161.638301 132.767008,161.700106 C132.610189,161.760989 132.471819,161.832019 132.350976,161.909506 C132.231055,161.987916 132.126816,162.073705 132.040104,162.165952 C131.953393,162.259121 131.882363,162.357825 131.827015,162.462986 C131.770744,162.568147 131.730156,162.678843 131.703404,162.795074 C131.676653,162.910382 131.663738,163.030303 131.663738,163.154836 C131.663738,163.265532 131.67573,163.367003 131.700637,163.45925 C131.727388,163.552419 131.767054,163.638209 131.824247,163.716618 C131.882363,163.79595 131.957082,163.867903 132.052097,163.93432 C132.147111,164.00166 132.262419,164.063466 132.400789,164.121581 C132.540081,164.178774 132.701513,164.2332 132.889696,164.284858 C133.078802,164.336516 133.292814,164.386329 133.537268,164.434297 C133.780799,164.483188 134.053849,164.530234 134.359186,164.57728 C134.6636,164.625248 135.002145,164.673216 135.373899,164.723029 C135.796389,164.781145 136.217956,164.83926 136.632144,164.903833 C137.045409,164.968406 137.452216,165.039435 137.845187,165.122457 C138.238158,165.205479 138.617292,165.300494 138.976131,165.413957 C139.335893,165.528343 139.674439,165.660256 139.987155,165.816152 C140.299871,165.972049 140.585836,166.15193 140.839514,166.362253 C141.093192,166.572575 141.313662,166.813339 141.495388,167.089156 C141.677114,167.365896 141.820096,167.678613 141.916955,168.03284 C142.013814,168.387067 142.065472,168.783728 142.065472,169.228357 C142.065472,169.650846 142.018426,170.046585 141.928947,170.417416 C141.838545,170.788248 141.70571,171.132328 141.532287,171.450579 C141.359785,171.76883 141.147618,172.061252 140.900397,172.326922 C140.652253,172.593515 140.368134,172.832434 140.053572,173.045524 C139.738089,173.259536 139.390319,173.445874 139.014875,173.606383 C138.639431,173.766893 138.235391,173.90065 137.808289,174.007656 C137.380264,174.114663 136.927333,174.194917 136.454107,174.249343 C135.980882,174.302846 135.487362,174.329597 134.976316,174.329597 C134.634081,174.329597 134.29738,174.31945 133.966215,174.298233 C133.635049,174.277017 133.309419,174.245653 132.989323,174.203219 C132.669227,174.159863 132.354666,174.10636 132.045639,174.041788 C131.736613,173.977215 131.434044,173.90065 131.13701,173.813016 C130.839053,173.725382 130.547553,173.626678 130.261589,173.515059 C129.975624,173.404363 129.695194,173.281675 129.420299,173.146073 C129.145404,173.011392 128.876966,172.863798 128.614063,172.704211 C128.352083,172.544624 128.094714,172.372123 127.842881,172.18763 Z M105.687076,158.781422 L105.687076,158.757437 L105.687076,158.732531 L105.687076,158.707624 L105.687076,158.682718 L105.687076,158.657811 L105.687076,158.632904 L105.687076,158.607998 L105.687076,158.583091 L106.14831,158.583091 L106.608621,158.583091 L107.069854,158.583091 L107.531087,158.583091 L107.992321,158.583091 L108.452632,158.583091 L108.913865,158.583091 L109.375098,158.583091 L109.745007,159.856095 L110.114916,161.128177 L110.484826,162.401181 L110.854735,163.674185 L111.224644,164.947189 L111.594553,166.21927 L111.964462,167.491352 L112.334371,168.764356 L112.751326,167.5467 L113.168281,166.329966 L113.584314,165.11231 L114.001269,163.894654 L114.419146,162.677921 L114.835178,161.460265 L115.252133,160.242609 L115.669088,159.024953 L115.991952,159.024953 L116.314815,159.024953 L116.637678,159.024953 L116.960542,159.024953 L117.283405,159.024953 L117.607191,159.024953 L117.930054,159.024953 L118.252917,159.024953 L118.667105,160.242609 L119.081293,161.460265 L119.494558,162.677921 L119.909668,163.894654 L120.322933,165.11231 L120.73712,166.329966 L121.151308,167.5467 L121.565495,168.764356 L121.935404,167.491352 L122.305314,166.21927 L122.675223,164.947189 L123.045132,163.674185 L123.415041,162.401181 L123.78495,161.128177 L124.154859,159.856095 L124.524768,158.583091 L124.986002,158.583091 L125.447235,158.583091 L125.908468,158.583091 L126.369702,158.583091 L126.830013,158.583091 L127.291246,158.583091 L127.752479,158.583091 L128.213713,158.583091 L128.213713,158.607998 L128.213713,158.632904 L128.213713,158.657811 L128.213713,158.682718 L128.213713,158.707624 L128.213713,158.732531 L128.213713,158.757437 L128.213713,158.781422 L127.594738,160.689083 L126.976685,162.596744 L126.35771,164.504405 L125.739657,166.412066 L125.121604,168.319727 L124.502629,170.227388 L123.884577,172.135049 L123.265601,174.04271 L122.881855,174.04271 L122.498109,174.04271 L122.114363,174.04271 L121.730617,174.04271 L121.347793,174.04271 L120.964047,174.04271 L120.580301,174.04271 L120.196555,174.04271 L119.790669,172.855496 L119.384784,171.668281 L118.978899,170.481989 L118.573013,169.293852 L118.168051,168.10756 L117.762165,166.920345 L117.35628,165.73313 L116.950395,164.545916 L116.547277,165.73313 L116.144159,166.920345 L115.741041,168.10756 L115.337923,169.293852 L114.934805,170.481989 L114.531687,171.668281 L114.128569,172.855496 L113.725451,174.04271 L113.338938,174.04271 L112.952424,174.04271 L112.56591,174.04271 L112.179397,174.04271 L111.792883,174.04271 L111.40637,174.04271 L111.019856,174.04271 L110.634265,174.04271 L110.01529,172.135049 L109.397237,170.227388 L108.778262,168.319727 L108.16021,166.412066 L107.542157,164.504405 L106.924104,162.596744 L106.305129,160.689083 L105.687076,158.781422 Z M105.131752,170.773488 L105.131752,171.182141 L105.131752,171.590794 L105.131752,171.999447 L105.131752,172.408099 L105.131752,172.816752 L105.131752,173.225405 L105.131752,173.634057 L105.131752,174.04271 L103.558023,174.04271 L101.984295,174.04271 L100.410567,174.04271 L98.8377614,174.04271 L97.2640332,174.04271 L95.6903051,174.04271 L94.1165769,174.04271 L92.5437712,174.04271 L92.5437712,172.110143 L92.5437712,170.177575 L92.5437712,168.245007 L92.5437712,166.313362 L92.5437712,164.380794 L92.5437712,162.448227 L92.5437712,160.515659 L92.5437712,158.583091 L94.0889029,158.583091 L95.6349571,158.583091 L97.1810112,158.583091 L98.7270654,158.583091 L100.27312,158.583091 L101.819174,158.583091 L103.365228,158.583091 L104.910359,158.583091 L104.910359,158.991744 L104.910359,159.400397 L104.910359,159.809049 L104.910359,160.217702 L104.910359,160.626355 L104.910359,161.035008 L104.910359,161.44366 L104.910359,161.852313 L103.807089,161.852313 L102.701974,161.852313 L101.597782,161.852313 L100.493589,161.852313 L99.3903189,161.852313 L98.2852038,161.852313 L97.1810112,161.852313 L96.0768186,161.852313 L96.0768186,162.201928 L96.0768186,162.553388 L96.0768186,162.903925 L96.0768186,163.254462 L96.0768186,163.605 L96.0768186,163.955537 L96.0768186,164.306074 L96.0768186,164.656612 L96.7806607,164.656612 L97.4854252,164.656612 L98.1892673,164.656612 L98.8921869,164.656612 L99.5969514,164.656612 L100.300794,164.656612 L101.004636,164.656612 L101.708478,164.656612 L101.708478,165.065265 L101.708478,165.473917 L101.708478,165.88257 L101.708478,166.291223 L101.708478,166.698953 L101.708478,167.107606 L101.708478,167.516258 L101.708478,167.924911 L101.004636,167.924911 L100.300794,167.924911 L99.5969514,167.924911 L98.8921869,167.924911 L98.1892673,167.924911 L97.4854252,167.924911 L96.7806607,167.924911 L96.0768186,167.924911 L96.0768186,168.280983 L96.0768186,168.637055 L96.0768186,168.993128 L96.0768186,169.3492 L96.0768186,169.705272 L96.0768186,170.061344 L96.0768186,170.417416 L96.0768186,170.773488 L97.2086852,170.773488 L98.3405518,170.773488 L99.4724184,170.773488 L100.604285,170.773488 L101.736152,170.773488 L102.868018,170.773488 L103.999885,170.773488 L105.131752,170.773488 Z M90.5078873,158.583091 L90.5078873,160.515659 L90.5078873,162.448227 L90.5078873,164.380794 L90.5078873,166.313362 L90.5078873,168.245007 L90.5078873,170.177575 L90.5078873,172.110143 L90.5078873,174.04271 L90.1213738,174.04271 L89.7348602,174.04271 L89.3483467,174.04271 L88.9618331,174.04271 L88.5753196,174.04271 L88.1888061,174.04271 L87.803215,174.04271 L87.4167015,174.04271 L86.4499564,172.841659 L85.4841338,171.640607 L84.5173887,170.440478 L83.5515661,169.239426 L82.584821,168.038375 L81.6189984,166.837323 L80.6531758,165.636271 L79.6864307,164.43522 L79.6864307,165.636271 L79.6864307,166.837323 L79.6864307,168.038375 L79.6864307,169.239426 L79.6864307,170.440478 L79.6864307,171.640607 L79.6864307,172.841659 L79.6864307,174.04271 L79.2445692,174.04271 L78.8036301,174.04271 L78.3617686,174.04271 L77.919907,174.04271 L77.4780455,174.04271 L77.036184,174.04271 L76.5952449,174.04271 L76.1533833,174.04271 L76.1533833,172.110143 L76.1533833,170.177575 L76.1533833,168.245007 L76.1533833,166.313362 L76.1533833,164.380794 L76.1533833,162.448227 L76.1533833,160.515659 L76.1533833,158.583091 L76.5398969,158.583091 L76.925488,158.583091 L77.3120015,158.583091 L77.698515,158.583091 L78.0850286,158.583091 L78.4715421,158.583091 L78.8580556,158.583091 L79.2445692,158.583091 L80.2113143,159.784143 L81.1771369,160.985194 L82.1429595,162.185324 L83.1097045,163.386375 L84.0755272,164.587427 L85.0422722,165.788478 L86.0080948,166.98953 L86.9748399,168.190582 L86.9748399,166.98953 L86.9748399,165.788478 L86.9748399,164.587427 L86.9748399,163.386375 L86.9748399,162.185324 L86.9748399,160.985194 L86.9748399,159.784143 L86.9748399,158.583091 L87.4167015,158.583091 L87.8576405,158.583091 L88.2995021,158.583091 L88.7413636,158.583091 L89.1832251,158.583091 L89.6250867,158.583091 L90.0660258,158.583091 L90.5078873,158.583091 Z M175.0003,146.17038 L175.0003,146.942484 L175.0003,147.715511 L175.0003,148.488538 L175.0003,149.261565 L175.0003,150.034593 L175.0003,150.80762 L175.0003,151.580647 L175.0003,152.353674 C174.792745,152.579678 174.575043,152.79369 174.347194,152.994788 C174.119344,153.195886 173.881348,153.384069 173.632282,153.559338 C173.383216,153.733684 173.124925,153.896038 172.856487,154.043633 C172.58805,154.191227 172.309465,154.325907 172.021655,154.445828 C171.733846,154.565749 171.436811,154.671832 171.130552,154.763157 C170.824293,154.854481 170.507887,154.931968 170.183179,154.993773 C169.859393,155.054656 169.52546,155.101702 169.183225,155.133066 C168.841912,155.16443 168.491375,155.180112 168.132536,155.180112 C167.447143,155.180112 166.799571,155.123841 166.190743,155.01499 C165.580993,154.907061 165.009986,154.747475 164.479568,154.54361 C163.948227,154.338822 163.456552,154.088834 163.006388,153.799179 C162.557147,153.509524 162.148494,153.180204 161.782275,152.817674 C161.416978,152.454223 161.094115,152.057562 160.81553,151.632305 C160.536945,151.20797 160.301716,150.755039 160.113533,150.279969 C159.924427,149.804898 159.781445,149.306766 159.685508,148.792952 C159.589572,148.279138 159.541603,147.74872 159.541603,147.208155 C159.541603,146.655597 159.590494,146.115954 159.687353,145.593838 C159.784212,145.070799 159.929039,144.56621 160.117223,144.084682 C160.305406,143.603155 160.53879,143.145611 160.813685,142.715742 C161.089503,142.286795 161.406831,141.887367 161.763826,141.521148 C162.119898,141.155851 162.516558,140.823763 162.949195,140.533186 C163.382755,140.241686 163.853213,139.990775 164.357802,139.785065 C164.862391,139.580278 165.402034,139.420691 165.973041,139.312762 C166.543126,139.203911 167.146419,139.146718 167.778308,139.146718 C168.189729,139.146718 168.589157,139.171625 168.97567,139.218671 C169.361261,139.266639 169.733938,139.336746 170.092777,139.428993 C170.450694,139.522162 170.794774,139.635626 171.123173,139.770306 C171.451571,139.904063 171.764287,140.059038 172.060399,140.232462 C172.356511,140.404963 172.635095,140.596836 172.897076,140.806236 C173.158134,141.015636 173.401665,141.242563 173.626747,141.485171 C173.850907,141.728703 174.056617,141.986993 174.242032,142.260043 C174.426526,142.533093 174.591647,142.820903 174.735552,143.121627 L174.357341,143.318113 L173.979129,143.513676 L173.600918,143.710161 L173.222707,143.905724 L172.844495,144.102209 L172.466284,144.298695 L172.088073,144.494258 L171.709861,144.690743 C171.635142,144.530234 171.551197,144.374337 171.456183,144.224897 C171.361169,144.075458 171.256008,143.930631 171.139777,143.794105 C171.023546,143.65758 170.897168,143.528435 170.759721,143.407592 C170.621351,143.286749 170.472834,143.17513 170.312324,143.072736 C170.152738,142.970343 169.981159,142.878096 169.797588,142.796919 C169.61494,142.716664 169.420299,142.647479 169.212744,142.590286 C169.005189,142.534016 168.786564,142.489738 168.555025,142.460219 C168.323486,142.4307 168.079033,142.415018 167.822587,142.415018 C167.455445,142.415018 167.106753,142.446382 166.777432,142.506342 C166.448111,142.566302 166.138163,142.654859 165.848508,142.770167 C165.559776,142.884553 165.290416,143.026613 165.043195,143.192657 C164.796896,143.357779 164.571814,143.547807 164.368872,143.759974 C164.166851,143.971219 163.987893,144.205526 163.832918,144.459204 C163.677022,144.712882 163.546031,144.98501 163.44087,145.275587 C163.334786,145.566164 163.254532,145.873345 163.200106,146.196209 C163.146603,146.519072 163.118929,146.857617 163.118929,147.208155 C163.118929,147.547622 163.144758,147.876943 163.197339,148.193349 C163.250842,148.510678 163.329252,148.814169 163.434413,149.102901 C163.540496,149.390711 163.672409,149.663761 163.830151,149.918362 C163.988815,150.17204 164.174231,150.408192 164.386398,150.623126 C164.597643,150.837139 164.836562,151.030857 165.102233,151.20059 C165.366981,151.369402 165.659402,151.515152 165.979498,151.633227 C166.298672,151.752225 166.644597,151.84355 167.018196,151.905355 C167.391795,151.968083 167.792145,152.000369 168.22017,152.000369 C168.388981,152.000369 168.554103,151.995757 168.716457,151.984687 C168.878811,151.97454 169.038398,151.957936 169.194295,151.936719 C169.351114,151.915502 169.505166,151.888751 169.656451,151.855542 C169.807735,151.823255 169.957175,151.785434 170.102924,151.741156 C170.249597,151.696877 170.393501,151.646142 170.534639,151.590794 C170.676699,151.534523 170.815991,151.471796 170.953439,151.403533 C171.090886,151.335271 171.226489,151.261473 171.359324,151.180296 C171.493082,151.099119 171.624072,151.011485 171.75414,150.918316 L171.75414,150.685854 L171.75414,150.454315 L171.75414,150.222776 L171.75414,149.990314 L171.75414,149.758775 L171.75414,149.527236 L171.75414,149.294774 L171.75414,149.063235 L171.290139,149.063235 L170.826138,149.063235 L170.36306,149.063235 L169.899059,149.063235 L169.435059,149.063235 L168.971058,149.063235 L168.50798,149.063235 L168.043979,149.063235 L168.043979,148.701628 L168.043979,148.340021 L168.043979,147.978414 L168.043979,147.615885 L168.043979,147.2552 L168.043979,146.893593 L168.043979,146.531987 L168.043979,146.17038 L168.913865,146.17038 L169.782828,146.17038 L170.652715,146.17038 L171.521678,146.17038 L172.391564,146.17038 L173.26145,146.17038 L174.130414,146.17038 L175.0003,146.17038 Z M157.881163,139.433605 L157.881163,141.366173 L157.881163,143.298741 L157.881163,145.231309 L157.881163,147.163876 L157.881163,149.095521 L157.881163,151.029012 L157.881163,152.960657 L157.881163,154.893224 L157.49465,154.893224 L157.108136,154.893224 L156.721623,154.893224 L156.335109,154.893224 L155.948596,154.893224 L155.562082,154.893224 L155.175569,154.893224 L154.789055,154.893224 L153.823233,153.692173 L152.856487,152.492044 L151.890665,151.290992 L150.924842,150.089941 L149.958097,148.888889 L148.992275,147.687837 L148.025529,146.486786 L147.059707,145.286657 L147.059707,146.486786 L147.059707,147.687837 L147.059707,148.888889 L147.059707,150.089941 L147.059707,151.290992 L147.059707,152.492044 L147.059707,153.692173 L147.059707,154.893224 L146.617845,154.893224 L146.175984,154.893224 L145.734122,154.893224 L145.292261,154.893224 L144.851322,154.893224 L144.40946,154.893224 L143.967599,154.893224 L143.525737,154.893224 L143.525737,152.960657 L143.525737,151.029012 L143.525737,149.095521 L143.525737,147.163876 L143.525737,145.231309 L143.525737,143.298741 L143.525737,141.366173 L143.525737,139.433605 L143.912251,139.433605 L144.298764,139.433605 L144.685278,139.433605 L145.071791,139.433605 L145.458305,139.433605 L145.844818,139.433605 L146.231332,139.433605 L146.617845,139.433605 L147.583668,140.634657 L148.550413,141.835709 L149.516236,143.03676 L150.482058,144.236889 L151.448803,145.438864 L152.414626,146.638993 L153.381371,147.840044 L154.347194,149.041096 L154.347194,147.840044 L154.347194,146.638993 L154.347194,145.438864 L154.347194,144.236889 L154.347194,143.03676 L154.347194,141.835709 L154.347194,140.634657 L154.347194,139.433605 L154.789055,139.433605 L155.230917,139.433605 L155.672778,139.433605 L156.11464,139.433605 L156.555579,139.433605 L156.99744,139.433605 L157.439302,139.433605 L157.881163,139.433605 Z M141.139316,139.433605 L141.139316,141.366173 L141.139316,143.298741 L141.139316,145.231309 L141.139316,147.163876 L141.139316,149.095521 L141.139316,151.029012 L141.139316,152.960657 L141.139316,154.893224 L140.697454,154.893224 L140.256515,154.893224 L139.814654,154.893224 L139.372792,154.893224 L138.930931,154.893224 L138.489069,154.893224 L138.04813,154.893224 L137.606268,154.893224 L137.606268,152.960657 L137.606268,151.029012 L137.606268,149.095521 L137.606268,147.163876 L137.606268,145.231309 L137.606268,143.298741 L137.606268,141.366173 L137.606268,139.433605 L138.04813,139.433605 L138.489069,139.433605 L138.930931,139.433605 L139.372792,139.433605 L139.814654,139.433605 L140.256515,139.433605 L140.697454,139.433605 L141.139316,139.433605 Z M135.172801,139.433605 L135.172801,141.366173 L135.172801,143.298741 L135.172801,145.231309 L135.172801,147.163876 L135.172801,149.095521 L135.172801,151.029012 L135.172801,152.960657 L135.172801,154.893224 L134.786288,154.893224 L134.399774,154.893224 L134.013261,154.893224 L133.626747,154.893224 L133.240234,154.893224 L132.85372,154.893224 L132.467207,154.893224 L132.081615,154.893224 L131.11487,153.692173 L130.149048,152.492044 L129.182303,151.290992 L128.21648,150.089941 L127.249735,148.888889 L126.283912,147.687837 L125.317167,146.486786 L124.351345,145.286657 L124.351345,146.486786 L124.351345,147.687837 L124.351345,148.888889 L124.351345,150.089941 L124.351345,151.290992 L124.351345,152.492044 L124.351345,153.692173 L124.351345,154.893224 L123.909483,154.893224 L123.468544,154.893224 L123.026683,154.893224 L122.584821,154.893224 L122.142959,154.893224 L121.701098,154.893224 L121.260159,154.893224 L120.818297,154.893224 L120.818297,152.960657 L120.818297,151.029012 L120.818297,149.095521 L120.818297,147.163876 L120.818297,145.231309 L120.818297,143.298741 L120.818297,141.366173 L120.818297,139.433605 L121.203888,139.433605 L121.590402,139.433605 L121.976915,139.433605 L122.363429,139.433605 L122.749943,139.433605 L123.136456,139.433605 L123.52297,139.433605 L123.909483,139.433605 L124.875306,140.634657 L125.842051,141.835709 L126.807873,143.03676 L127.774619,144.236889 L128.740441,145.438864 L129.707186,146.638993 L130.673009,147.840044 L131.639754,149.041096 L131.639754,147.840044 L131.639754,146.638993 L131.639754,145.438864 L131.639754,144.236889 L131.639754,143.03676 L131.639754,141.835709 L131.639754,140.634657 L131.639754,139.433605 L132.081615,139.433605 L132.522555,139.433605 L132.964416,139.433605 L133.406278,139.433605 L133.848139,139.433605 L134.290001,139.433605 L134.73094,139.433605 L135.172801,139.433605 Z M119.202136,151.624925 L119.202136,152.033578 L119.202136,152.441308 L119.202136,152.849961 L119.202136,153.259536 L119.202136,153.668189 L119.202136,154.075919 L119.202136,154.484572 L119.202136,154.893224 L117.62933,154.893224 L116.054679,154.893224 L114.481874,154.893224 L112.908146,154.893224 L111.334417,154.893224 L109.761612,154.893224 L108.187884,154.893224 L106.614155,154.893224 L106.614155,152.960657 L106.614155,151.029012 L106.614155,149.095521 L106.614155,147.163876 L106.614155,145.231309 L106.614155,143.298741 L106.614155,141.366173 L106.614155,139.433605 L108.16021,139.433605 L109.706264,139.433605 L111.251395,139.433605 L112.798372,139.433605 L114.343504,139.433605 L115.889558,139.433605 L117.435612,139.433605 L118.981666,139.433605 L118.981666,139.842258 L118.981666,140.250911 L118.981666,140.659564 L118.981666,141.068216 L118.981666,141.476869 L118.981666,141.885522 L118.981666,142.294175 L118.981666,142.702827 L117.877474,142.702827 L116.773281,142.702827 L115.669088,142.702827 L114.564896,142.702827 L113.459781,142.702827 L112.356511,142.702827 L111.252318,142.702827 L110.148125,142.702827 L110.148125,143.053365 L110.148125,143.403902 L110.148125,143.754439 L110.148125,144.104977 L110.148125,144.455514 L110.148125,144.806051 L110.148125,145.156589 L110.148125,145.507126 L110.851967,145.507126 L111.555809,145.507126 L112.259652,145.507126 L112.963494,145.507126 L113.667336,145.507126 L114.371178,145.507126 L115.07502,145.507126 L115.779784,145.507126 L115.779784,145.915779 L115.779784,146.324432 L115.779784,146.733084 L115.779784,147.141737 L115.779784,147.55039 L115.779784,147.959042 L115.779784,148.366773 L115.779784,148.775425 L115.07502,148.775425 L114.371178,148.775425 L113.667336,148.775425 L112.963494,148.775425 L112.259652,148.775425 L111.555809,148.775425 L110.851967,148.775425 L110.148125,148.775425 L110.148125,149.13242 L110.148125,149.48757 L110.148125,149.843642 L110.148125,150.199714 L110.148125,150.555786 L110.148125,150.912781 L110.148125,151.26793 L110.148125,151.624925 L111.279992,151.624925 L112.411859,151.624925 L113.542803,151.624925 L114.674669,151.624925 L115.806536,151.624925 L116.938402,151.624925 L118.070269,151.624925 L119.202136,151.624925 Z M89.2966885,139.632858 L89.2966885,139.607952 L89.2966885,139.583045 L89.2966885,139.558138 L89.2966885,139.533232 L89.2966885,139.508325 L89.2966885,139.483419 L89.2966885,139.458512 L89.2966885,139.433605 L89.7708364,139.433605 L90.2459068,139.433605 L90.7209771,139.433605 L91.1960474,139.433605 L91.6701953,139.433605 L92.1452656,139.433605 L92.620336,139.433605 L93.0954063,139.433605 L93.6451965,140.842212 L94.1940641,142.249896 L94.7429318,143.65758 L95.2927219,145.065265 L95.8415896,146.473871 L96.3913797,147.881555 L96.9402474,149.289239 L97.4900376,150.696924 L98.0398277,149.289239 L98.5886954,147.881555 L99.1384855,146.473871 L99.6873532,145.065265 L100.237143,143.65758 L100.786011,142.249896 L101.334879,140.842212 L101.884669,139.433605 L102.359739,139.433605 L102.834809,139.433605 L103.30988,139.433605 L103.784028,139.433605 L104.259098,139.433605 L104.734168,139.433605 L105.209239,139.433605 L105.683387,139.433605 L105.683387,139.458512 L105.683387,139.483419 L105.683387,139.508325 L105.683387,139.533232 L105.683387,139.558138 L105.683387,139.583045 L105.683387,139.607952 L105.683387,139.632858 L104.890988,141.540519 L104.099511,143.447258 L103.307112,145.354919 L102.514714,147.263503 L101.722315,149.171164 L100.929916,151.077902 L100.137517,152.985563 L99.345118,154.893224 L98.8783499,154.893224 L98.4115818,154.893224 L97.9457361,154.893224 L97.478968,154.893224 L97.0121998,154.893224 L96.5463541,154.893224 L96.079586,154.893224 L95.6128179,154.893224 L94.8231864,152.985563 L94.0335549,151.077902 L93.2439234,149.171164 L92.454292,147.263503 L91.665583,145.354919 L90.8759515,143.447258 L90.08632,141.540519 L89.2966885,139.632858 Z M88.7847195,151.624925 L88.7847195,152.033578 L88.7847195,152.441308 L88.7847195,152.849961 L88.7847195,153.259536 L88.7847195,153.668189 L88.7847195,154.075919 L88.7847195,154.484572 L88.7847195,154.893224 L87.2119139,154.893224 L85.6381857,154.893224 L84.0644576,154.893224 L82.4907294,154.893224 L80.9179237,154.893224 L79.3441956,154.893224 L77.7704674,154.893224 L76.1967393,154.893224 L76.1967393,152.960657 L76.1967393,151.029012 L76.1967393,149.095521 L76.1967393,147.163876 L76.1967393,145.231309 L76.1967393,143.298741 L76.1967393,141.366173 L76.1967393,139.433605 L77.7427934,139.433605 L79.2888476,139.433605 L80.8349017,139.433605 L82.3809559,139.433605 L83.92701,139.433605 L85.4730642,139.433605 L87.0181959,139.433605 L88.56425,139.433605 L88.56425,139.842258 L88.56425,140.250911 L88.56425,140.659564 L88.56425,141.068216 L88.56425,141.476869 L88.56425,141.885522 L88.56425,142.294175 L88.56425,142.702827 L87.4600574,142.702827 L86.3558648,142.702827 L85.2516722,142.702827 L84.1474796,142.702827 L83.0432869,142.702827 L81.9390943,142.702827 L80.8349017,142.702827 L79.7307091,142.702827 L79.7307091,143.053365 L79.7307091,143.403902 L79.7307091,143.754439 L79.7307091,144.104977 L79.7307091,144.455514 L79.7307091,144.806051 L79.7307091,145.156589 L79.7307091,145.507126 L80.4345512,145.507126 L81.1383933,145.507126 L81.8431578,145.507126 L82.5469999,145.507126 L83.2499195,145.507126 L83.954684,145.507126 L84.6585261,145.507126 L85.3623682,145.507126 L85.3623682,145.915779 L85.3623682,146.324432 L85.3623682,146.733084 L85.3623682,147.141737 L85.3623682,147.55039 L85.3623682,147.959042 L85.3623682,148.366773 L85.3623682,148.775425 L84.6585261,148.775425 L83.954684,148.775425 L83.2499195,148.775425 L82.5469999,148.775425 L81.8431578,148.775425 L81.1383933,148.775425 L80.4345512,148.775425 L79.7307091,148.775425 L79.7307091,149.13242 L79.7307091,149.48757 L79.7307091,149.843642 L79.7307091,150.199714 L79.7307091,150.555786 L79.7307091,150.912781 L79.7307091,151.26793 L79.7307091,151.624925 L80.8625757,151.624925 L81.9944423,151.624925 L83.1263089,151.624925 L84.2581756,151.624925 L85.3900422,151.624925 L86.5209863,151.624925 L87.6528529,151.624925 L88.7847195,151.624925 Z M122.62541,133.891426 L122.82374,133.524284 L123.022993,133.157142 L123.221323,132.79 L123.419653,132.422859 L123.618906,132.054795 L123.817236,131.687653 L124.016489,131.320511 L124.21482,130.953369 C124.40577,131.122181 124.601333,131.279 124.803353,131.422905 C125.005374,131.567732 125.212929,131.700567 125.426018,131.822333 C125.640031,131.944099 125.859578,132.053872 126.085582,132.153498 C126.311586,132.253125 126.544048,132.341682 126.782044,132.420091 C127.021886,132.497579 127.266339,132.565841 127.519095,132.623034 C127.770929,132.680227 128.030142,132.727273 128.295812,132.764171 C128.562405,132.801993 128.835455,132.829667 129.115885,132.848116 C129.396315,132.866565 129.684125,132.874867 129.979314,132.874867 C130.241294,132.874867 130.49036,132.865643 130.726512,132.846271 C130.961741,132.826899 131.18221,132.798303 131.388843,132.760482 C131.595475,132.721738 131.787349,132.674692 131.96354,132.618422 C132.139731,132.561229 132.30024,132.494811 132.445067,132.420091 C132.588972,132.344449 132.716273,132.259582 132.826969,132.166413 C132.937665,132.073244 133.030834,131.97085 133.106476,131.859232 C133.182118,131.748536 133.239311,131.627692 133.278055,131.49947 C133.315876,131.370324 133.33617,131.232877 133.33617,131.086205 C133.33617,130.981043 133.325101,130.886029 133.300194,130.799317 C133.274365,130.713528 133.234699,130.635118 133.177506,130.563166 C133.11939,130.491214 133.042826,130.425718 132.945044,130.364836 C132.84634,130.303953 132.72642,130.247682 132.579747,130.195102 C132.433075,130.141599 132.261496,130.090863 132.059476,130.041972 C131.857456,129.993081 131.625917,129.945113 131.361169,129.896222 C131.096421,129.848254 130.797542,129.799363 130.461764,129.747705 C130.125986,129.696047 129.75331,129.642544 129.339122,129.584429 C128.933237,129.523546 128.528274,129.463586 128.130691,129.397168 C127.733108,129.331673 127.341982,129.25972 126.965615,129.176698 C126.587404,129.093676 126.223952,128.998662 125.87895,128.887044 C125.533947,128.774503 125.208316,128.645358 124.908515,128.491306 C124.60779,128.338176 124.332895,128.161985 124.089364,127.955353 C123.846755,127.749643 123.634588,127.513491 123.460242,127.243208 C123.285896,126.972003 123.148448,126.665744 123.055279,126.317974 C122.96211,125.971127 122.912297,125.581846 122.912297,125.145519 C122.912297,124.747936 122.95473,124.369725 123.03683,124.011808 C123.118929,123.652968 123.240695,123.316268 123.398437,122.999862 C123.556178,122.684378 123.750819,122.390111 123.978668,122.119828 C124.20744,121.849546 124.46942,121.602325 124.761842,121.38001 C125.054264,121.157696 125.377128,120.960288 125.728587,120.789631 C126.080047,120.618053 126.459181,120.474148 126.862299,120.356995 C127.266339,120.239841 127.695286,120.150362 128.14545,120.090402 C128.595614,120.030441 129.067917,120 129.559592,120 C130.00422,120 130.428555,120.023984 130.830751,120.070107 C131.233869,120.116231 131.616692,120.184493 131.978299,120.272128 C132.339906,120.360684 132.681219,120.468613 133.002237,120.594069 C133.322333,120.719524 133.622135,120.862506 133.902565,121.021171 C134.18115,121.179835 134.440363,121.354181 134.679282,121.541442 C134.917278,121.729625 135.135903,121.930723 135.33331,122.14289 C135.530718,122.355057 135.707832,122.578294 135.864651,122.810756 C136.021471,123.043218 136.157073,123.284904 136.273304,123.53397 L135.914464,123.721231 L135.555625,123.908491 L135.196785,124.096675 L134.837946,124.283935 L134.479106,124.472118 L134.120267,124.660302 L133.761427,124.847562 L133.402588,125.034823 C133.341705,124.880771 133.266985,124.735021 133.179351,124.597574 C133.090794,124.460126 132.989323,124.331904 132.875859,124.212905 C132.761473,124.093907 132.634173,123.984134 132.493958,123.883585 C132.353743,123.783036 132.200614,123.691712 132.036415,123.610535 C131.871293,123.529358 131.694179,123.457405 131.505074,123.3956 C131.315968,123.333795 131.11487,123.282136 130.902703,123.239703 C130.690536,123.198192 130.466376,123.166828 130.231147,123.145611 C129.995918,123.124395 129.750542,123.113325 129.493174,123.113325 C129.214589,123.113325 128.958143,123.125317 128.721992,123.148379 C128.486763,123.170518 128.271828,123.203727 128.076265,123.24616 C127.880702,123.289516 127.705434,123.342097 127.548614,123.403902 C127.392717,123.464785 127.254347,123.534892 127.133504,123.613302 C127.012661,123.691712 126.909345,123.777501 126.82171,123.869748 C126.734999,123.961994 126.663969,124.061621 126.608621,124.166782 C126.55235,124.271943 126.511762,124.382639 126.485933,124.497948 C126.458259,124.614178 126.446267,124.734099 126.446267,124.858632 C126.446267,124.969328 126.457336,125.070799 126.483165,125.163046 C126.508994,125.256215 126.54866,125.341082 126.605853,125.420414 C126.663969,125.498824 126.738688,125.571699 126.833703,125.638116 C126.928717,125.705456 127.044025,125.766339 127.182395,125.824455 C127.321687,125.88257 127.484042,125.936996 127.672225,125.988654 C127.860408,126.040312 128.07442,126.090125 128.318874,126.138093 C128.562405,126.186984 128.835455,126.23403 129.140792,126.281076 C129.446128,126.329044 129.783751,126.377012 130.156427,126.426825 C130.578917,126.484941 130.999562,126.543056 131.41375,126.607629 C131.827937,126.672201 132.234745,126.743231 132.626793,126.826253 C133.019764,126.909275 133.398898,127.004289 133.757737,127.117753 C134.117499,127.232139 134.456045,127.363129 134.768761,127.519948 C135.081477,127.675845 135.368364,127.855726 135.62112,128.066049 C135.874798,128.276371 136.095268,128.516212 136.276994,128.792952 C136.45872,129.069692 136.601702,129.381486 136.698561,129.736636 C136.79542,130.090863 136.848001,130.487524 136.848001,130.932153 C136.848001,131.354642 136.800955,131.750381 136.710553,132.121212 C136.620151,132.491121 136.487316,132.836124 136.313893,133.154375 C136.141391,133.472626 135.929224,133.765048 135.682003,134.030718 C135.433859,134.296389 135.150662,134.53623 134.835178,134.74932 C134.519695,134.963332 134.172847,135.14967 133.796481,135.310179 C133.42196,135.469766 133.017919,135.603524 132.589895,135.711452 C132.16187,135.818459 131.708939,135.898713 131.235713,135.952216 C130.762488,136.006642 130.268968,136.033393 129.757922,136.033393 C129.415687,136.033393 129.078986,136.023246 128.747821,136.002029 C128.416655,135.980813 128.091025,135.949449 127.770929,135.907015 C127.450833,135.863659 127.136272,135.810156 126.828168,135.745584 C126.519141,135.680089 126.21565,135.604446 125.918616,135.516812 C125.620659,135.429178 125.329159,135.330474 125.043195,135.218855 C124.75723,135.108159 124.4768,134.985471 124.201905,134.849869 C123.927932,134.715188 123.659495,134.567594 123.395669,134.408007 C123.133689,134.24842 122.87632,134.075919 122.62541,133.891426 Z M116.836009,132.809372 C116.981758,132.809372 117.121051,132.798303 117.252041,132.778008 C117.383031,132.758637 117.507564,132.728195 117.622873,132.689452 C117.738181,132.649786 117.845187,132.601817 117.943891,132.544624 C118.042595,132.487431 118.132074,132.421936 118.213251,132.348139 C118.293506,132.274342 118.365458,132.192242 118.427264,132.102763 C118.489069,132.013284 118.54165,131.915502 118.584083,131.812186 C118.626517,131.707947 118.658803,131.597251 118.68002,131.479175 C118.701236,131.362022 118.712306,131.238412 118.712306,131.108344 C118.712306,130.975509 118.701236,130.850053 118.68002,130.730132 C118.658803,130.610212 118.626517,130.497671 118.584083,130.39251 C118.54165,130.286426 118.489069,130.187722 118.427264,130.09732 C118.365458,130.006919 118.293506,129.923896 118.213251,129.850099 C118.132074,129.775379 118.042595,129.708962 117.943891,129.651769 C117.845187,129.593653 117.738181,129.545685 117.622873,129.506019 C117.507564,129.466353 117.383031,129.436834 117.252041,129.41654 C117.121051,129.396246 116.981758,129.386098 116.836009,129.386098 L116.200429,129.386098 L115.565772,129.386098 L114.931115,129.386098 L114.296458,129.386098 L113.660878,129.386098 L113.026221,129.386098 L112.391564,129.386098 L111.755985,129.386098 L111.755985,129.814123 L111.755985,130.241225 L111.755985,130.66925 L111.755985,131.097274 L111.755985,131.525299 L111.755985,131.953323 L111.755985,132.381348 L111.755985,132.809372 L112.391564,132.809372 L113.026221,132.809372 L113.660878,132.809372 L114.296458,132.809372 L114.931115,132.809372 L115.565772,132.809372 L116.200429,132.809372 L116.836009,132.809372 Z M115.996564,126.580877 C116.140469,126.580877 116.276071,126.571653 116.405217,126.552281 C116.53344,126.532909 116.654283,126.505235 116.766824,126.468336 C116.880287,126.430515 116.984526,126.384392 117.081385,126.329044 C117.177321,126.274618 117.264956,126.210968 117.343365,126.139016 C117.421775,126.067986 117.491882,125.987731 117.552765,125.899174 C117.612726,125.81154 117.663461,125.715604 117.704972,125.612287 C117.745561,125.508971 117.776925,125.397353 117.798141,125.279277 C117.818436,125.161201 117.829505,125.034823 117.829505,124.90291 C117.829505,124.770075 117.818436,124.64462 117.798141,124.526544 C117.776925,124.407546 117.745561,124.29685 117.704972,124.193534 C117.663461,124.090217 117.612726,123.994281 117.552765,123.905724 C117.491882,123.81809 117.421775,123.737835 117.343365,123.665883 C117.264956,123.59393 117.177321,123.53028 117.081385,123.475854 C116.984526,123.420506 116.880287,123.374383 116.766824,123.337484 C116.654283,123.300586 116.53344,123.271989 116.405217,123.252617 C116.276071,123.233246 116.140469,123.224021 115.996564,123.224021 L115.466146,123.224021 L114.93665,123.224021 L114.406231,123.224021 L113.876736,123.224021 L113.346317,123.224021 L112.815899,123.224021 L112.286403,123.224021 L111.755985,123.224021 L111.755985,123.643743 L111.755985,124.063466 L111.755985,124.483188 L111.755985,124.901988 L111.755985,125.32171 L111.755985,125.742355 L111.755985,126.161155 L111.755985,126.580877 L112.286403,126.580877 L112.815899,126.580877 L113.346317,126.580877 L113.876736,126.580877 L114.406231,126.580877 L114.93665,126.580877 L115.466146,126.580877 L115.996564,126.580877 Z M108.222937,120.286887 L109.31606,120.286887 L110.409183,120.286887 L111.502306,120.286887 L112.595429,120.286887 L113.688552,120.286887 L114.781675,120.286887 L115.874798,120.286887 L116.967921,120.286887 C117.300009,120.286887 117.616415,120.315484 117.918062,120.370832 C118.219709,120.42618 118.504751,120.508279 118.773189,120.61344 C119.040704,120.718602 119.291615,120.847747 119.523154,120.997186 C119.754693,121.147549 119.967783,121.318205 120.159656,121.507311 C120.351529,121.696416 120.522186,121.903049 120.670703,122.127208 C120.820142,122.349523 120.94652,122.588441 121.048914,122.840275 C121.151308,123.091186 121.229717,123.355934 121.282298,123.630829 C121.335801,123.905724 121.362553,124.189844 121.362553,124.483188 C121.362553,124.678751 121.350561,124.867857 121.326576,125.049583 C121.302592,125.230386 121.267539,125.404732 121.221415,125.571699 C121.175292,125.738665 121.119021,125.898252 121.052604,126.050459 C120.987109,126.202666 120.911466,126.347493 120.827522,126.484018 C120.742655,126.621466 120.650408,126.751534 120.54986,126.874222 C120.449311,126.99691 120.34046,127.111296 120.226074,127.219224 C120.110765,127.32623 119.989922,127.426779 119.861699,127.519026 C119.734399,127.611273 119.601564,127.696139 119.463194,127.773627 C119.662447,127.834509 119.855242,127.907384 120.039735,127.993174 C120.224229,128.078963 120.401342,128.176745 120.569231,128.286518 C120.73712,128.396292 120.895785,128.51898 121.042457,128.65366 C121.190051,128.787418 121.326576,128.935012 121.451109,129.092754 C121.575642,129.252341 121.687261,129.422997 121.785042,129.605645 C121.882824,129.788294 121.966768,129.982934 122.035031,130.189567 C122.103293,130.396199 122.155874,130.614824 122.19185,130.845441 C122.227826,131.076057 122.246276,131.317744 122.246276,131.572344 C122.246276,131.889673 122.215834,132.193165 122.156796,132.480974 C122.098681,132.768784 122.011969,133.040911 121.901273,133.296435 C121.789655,133.551035 121.654052,133.789032 121.49631,134.008579 C121.338569,134.229048 121.158688,134.430146 120.959435,134.611872 C120.761104,134.793598 120.543402,134.95503 120.310018,135.095245 C120.075712,135.23546 119.825723,135.354458 119.56282,135.451317 C119.299917,135.547253 119.0241,135.621973 118.738135,135.670864 C118.451248,135.720677 118.155136,135.746506 117.851644,135.746506 L116.647825,135.746506 L115.444006,135.746506 L114.24111,135.746506 L113.036368,135.746506 L111.833472,135.746506 L110.629653,135.746506 L109.425834,135.746506 L108.222937,135.746506 L108.222937,133.813938 L108.222937,131.881371 L108.222937,129.948803 L108.222937,128.016235 L108.222937,126.08459 L108.222937,124.152023 L108.222937,122.219455 L108.222937,120.286887 Z M91.8759054,128.016235 C91.8759054,127.461833 91.9238736,126.920345 92.0170428,126.398229 C92.1111344,125.87519 92.2504268,125.371523 92.4330752,124.890918 C92.6157236,124.411236 92.8408055,123.955537 93.1083208,123.529358 C93.3749137,123.103178 93.6830176,122.706517 94.0298651,122.343065 C94.3757901,121.981458 94.7604587,121.653983 95.1829484,121.366173 C95.6035932,121.078364 96.0620591,120.83022 96.5528114,120.6282 C97.0454086,120.42618 97.5702922,120.268438 98.1283845,120.162354 C98.6855544,120.05627 99.2750106,120 99.8930632,120 C100.304483,120 100.703911,120.024907 101.090425,120.073797 C101.476939,120.122688 101.850538,120.19464 102.209377,120.288732 C102.568217,120.382824 102.913219,120.498132 103.241617,120.634657 C103.570938,120.77026 103.884577,120.927079 104.179766,121.101425 C104.475878,121.275771 104.755385,121.468567 105.015521,121.678889 C105.276579,121.888289 105.518265,122.115216 105.74058,122.356902 C105.963816,122.598589 106.165837,122.855957 106.347563,123.12624 C106.529289,123.396522 106.689798,123.67972 106.828168,123.974909 L106.458259,124.187999 L106.087427,124.400166 L105.717518,124.612333 L105.348531,124.825423 L104.9777,125.037591 L104.60779,125.25068 L104.237881,125.462848 L103.867972,125.675937 C103.790485,125.496056 103.701006,125.324478 103.598612,125.162124 C103.496218,124.998847 103.382755,124.844795 103.257299,124.70089 C103.131844,124.556063 102.995319,124.421383 102.847724,124.29685 C102.700129,124.172317 102.542388,124.058853 102.374499,123.955537 C102.207532,123.853143 102.029496,123.761819 101.843158,123.681565 C101.65682,123.602232 101.460334,123.534892 101.256469,123.479544 C101.052604,123.425119 100.839514,123.382685 100.619967,123.355011 C100.399497,123.326415 100.171648,123.312578 99.9373416,123.312578 C99.5785021,123.312578 99.2390344,123.344864 98.9198609,123.406669 C98.6016099,123.468475 98.3027307,123.559799 98.0259907,123.677875 C97.7483282,123.79595 97.4918825,123.939855 97.257576,124.107744 C97.022347,124.275633 96.8092572,124.466584 96.619229,124.678751 C96.4282784,124.890918 96.2603895,125.12338 96.1155622,125.373368 C95.9707349,125.623357 95.8489693,125.890872 95.7511879,126.172225 C95.6524839,126.455422 95.5786866,126.751534 95.5288734,127.059637 C95.4790602,127.367741 95.4541536,127.687837 95.4541536,128.016235 C95.4541536,128.344634 95.4799827,128.665652 95.5316408,128.972833 C95.5832989,129.28186 95.6598637,129.577971 95.761335,129.860246 C95.8618839,130.142521 95.9882618,130.410036 96.1367789,130.660025 C96.2852961,130.910013 96.4577973,131.142475 96.6524378,131.354642 C96.8470783,131.56681 97.063858,131.75776 97.3018544,131.925649 C97.5407732,132.093538 97.8009088,132.237443 98.0813387,132.355519 C98.3617686,132.472672 98.6624927,132.564919 98.9835111,132.626724 C99.3045295,132.688529 99.6439972,132.720815 100.003759,132.720815 C100.240833,132.720815 100.47145,132.706056 100.694687,132.678382 C100.917001,132.649786 101.131936,132.608275 101.338569,132.552927 C101.545201,132.498501 101.743531,132.431161 101.932637,132.351829 C102.121743,132.271574 102.301624,132.18025 102.471358,132.077856 C102.641091,131.97454 102.800678,131.860154 102.950118,131.736544 C103.099557,131.611088 103.237005,131.476408 103.364305,131.332503 C103.490683,131.187676 103.605069,131.033624 103.708385,130.87127 C103.811702,130.707993 103.901181,130.536414 103.978668,130.357456 L104.348577,130.567778 L104.718486,130.777178 L105.088396,130.987501 L105.458305,131.196901 L105.828214,131.4063 L106.198123,131.616623 L106.568032,131.826023 L106.937941,132.036345 C106.800494,132.331535 106.639062,132.615654 106.457336,132.885937 C106.274688,133.157142 106.070823,133.41451 105.847586,133.658042 C105.623426,133.90065 105.380818,134.127577 105.117915,134.338822 C104.855934,134.550067 104.575504,134.744707 104.276625,134.920898 C103.978668,135.09709 103.663185,135.254831 103.332019,135.391356 C103.000853,135.528804 102.654006,135.645957 102.292399,135.740971 C101.92987,135.835985 101.554426,135.90886 101.165145,135.958673 C100.775864,136.007564 100.372746,136.033393 99.9594808,136.033393 C99.3405057,136.033393 98.7510495,135.977123 98.1920347,135.870117 C97.6320974,135.763111 97.1044465,135.604446 96.6090819,135.401504 C96.1146397,135.198561 95.6534064,134.950417 95.2272268,134.661685 C94.8019697,134.372953 94.4136112,134.044555 94.0621514,133.681103 C93.7116141,133.317651 93.3998203,132.920991 93.1286151,132.493889 C92.8583324,132.067709 92.6286382,131.612011 92.4432224,131.132328 C92.2578066,130.653568 92.1157467,130.149901 92.0207326,129.628707 C91.9247961,129.107513 91.8759054,128.568793 91.8759054,128.016235 Z" transform="translate(-75 -120)"/>
</svg>
