<svg xmlns="http://www.w3.org/2000/svg" width="196" height="60">
  <path fill="#F5F5F5" fill-rule="evenodd" d="M189.807091 52.0108775c.625059.7661128 1.311361 1.2710597 2.420821 1.2710597.988163 0 2.077869-.4231598 2.077869-1.4524138 0-1.0087085-1.008709-1.2710596-2.017417-1.4927147-1.795367-.4034044-3.328383-.7870534-3.328383-2.7436239 0-1.8356677 1.776007-2.7835297 3.530282-2.7835297 1.331116 0 2.561085.5049469 3.207085 1.71516l-1.310965.8672602c-.4038-.6657555-1.06916-1.1300064-1.996872-1.1300064-.86805 0-1.856608.4231597-1.856608 1.3121508 0 .785868 1.129611 1.128821 2.380915 1.3706266C194.587887 49.2680439 196 49.873348 196 51.7694671c0 2.1387148-1.896119 2.9660692-3.772088 2.9660692-1.593862 0-2.743228-.4247402-3.67173-1.7558561l1.250909-.9688027zm-10.244338-4.7207399c0-.8672601-.080601-1.6132223-.080601-2.2378867h1.492714c0 .5033665.039906 1.0284638.039906 1.552771h.041091c.423555-.9281066 1.593072-1.7953668 3.146238-1.7953668.201505 0 .42474.0205456.645605.1007523l-.101147 1.5938622c-.261956-.0813921-.564213-.1209028-.846715-.1209028-1.916664 0-2.763379 1.3516615-2.763379 3.5093415v4.599442h-1.573712v-7.2020127zm-6.050275 4.9629406c0 .8672601.080602 1.6140126.080602 2.2390721h-1.492715c0-.5037616-.040696-1.028859-.040696-1.5531661h-.040301c-.42395.9281066-1.593862 1.7965521-3.147028 1.7965521-2.481273 0-3.589943-1.5737117-3.589943-3.8534798v-5.8298056h1.573316v5.6666264c0 1.5748969.685511 2.5630599 2.158075 2.5630599 2.037568 0 2.924583-1.4729594 2.924583-3.6314296v-4.5982567h1.574107v7.2008273zm-18.355096 1.028859c2.036777 0 3.348137-1.5326206 3.348137-3.5093415 0-1.9775112-1.31136-3.5105268-3.348137-3.5105268-2.037568 0-3.349323 1.5330156-3.349323 3.5105268 0 1.9767209 1.311755 3.5093415 3.349323 3.5093415zm0-8.4722821c2.904432 0 5.042357 2.017417 5.042357 4.9629406 0 2.9443383-2.137925 4.9629406-5.042357 4.9629406-2.904828 0-5.043543-2.0186023-5.043543-4.9629406 0-2.9455236 2.138715-4.9629406 5.043543-4.9629406zM136.8011 39.2425958h1.574107v7.1202254h.040301c.423949-.7459622 1.553561-1.5531661 3.026125-1.5531661 2.480483 0 3.590338 1.5737117 3.590338 3.8534798v5.8290154h-1.574501v-5.6678117c0-1.5741068-.684721-2.5622697-2.158076-2.5622697-2.037172 0-2.924187 1.4729594-2.924187 3.6306394v4.599442H136.8011V39.2425958zm-13.594056 7.140771h-2.783529v4.7203448c0 1.2106082.02015 2.1782256 1.412112 2.1782256.463856 0 .967618-.1007524 1.392358-.3228026l.059661 1.4322634c-.544458.2422006-1.250119.3441383-1.835273.3441383-2.239072 0-2.60257-1.2113985-2.60257-3.1675738v-5.1845957h-2.057718v-1.3311159h2.057718v-2.6831725h1.573712v2.6831725h2.783529v1.3311159zm-18.936694-7.140771h1.573317v7.1202254h.041486c.422764-.7459622 1.552771-1.5531661 3.02573-1.5531661 2.479692 0 3.589548 1.5737117 3.589548 3.8534798v5.8290154h-1.573316v-5.6678117c0-1.5741068-.685906-2.5622697-2.158075-2.5622697-2.037568 0-2.925373 1.4729594-2.925373 3.6306394v4.599442h-1.573317V39.2425958zM93.5811219 53.1618246c2.15768 0 3.3682883-1.6144077 3.3682883-3.4299249 0-2.0375675-1.371812-3.4698308-3.3682883-3.4698308-1.977116 0-3.3287775 1.5330156-3.3287775 3.5105268 0 1.9158744 1.4923196 3.3892289 3.3287775 3.3892289zm4.9412097.9067708c0 3.4097745-1.8360628 5.2651975-5.1438996 5.2651975-1.8352726 0-3.3078368-.4840062-4.6389527-1.7953667l1.1296112-1.2912101c.9881629 1.069555 2.0573228 1.6341631 3.5093415 1.6341631 2.8250159 0 3.5709782-1.8155173 3.5709782-3.8127838v-1.209818h-.0395108c-.7471475 1.209818-2.0790536 1.755461-3.3287775 1.755461-2.965674 0-5.0222066-2.0577179-5.0222066-4.8416427 0-3.0873671 2.0158365-4.9629406 5.0222066-4.9629406 1.2698743 0 2.7025328.6056992 3.3287775 1.8566084h.0395108v-1.6140126h1.5729214v9.0163445zm-17.4676859.42395h1.5745019v-9.4402945h-1.5745019v9.4402945zm.7870534-14.281147c.6448148 0 1.1493666.5239121 1.1493666 1.1489715 0 .6657556-.4840062 1.1501569-1.1493666 1.1501569-.6665457 0-1.1501568-.4844013-1.1501568-1.1501569 0-.6250594.5041567-1.1489715 1.1501568-1.1489715zm-8.047937 8.7140876c-.0608465-1.5938621-1.110251-2.6634171-2.8447712-2.6634171-1.7337301 0-2.884282 1.069555-3.0857867 2.6634171h5.9305579zm1.3516615 3.8515043c-1.1094608 1.4330535-2.4405767 1.958546-4.1964327 1.958546-2.965279 0-4.780006-2.220107-4.780006-4.9629406 0-2.924978 2.0569277-4.9629406 4.8408525-4.9629406 2.6638122 0 4.4781441 1.8159124 4.4781441 4.942395v.5041567h-7.6247773c.1205077 1.6333729 1.3722071 3.0257304 3.0857867 3.0257304 1.3524516 0 2.2596176-.4844014 3.0063701-1.4318683l1.1900626.9269214zm-26.3425821 3.8740253c-.6258496 1.5926768-1.2509091 2.6827773-3.1474233 2.6827773-.4437053 0-.988558-.0403009-1.4121128-.2422006l.2018997-1.3718119c.3228025.1209027.6657555.1615988 1.1094608.1615988 1.0280687 0 1.4121128-.6258497 1.7554609-1.5531661l.6448149-1.7748212-3.9135361-9.501141h1.8360628l2.9253731 7.4031222h.0395108l2.8048654-7.4031222h1.7135796l-4.5579558 11.5987647zm-8.7441157-10.2676488h-2.7835297v4.7203448c0 1.2106082.0201505 2.1782256 1.4121129 2.1782256.4634607 0 .9680124-.1007524 1.3911722-.3228026l.0608465 1.4322634c-.5448527.2422006-1.2509092.3441383-1.8356677.3441383-2.238677 0-2.6021755-1.2113985-2.6021755-3.1675738v-5.1845957h-2.0577179v-1.3311159h2.0577179v-2.6831725h1.5737116v2.6831725h2.7835297v1.3311159zm-15.3495166.9067708c0-.8672601-.0809969-1.6132223-.0809969-2.2378867h1.4931098c0 .5033665.0399058 1.0284638.0399058 1.552771h.0403009c.42395-.9281066 1.5938622-1.7953668 3.1470283-1.7953668.2015046 0 .4231597.0205456.6452099.1007523l-.1007523 1.5938622c-.2619561-.0813921-.5646081-.1209028-.8467146-.1209028-1.9166646 0-2.7641694 1.3516615-2.7641694 3.5093415v4.599442h-1.5729215v-7.2020127zm-9.5809526 5.9917996c2.0375674 0 3.3485329-1.5326206 3.3485329-3.5093415 0-1.9775112-1.3109655-3.5105268-3.3485329-3.5105268-2.0371723 0-3.3485329 1.5330156-3.3485329 3.5105268 0 1.9767209 1.3113606 3.5093415 3.3485329 3.5093415zm0-8.4722821c2.9048276 0 5.0431473 2.017417 5.0431473 4.9629406 0 2.9443383-2.1383197 4.9629406-5.0431473 4.9629406-2.9044324 0-5.0427522-2.0186023-5.0427522-4.9629406 0-2.9455236 2.1383198-4.9629406 5.0427522-4.9629406zM2.0577179 46.3833668H0v-1.3311159h2.0577179v-2.1185644C2.0577179 40.6345582 2.86452663 39 5.40704096 39c.40340437 0 .90716595.0813921 1.209818.2425958l-.2220502 1.4113226c-.34295298-.1201126-.70605642-.2015046-1.06955497-.2015046-1.63376797 0-1.69382425 1.1908528-1.69382425 2.8246208v1.7752163H5.930953v1.3311159H3.63142957v8.1087835H2.0577179v-8.1087835zM98 31.5805523c-8.0527931 0-14.5804061-6.5268823-14.5804061-14.5808446 0-8.0525008 6.527613-14.58084454 14.5804061-14.58084454 8.053378 0 14.581137 6.52834373 14.581137 14.58084454 0 8.0539623-6.527759 14.5808446-14.581137 14.5808446zM98 0c-9.3891525 0-17 7.61084748-17 16.9997077 0 9.3892987 7.6108475 16.9994154 17 16.9994154 9.389591 0 17-7.6101167 17-16.9994154C115 7.61084748 107.389591 0 98 0zm5.545365 13.9619161l-.030836.1546225s-.164999.6180516-.938696 1.0825037h-.017246c-.773112-.4644521-.937526-1.0825037-.937526-1.0825037l-.032006-.1546225V8.47632434l.038728-.1454153c.323714-.65531887.915313-.6731487.915313-.6731487h.048228s.591892.01782983.915167.6731487l.038874.1454153v5.48559176zm0 10.8973796l-.038874.1452692c-.323275.6548804-.915167.6731487-.915167.6731487h-.048228s-.591599-.0182683-.915313-.6731487l-.038728-.1452692v-5.4860301l.032006-.1541841s.164414-.6192208.937526-1.0830883h.017246c.773697.4638675.938696 1.0830883.938696 1.0830883l.030836.1541841v5.4860301zm-14.3312267-5.6222382l2.8220801-5.6438679v5.6438679h-2.8220801zm17.6493267-1.2133045c-.309683-.7146541-.921158-1.0880573-1.832233-1.3531662.911075-.3663881 1.505305-1.0944877 1.780498-1.9495882.136938-.4274772.205919-1.9687333.205919-2.9875174V9.5040233c0-1.16069186-.388894-2.08185037-1.169168-2.76391395-.779981-.68206358-1.871692-1.02360688-3.274548-1.02360688-1.437931 0-2.54338.3415433-3.3134234 1.02360688-.7707742.68206358-1.1564536 1.6032221-1.1564536 2.76391396v2.2294579c0 1.3034766.1547686 3.2768866.4648905 3.8166039.3090989.5394251.8163718.9524338 1.5219645 1.2374186-.7228379.204166-1.252325.5457093-1.587584 1.0263836-.2750469.3924021-.4366844.7397913-.4863741 1.4231702h-2.4193016V6.26937296h-2.7555836L84.8635168 21.7061949h7.1727016v5.3255618h3.5614329v-5.3255618H98v1.7468836c0 1.387949.3506044 2.4144788 1.0526899 3.0775434.7020856.6642338 1.8658461.9961314 3.4955211.9961314 1.610676 0 2.77619-.336282 3.495959-1.0110383.717578-.6738794 1.077389-1.6948557 1.077389-3.0626365v-4.0597909c0-.8171025-.085641-.9619333-.258094-1.3695346z"/>
</svg>
