<svg xmlns="http://www.w3.org/2000/svg" width="86" height="53" viewBox="0 0 86 53">
  <path fill="#F5F5F5" fill-rule="evenodd" d="M153.96108,78.4054563 C153.96108,80.7391629 152.837644,81.4378071 149.79838,81.4385647 L146.371065,81.4389434 C143.734342,81.4393222 142.610242,80.7269475 142.609769,78.7702134 C142.609769,78.5467381 142.623689,78.294855 142.637608,78.0014964 L143.844943,78.0014964 C143.830928,78.2667312 143.817198,78.4627455 143.817198,78.6020388 C143.817198,79.9857862 144.691403,80.307458 146.772942,80.307458 L149.409571,80.3063216 C151.865526,80.3059429 152.711986,80.0408027 152.711986,78.335573 C152.711702,76.8962408 152.073472,76.6588457 150.491248,76.6590351 L146.231299,76.6596033 C143.608589,76.6602661 142.581645,75.9612431 142.581645,73.8654051 C142.581361,71.6012978 143.871078,71.0283111 146.924261,71.0279323 L149.214125,71.0273642 C151.073231,71.0271748 152.294391,71.0689343 153.016708,71.6700449 C153.502293,72.0891557 153.696603,72.7453775 153.696603,73.6817009 L153.696603,73.9756277 L152.489174,73.9758171 L152.489174,73.8217517 C152.489174,72.3545799 151.864864,72.1170901 149.99127,72.1176582 L146.55013,72.118037 C144.565556,72.1183211 143.885566,72.4398035 143.885566,73.8093469 C143.886229,75.3042638 144.691024,75.5280231 146.633933,75.5276443 L150.255463,75.5269815 C151.518288,75.5269815 152.420332,75.5825662 153.003167,75.9321724 C153.766486,76.392664 153.960607,77.1478399 153.96108,78.4054563 L153.96108,78.4054563 Z M140.986732,80.1820845 L140.986922,81.3139488 L131.051364,81.3152745 L131.050133,71.1560518 L140.985217,71.154442 L140.985691,72.2859275 L132.271198,72.2878214 L132.271576,75.4740481 L140.62529,75.4727224 L140.62529,76.6047761 L132.271576,76.605723 L132.27205,80.1831262 L140.986732,80.1820845 Z M118.213752,71.1577563 L129.453894,71.1562412 L129.453894,72.2881055 L124.45856,72.288863 L124.459791,81.3165055 L123.210886,81.3165055 L123.209655,72.2890524 L118.214131,72.2899993 L118.213752,71.1577563 Z M116.714953,71.1581351 L116.715995,77.6700712 C116.716468,79.1651775 116.452748,80.1434498 115.787152,80.7304511 C115.079228,81.3594014 114.010618,81.4437728 112.429152,81.4439622 L109.348508,81.4441515 C107.794219,81.4445303 106.725515,81.3607271 105.99013,80.7320609 C105.282395,80.1312345 105.046231,79.1810859 105.046041,77.7414697 L105.045094,71.1595554 L106.335664,71.1592714 L106.336422,77.3919582 C106.336516,77.5178997 106.336516,77.629448 106.336516,77.7410909 C106.336895,78.4955093 106.35072,79.0690642 106.68366,79.5439491 C107.072469,80.1169358 107.752459,80.2845423 108.807054,80.2845423 L112.956213,80.2837847 C114.010618,80.2837847 114.690798,80.1157048 115.079228,79.5429075 C115.411884,79.0671703 115.425804,78.4945623 115.425804,77.7400493 L115.425804,77.3908219 L115.425141,71.1583244 L116.714953,71.1581351 Z M102.644535,71.1599342 L102.64605,81.319441 L100.814216,81.3196304 L91.5574163,72.1815759 L91.5586473,81.3207667 L90.3097426,81.3213349 L90.3083222,71.1618281 L92.2788815,71.1614493 L101.397145,80.1594529 L101.395725,71.160313 L102.644535,71.1599342 Z M87.7411976,71.1618281 L87.7427127,81.3213349 L86.493808,81.3217136 L86.4922929,71.1622069 L87.7411976,71.1618281 Z M83.9943889,71.162775 L83.9959039,81.3220924 L82.774839,81.3224712 L82.773608,72.3787266 L76.5719804,81.323134 L75.6284603,81.323134 L69.4243708,72.3806204 L69.4256965,81.3238916 L68.2044421,81.3240809 L68.2030217,71.1647636 L70.0070162,71.1643848 L76.0723807,79.9956342 L82.1349043,71.1629644 L83.9943889,71.162775 Z M153.998768,42.890694 L153.999999,53.1752901 C154.001041,58.6231621 153.04076,62.187403 150.664915,64.3258528 C148.035767,66.6685552 144.092375,66.9231844 138.278705,66.9243207 L127.661737,66.9258358 C122.100233,66.9268774 118.308256,66.6217769 115.679297,64.3309662 C113.150902,62.1421398 112.290901,58.6798832 112.290427,53.4357903 L112.288723,43.3546892 C112.288249,37.7033221 113.096074,33.9864363 115.624185,31.7460023 C118.201821,29.4543393 121.993704,29.1484813 127.605773,29.147629 L138.677646,29.1460193 C144.289337,29.145167 148.131596,29.4499835 150.659991,31.7409835 C152.986028,33.8280151 153.997916,37.442822 153.998768,42.890694 Z M148.237463,60.2533004 C149.450384,58.4707066 149.501234,56.1798012 149.500571,53.0232133 C149.500382,52.8196236 149.500382,52.5648996 149.500382,52.3103651 L149.499246,43.8078894 C149.498583,40.2946881 149.498583,37.7999089 148.234148,35.8653329 C146.868298,33.7780173 144.441508,33.1164926 140.599533,33.1169661 L125.634456,33.1192387 C121.792008,33.1196175 119.415784,33.7818997 118.000788,35.8695941 C116.787582,37.6518092 116.737395,39.9938487 116.737869,43.0996812 L116.737869,43.8124347 L116.739194,52.3150051 L116.739194,53.0278532 C116.739668,56.1337804 116.790802,58.4757253 118.004292,60.257751 C119.42014,62.3446879 121.84693,62.9555518 125.638717,62.9549836 L140.603889,62.9530898 C144.446243,62.9522375 146.822088,62.3408055 148.237463,60.2533004 Z M96.4139311,44.2734944 C105.514203,44.2722634 108.042693,47.1231826 108.043829,54.9129048 C108.044587,59.8008578 107.690909,62.6014003 104.455536,64.7911737 C102.180729,66.3187596 98.4899783,66.9301917 93.2320602,66.9305704 L83.5756569,66.9324643 C78.2166067,66.9328431 74.2730261,66.7295374 71.1887836,64.4392002 C68.0539751,62.0977288 68.0027462,58.6355669 68.0019887,53.3912846 L68.0000002,39.1353629 C67.9990532,32.0582048 72.3463097,29.0028436 81.396205,29.0014232 L91.4065705,29.0000028 C96.9677899,28.9992453 100.911371,29.1513221 103.338444,30.3220104 C106.068725,31.5944936 107.535234,33.9363438 107.535518,36.8383972 L107.535991,39.9443243 L103.086845,39.9448925 C103.137317,39.4865789 103.137317,39.0793047 103.137317,38.6720305 C103.136559,33.7332275 100.355902,33.0718923 92.7217602,33.0729339 L81.5484712,33.0745437 C74.4705555,33.0755853 72.802256,35.0615795 72.8031082,40.4073726 L72.8043392,48.9102271 C74.1183926,44.9894675 76.696691,44.2763352 81.802911,44.2755777 L96.4139311,44.2734944 Z M101.674217,61.2268382 C103.190913,60.0051104 103.392893,57.9176053 103.392325,54.5569542 C103.391946,51.2479108 102.886096,49.8222144 100.358175,49.0080449 C99.5492131,48.7536997 96.5661026,48.2955755 91.8137499,48.2964277 L83.7246088,48.2976587 C78.9722561,48.2982269 75.9894297,48.6042743 74.6245262,49.6736413 C73.10783,50.8957479 72.9060394,53.034103 72.9066076,56.343904 C72.9071757,59.6020974 73.4127411,61.0785491 75.9406628,61.8930027 C76.7496243,62.1471585 79.7326401,62.6050934 84.4849928,62.6039571 L92.5742286,62.6028207 C97.3264866,62.602442 100.309502,62.2963945 101.674217,61.2268382 Z" transform="translate(-68 -29)"/>
</svg>
