<svg xmlns="http://www.w3.org/2000/svg" width="146" height="39">
  <path fill="#F1F1F2" fill-rule="evenodd" d="M133.216486 16.3013514c.955629 1.6165772 2.512026 2.4386069 4.423892 2.4386069 2.429854 0 4.341111-1.4797757 4.341111-3.808453 0-5.4250301-9.967147-2.2462299-9.967147-9.6164048C132.014342 1.8626975 134.964009 0 138.213147 0c2.102992 0 3.959468.7121001 5.269958 2.4386069l-1.555788 1.123115c-.901456-1.2605271-2.102992-1.9182731-3.768952-1.9182731-2.320291 0-4.34172 1.206173-4.34172 3.6716517 0 5.8354343 9.967148 2.3286772 9.967148 9.6164048 0 3.5067571-2.867495 5.4525126-6.007679 5.4525126-2.539416 0-4.778144-.8226405-6.27976-2.9320691l1.720132-1.1505974zm-6.252978 3.5892044h1.802304V.4934622h-1.802304v19.3970936zM108.613.4934622h1.802304v8.547644h10.813214V.4934622h1.802304v19.3970936h-1.802304v-9.20539h-10.813214v9.20539H108.613V.4934622zM98.591679 2.136911h-6.607838V.4934622h15.017981V2.136911h-6.607839v17.7536448h-1.802304V2.136911zM74.670524 15.8359824c.928847 1.4242002 2.539417 2.0819462 4.096422 2.0819462 1.720132 0 3.849906-1.0956326 3.849906-3.2325436 0-4.466199-9.530115-1.6990244-9.530115-9.2609656C73.086737 3.150707 74.998603 0 79.640403 0c2.102992 0 4.123204.4384973 5.570647 2.2193583L83.081276 4.164503c-.65555-1.013796-1.939257-1.6990244-3.440873-1.6990244-2.894277 0-3.768343 1.7533786-3.768343 2.9589408 0 4.9046963 9.529507 1.9726272 9.529507 8.9592697 0 3.7534881-3.002623 6.0003288-6.716793 6.0003288-2.484635 0-4.860316-.8495122-6.171414-2.685338l2.157164-1.8626975zm-13.789663 1.7533785h3.849906c1.583788 0 4.177985-.548427 4.177985-3.2881191 0-2.3011948-1.611178-3.4517922-4.150594-3.4517922h-3.877297v6.7399113zm0-9.0411062h3.577217c1.99343 0 3.604608-.795158 3.604608-2.9045866 0-1.5341299-.956238-2.8490111-3.058621-2.8490111h-4.123204v5.7535977zM58.259882.4934622h6.716792c3.358701 0 5.870726 1.5610015 5.870726 4.8491207 0 2.2187475-1.365271 3.6166867-3.33131 4.273822v.0549648c2.321509.1642838 4.177985 2.2193583 4.177985 4.8222491 0 3.4792746-3.03123 5.396937-6.799573 5.396937h-6.63462V.4934622zm-4.397719 4.1913747c-1.091973-1.4248109-2.894277-2.2193583-4.66919-2.2193583-4.34172 0-7.208607 3.4798854-7.208607 7.8905088 0 4.0826665 2.703151 7.5619412 7.208607 7.5619412 2.211946 0 3.904687-.9863136 5.051442-2.6028908l2.211946 1.671542c-.573378.7945474-2.894278 3.3974381-7.317561 3.3974381-6.144024 0-9.939757-5.1514273-9.939757-10.0280305C39.199043 4.3287869 43.322246 0 49.275145 0c2.539416 0 5.215177.9588312 6.771573 3.0139056l-2.184555 1.6709313zM146 37.3815907C144.018135 38.4454658 141.75993 39 139.248513 39c-5.023443 0-8.618312-3.4218669-8.618312-8.5305439 0-5.2485319 3.594869-8.6710095 8.618312-8.6710095 2.488287 0 4.723971.5325482 6.428886 2.058128l-2.143165 2.1729436c-1.036583-1.0174604-2.626457-1.5945913-4.2632-1.5945913-3.36357 0-5.599255 2.5888442-5.599255 5.8488702 0 3.4914891 2.235685 6.0803332 5.599255 6.0803332 1.475442 0 2.811496-.2766563 3.825559-.8550086V31.647536h-3.341049v-2.635259H146v8.3693137zM114.313296 22.214958h3.848688l7.90372 12.1606664.045651.0464148h-.045651l.045651-.0464148V22.214958h2.904016v16.3691413h-3.687388l-8.06502-12.5545811h-.045651v12.5545811h-2.904016V22.214958zm-5.323523 16.3691413h2.903408V22.214958h-2.903408v16.3691413zM91.866365 22.214958h3.84808l7.90372 12.1606664.045651.0464148h-.045651l.045651-.0464148V22.214958h2.904016v16.3691413h-3.687388l-8.06502-12.5545811h-.045651v12.5545811h-2.903408V22.214958zm-8.205017 6.9365633c1.635526 0 3.548609-.1392443 3.548609-2.2663837 0-1.9420912-1.797434-2.1735543-3.295397-2.1735543h-2.511417v4.439938h2.258205zm-5.162221-6.9365633h5.669252c3.133489 0 6.083156 1.0174603 6.083156 4.6939977 0 2.3579918-1.359184 4.0918273-3.77869 4.4381058l4.331981 7.2370378h-3.502958l-3.77869-6.9365633h-2.120035v6.9365633h-2.904016V22.214958zM68.219725 36.3641303c3.387309 0 5.622994-2.5888441 5.622994-6.0803332 0-3.260026-2.235685-5.8488702-5.622994-5.8488702-3.364178 0-5.599254 2.5888442-5.599254 5.8488702 0 3.4914891 2.235076 6.0803332 5.599254 6.0803332zm-.023129-14.5656837c5.092832-.0922188 8.6877 3.3296481 8.6877 8.5775693 0 5.1105091-3.594868 8.5311546-8.6877 8.6239841-5.022834 0-8.617703-3.4218669-8.617703-8.5305439 0-5.2485319 3.594869-8.6710095 8.617703-8.6710095zm-27.861755.4165114h4.424501l4.355111 11.4674987 4.400762-11.4674987h4.378241v16.3691413h-2.765237V24.9894612h-.045651l-4.954662 13.5946381h-2.027515l-4.954662-13.5946381h-.045651v13.5946381h-2.765237V22.214958zM18.457028 11.1688564c4.848751 0 8.774133 3.948308 8.774133 8.8114753 0 4.8601137-3.925382 8.7943751-8.774133 8.7943751-4.844491 0-8.777786-3.9342614-8.777786-8.7943751 0-4.8631673 3.933295-8.8114753 8.777786-8.8114753zm-.113215 19.0086753c-7.19339 0-13.42202-4.1577851-16.427686-10.2075823C4.921793 13.9219844 11.150423 9.76481 18.343813 9.76481c7.195216 0 13.420194 4.1571744 16.425251 10.2051394-3.005057 6.0497972-9.230035 10.2075823-16.425251 10.2075823zm.001826-28.6953131C8.211713 1.4822186 0 9.7238917 0 19.8887236c0 10.1678855 8.211713 18.4101693 18.345639 18.4101693 10.130883 0 18.346856-8.2422838 18.346856-18.4101693 0-10.1648319-8.215973-18.406505-18.346856-18.406505z"/>
</svg>
