<svg xmlns="http://www.w3.org/2000/svg">
	
	<symbol id="authorBoxCaret" viewBox="0 0 36 12">
		<path fill-rule="evenodd" d="M36 12C27 12 23 0 18 0S9 12 0 12h36Z"/>
	</symbol>
	
	<symbol id="authorBoxNotch" viewBox="0 0 16 8">
		<path fill-rule="evenodd" d="m0 8 6.586-6.586a2 2 0 0 1 2.828 0L16 8H0Z"/>
	</symbol>
	
	<symbol id="iconClose" viewBox="0 0 24 24">
		<path fill-rule="evenodd" d="M3.235.555 12 9.32 20.765.555a1.895 1.895 0 1 1 2.68 2.68L14.68 12l8.765 8.765a1.895 1.895 0 1 1-2.68 2.68L12 14.68l-8.765 8.765a1.895 1.895 0 1 1-2.68-2.68L9.32 12 .555 3.235a1.895 1.895 0 0 1 2.68-2.68Z"/>
	</symbol>
	
	<symbol id="iconCloseAvia" viewBox="0 0 24 24">
		<path fill-rule="evenodd" d="M3.605 0 0 3.605 8.395 12 0 20.395 3.605 24 12 15.605 20.395 24 24 20.395 15.605 12 24 3.605 20.395 0 12 8.395 3.605 0Z"/>
	</symbol>
	
	<symbol id="iconFacebook" viewBox="0 0 24 24">
		<path fill-rule="evenodd" d="M13.85 24V13.053h3.674l.55-4.267H13.85V6.062c0-1.235.343-2.077 2.114-2.077l2.26-.001V.168C17.831.116 16.49 0 14.93 0c-3.257 0-5.487 1.988-5.487 5.64v3.146H5.76v4.267h3.684V24h4.406Z"/>
	</symbol>
	
	<symbol id="iconFlipbook" viewBox="0 0 24 24">
		<path fill-rule="evenodd" d="M24 8h-8v8H8v8H0V0h24v8Z"/>
	</symbol>
	
	<symbol id="iconLink" viewBox="0 0 100 100">
		<path fill-rule="evenodd" d="m26.6544118 0c4.7181372 0 9.1911764 1.83823529 12.5 5.20833333l12.622549 12.68382357c3.3088235 3.3088235 5.0857843 7.7818627 5.0857843 12.4387255 0 4.8406862-1.9607843 9.4362745-5.3921569 12.8063725l5.3921569 5.3921569c3.370098-3.4313726 7.9044118-5.3921569 12.745098-5.3921569 4.6568628 0 9.1911765 1.8382353 12.5 5.1470588l12.7450981 12.7450981c3.370098 3.370098 5.1470588 7.7818627 5.1470588 12.5 0 4.6568627-1.8995098 9.1911764-5.2083333 12.4387255l-9.007353 8.9460784c-3.3088235 3.3088235-7.7818627 5.0857843-12.4387255 5.0857843-4.7181372 0-9.1911764-1.8382353-12.5-5.2083333l-12.622549-12.6838236c-3.3088235-3.3088235-5.0857843-7.7818627-5.0857843-12.4387255 0-4.8406862 1.9607843-9.4362745 5.3921569-12.8063725l-5.3921569-5.3921569c-3.370098 3.4313726-7.9044118 5.3921569-12.745098 5.3921569-4.6568628 0-9.1911765-1.8382353-12.5-5.1470588l-12.74509808-12.7450981c-3.37009804-3.370098-5.14705882-7.7818627-5.14705882-12.5 0-4.6568627 1.8995098-9.1911764 5.20833333-12.4387255l9.00735297-8.94607839c3.3088235-3.30882353 7.7818627-5.08578431 12.4387255-5.08578431zm42.9534313 54.9019608c-1.7769607 0-3.1862745.6740196-4.4117647 1.9607843 2.0220589 2.0220588 4.4117647 3.7377451 4.4117647 6.8627451 0 3.247549-2.6348039 5.8823529-5.8823529 5.8823529-3.125 0-4.8406863-2.3897058-6.8627451-4.4117647-1.2867647 1.2254902-2.0220588 2.634804-2.0220588 4.4730392 0 1.5318628.6127451 3.0637255 1.7156862 4.1666667l12.6225491 12.6838235c1.1029411 1.1029412 2.6348039 1.6544118 4.1666666 1.6544118 1.5318628 0 3.0637255-.5514706 4.1666667-1.5931372l9.0073529-8.9460785c1.1029412-1.1029412 1.7156863-2.5735294 1.7156863-4.1053921 0-1.5931373-.6127451-3.0637255-1.7156863-4.1666667l-12.745098-12.745098c-1.1029412-1.1029412-2.6348039-1.7156863-4.1666667-1.7156863zm-42.9534313-43.1372549c-1.5318628 0-3.0637255.6127451-4.1666667 1.6544117l-9.0073529 8.9460785c-1.1029412 1.1029412-1.7156863 2.5735294-1.7156863 4.1053921 0 1.5931373.6127451 3.0637255 1.7156863 4.1666667l12.745098 12.745098c1.1029412 1.1029412 2.6348039 1.6544118 4.1666667 1.6544118 1.7769607 0 3.1862745-.6127451 4.4117647-1.8995098-2.0220589-2.0220588-4.4117647-3.7377451-4.4117647-6.8627451 0-3.247549 2.6348039-5.8823529 5.8823529-5.8823529 3.125 0 4.8406863 2.3897058 6.8627451 4.4117647 1.2867647-1.2254902 2.0220588-2.634804 2.0220588-4.4730392 0-1.5318628-.6127451-3.0637255-1.7156862-4.1666667l-12.6225491-12.6838235c-1.1029411-1.1029412-2.6348039-1.7156863-4.1666666-1.7156863z"/>
	</symbol>

	<symbol id="iconOpenweb" viewBox="0 0 24 24">
		<path fill-rule="evenodd" d="M12.602 18.466c-.792 0-1.46-.14-2.004-.417a2.78 2.78 0 0 1-1.234-1.222c-.278-.537-.418-1.192-.418-1.965v-4.587c0-.784.14-1.446.418-1.987a2.8 2.8 0 0 1 1.234-1.232c.544-.28 1.212-.42 2.004-.42h7.742c.793 0 1.46.14 2.004.42.544.28.955.69 1.234 1.232.279.54.418 1.203.418 1.987v4.579c0 1.164-.31 2.058-.929 2.68-.619.62-1.518.932-2.697.932h-.166v2.01c0 .312-.078.564-.236.755-.157.19-.38.285-.67.285-.204 0-.392-.054-.562-.163a6.06 6.06 0 0 1-.633-.49l-2.795-2.397h-2.71ZM0 12.696V6.318c0-.81.149-1.501.447-2.074a3.022 3.022 0 0 1 1.302-1.31c.57-.3 1.266-.45 2.086-.45h10.597c1.053 0 1.897.246 2.531.74.634.492 1.032 1.19 1.194 2.092v.143h-5.555c-1.015 0-1.881.194-2.6.582A3.96 3.96 0 0 0 8.35 7.703c-.381.719-.572 1.577-.572 2.572v4.587c0 .94.18 1.765.54 2.475l-2.023 1.779c-.199.18-.412.345-.637.492-.172.107-.361.16-.567.16-.293 0-.519-.095-.676-.285-.157-.19-.236-.445-.236-.764v-2.188h-.372c-.805 0-1.49-.15-2.058-.45-.566-.301-1-.737-1.3-1.307C.15 14.204 0 13.51 0 12.696Z"/>
	</symbol>
	
	<symbol id="iconReddit" viewBox="0 0 100 100">
		<path fill-rule="evenodd" d="m49.6979293 91.6715137c-24.6073081 0-44.61897426-13.3536103-44.61897426-29.7570935 0-1.1457856.09582934-2.2665722.28332153-3.3706929-3.304029-2.054081-5.36227657-5.6747635-5.36227657-9.6412649 0-6.2330736 5.11228699-11.3036957 11.3536936-11.3036957 2.8082163 0 5.4289405 1.0249573 7.487188 2.8415483 7.7330112-4.9622933 18.1534103-8.087163 29.6320987-8.2996542l7.5496854-23.01570767 1.6832632.39581684s.0666639 0 .0666639.00833298l17.5951002 4.13732765c1.4332736-3.3248615 4.7414691-5.6664306 8.6038082-5.6664306 5.12062 0 9.295446 4.183159 9.295446 9.3079455 0 5.1331195-4.1789925 9.3079455-9.295446 9.3079455s-9.2912795-4.183159-9.2912795-9.2912795l-16.0451648-3.7998417-6.1122454 18.6533894c11.0412067.4374818 21.0282905 3.5581851 28.5154786 8.4204825 2.0582475-1.9332528 4.766468-2.9957085 7.6371818-2.9957085 6.2414066 0 11.3245281 5.0539561 11.3245281 11.2953627 0 4.1123287-2.2499063 7.8580059-5.7414274 9.8537561.1208283 1.0624557.2458231 2.0582476.2458231 3.1207033-.0624974 16.4076497-20.0241657 29.7612599-44.6648057 29.7612599zm.2041581-10.6328903c-7.4746885 0-12.7369693-1.6207658-16.0951627-4.9872922-.7208033-.7249698-.7208033-1.9040873 0-2.6332236.7333028-.6874714 1.9165868-.6874714 2.6457231 0 2.6248906 2.6207241 7.0205408 3.9290029 13.4494396 3.9290029 6.4247323 0 10.7953835-1.2499479 13.4119412-3.870672.6874713-.6833049 1.8749219-.6833049 2.6207241 0 .6874714.7499687.6874714 1.9374193 0 2.687388-3.3706929 3.3665264-8.6038082 4.9914587-16.0909962 4.9914587zm-15.024374-31.552852c-3.8081746 0-6.9872088 3.1873672-6.9872088 6.9872089 0 3.7915087 3.1790342 6.8747135 6.9872088 6.8747135 3.8081747 0 6.8788801-3.0832048 6.8788801-6.8747135 0-3.7998417-3.0790384-6.9872089-6.8788801-6.9872089zm30.1362444 0c-3.8081747 0-6.9913754 3.1873672-6.9913754 6.9872089 0 3.7915087 3.1832007 6.8747135 6.9913754 6.8747135 3.8081746 0 6.87888-3.0832048 6.87888-6.8747135 0-3.7998417-3.0790384-6.9872089-6.87888-6.9872089zm18.9492104-6.6455564c4.3206533 3.4706887 7.4996875 7.5871839 9.1204533 12.0994958 1.8749219-1.3999416 2.9957085-3.59985 2.9957085-6.0372484 0-4.1748261-3.3956918-7.5663514-7.5746844-7.5663514-1.6624307 0-3.2415316.5374776-4.5414774 1.512437zm-72.6678055-1.495771c-4.17899255 0-7.5705179 3.3998583-7.5705179 7.5746844 0 2.2624057.99579184 4.3664847 2.68322153 5.7872588 1.67076372-4.495646 4.88312987-8.5538102 9.22044917-11.982834-1.2582809-.8749636-2.7623849-1.3707762-4.3289863-1.3707762v-.008333zm72.4803133-29.6154327c-3.0832049 0-5.5831007 2.4957293-5.5831007 5.5747677 0 3.0748719 2.4998958 5.5831007 5.5831007 5.5831007 3.0498729 0 5.5414358-2.4998958 5.5414358-5.5581017 0-3.0540394-2.4915629-5.5497688-5.6122662-5.5497688z"/>
	</symbol>
	
	<symbol id="iconTwitter" viewBox="0 0 100 100">
		<path fill-rule="evenodd" d="m89.824 32.2519381c0-.888 0-1.772-.06-2.652 4.0153255-2.9043566 7.4814219-6.5004825 10.236-10.62-3.7444838 1.6592071-7.7166829 2.7473146-11.784 3.228 4.282976-2.5640718 7.4884941-6.5969121 9.02-11.348-4.02737 2.3898212-8.4334156 4.074048-13.028 4.98-6.3596689-6.76242292-16.4651226-8.4175497-24.6498029-4.0372803-8.1846803 4.3802693-12.4130971 13.7065832-10.3141971 22.7492803-16.4964171-.8270019-31.8660969-8.618707-42.284-21.436-5.44550897 9.3745789-2.66404846 21.3674379 6.352 27.388-3.2650352-.0967698-6.45888251-.9775473-9.312-2.568v.26c.00267253 9.7663719 6.887006 18.1781406 16.46 20.112-3.0205216.8237602-6.1896777.9441771-9.264.352 2.6877917 8.3576913 10.3902982 14.0831354 19.168 14.248-7.2650598 5.7097277-16.239762 8.8093109-25.48 8.8-1.63238572-.0031338-3.26318374-.1019701-4.884-.296 9.3825438 6.0211062 20.2996536 9.2148677 31.448 9.2 37.736.016 58.376-31.248 58.376-58.36z"/>
	</symbol>
	
	<symbol id="iconX" viewBox="0 0 24 24">
		<path fill-rule="evenodd" d="M14.216 10.162 22.96 0h-2.072l-7.59 8.824L7.232 0H.24L9.41 13.343.24 24h2.072l8.016-9.318L16.731 24h6.993l-9.508-13.838Zm-2.837 3.299-.93-1.329L3.06 1.56H6.24l5.965 8.532.928 1.329 7.754 11.09h-3.182l-6.327-9.05Z"/>
	</symbol>

</svg>
