<svg xmlns="http://www.w3.org/2000/svg" width="32" height="52" viewBox="0 0 32 52">
  <path fill="#F5F5F5" fill-rule="evenodd" d="M12,17 C11.4477152,17 11,16.5522847 11,16 C11,15.4477152 11.4477152,15 12,15 C12.5522848,15 13,15.4477152 13,16 C13,16.5522847 12.5522848,17 12,17 Z M12,21 C11.4477152,21 11,20.5522847 11,20 C11,19.4477153 11.4477152,19 12,19 C12.5522848,19 13,19.4477153 13,20 C13,20.5522847 12.5522848,21 12,21 Z M12,25 C11.4477152,25 11,24.5522847 11,24 C11,23.4477153 11.4477152,23 12,23 C12.5522848,23 13,23.4477153 13,24 C13,24.5522847 12.5522848,25 12,25 Z M12,29 C11.4477152,29 11,28.5522847 11,28 C11,27.4477153 11.4477152,27 12,27 C12.5522848,27 13,27.4477153 13,28 C13,28.5522847 12.5522848,29 12,29 Z M16,17 C15.4477153,17 15,16.5522847 15,16 C15,15.4477152 15.4477153,15 16,15 C16.5522847,15 17,15.4477152 17,16 C17,16.5522847 16.5522847,17 16,17 Z M16,21 C15.4477153,21 15,20.5522847 15,20 C15,19.4477153 15.4477153,19 16,19 C16.5522847,19 17,19.4477153 17,20 C17,20.5522847 16.5522847,21 16,21 Z M16,25 C15.4477153,25 15,24.5522847 15,24 C15,23.4477153 15.4477153,23 16,23 C16.5522847,23 17,23.4477153 17,24 C17,24.5522847 16.5522847,25 16,25 Z M16,29 C15.4477153,29 15,28.5522847 15,28 C15,27.4477153 15.4477153,27 16,27 C16.5522847,27 17,27.4477153 17,28 C17,28.5522847 16.5522847,29 16,29 Z M20,17 C19.4477153,17 19,16.5522847 19,16 C19,15.4477152 19.4477153,15 20,15 C20.5522847,15 21,15.4477152 21,16 C21,16.5522847 20.5522847,17 20,17 Z M12,13 C11.4477152,13 11,12.5522848 11,12 C11,11.4477152 11.4477152,11 12,11 C12.5522848,11 13,11.4477152 13,12 C13,12.5522848 12.5522848,13 12,13 Z M16,13 C15.4477153,13 15,12.5522848 15,12 C15,11.4477152 15.4477153,11 16,11 C16.5522847,11 17,11.4477152 17,12 C17,12.5522848 16.5522847,13 16,13 Z M20,13 C19.4477153,13 19,12.5522848 19,12 C19,11.4477152 19.4477153,11 20,11 C20.5522847,11 21,11.4477152 21,12 C21,12.5522848 20.5522847,13 20,13 Z M20,21 C19.4477153,21 19,20.5522847 19,20 C19,19.4477153 19.4477153,19 20,19 C20.5522847,19 21,19.4477153 21,20 C21,20.5522847 20.5522847,21 20,21 Z M20,25 C19.4477153,25 19,24.5522847 19,24 C19,23.4477153 19.4477153,23 20,23 C20.5522847,23 21,23.4477153 21,24 C21,24.5522847 20.5522847,25 20,25 Z M20,29 C19.4477153,29 19,28.5522847 19,28 C19,27.4477153 19.4477153,27 20,27 C20.5522847,27 21,27.4477153 21,28 C21,28.5522847 20.5522847,29 20,29 Z M12,33 C11.4477152,33 11,32.5522847 11,32 C11,31.4477153 11.4477152,31 12,31 C12.5522848,31 13,31.4477153 13,32 C13,32.5522847 12.5522848,33 12,33 Z M16,33 C15.4477153,33 15,32.5522847 15,32 C15,31.4477153 15.4477153,31 16,31 C16.5522847,31 17,31.4477153 17,32 C17,32.5522847 16.5522847,33 16,33 Z M20,33 C19.4477153,33 19,32.5522847 19,32 C19,31.4477153 19.4477153,31 20,31 C20.5522847,31 21,31.4477153 21,32 C21,32.5522847 20.5522847,33 20,33 Z M12,37 C11.4477152,37 11,36.5522847 11,36 C11,35.4477153 11.4477152,35 12,35 C12.5522848,35 13,35.4477153 13,36 C13,36.5522847 12.5522848,37 12,37 Z M16,37 C15.4477153,37 15,36.5522847 15,36 C15,35.4477153 15.4477153,35 16,35 C16.5522847,35 17,35.4477153 17,36 C17,36.5522847 16.5522847,37 16,37 Z M20,37 C19.4477153,37 19,36.5522847 19,36 C19,35.4477153 19.4477153,35 20,35 C20.5522847,35 21,35.4477153 21,36 C21,36.5522847 20.5522847,37 20,37 Z M12,41 C11.4477152,41 11,40.5522847 11,40 C11,39.4477153 11.4477152,39 12,39 C12.5522848,39 13,39.4477153 13,40 C13,40.5522847 12.5522848,41 12,41 Z M16,41 C15.4477153,41 15,40.5522847 15,40 C15,39.4477153 15.4477153,39 16,39 C16.5522847,39 17,39.4477153 17,40 C17,40.5522847 16.5522847,41 16,41 Z M20,41 C19.4477153,41 19,40.5522847 19,40 C19,39.4477153 19.4477153,39 20,39 C20.5522847,39 21,39.4477153 21,40 C21,40.5522847 20.5522847,41 20,41 Z"/>
</svg>
