<svg xmlns="http://www.w3.org/2000/svg" width="24" height="24" viewBox="0 0 24 24">
  <path fill="#F5F5F5" fill-rule="evenodd" d="M20,12 C20,11.8482143 19.9375,11.7053571 19.8303571,11.5982143 L17.5446429,9.3125 C17.4375,9.20535714 17.2946429,9.14285714 17.1428571,9.14285714 C16.8303571,9.14285714 16.5714286,9.40178571 16.5714286,9.71428571 L16.5714286,10.8571429 L13.1428571,10.8571429 L13.1428571,7.42857143 L14.2857143,7.42857143 C14.5982143,7.42857143 14.8571429,7.16964286 14.8571429,6.85714286 C14.8571429,6.70535714 14.7946429,6.5625 14.6875,6.45535714 L12.4017857,4.16964286 C12.2946429,4.0625 12.1517857,4 12,4 C11.8482143,4 11.7053571,4.0625 11.5982143,4.16964286 L9.3125,6.45535714 C9.20535714,6.5625 9.14285714,6.70535714 9.14285714,6.85714286 C9.14285714,7.16964286 9.40178571,7.42857143 9.71428571,7.42857143 L10.8571429,7.42857143 L10.8571429,10.8571429 L7.42857143,10.8571429 L7.42857143,9.71428571 C7.42857143,9.40178571 7.16964286,9.14285714 6.85714286,9.14285714 C6.70535714,9.14285714 6.5625,9.20535714 6.45535714,9.3125 L4.16964286,11.5982143 C4.0625,11.7053571 4,11.8482143 4,12 C4,12.1517857 4.0625,12.2946429 4.16964286,12.4017857 L6.45535714,14.6875 C6.5625,14.7946429 6.70535714,14.8571429 6.85714286,14.8571429 C7.16964286,14.8571429 7.42857143,14.5982143 7.42857143,14.2857143 L7.42857143,13.1428571 L10.8571429,13.1428571 L10.8571429,16.5714286 L9.71428571,16.5714286 C9.40178571,16.5714286 9.14285714,16.8303571 9.14285714,17.1428571 C9.14285714,17.2946429 9.20535714,17.4375 9.3125,17.5446429 L11.5982143,19.8303571 C11.7053571,19.9375 11.8482143,20 12,20 C12.1517857,20 12.2946429,19.9375 12.4017857,19.8303571 L14.6875,17.5446429 C14.7946429,17.4375 14.8571429,17.2946429 14.8571429,17.1428571 C14.8571429,16.8303571 14.5982143,16.5714286 14.2857143,16.5714286 L13.1428571,16.5714286 L13.1428571,13.1428571 L16.5714286,13.1428571 L16.5714286,14.2857143 C16.5714286,14.5982143 16.8303571,14.8571429 17.1428571,14.8571429 C17.2946429,14.8571429 17.4375,14.7946429 17.5446429,14.6875 L19.8303571,12.4017857 C19.9375,12.2946429 20,12.1517857 20,12 Z"/>
</svg>
