<svg xmlns="http://www.w3.org/2000/svg" width="28" height="28" viewBox="0 0 28 28">
  <path fill="#F5F5F5" fill-rule="evenodd" d="M10,13 C9.44771525,13 9,12.5522848 9,12 C9,11.4477152 9.44771525,11 10,11 C10.5522848,11 11,11.4477152 11,12 C11,12.5522848 10.5522848,13 10,13 Z M10,17 C9.44771525,17 9,16.5522847 9,16 C9,15.4477152 9.44771525,15 10,15 C10.5522848,15 11,15.4477152 11,16 C11,16.5522847 10.5522848,17 10,17 Z M14,13 C13.4477153,13 13,12.5522848 13,12 C13,11.4477152 13.4477153,11 14,11 C14.5522847,11 15,11.4477152 15,12 C15,12.5522848 14.5522847,13 14,13 Z M14,17 C13.4477153,17 13,16.5522847 13,16 C13,15.4477152 13.4477153,15 14,15 C14.5522847,15 15,15.4477152 15,16 C15,16.5522847 14.5522847,17 14,17 Z M18,13 C17.4477153,13 17,12.5522848 17,12 C17,11.4477152 17.4477153,11 18,11 C18.5522847,11 19,11.4477152 19,12 C19,12.5522848 18.5522847,13 18,13 Z M10,9 C9.44771525,9 9,8.55228475 9,8 C9,7.44771525 9.44771525,7 10,7 C10.5522848,7 11,7.44771525 11,8 C11,8.55228475 10.5522848,9 10,9 Z M14,9 C13.4477153,9 13,8.55228475 13,8 C13,7.44771525 13.4477153,7 14,7 C14.5522847,7 15,7.44771525 15,8 C15,8.55228475 14.5522847,9 14,9 Z M18,9 C17.4477153,9 17,8.55228475 17,8 C17,7.44771525 17.4477153,7 18,7 C18.5522847,7 19,7.44771525 19,8 C19,8.55228475 18.5522847,9 18,9 Z M18,17 C17.4477153,17 17,16.5522847 17,16 C17,15.4477152 17.4477153,15 18,15 C18.5522847,15 19,15.4477152 19,16 C19,16.5522847 18.5522847,17 18,17 Z M10,21 C9.44771525,21 9,20.5522847 9,20 C9,19.4477153 9.44771525,19 10,19 C10.5522848,19 11,19.4477153 11,20 C11,20.5522847 10.5522848,21 10,21 Z M14,21 C13.4477153,21 13,20.5522847 13,20 C13,19.4477153 13.4477153,19 14,19 C14.5522847,19 15,19.4477153 15,20 C15,20.5522847 14.5522847,21 14,21 Z M18,21 C17.4477153,21 17,20.5522847 17,20 C17,19.4477153 17.4477153,19 18,19 C18.5522847,19 19,19.4477153 19,20 C19,20.5522847 18.5522847,21 18,21 Z"/>
</svg>
