<svg xmlns="http://www.w3.org/2000/svg" width="28" height="28" viewBox="0 0 28 28">
  <path fill="#F5F5F5" fill-rule="evenodd" d="M8.25,13.5 C7.55964406,13.5 7,12.9403559 7,12.25 C7,11.5596441 7.55964406,11 8.25,11 C8.94035594,11 9.5,11.5596441 9.5,12.25 C9.5,12.9403559 8.94035594,13.5 8.25,13.5 Z M8.25,17.5 C7.55964406,17.5 7,16.9403559 7,16.25 C7,15.5596441 7.55964406,15 8.25,15 C8.94035594,15 9.5,15.5596441 9.5,16.25 C9.5,16.9403559 8.94035594,17.5 8.25,17.5 Z M12.25,13.5 C11.5596441,13.5 11,12.9403559 11,12.25 C11,11.5596441 11.5596441,11 12.25,11 C12.9403559,11 13.5,11.5596441 13.5,12.25 C13.5,12.9403559 12.9403559,13.5 12.25,13.5 Z M12.25,17.5 C11.5596441,17.5 11,16.9403559 11,16.25 C11,15.5596441 11.5596441,15 12.25,15 C12.9403559,15 13.5,15.5596441 13.5,16.25 C13.5,16.9403559 12.9403559,17.5 12.25,17.5 Z M16.25,13.5 C15.5596441,13.5 15,12.9403559 15,12.25 C15,11.5596441 15.5596441,11 16.25,11 C16.9403559,11 17.5,11.5596441 17.5,12.25 C17.5,12.9403559 16.9403559,13.5 16.25,13.5 Z M8.25,9.5 C7.55964406,9.5 7,8.94035594 7,8.25 C7,7.55964406 7.55964406,7 8.25,7 C8.94035594,7 9.5,7.55964406 9.5,8.25 C9.5,8.94035594 8.94035594,9.5 8.25,9.5 Z M12.25,9.5 C11.5596441,9.5 11,8.94035594 11,8.25 C11,7.55964406 11.5596441,7 12.25,7 C12.9403559,7 13.5,7.55964406 13.5,8.25 C13.5,8.94035594 12.9403559,9.5 12.25,9.5 Z M16.25,9.5 C15.5596441,9.5 15,8.94035594 15,8.25 C15,7.55964406 15.5596441,7 16.25,7 C16.9403559,7 17.5,7.55964406 17.5,8.25 C17.5,8.94035594 16.9403559,9.5 16.25,9.5 Z M16.25,17.5 C15.5596441,17.5 15,16.9403559 15,16.25 C15,15.5596441 15.5596441,15 16.25,15 C16.9403559,15 17.5,15.5596441 17.5,16.25 C17.5,16.9403559 16.9403559,17.5 16.25,17.5 Z M8.25,21.5 C7.55964406,21.5 7,20.9403559 7,20.25 C7,19.5596441 7.55964406,19 8.25,19 C8.94035594,19 9.5,19.5596441 9.5,20.25 C9.5,20.9403559 8.94035594,21.5 8.25,21.5 Z M12.25,21.5 C11.5596441,21.5 11,20.9403559 11,20.25 C11,19.5596441 11.5596441,19 12.25,19 C12.9403559,19 13.5,19.5596441 13.5,20.25 C13.5,20.9403559 12.9403559,21.5 12.25,21.5 Z M16.25,21.5 C15.5596441,21.5 15,20.9403559 15,20.25 C15,19.5596441 15.5596441,19 16.25,19 C16.9403559,19 17.5,19.5596441 17.5,20.25 C17.5,20.9403559 16.9403559,21.5 16.25,21.5 Z"/>
</svg>
