<svg xmlns="http://www.w3.org/2000/svg" width="100" height="100" viewBox="0 0 100 100">
  <g fill="none" fill-rule="evenodd">
    <path fill="#2090EA" d="M12.819426,-5.17920154e-16 L87.180574,5.17920154e-16 C91.6381677,-3.00926524e-16 93.2545989,0.464128056 94.8842285,1.33566352 C96.5138581,2.20719898 97.792801,3.48614185 98.6643365,5.11577148 C99.5358719,6.74540111 100,8.3618323 100,12.819426 L100,87.180574 C100,91.6381677 99.5358719,93.2545989 98.6643365,94.8842285 C97.792801,96.5138581 96.5138581,97.792801 94.8842285,98.6643365 C93.2545989,99.5358719 91.6381677,100 87.180574,100 L12.819426,100 C8.3618323,100 6.74540111,99.5358719 5.11577148,98.6643365 C3.48614185,97.792801 2.20719898,96.5138581 1.33566352,94.8842285 C0.464128056,93.2545989 2.00617683e-16,91.6381677 -3.45280103e-16,87.180574 L3.45280103e-16,12.819426 C-2.00617683e-16,8.3618323 0.464128056,6.74540111 1.33566352,5.11577148 C2.20719898,3.48614185 3.48614185,2.20719898 5.11577148,1.33566352 C6.74540111,0.464128056 8.3618323,3.00926524e-16 12.819426,-5.17920154e-16 Z"/>
    <path fill="#F1F1F1" d="M31.1343284,80.6865672 C30.9552239,80.6865672 30.7960199,80.6467662 30.6567164,80.5671642 C30.358209,80.3880597 30.1393035,80.0895522 30.0995025,79.7512438 L29.3233831,69.5621891 C25.9800995,67.0348259 23.3930348,63.7711443 21.60199,59.8109453 C19.8507463,55.9502488 18.9353234,51.6119403 18.9353234,46.9751244 C18.9353234,31.0746269 32.8855721,18.199005 50.079602,18.199005 C67.2736318,18.199005 81.2238806,31.1343284 81.2238806,46.9751244 C81.2238806,62.8756219 67.2736318,75.7512438 50.079602,75.7512438 C47.2537313,75.7512438 44.4079602,75.4129353 41.6616915,74.6766169 L31.6119403,80.5273632 C31.4726368,80.6467662 31.3134328,80.6865672 31.1343284,80.6865672"/>
    <path fill="#9ADAF4" fill-rule="nonzero" d="M43.9303483,10.5572139 L44.1890547,12.5671642 C47.1144279,12.1890547 50.199005,12.0895522 53.1243781,12.3880597 L53.3034826,10.318408 C52.0099502,10.199005 50.7363184,10.1393035 49.4427861,10.1393035 C47.6318408,10.199005 45.7810945,10.3383085 43.9303483,10.5572139 Z M56.7462687,12.9054726 C59.7114428,13.4626866 62.5970149,14.318408 65.3034826,15.5323383 L66.119403,13.641791 C63.2338308,12.3880597 60.2288557,11.4527363 57.1044776,10.8955224 L56.7462687,12.9054726 Z M31.3532338,14.318408 L32.2487562,16.1691542 C34.9154229,14.8756219 37.7412935,13.840796 40.7064677,13.2039801 L40.2885572,11.1940299 C37.1442786,11.9303483 34.1791045,12.9452736 31.3532338,14.318408 Z M68.5074627,17.1243781 C71.1343284,18.5771144 73.5820896,20.3482587 75.7711443,22.358209 L77.1442786,20.8457711 C74.8159204,18.7562189 72.2487562,16.8656716 69.5024876,15.3532338 L68.5074627,17.1243781 Z M20.6069652,22.0199005 L22.0597015,23.4726368 C24.1691542,21.3631841 26.5174129,19.4726368 29.1044776,17.9402985 L28.0298507,16.1890547 C25.3432836,17.800995 22.8557214,19.7910448 20.6069652,22.0199005 Z M78.2985075,24.8855721 C80.3084577,27.1542289 82,29.60199 83.3731343,32.2686567 L85.1840796,31.3333333 C83.7711443,28.5472637 81.960199,25.920398 79.8109453,23.5124378 L78.2985075,24.8855721 Z M13.1044776,32.8855721 L14.9552239,33.7412935 C16.2089552,31.0348259 17.7810945,28.4676617 19.6716418,26.1393035 L18.079602,24.8457711 C16.0696517,27.2935323 14.3781095,30 13.1044776,32.8855721 Z M84.7860697,35.5522388 C85.8606965,38.3383085 86.5373134,41.2636816 86.8557214,44.2686567 L88.8656716,44.0497512 C88.5671642,40.8656716 87.8308458,37.7810945 86.7164179,34.8159204 L84.7860697,35.5522388 Z M10,45.761194 L12.0696517,45.840796 C12.1890547,42.8358209 12.7661692,39.8706468 13.7014925,37.0447761 L11.7711443,36.4079602 C10.7363184,39.4527363 10.1393035,42.5970149 10,45.761194 Z M85.681592,56.6865672 L87.6517413,57.2437811 C88.5472637,54.199005 88.9850746,51.0149254 89.0248756,47.8308458 L86.9552239,47.7910448 C86.9353234,50.8358209 86.4975124,53.800995 85.681592,56.6865672 Z M10,49.5422886 C10.119403,53.0248756 10.4776119,56.1094527 11.1542289,58.9154229 L13.1243781,58.4378109 C12.4875622,55.7711443 12.1293532,52.8059701 12.0099502,49.5024876 C12.0298507,49.5024876 10,49.5422886 10,49.5422886 Z M80.0497512,67.8507463 L81.681592,69.1044776 C83.6119403,66.5771144 85.2039801,63.7711443 86.39801,60.9054726 L84.5074627,60.1293532 C83.3731343,62.8159204 81.8606965,65.4427861 80.0497512,67.8507463 Z M12.2487562,62.5572139 C13.4029851,65.7014925 14.9552239,68.4079602 16.9651741,70.8557214 L18.5174129,69.5223881 C16.6268657,67.2537313 15.1741294,64.7462687 14.1393035,61.840796 C14.119403,61.840796 12.2487562,62.5572139 12.2487562,62.5572139 Z M70.8756219,76.3482587 L71.9900498,78.0597015 C74.6567164,76.3482587 77.1044776,74.278607 79.2139303,71.9701493 L77.7014925,70.5572139 C75.7114428,72.7462687 73.4029851,74.6766169 70.8756219,76.3482587 Z M19.6318408,73.60199 C20.2686567,74.199005 21.0049751,74.7960199 21.7412935,75.3532338 L23.5522388,80.9850746 L25.4825871,80.3482587 L23.5920398,74.3781095 C23.5124378,74.159204 23.4129353,74 23.2537313,73.8606965 C22.4776119,73.2636816 21.7014925,72.6666667 21.0248756,72.0099502 L19.6318408,73.60199 Z M59.4328358,81.3830846 L59.9502488,83.3532338 C62.9950249,82.5771144 65.960199,81.4228856 68.7462687,79.9502488 L67.8109453,78.1393035 C65.1641791,79.5323383 62.358209,80.6069652 59.4328358,81.3830846 Z M40.8059701,81.681592 L34.318408,84.5074627 L35.1343284,86.39801 L41.2835821,83.6915423 C41.9800995,83.8706468 42.5373134,84.0298507 43.0348259,84.1293532 L43.5124378,82.119403 C42.9552239,82 42.318408,81.8208955 41.5024876,81.60199 C41.4228856,81.5621891 41.3233831,81.5621891 41.2437811,81.5621891 C41.0646766,81.5820896 40.9253731,81.5820896 40.8059701,81.681592 Z M49.5223881,82.6169154 C48.4477612,82.6169154 47.6716418,82.6169154 46.9950249,82.5771144 L46.9154229,84.6467662 C47.6517413,84.6865672 48.4676617,84.6865672 49.5422886,84.6865672 C51.8109453,84.6865672 54.0995025,84.5074627 56.2885572,84.1293532 L55.9502488,82.119403 C53.8208955,82.4577114 51.6716418,82.6169154 49.5223881,82.6169154 Z M24.6865672,84.6467662 L26.0995025,89.1044776 C26.1791045,89.3631841 26.39801,89.6218905 26.6567164,89.7412935 C26.7761194,89.7810945 26.9154229,89.8208955 27.0945274,89.8208955 C27.2139303,89.8208955 27.3532338,89.7810945 27.4726368,89.7412935 L31.7313433,87.8905473 L30.9154229,86 L27.6915423,87.4129353 L26.6169154,84.0696517 C26.6368159,84.0895522 24.6865672,84.6467662 24.6865672,84.6467662 Z"/>
  </g>
</svg>
