<svg xmlns="http://www.w3.org/2000/svg" width="87" height="100" viewBox="0 0 87 100">
  <defs>
    <linearGradient id="a" x1="24.948%" y1="50%" y2="50%">
      <stop offset="0%" stop-color="#273644"/>
      <stop offset="100%" stop-color="#99A4BF"/>
    </linearGradient>
    <linearGradient id="b" x1="25.804%" y1="50%" y2="50%">
      <stop offset="0%" stop-color="#7783A9"/>
      <stop offset="100%" stop-color="#263744"/>
    </linearGradient>
  </defs>
  <g fill="none" fill-rule="evenodd" transform="translate(-7)">
    <polygon fill="#7783A9" points="50.221 99.814 50.221 49.907 93.437 24.953 93.437 74.86"/>
    <path fill="#DBE3F1" d="M82.4493927,71.402834 L61.048583,83.7611336 L61.048583,54.9352227 L80.8724696,43.4777328 C81.8750042,42.8989187 83.1102394,42.8991807 84.1125283,43.4784201 C85.1148172,44.0576596 85.731753,45.1277981 85.7307692,46.2854251 L85.7307692,65.7186235 C85.7306017,68.0634074 84.4798264,70.2300805 82.4493927,71.402834 Z M67.7874494,58.7044534 L67.7874494,72.5526316 L77.7854251,66.9473684 C78.9867515,66.274216 79.7307159,65.0045995 79.7307692,63.6275304 L79.7307692,54.2510121 C79.7235135,53.7513705 79.4536323,53.2924867 79.0204935,53.0433177 C78.5873548,52.7941487 78.0549983,52.7915344 77.6194332,53.0364372 L67.7874494,58.7044534 Z"/>
    <polygon fill="#2A3947" fill-rule="nonzero" points="7 74.86 7 24.953 50.221 49.907 50.221 99.814"/>
    <polygon fill="#6B7F95" fill-rule="nonzero" points="39.3 55.263 17.182 42.492 17.182 59.747 32.318 68.486 32.318 71.725 17.182 62.984 17.182 70.069 39.302 82.84 39.302 65.443 23.194 56.15 23.194 52.872 39.294 62.166"/>
    <polygon fill="#99A4BF" fill-rule="nonzero" points="50.221 49.907 7 24.953 50.221 0 93.437 24.953"/>
    <path fill="url(#a)" fill-rule="nonzero" d="M57.0364372,31.9838057 L65.4048583,27.1437247 L53.2206478,22.6720648 C53.4786651,22.2490911 53.6184779,21.76464 53.6255061,21.2692308 C53.6255061,18.7874494 50.0384615,16.7712551 45.6133603,16.7712551 C41.1882591,16.7712551 37.6032389,18.7955466 37.6032389,21.2692308 C37.6032389,23.742915 41.1882591,25.7692308 45.6133603,25.7692308 C46.1940249,25.7691792 46.7741134,25.7326702 47.3502024,25.659919 L57.0364372,31.9838057 Z"/>
    <path fill="url(#b)" d="M53.2226721,23.3279352 L53.2226721,26.582996 L61.2712551,29.5546559 L65.4048583,27.1578947 L53.2206478,22.6720648 C53.2206478,22.871631 53.2226721,23.3279352 53.2226721,23.3279352 Z"/>
    <path fill="url(#b)" d="M46.7995951,21.1194332 C51.8502024,21.1194332 53.2226721,23.3279352 53.2226721,23.3279352 L53.2206478,22.6720648 C53.4786651,22.2490911 53.6184779,21.76464 53.6255061,21.2692308 C53.6255061,18.7874494 50.0384615,16.7712551 45.6133603,16.7712551 C41.1882591,16.7712551 37.6032389,18.7955466 37.6032389,21.2692308 C37.6032389,22.3157895 38.2388664,23.2773279 39.3036437,24.0404858 C40.4412955,22.3340081 43.3663968,21.1194332 46.7995951,21.1194332 Z"/>
  </g>
</svg>
