<svg xmlns="http://www.w3.org/2000/svg">

	<symbol id="cbs-eye" viewBox="0 0 24 24">
		<path fill-rule="evenodd" d="M12 .341c6.627 0 12 5.373 12 12s-5.373 12-12 12-12-5.373-12-12 5.373-12 12-12Zm0 4.831c-2.534 0-4.85.702-6.943 2.107-1.948 1.3-3.394 2.987-4.336 5.062.942 2.075 2.388 3.773 4.336 5.094C7.15 18.819 9.466 19.51 12 19.51s4.839-.691 6.912-2.075c1.969-1.321 3.424-3.019 4.367-5.094-.943-2.075-2.398-3.763-4.367-5.062C16.84 5.874 14.534 5.172 12 5.172Zm0 .797a6.372 6.372 0 1 1 0 12.744 6.372 6.372 0 0 1 0-12.744Z"/>
	</symbol>

</svg>
