<svg xmlns="http://www.w3.org/2000/svg" width="100" height="36" viewBox="0 0 100 36">
  <path fill-rule="evenodd" d="M24.9660713,19.7153542 C25.6129074,19.846332 26.2573749,19.9744676 26.9016056,20.1054454 C29.3373661,20.6343304 31.6627547,21.377801 34.2216769,21.6977847 C34.2216769,20.9569194 34.3969456,20.5149582 34.5208179,19.9019917 C31.0841313,19.5538229 27.6462605,19.2032856 24.2095739,18.8548799 L24.0601219,18.8548799 L24.0601219,18.6303466 C25.2159476,18.6303466 26.3109029,18.7705615 27.4222009,18.840669 C28.2445424,18.9015393 29.0638049,18.9600411 29.8856727,19.0209114 C30.8738089,19.1303359 32.0059497,19.3551061 33.0265343,19.2288653 L33.1757495,19.2288653 C33.1757495,18.6701373 32.6340746,18.2419134 32.5781781,17.6576056 L32.5033337,17.6576056 C32.5033337,17.505785 31.9334737,17.6109462 31.8309179,17.6576056 C31.2075299,17.6576056 29.9275951,17.5126537 29.4396851,17.73245 C27.6794194,17.73245 25.8113873,17.6436315 24.1349663,17.8072945 L24.1349663,17.73245 L24.0601219,17.73245 L24.0601219,17.5079167 L24.1349663,17.5079167 C24.1349663,17.3724388 24.5970598,17.4330722 24.7325377,17.4330722 C26.5631476,17.4330722 28.3840468,17.4449147 30.1123377,17.2836202 L30.1123377,17.1339313 C29.7596688,17.1339313 29.8039597,16.278194 29.8134336,16.0117383 C29.6149537,16.0375549 29.4141053,16.0605293 29.2156254,16.0865827 C29.0171455,16.1119256 28.816534,16.1356106 28.6180541,16.1614272 C28.4449171,16.1867701 28.2698853,16.210455 28.0950903,16.2357979 C27.8032917,16.2357979 27.4295432,16.2573512 27.1981412,16.3857237 C27.0252411,16.4113034 26.850683,16.4347515 26.6751775,16.4603313 C26.5257254,16.4861479 26.3762734,16.5098328 26.2268213,16.5354126 C26.0771324,16.5609923 25.9279172,16.5844404 25.7784652,16.610257 C25.5799853,16.6358368 25.3796106,16.6595217 25.180657,16.6848646 C24.8071453,16.736261 24.4336336,16.7855257 24.0601219,16.8347904 L24.0601219,16.610257 L24.1349663,16.610257 C24.1349663,16.4932533 24.7581174,16.4489625 24.8888584,16.4207774 C27.2334318,15.9110772 29.6829295,15.7471773 31.9803699,15.1136049 C31.9986073,14.8192009 32.0154236,14.5221916 32.0317663,14.2275508 C32.1040054,13.9118304 32.2442203,13.6756914 32.279274,13.3180486 L32.1300588,13.3180486 L32.1300588,13.3928931 C31.7747845,13.3928931 31.3799564,13.6058208 31.0675519,13.7273246 C30.5701679,13.9049618 30.0727839,14.0802304 29.575163,14.2578675 C28.3309925,14.6323266 27.0839797,15.0039435 25.8395723,15.3760341 C25.2462643,15.5626716 24.6531931,15.7497827 24.0601219,15.9368938 L23.9855143,15.9368938 L23.9855143,15.8620494 L23.9106698,15.8620494 C23.9106698,15.714729 24.0364369,15.64699 24.1510721,15.5953568 C24.9447548,15.22824 25.8182559,15.0667087 26.6609665,14.779647 C28.0432203,14.3050006 29.4238162,13.8511969 30.7989645,13.3578394 C31.6788605,13.0399873 32.6364431,12.8386652 33.4744167,12.4201521 L33.5492611,12.4201521 L33.5492611,12.3453077 C33.4374682,12.3453077 33.3998091,12.2496204 33.341781,12.179513 C32.979638,11.7444204 32.8723452,11.375172 32.9519267,10.7742848 L32.8773191,10.7742848 L32.8773191,10.6994403 C32.6667598,10.6994403 32.4332262,10.8818145 32.2605629,10.9587906 C31.6885713,11.2347202 31.1142112,11.5108868 30.5419828,11.7865796 C28.2326999,12.7967428 25.9210486,13.8045376 23.6117657,14.8144639 L23.6117657,14.7393826 L23.5369213,14.7393826 C23.5369213,14.6110102 23.600397,14.5854304 23.6958473,14.5316656 C25.0615217,13.8770135 26.4276697,13.2221246 27.7938178,12.5674725 C28.8911416,12.0203501 29.9863338,11.4708592 31.0841313,10.9237368 C31.0841313,10.1570549 30.1987878,9.91854745 29.9628857,9.27810634 L29.8134336,9.27810634 C29.8134336,9.41784756 29.5379776,9.49292886 29.4328164,9.56801016 C27.3689097,10.9680277 25.3019239,12.3663873 23.2380172,13.7671153 L23.2380172,13.8417229 L23.088802,13.8417229 L23.088802,13.7671153 L23.0137207,13.7671153 C23.0137207,13.5984785 23.2148059,13.4933173 23.3268358,13.4116042 C24.1205185,12.8130855 24.9378862,12.2240407 25.7528854,11.6368907 C26.3601676,11.1999034 26.9646076,10.7624423 27.5718898,10.3252181 L27.5718898,10.2506105 C27.6699455,10.2506105 27.6462605,10.2738217 27.6462605,10.1755292 L27.5718898,10.1755292 C27.5718898,10.0424197 26.9485018,9.892494 26.8037868,9.74801579 C26.6564663,9.60069539 26.6263865,9.40861043 26.6005699,9.20302504 C26.4463808,9.20302504 26.3293772,9.26839551 26.2244528,9.35034545 C25.7460168,9.84157135 25.2649754,10.3323236 24.783934,10.8235495 C24.0717275,11.4919388 23.1818839,12.1278798 22.6406827,12.9440632 C22.5213105,12.9440632 22.4744143,12.8739558 22.4161493,12.7943744 C22.3157252,12.7943744 22.3413049,12.8175856 22.3413049,12.7195299 C22.2411176,12.7195299 22.2666973,12.742978 22.2666973,12.6446855 L22.3413049,12.6446855 C22.813346,12.0108761 23.4691823,11.5177554 24.0248313,10.9635275 C25.0222046,9.96283831 25.9913929,9.01141378 26.9252906,7.95435436 C27.1680613,7.67605617 27.4994138,7.44702268 27.6043381,7.09861704 C27.6067066,7.09624854 27.6067066,7.09388005 27.6067066,7.0917484 C27.6322864,6.75471153 27.3241452,6.49986144 27.2450374,6.19598351 C27.1981412,5.95510754 27.1491134,5.71186308 27.102454,5.47122397 C26.9856872,5.31916657 26.8665519,5.16521438 26.7500219,5.01292014 C26.5328309,5.01292014 26.3483251,5.230348 26.2339268,5.39164253 C25.8717839,5.95794974 25.507983,6.5207042 25.1458401,7.08464291 C24.5222153,8.00575071 23.8964589,8.92709535 23.2707024,9.84796629 C22.7804239,10.5729627 22.0639541,11.3000907 21.7434967,12.1210112 C21.6575203,12.1210112 21.6411777,12.0954314 21.5942815,12.0461667 L21.5194371,12.0461667 L21.5194371,11.9713223 C21.418776,11.9713223 21.4443558,11.9947704 21.4443558,11.8964778 C21.5428852,11.8964778 21.5315164,11.8685296 21.5687018,11.8052907 C21.9630562,11.2299833 22.3578844,10.6525441 22.7527125,10.075105 C23.697979,8.56921572 24.6437191,7.06356331 25.5892224,5.55767404 C25.8135189,5.20950525 26.7988129,3.83198842 26.7988129,3.51674171 C26.7988129,2.78463983 25.7647279,2.8523788 25.4049535,2.46915627 C25.049916,2.46915627 24.8282249,2.98335658 24.6906153,3.23631187 C23.7425067,5.30519245 22.7946349,7.37217823 21.8465262,9.44129566 C21.5194371,10.1077902 21.2579552,10.8280496 20.8467844,11.447648 L20.8467844,11.5224924 L20.7721768,11.5224924 L20.7721768,11.447648 L20.6975692,11.447648 C20.6975692,10.7089143 21.374722,9.78046418 21.6504148,9.11870661 C22.2666973,7.62915997 22.9367446,6.16329827 23.6375823,4.72538482 C23.7799289,4.37224218 23.919907,4.01909955 24.0601219,3.66619376 L24.0601219,3.59134931 L23.9855143,3.59134931 C23.9855143,3.54208461 22.6193662,3.2967085 22.4019384,3.77135495 C22.1196137,4.60364417 21.8372891,5.43617024 21.5547276,6.26869631 C21.1276879,7.33499286 20.7510972,8.39607872 20.3868226,9.497429 C20.2283703,9.9675753 20.0114161,10.4211421 19.950309,10.9237368 C19.8501216,10.9237368 19.8757014,10.8979202 19.8757014,10.9988181 L19.8008569,10.9988181 L19.8008569,10.9237368 C19.5886397,10.9237368 19.7655663,10.4190105 19.7963568,10.3228496 C20.1047349,9.40387344 20.4107444,8.48276564 20.7162803,7.561421 C20.9289712,6.88118917 21.2508497,6.26159082 21.3697482,5.53683128 L21.2953774,5.53683128 C21.2953774,5.41509063 21.2371124,5.45961834 21.1459254,5.46411848 C20.9592879,5.46909232 20.095024,5.45014436 20.0272851,5.53185745 C19.7918566,5.803287 19.775514,6.29901305 19.6840901,6.6474187 C19.5417435,7.32315038 19.3970285,7.99888207 19.2549188,8.67437691 C19.1379151,9.30131759 19.0211483,9.92565293 18.9043815,10.5495146 L18.829537,10.5495146 L18.829537,10.6245959 L18.5308698,10.6245959 C18.5308698,9.8202549 18.9043815,8.70043036 19.0910189,7.91930063 C19.3105784,6.75257988 19.5282431,5.58349064 19.7451973,4.41700674 C19.8269104,3.99825679 20.1348147,3.12854534 20.0114161,2.72140101 C19.9713886,2.59539707 19.1961801,2.10440801 19.0445964,2.08569689 C18.5237643,2.02032643 18.4278402,2.51131549 18.3901812,2.91822297 C18.2667826,4.31610885 18.1431471,5.71186308 18.0195117,7.10809102 C17.9399302,8.11114874 18.0308804,9.20776203 17.8210318,10.1665289 C17.781241,10.344166 17.7182391,10.4000625 17.5595499,10.4751438 C17.6064461,9.90196798 17.6528686,9.32689734 17.6992911,8.7518267 C17.7390818,7.42831157 17.7132652,6.15642964 17.7952152,4.86346809 C17.8650858,3.70835297 18.0055375,2.57668595 18.0055375,1.34696323 C18.0055375,0.914239156 18.023775,0.45143519 17.9328247,0.0748444491 C17.8091893,0.0516331959 17.6829485,0.0258165979 17.5595499,5.1159077e-13 C16.9944269,0.357879628 16.8868972,0.397433499 16.139637,0.374222245 L16.139637,0.448829845 L16.0650294,0.448829845 C16.1607166,1.44738743 16.2564038,2.44333967 16.3523279,3.44166041 C16.361565,4.0662326 16.3686705,4.6879626 16.3753023,5.30992944 C16.4804635,7.02400944 16.6067043,8.71203598 16.6628376,10.4751438 L16.5131487,10.4751438 L16.5131487,10.4000625 C16.3826446,10.4000625 16.41983,9.65185489 16.4011189,9.50690298 C16.265641,8.0339358 16.130163,6.55836328 15.9951588,5.0853961 C15.9691053,4.27181799 15.9667369,2.36612673 15.6166733,1.79555623 L15.6166733,1.72094863 C15.3319801,1.72094863 14.864676,2.01558944 14.6451165,2.16977847 C14.3978456,2.19559507 14.1479694,2.21880633 13.89833,2.24462292 C13.89833,3.35071019 14.2528937,4.32084584 14.4724532,5.31703493 C14.7178293,6.49086116 14.9629686,7.66445054 15.2081078,8.83827678 C15.2756099,9.12320675 15.5700139,10.1989773 15.4110879,10.4422217 C15.3689287,10.4306161 15.3248746,10.4190105 15.2803469,10.407168 C15.0164966,10.0938161 14.9977855,9.53248273 14.9044667,9.13765457 C14.6988814,8.28641739 14.4911643,7.43304856 14.2858158,6.57967973 C14.1756808,6.14245551 14.1034417,5.69575731 13.89833,5.31253479 L13.89833,5.23769034 C13.7720892,5.27274407 13.6434799,5.30519245 13.5151074,5.33787769 C13.2792053,5.37766841 12.9966438,5.3331407 12.7773212,5.31253479 L12.7773212,5.38714239 L12.7027136,5.38714239 C12.7027136,6.41127972 14.7457776,10.3534032 14.4212937,10.9237368 L14.4212937,10.9988181 L14.2718417,10.9988181 C14.2086028,10.7951275 14.1432324,10.5893053 14.0799936,10.3860884 C13.8933561,9.83872916 13.7180875,9.28473813 13.4987648,8.76343233 C12.9407474,7.43778555 12.4855226,6.0744797 11.9180311,4.76991253 C11.7519996,4.38882165 11.6447068,3.96320306 11.3716193,3.64037716 C11.1639022,3.39736955 10.4097734,3.15199344 10.0871843,3.29220836 L9.63882816,3.29220836 L9.63882816,3.36705281 C9.46853336,3.36705281 9.87259864,4.05439012 9.93796911,4.1901049 C11.1148744,6.49299281 12.2894112,8.79398592 13.4637111,11.0945053 C13.5011333,11.2207461 13.5035018,11.3259073 13.4495001,11.447648 L13.4495001,11.5224924 L13.3005218,11.5224924 C12.961827,10.8934201 12.6207637,10.2645846 12.2823057,9.63551227 C11.8877144,8.8006177 11.4907546,7.96382834 11.0961633,7.12680213 C10.194714,5.56951652 9.2980017,3.97267704 8.44344862,2.39407497 C8.35012991,2.39407497 8.34776142,2.37110057 8.29399658,2.31946737 L8.29399658,2.39407497 C8.1329389,2.39407497 8.03227785,2.56958047 7.88779964,2.61387133 C7.64029189,2.68895263 7.40202127,2.66550453 7.17322464,2.76829722 C7.17322464,2.97411945 7.21064686,3.16099373 7.17322464,3.36705281 C7.02874643,3.36705281 6.90676892,3.43929191 6.79971294,3.51674171 L6.72486849,3.51674171 C6.72486849,3.94212345 7.54673633,4.75120142 7.81082355,5.11121269 C9.03912517,6.77839648 10.2648215,8.44297492 11.4931231,10.1077902 C11.9132941,10.6923348 12.5390506,11.2816165 12.7773212,11.9713223 L12.5530247,11.9713223 C12.5414191,11.9336632 12.5298134,11.8964778 12.517971,11.8590556 C11.6610494,10.8562347 10.8507872,9.80391228 10.0826842,8.7541952 C9.79775419,8.41952682 9.51282422,8.0850953 9.22813109,7.75090062 C8.6303229,6.95366513 8.0348832,5.96908166 7.24783223,5.31253479 L7.24783223,5.38714239 C7.07043194,5.38714239 6.68507777,6.27556495 6.42620124,6.50933542 L6.42620124,6.65902432 C6.5216516,6.65902432 6.49607185,6.65215569 6.52638859,6.7196578 C6.73410562,7.18056697 7.17559313,7.56402635 7.51878809,7.95435436 C7.87358867,8.37523596 8.22625761,8.79398592 8.57892655,9.21463067 C9.34466106,10.0047607 10.1667657,10.6947033 10.9514482,11.4800964 C11.3107489,11.8192649 11.6702865,12.1560649 12.0300609,12.4952334 C12.0066128,12.569841 11.9810331,12.6446855 11.9554533,12.7195299 L11.8057644,12.7195299 L11.8057644,12.6446855 C11.3765931,12.4038095 11.0400299,11.9592429 10.6594128,11.6229166 C9.63645967,10.7181514 8.70279885,9.69377725 7.69595153,8.7541952 L7.62158078,8.7541952 C7.62158078,9.31292322 7.00742997,9.59122141 6.57565329,9.72669934 C6.57565329,10.0379196 10.7247832,12.7967428 11.2828007,13.4677375 C11.2828007,13.5660301 11.2685897,13.5544245 11.2081931,13.6174264 L11.2081931,13.6922709 C11.0352929,13.6922709 10.3114808,13.0302765 10.1340805,12.901904 C8.38731529,11.616048 6.64078691,10.3299551 4.89425853,9.04409901 C4.76801774,8.97849169 4.62827652,8.96214908 4.48332461,8.97849169 C4.48332461,9.53721972 3.90446438,9.69377725 3.51176787,9.87638823 C3.51176787,10.0983162 3.71024777,10.234031 3.87604243,10.3391922 C5.02263097,10.961159 6.16898266,11.5833627 7.31580805,12.2053296 C8.10735915,12.6773707 8.89393642,13.1193319 9.69046136,13.5800042 C10.0616046,13.7948267 10.4237475,14.0733618 10.8342077,14.2159452 L10.8342077,14.3656341 C10.7153092,14.3656341 10.7342572,14.4260307 10.6852294,14.5150861 L10.6852294,14.5901674 L10.6106218,14.5901674 C10.6106218,14.4707953 10.5400406,14.4776639 10.4609329,14.43811 C8.28925958,13.3275226 6.20640488,11.9502427 4.05131108,10.8138386 C3.40921203,10.4751438 2.62239791,9.86217726 1.936008,9.68454012 C1.67428927,9.61680116 1.63923554,9.95810132 1.49238884,10.0867106 C1.36827969,10.1428439 1.24464424,10.1966088 1.12077194,10.2506105 C1.12077194,10.7250201 1.19798488,11.0125554 0.821867843,11.2979591 C0.821867843,11.5412035 1.11153481,11.6859186 1.2913036,11.7723687 C2.10393431,12.0928261 2.91656502,12.410915 3.72895888,12.7311355 C5.93331739,13.5728987 8.1353074,14.5598507 10.3860884,15.3383751 L10.3860884,15.5626716 L10.3114808,15.5626716 L10.3114808,15.7123605 C7.76866433,14.7770417 5.22347937,13.8395913 2.68066289,12.9045094 C2.4798145,12.8573763 2.29530872,12.8481392 2.2090955,13.0352503 C2.0804862,13.3088115 2.49876246,14.0593876 2.35144206,14.5034805 C2.38649579,14.5525084 2.42131267,14.5994046 2.45660325,14.6484324 C2.83485193,14.9267306 3.55842722,14.9359677 4.03023147,15.055103 C5.52712045,15.3945084 7.02400944,15.7310716 8.52042472,16.0700032 C9.01804557,16.200981 9.51542956,16.3295903 10.0125767,16.4603313 L10.1620288,16.4603313 C10.1385807,16.5609923 10.1130009,16.6595217 10.0871843,16.7599459 C9.81172831,16.6922069 9.53627232,16.6216258 9.26081633,16.551992 C8.68621938,16.4065664 4.89165319,15.4854586 4.57451168,15.6773067 C4.56740619,15.7403087 4.55793221,15.8014159 4.54845823,15.8620494 C4.53945795,16.3646441 4.39450604,16.591309 4.18465736,16.9844793 L4.10981291,16.9844793 L4.10981291,17.0590869 C4.70762111,17.1083516 5.30519245,17.1550109 5.90300065,17.2019071 C7.34375629,17.246198 8.70966749,17.2274869 10.0871843,17.3584646 C10.0871843,17.6059724 9.91475786,17.6320258 9.71154097,17.6436315 C8.64192852,17.6204202 7.57018443,17.5943668 6.50080884,17.5690239 C5.90063215,17.5289963 4.57214318,17.3418852 4.03496846,17.582998 C3.21783761,17.582998 2.4075754,17.4894424 1.79342458,17.8819021 C1.81900433,18.0083797 1.84245243,18.1320152 1.86803218,18.2563612 C1.6136558,18.2563612 1.19111625,19.1400468 1.94263978,19.2009171 C2.83011494,19.2707877 4.18228887,18.9972265 5.0835013,18.8806965 C6.75305358,18.7239021 8.42000052,18.5647393 10.0871843,18.4060501 L10.0871843,18.705191 C9.96354886,18.7310076 9.83730806,18.7542189 9.71367261,18.7800355 C9.54100931,18.8058521 9.36597751,18.8290633 9.19070887,18.8548799 C9.01804557,18.8806965 8.84277692,18.9039078 8.66774512,18.9297244 C8.44344862,18.955541 8.21915213,18.9787522 7.99509248,19.0045688 C7.82242918,19.0301486 7.64739738,19.0535967 7.47236558,19.0791764 C7.27364883,19.104993 7.07280044,19.1284411 6.87455739,19.1544946 C6.67607749,19.1796006 6.47499224,19.2032856 6.27651234,19.2288653 C6.0524527,19.2544451 5.8281562,19.2776563 5.6043334,19.3037098 C5.40561665,19.3292895 5.20476825,19.3529745 5.0065252,19.3785542 C4.78222871,19.4043708 4.55793221,19.4275821 4.33363571,19.4533987 C4.16120926,19.4792153 3.98617746,19.5021897 3.81090882,19.5280063 C3.58661232,19.5538229 3.36255267,19.5775078 3.13825617,19.6030876 C2.93977627,19.6286673 2.73892788,19.6521154 2.54044798,19.677932 C2.34196808,19.7035118 2.14111968,19.7269599 1.94263978,19.7525396 C1.74439673,19.7783562 1.54354834,19.8015675 1.34530529,19.8273841 C1.19561639,19.8532007 1.04616434,19.8766488 0.896712292,19.9019917 C-0.424908043,19.9019917 0.378011838,20.2084749 -3.12638804e-13,20.8749695 C-3.12638804e-13,21.1414252 0.259350227,21.7259698 0.532437726,21.7681291 C0.997373339,21.8384734 2.206727,21.382538 2.69226852,21.262929 C4.08186467,20.9216289 5.47098712,20.5781971 6.86034642,20.2340547 C7.94630148,19.9536249 9.07844219,19.5611652 10.2366364,19.4533987 L10.2366364,19.6030876 C10.3349289,19.6030876 10.3114808,19.5775078 10.3114808,19.677932 C9.63645967,19.8719118 8.96167538,20.063523 8.28712794,20.2553712 C7.1405394,20.5476435 5.99181922,20.8399158 4.84286218,21.1321881 C3.97196649,21.3612216 2.94451326,21.503805 2.1809104,21.9481347 C2.00114161,22.0509274 1.90569126,22.1984846 1.95685075,22.4249128 C2.02695821,22.7458439 2.42841815,22.808609 2.63400354,23.0212999 C2.7763501,23.1686203 2.78108709,23.3675739 2.96322437,23.4961832 C3.04730596,23.5219998 3.12901904,23.5473427 3.21286377,23.5731593 C3.71498476,23.589265 4.26850209,23.1570147 4.71212125,22.9815092 C6.20190474,22.3829904 7.64266039,21.6724418 9.1253384,21.0481065 C9.5691944,20.85839 10.0431303,20.5945397 10.5355405,20.5007473 L10.5355405,20.5755917 L10.6106218,20.5755917 L10.6106218,20.7255175 C8.71914147,21.5741493 6.82552954,22.4204126 4.93168076,23.2690445 C4.93168076,23.5568166 5.36582593,23.7297168 5.50130386,23.9589871 C5.58538544,24.1299925 5.66946702,24.2979188 5.7535486,24.4665557 C5.7535486,24.5411633 5.77462821,24.5177152 5.8281562,24.4665557 C6.10384904,24.4665557 6.447044,24.1131762 6.67347214,23.9774614 C7.63768655,23.3907851 8.59290067,22.7780554 9.53864082,22.1816683 C9.95668022,21.9154495 10.3673773,21.5649122 10.8342077,21.3986438 C10.8342077,21.2747715 10.8787354,21.3237994 10.9838966,21.3237994 C10.9838966,21.4384345 10.9699225,21.5533065 10.9069205,21.6347828 C10.5355405,22.0907181 9.89130975,22.345805 9.43111113,22.6942107 C8.01380359,23.7555334 6.42833289,24.5719537 5.05792155,25.7102525 C4.86631029,25.86681 4.50677271,26.0373417 4.41819099,26.2924286 C4.33860955,26.512225 4.45063938,27.658103 4.48332461,27.9828237 L4.63277666,27.9828237 C4.63277666,27.8819258 4.65361942,27.8918735 4.71685824,27.8404771 C6.00105635,26.7789176 7.28288596,25.7147526 8.56471558,24.6534299 C9.36810916,23.9634873 10.1691342,23.271413 10.972291,22.5795755 C11.1333486,22.4533347 11.3576451,22.2591181 11.5817048,22.3716216 L11.6563124,22.3716216 L11.6563124,22.5210737 C11.6146269,22.5326793 11.5722308,22.5421533 11.5305453,22.5537589 C10.0033396,23.627161 8.70753584,25.0674429 7.25280607,26.2689805 C6.72036835,26.7038363 6.18556213,27.138692 5.65099275,27.5737845 C5.05555306,28.0015348 4.32937242,28.544157 3.88527957,29.180098 L3.81090882,29.180098 C3.83198842,29.2078094 3.85046269,29.2359945 3.86893695,29.2641796 C3.9906776,29.4465537 4.10981291,29.6265594 4.23131672,29.8089335 C4.4646135,29.974965 4.69814713,30.138628 4.93168076,30.302291 C4.93168076,30.4005836 4.90586416,30.3768986 5.0065252,30.3768986 C5.0065252,30.2672373 5.01789398,30.2928171 5.09036994,30.2321836 C6.91884825,28.6703978 8.49721347,26.7905232 10.1409492,25.0394947 C10.7271517,24.4123171 11.2851692,23.6806889 11.9691906,23.135935 C12.0392981,23.1053815 12.1094055,23.0750647 12.1797498,23.0449848 C12.2778055,23.0449848 12.2541206,23.0186945 12.2541206,23.1193556 C12.3524131,23.1193556 12.328965,23.0940127 12.328965,23.1944369 C12.1911186,23.1944369 11.9973757,23.5449742 11.894583,23.6572408 C10.6362015,25.0674429 9.3749778,26.4748028 8.11659628,27.8819258 C7.50007698,28.5792108 6.6924201,29.1542814 6.20190474,29.9280688 L6.12706029,29.9280688 L6.12706029,30.0777577 C6.49844035,30.0777577 6.83713516,30.1083113 7.16872449,30.1736818 C7.4394435,30.2250781 7.66113465,30.3844778 7.95530176,30.2814483 C8.41076339,30.1201538 8.68621938,29.4908446 8.93135864,29.1310702 C9.69046136,28.048431 10.4469587,26.965555 11.203693,25.8836264 C11.6984716,25.1280764 12.1584334,24.3050243 12.7773212,23.6432667 C12.7773212,23.4935778 12.9383789,23.6669517 13.0013808,23.718348 C13.0994365,23.718348 13.0759884,23.6925314 13.0759884,23.7927188 C12.9383789,23.7927188 12.894088,23.9679874 12.826349,24.0733855 C12.1023,25.1702356 11.3765931,26.2644804 10.6501756,27.3610937 C10.3207179,27.8774256 9.84441355,28.3778887 9.63882816,28.9555647 L9.56398371,28.9555647 L9.56398371,29.1054904 C9.89367825,29.1054904 10.4002994,29.4349481 10.6267275,29.3482612 C11.1167692,29.1587816 12.4225206,26.2829547 12.7330303,25.6796989 C13.0224604,25.1515245 13.3097589,24.6207447 13.5989522,24.0923334 C13.7064819,24.0923334 13.81638,24.1903891 13.89833,24.2417855 C12.604421,26.786023 11.3086173,29.3295501 10.0125767,31.8735508 L9.93796911,31.8735508 C10.1456861,32.2593786 10.3837199,32.3600397 10.4609329,32.8462918 L10.5355405,32.8462918 C10.5355405,32.9095306 11.0937948,32.9677956 11.2081931,32.9957438 C11.2081931,32.8950828 11.1826134,32.9208994 11.2828007,32.9208994 C11.2828007,32.488649 11.7332885,31.6092267 11.904057,31.2096616 C12.3827299,29.9657279 12.8590343,28.7196625 13.3377072,27.4733603 C13.7017449,26.5195673 14.2157083,25.5676691 14.4212937,24.5411633 L14.6451165,24.5411633 L14.6451165,24.6160077 L14.719961,24.6160077 C14.5333235,25.1702356 14.3440808,25.7218581 14.154838,26.2737175 C13.5593983,27.9108214 12.961827,29.5472148 12.3637819,31.183845 C12.1281166,31.7894692 11.8922145,32.3927249 11.6563124,32.9957438 L11.7311568,32.9957438 C11.7311568,33.1013787 11.7053402,33.0660881 11.8036328,33.0776937 C12.5066022,33.154433 13.111279,34.0175127 13.4918962,32.8346861 C13.6832706,32.0419508 13.8722765,31.2470838 14.0638878,30.4541116 C14.3440808,29.4022629 14.6242738,28.3499404 14.9044667,27.2978549 C15.0631559,26.6922306 15.1730541,25.375821 15.4674581,24.9151487 L15.4674581,24.8405411 L15.6915177,24.8405411 L15.6915177,24.9151487 C15.7869681,24.9151487 15.7684938,24.8992797 15.7545197,24.9876246 C15.6119363,25.6377766 15.4674581,26.28556 15.3248746,26.9354751 C14.9932853,28.3800203 14.6593275,29.8233813 14.3253697,31.2679265 C14.1268898,31.9926861 13.5290816,33.7347143 13.6619542,34.4805535 C13.7135873,34.7704573 13.9937803,34.7775628 14.1830231,34.9551999 C14.2623677,35.0767037 14.3417123,35.195839 14.4212937,35.315448 C14.4212937,35.483848 15.2919526,35.3433963 15.4179565,35.2498407 C15.4416415,35.2287611 15.4624842,35.2076815 15.4856955,35.1866019 C15.6983863,34.9623054 15.6609641,33.7437146 15.7170975,33.3723346 C15.936657,31.8714191 16.0112646,30.3468188 16.1583481,28.8058758 C16.2774834,27.533757 16.3944871,26.2621119 16.5131487,24.99023 L16.8120528,24.99023 C16.7166024,26.0141304 16.6209152,27.0361361 16.5247543,28.0576681 C16.4503836,29.2452316 16.3963819,30.4822967 16.2890891,31.6490174 C16.9686103,31.6490174 17.4847054,31.5275136 18.0081429,31.9483952 L18.0827505,31.9483952 C18.0382228,31.4739856 17.9915634,30.9993392 17.9449041,30.5246927 C17.8257688,28.6514499 17.4847054,26.8814734 17.4847054,24.99023 L17.8582171,24.99023 C17.8582171,26.2715859 18.0495916,27.4454121 18.1457525,28.6561869 C18.3300214,31.0315507 18.6824535,33.3394125 18.9043815,35.6891966 L18.9789891,35.6891966 L18.9789891,35.7642779 C19.1563894,35.7289873 19.3314212,35.6918019 19.5066898,35.6567482 C19.852727,35.6077203 20.4571669,35.7668832 20.592408,35.3552388 C20.7162803,34.9670424 20.4664041,34.342707 20.4079022,33.9663532 C20.0881554,32.4436476 19.7655663,30.9218894 19.4460563,29.3998944 C19.2520766,28.375757 19.056202,27.3492512 18.8622223,26.3253507 C18.7525609,25.881021 18.6405311,25.4343228 18.5308698,24.99023 L18.5308698,24.9151487 C18.6405311,24.9151487 18.7525609,24.8192246 18.829537,24.7654598 L18.9043815,24.7654598 L18.9043815,24.8405411 C18.9958054,24.8405411 19.0936242,25.6564877 19.1165987,25.8130452 C19.4882156,27.5853902 19.8569903,29.3553667 20.2283703,31.1279485 C20.3449003,31.7193617 20.5294061,33.0262974 20.8330471,33.4772589 C20.9382083,33.6340533 21.1880846,33.6970552 21.3725904,33.7183717 C22.1918529,33.8097956 22.4538084,33.4142569 22.789661,32.7712105 C22.9438501,32.7712105 22.6032605,32.0142394 22.5492588,31.8782878 C22.2783029,31.2792953 22.0052154,30.6786449 21.7323648,30.0801262 C21.1508992,28.5557627 20.5739338,27.0595842 19.9853627,25.5276415 C19.8501216,25.2003155 19.7120384,24.8708578 19.5767973,24.5411633 L19.7264862,24.5411633 C19.7264862,24.417291 19.7705402,24.4665557 19.8757014,24.4665557 C20.0341537,24.8616207 20.1930797,25.2566857 20.3522426,25.6515138 C20.8027304,26.7973918 21.2416126,27.9522701 21.7063113,29.0863056 C22.0052154,29.7480632 22.3015142,30.4079259 22.6006551,31.0670782 C22.7920295,31.5367508 22.9578242,32.1821657 23.2801764,32.5869415 C23.476051,32.8323176 24.0435424,32.8157382 24.359026,32.8462918 L24.359026,32.7712105 L24.4336336,32.7712105 C24.4357652,32.7479992 24.4357652,32.7221826 24.4357652,32.6968397 C24.4568448,32.2451677 24.5435318,31.8898934 24.9563605,31.7238619 C24.9563605,31.3264284 24.2372853,30.3418449 24.0200943,29.979702 C22.8879536,28.0671421 21.7551023,26.1545822 20.6227248,24.2417855 C20.5085633,24.2417855 20.5478803,24.1951261 20.5478803,24.0923334 C20.645936,24.0923334 20.6227248,24.1155447 20.6227248,24.017489 L20.8467844,24.017489 C20.9685251,24.017489 20.977999,24.1299925 21.0289217,24.2230744 C22.0334005,26.044684 23.3315728,27.7161311 24.359026,29.5540834 L24.4336336,29.5540834 C24.4336336,29.652376 24.407817,29.628691 24.508478,29.628691 C24.508478,29.4349481 25.3862424,28.8617723 25.5544055,28.7310313 L25.6290131,28.7310313 L25.6290131,28.5813424 C25.4890351,28.5813424 25.3627943,28.2961756 25.2694755,28.193146 C24.4383706,27.2770121 23.7282957,26.2876916 22.9791407,25.3151875 C22.518942,24.7161951 21.9280025,24.1645725 21.5942815,23.4935778 C21.4938573,23.4935778 21.5194371,23.5170259 21.5194371,23.4189702 L21.5942815,23.4189702 L21.5942815,23.3438889 L21.6686523,23.3438889 C21.6686523,23.2434647 21.6433094,23.2690445 21.7434967,23.2690445 C21.7434967,23.3742057 21.7577077,23.3512313 21.8228413,23.4118647 C22.2527232,23.930802 22.6826051,24.4473709 23.1120132,24.9667819 C24.1674147,26.1263971 25.0828381,27.3025918 25.9608393,28.5531573 C26.3741417,29.0633312 26.7846019,29.5706629 27.1981412,30.0777577 C27.4435173,30.0777577 27.5645474,29.7973279 27.7653958,29.7153779 C28.0126667,29.6125852 28.2326999,29.6005059 28.468602,29.4794758 C28.4588912,29.4349481 28.4475224,29.3880519 28.4382853,29.343761 C28.2585165,29.1334387 28.0763792,28.9205109 27.8961367,28.7078201 C27.3989896,28.1441182 26.8760259,27.6443657 26.3461935,27.1131122 C25.2952921,26.0610266 24.3028926,24.8992797 23.2548335,23.849089 C22.9253758,23.531 22.596155,23.213148 22.2666973,22.8952959 C22.292277,22.7970034 22.3157252,22.6963423 22.3413049,22.5959181 L22.4161493,22.5959181 C22.4161493,22.4950202 22.3903327,22.5210737 22.4907569,22.5210737 C22.4907569,22.6312087 22.4980993,22.5959181 22.57247,22.6612886 C23.3081246,23.309072 23.9615925,24.1018074 24.6413506,24.7818024 C25.7578593,25.8997321 26.8902368,27.0453733 27.9967978,28.1535922 C28.5057874,28.6630555 29.1644659,29.6220592 29.7480632,29.9846758 C29.9955709,30.1362595 30.3738196,29.8274078 30.6353015,29.7783799 C30.5865105,29.5540834 30.5348773,29.3295501 30.4858494,29.1054904 C30.6144587,29.1054904 30.7989645,28.9205109 30.9344424,28.8809571 L30.9344424,28.7310313 C30.7686478,28.7310313 30.1940508,28.164961 30.0329931,28.0597998 C29.2528108,27.5455995 28.5640524,26.9046846 27.8452141,26.2876916 C26.8151555,25.4485338 25.7836759,24.6062969 24.7536173,23.7650074 C24.146572,23.2458332 23.5482901,22.6075238 22.8645055,22.221459 C22.8645055,22.0930866 22.8853483,22.018479 22.9393499,21.9225549 C22.9393499,21.8221307 22.9135333,21.8474736 23.0137207,21.8474736 C23.0137207,21.9760829 23.1167502,21.9760829 23.2077005,22.0395586 C24.6062969,23.1570147 26.0025248,24.2721022 27.3989896,25.390032 C28.0391939,25.9208117 29.4280795,27.3890419 30.2617898,27.3096973 C30.2617898,26.9001845 30.5187715,26.3577991 30.3108176,25.9395228 C30.1173116,25.5510896 29.1853087,25.120734 28.816534,24.8708578 C26.9833187,23.713611 25.1482086,22.5561274 23.3128616,21.3986438 L23.3128616,21.1743473 L23.3874692,21.1743473 L23.3874692,21.0995029 C23.7654811,21.3190624 24.1415981,21.5364902 24.517952,21.7539181 C25.2370272,22.1608256 25.953497,22.567733 26.6706773,22.9748774 C27.3989896,23.3931536 28.0505626,23.9679874 28.8421137,24.2417855 L28.8421137,24.1671779 C28.9420642,24.1671779 28.9167213,24.1925208 28.9098527,24.0923334 C28.8655618,23.5428425 29.2016513,23.2039109 29.6639816,23.0449848 L29.6639816,22.8952959 C29.2364682,22.7337646 28.80706,22.5698647 28.377415,22.4085702 C26.8151555,21.7986826 25.2510013,21.1859529 23.6866102,20.5755917 L23.6866102,20.2762139 C24.2074423,20.2762139 25.0709956,20.7906511 25.5707481,20.9848677 C27.0863482,21.5201476 28.599343,22.0535327 30.1144694,22.5864442 C30.540088,22.7292644 31.1701077,23.1522777 31.6606231,23.0374056 C31.8562608,22.9909831 31.940816,22.7666866 32.0923997,22.6378405 C32.3306704,22.4741775 32.5663356,22.3105145 32.8022378,22.1470883 L32.8022378,21.9225549 L32.7276302,21.9225549 C32.7276302,21.835868 31.9732644,21.7143642 31.8332864,21.681679 C30.6421701,21.3986438 29.4493959,21.1158455 28.2563849,20.8330471 C26.8478408,20.4609565 25.4144275,19.972336 23.9106698,19.8273841 L23.9106698,19.5280063 C24.2633388,19.5912451 24.6131655,19.6521154 24.9660713,19.7153542 L24.9660713,19.7153542 Z M18.2319657,19.0791764 C18.2319657,19.5822448 18.0166695,19.677932 17.5595499,19.7525396 C17.5358649,19.6544839 17.5102852,19.5538229 17.4847054,19.4533987 L17.4096241,19.4533987 C17.3866497,19.5796395 17.3608331,19.7035118 17.3352534,19.8273841 L16.8120528,19.8273841 L16.8120528,19.7525396 C16.6839172,19.7525396 16.737682,19.4950842 16.737682,19.3785542 L16.5877563,19.3785542 C16.5877563,19.4768468 16.6112044,19.4533987 16.5131487,19.4533987 L16.5131487,19.7525396 C16.0951093,19.7525396 16.0160016,19.3060783 16.139637,19.0045688 C16.8120528,19.0045688 17.627052,18.9181188 18.2319657,19.0791764 L18.2319657,19.0791764 Z M18.7549294,16.5354126 L18.7549294,16.610257 C19.1447837,16.610257 21.2508497,16.5354126 21.3515107,16.736261 C21.3446421,16.8231847 20.272898,17.1410368 20.0251534,17.2836202 C19.4716361,17.2836202 19.1563894,16.9444517 18.6057142,16.909398 C18.6057142,16.682733 18.2435713,16.6990756 18.0827505,16.6848646 L18.0827505,16.610257 L18.0081429,16.610257 C18.0081429,16.3179847 18.5213958,16.2990367 18.6940591,16.1614272 C18.8013519,16.023107 18.90675,15.8854975 19.0140428,15.7471773 C19.2520766,15.5067751 19.4552935,15.4245883 19.7264862,15.2632938 C20.3193205,15.358981 20.7889931,15.632779 21.0855287,16.1588218 C21.1276879,16.2357979 21.1880846,16.3042474 21.1392936,16.3904606 C21.0571068,16.5233332 20.7629397,16.3738812 20.7629397,16.3738812 C20.3261892,15.3921399 19.3266842,15.8876291 18.829537,16.4603313 C18.829537,16.5588607 18.8529851,16.5354126 18.7549294,16.5354126 L18.7549294,16.5354126 Z M15.9155774,21.9973994 C15.9155774,21.3612216 18.124436,21.6160717 18.6057142,21.4734882 C18.6566369,21.5246477 18.7059016,21.5741493 18.7549294,21.6231771 C18.8529851,21.6231771 18.829537,21.5973605 18.829537,21.6977847 C18.4913159,21.6977847 18.2319657,21.9670827 17.9238245,22.0296109 C17.2793569,22.0438219 16.6346525,22.0580329 15.9904218,22.072007 L15.9904218,21.9973994 L15.9155774,21.9973994 Z M17.4847054,21.0246584 C17.4847054,21.2022955 16.8800286,21.1158455 16.737682,21.1743473 C16.5647819,21.2001639 16.3897501,21.2233752 16.2144815,21.2491918 C15.9063402,21.2491918 15.6448584,21.1951901 15.3923768,21.3237994 C15.3923768,21.3493791 15.2947948,21.3275889 15.2457669,21.3275889 C15.2457669,21.1032924 15.2429247,20.949814 15.2429247,20.7255175 L15.318006,20.7255175 L15.318006,20.6501993 L15.4674581,20.6501993 C15.4674581,21.02679 16.2819836,20.7181751 16.4385411,20.5755917 C16.9527414,20.5755917 18.0301699,20.5528542 18.6559263,20.8399158 C19.0538335,20.901023 19.2755247,20.7250438 19.3472901,20.793967 C19.4647674,20.8681009 19.3468164,21.2766663 19.2942358,21.2837718 C19.2705508,21.2837718 19.0438858,21.2681397 18.9470144,21.2487181 C18.7594296,21.0381588 17.8492169,21.0968975 17.4847054,21.0246584 L17.4847054,21.0246584 Z M12.2541206,16.610257 L12.2541206,16.5354126 L12.1797498,16.5354126 L12.1797498,16.3857237 C12.2659631,16.3857237 12.247252,16.3928291 12.2870427,16.3272218 C12.5298134,15.9018401 13.0013808,14.8282012 13.391472,14.6133787 C13.7088504,14.4355047 14.1456009,14.3867137 14.4956645,14.2905528 L14.4956645,14.2159452 C15.1380004,14.2976583 16.5832562,14.274447 16.2144815,15.2632938 L16.139637,15.2632938 C16.139637,15.3945084 16.2774834,15.4200882 16.3639335,15.488064 C16.4830688,15.488064 16.3897501,16.1730328 16.3639335,16.3111161 L16.2890891,16.3111161 L16.2890891,16.3857237 L16.2144815,16.3857237 C16.2144815,16.2850626 16.2374559,16.3111161 16.139637,16.3111161 C16.139637,16.0652663 15.7289399,15.358981 15.5302232,15.1979233 C15.299058,15.0082068 14.9629686,14.9127565 14.6429849,14.9127565 C13.5222129,14.9127565 13.2910478,15.9882902 12.6278691,16.610257 L12.2541206,16.610257 Z M12.5530247,17.2087757 C12.4035726,17.2087757 12.4736801,17.0406126 12.508497,16.9562942 C12.6418433,16.8347904 12.7725842,16.7106812 12.9033251,16.5891774 C13.2768368,16.1635588 13.5852149,15.7521512 14.0475452,15.4129827 C14.6593275,15.4129827 15.2616358,15.4340623 15.5629084,15.9648421 C15.7379402,16.2736938 15.8523385,16.591309 16.139637,16.8347904 C16.139637,16.9326092 16.1630851,16.909398 16.0650294,16.909398 C16.0650294,17.073061 15.8127847,17.1268258 15.7078603,17.2248815 C15.5302232,17.3816759 15.4508786,17.6367628 15.2102395,17.7161074 C14.7502777,17.8634278 12.9594585,17.4122295 12.5530247,17.2087757 L12.5530247,17.2087757 Z M20.6672525,22.8784796 C20.4197447,23.3254147 20.1907112,23.1965685 19.8922808,23.5099204 C19.67959,23.7297168 19.6490364,24.0103835 19.3503691,24.1645725 C18.9858577,24.3493151 18.573029,24.3775002 18.2319657,24.6160077 C17.6201834,24.6160077 17.3632016,24.4684505 16.8752916,24.3587891 C15.8035475,24.1131762 14.719961,24.0572797 13.89833,23.3438889 C13.7626152,23.3438889 13.869908,23.1430405 13.89833,23.0449848 C13.7555097,23.0449848 13.6366113,22.962798 13.5245814,22.8952959 L13.4495001,22.8952959 L13.4495001,22.7458439 L13.5989522,22.7458439 C13.5989522,22.6262349 14.0731249,22.9090332 14.1969972,22.9651665 C15.6493585,23.6084498 17.5128905,23.9563818 19.10973,23.3697055 C19.6258251,23.1778574 20.0928924,22.8578737 20.6227248,22.6705257 L20.6227248,22.5959181 C20.674358,22.6705257 20.723149,22.7458439 20.7721768,22.8199778 C20.6625155,22.8199778 20.7070432,22.803872 20.6672525,22.8784796 L20.6672525,22.8784796 Z M21.5942815,17.1339313 C21.2065588,17.1339313 20.8958123,17.4285721 20.587671,17.597209 C20.4266134,17.6673164 20.263424,17.7369502 20.0999979,17.8072945 C19.375712,17.8072945 19.0232799,17.5244962 18.4562622,17.2836202 L18.4562622,17.2087757 L18.3814177,17.2087757 L18.3814177,17.1339313 L18.4562622,17.1339313 C18.4562622,16.9960849 18.6545052,17.0754295 18.7456923,17.0943774 C19.0048057,17.2087757 19.2639191,17.3208056 19.5230324,17.4352039 C20.0670758,17.5709187 20.645936,17.2248815 21.0713178,16.9844793 L21.5194371,16.9844793 L21.5194371,17.0590869 L21.5942815,17.0590869 L21.5942815,17.1339313 Z M21.7998669,16.2945366 C21.582439,16.4044348 21.3327996,16.2125867 21.2465864,16.0001326 C21.1459254,15.7521512 21.0687124,15.4854586 20.8844435,15.2891104 C20.3920333,14.7654361 19.4647674,14.7957528 18.9439353,15.2426879 C18.5796608,15.5508291 18.4820788,15.9155774 18.0081429,16.0865827 C18.0081429,15.9859217 18.0308804,16.0117383 17.9328247,16.0117383 L17.9328247,15.8620494 C17.8091893,15.8620494 17.8582171,15.8151532 17.8582171,15.7123605 C17.9565097,15.7123605 18.119699,15.4714845 18.2319657,15.4129827 L18.2319657,15.2632938 C18.1336731,15.2398457 18.0334858,15.2145028 17.9328247,15.1886862 L17.8582171,15.1886862 L17.8582171,15.0389973 C17.9773524,15.0389973 17.9375617,15.006312 17.9915634,14.9267306 C18.4278402,14.2393933 19.2894988,14.5759565 19.8008569,14.0662563 L20.4732727,14.2905528 C20.9334713,14.2905528 21.6804947,15.6867807 21.8557634,16.0583976 C21.8908171,16.1356106 21.88158,16.2504826 21.7998669,16.2945366 L21.7998669,16.2945366 Z M15.6320685,16.6978913 L15.6320685,16.6289681 C15.3551914,16.6289681 15.2760836,16.1754013 15.0574715,16.0588713 C14.7469618,15.8928398 14.3355542,15.868918 13.9385944,15.868918 C13.7339564,16.054608 13.5274236,16.2379296 13.3227856,16.4217248 L13.3227856,16.6978913 C14.1143367,16.6978913 14.8649129,16.6765749 15.6320685,16.6978913 L15.6320685,16.6978913 Z M15.5136437,16.7571037 L15.3646654,16.7571037 C15.1666592,16.8833445 14.9667582,17.0074537 14.768752,17.1317997 C14.1683384,17.1317997 13.8005111,16.8508961 13.2043609,16.832185 C13.2043609,17.0685608 14.5873252,17.2956995 14.8968876,17.2135127 C15.1571852,17.1410368 15.32748,16.9655313 15.5136437,16.7571037 L15.5136437,16.7571037 Z M98.4306351,28.4169688 L98.2314446,27.1533766 C97.8633805,27.6678138 97.4254457,28.0500889 96.918114,28.3006757 C96.4103086,28.5512625 95.8172374,28.6763191 95.1391373,28.6763191 C94.5050911,28.6763191 93.9188885,28.5612102 93.3802927,28.3305188 C92.8416969,28.0998273 92.366103,27.7608957 91.9539849,27.3130132 C91.5238661,26.8521041 91.1979612,26.3090081 90.97627,25.6837254 C90.7545789,25.0589163 90.6437333,24.3760791 90.6437333,23.6356875 C90.6437333,22.0352953 91.1015634,20.7520446 92.0169868,19.7854617 C92.9324103,18.8191157 94.1505273,18.3359426 95.6711013,18.3359426 C96.8193478,18.3359426 97.7669827,18.6241885 98.5140061,19.2002065 C99.2607926,19.7766983 99.734018,20.5834077 99.9336821,21.6208087 L97.5329754,21.6208087 C97.3733388,21.1996902 97.1296206,20.8816013 96.801584,20.6667788 C96.4735475,20.4514826 96.0723244,20.3439529 95.5979148,20.3439529 C94.879787,20.3439529 94.299032,20.6366989 93.8556497,21.2217172 C93.4125042,21.8069724 93.1905762,22.5807598 93.1905762,23.5426057 C93.1905762,24.4914249 93.4089515,25.2462643 93.845702,25.8068871 C94.2824525,26.3677468 94.8662866,26.6481766 95.5979148,26.6481766 C96.1831699,26.6481766 96.6675272,26.499672 97.0509866,26.2026627 C97.434446,25.9056534 97.6727166,25.4911667 97.7657985,24.9592027 L95.5846512,24.9592027 L95.5846512,23.0769595 L100,23.0769595 L100,28.4169688 L98.4306351,28.4169688 Z M81.5510802,28.4169688 L81.5510802,18.62182 L84.2641914,18.62182 L86.112802,21.8403682 C86.4143114,22.3635688 86.7001888,22.8820324 86.9709078,23.3962327 C87.2411531,23.9106698 87.4960032,24.4180015 87.735458,24.9191751 C87.7001675,24.1787835 87.6734035,23.4850512 87.6556397,22.8377415 C87.637876,22.1904318 87.6291126,21.6208087 87.6291126,21.1288722 L87.6291126,18.62182 L90.0497147,18.62182 L90.0497147,28.4169688 L87.3432352,28.4169688 L85.4214382,25.1053388 C85.1950101,24.7152477 84.9491603,24.2775497 84.6831782,23.7920082 C84.4171962,23.3064667 84.135819,22.7823187 83.8385728,22.2193274 C83.8873638,22.8578737 83.9228913,23.4516555 83.9449183,24.0016201 C83.9671821,24.5511109 83.9783141,25.039021 83.9783141,25.4644027 L83.9783141,28.4169688 L81.5510802,28.4169688 Z M77.9978636,28.4169688 L80.498284,28.4169688 L80.498284,18.62182 L77.9978636,18.62182 L77.9978636,28.4169688 Z M68.4263007,28.4169688 L68.4263007,18.62182 L71.139412,18.62182 L72.9880225,21.8403682 C73.289532,22.3635688 73.5754093,22.8820324 73.8458915,23.3962327 C74.1161368,23.9106698 74.3712237,24.4180015 74.6106786,24.9191751 C74.5751512,24.1787835 74.5483872,23.4850512 74.5308603,22.8377415 C74.5130966,22.1904318 74.5040963,21.6208087 74.5040963,21.1288722 L74.5040963,18.62182 L76.9249353,18.62182 L76.9249353,28.4169688 L74.2182189,28.4169688 L72.2964219,25.1053388 C72.0702306,24.7152477 71.824144,24.2775497 71.558162,23.7920082 C71.2921799,23.3064667 71.0108027,22.7823187 70.7137934,22.2193274 C70.7625844,22.8578737 70.797875,23.4516555 70.8201388,24.0016201 C70.8424027,24.5511109 70.8535346,25.039021 70.8535346,25.4644027 L70.8535346,28.4169688 L68.4263007,28.4169688 Z M59.3535429,28.4169688 L59.3535429,18.62182 L64.0415055,18.62182 C65.2828339,18.62182 66.1973099,18.8432743 66.7846967,19.2866566 C67.3720835,19.7300389 67.6657769,20.4171394 67.6657769,21.3484317 C67.6657769,21.8979226 67.5404835,22.3690163 67.2901336,22.7612391 C67.0395468,23.1536988 66.6506398,23.4826827 66.1229391,23.7486648 C66.552821,23.9128015 66.8566989,24.1356769 67.0340992,24.417291 C67.2114995,24.6986682 67.313108,25.1941574 67.339872,25.9032849 C67.3531355,26.102949 67.3663991,26.3710627 67.3798995,26.7078627 C67.4109268,27.4970453 67.5461679,27.9536912 67.7856228,28.0778003 L67.7856228,28.4169688 L65.1587247,28.4169688 C65.0303523,28.0711685 64.9569289,27.596759 64.939402,26.9937401 C64.9216383,26.3911949 64.9038746,26.0119988 64.8861109,25.8568624 C64.8460833,25.4755346 64.717474,25.196289 64.500283,25.0191256 C64.283092,24.8417253 63.9574239,24.7529067 63.5230419,24.7529067 L61.8470947,24.7529067 L61.8470947,28.4169688 L59.3535429,28.4169688 Z M61.8470947,22.8178461 L63.7158374,22.8178461 C64.2212743,22.8178461 64.5924175,22.7247643 64.8295039,22.5386006 C65.0668271,22.3524368 65.1852519,22.0554275 65.1852519,21.6473358 C65.1852519,21.2885088 65.070143,21.0213425 64.8394516,20.8460739 C64.608997,20.6710421 64.2565649,20.5834077 63.7821553,20.5834077 L61.8470947,20.5834077 L61.8470947,22.8178461 Z M48.9440064,23.5293421 C48.9440064,21.9379502 49.3840728,20.6798055 50.2639688,19.7556187 C51.1441016,18.8314318 52.3378232,18.3691016 53.8448967,18.3691016 C55.3567072,18.3691016 56.5570606,18.8321424 57.44572,19.7589346 C58.3346163,20.6854899 58.7791828,21.9422135 58.7791828,23.5293421 C58.7791828,25.1164708 58.3346163,26.3731943 57.44572,27.2997497 C56.5570606,28.2265418 55.3567072,28.6898195 53.8448967,28.6898195 C52.3378232,28.6898195 51.1441016,28.2272524 50.2639688,27.3030655 C49.3840728,26.3788787 48.9440064,25.120734 48.9440064,23.5293421 L48.9440064,23.5293421 Z M51.4910862,23.5293421 C51.4910862,24.5267154 51.6938294,25.2915025 52.0993157,25.8234666 C52.505039,26.3554306 53.0869783,26.6214126 53.8448967,26.6214126 C54.6075522,26.6214126 55.1939916,26.3554306 55.6039781,25.8234666 C56.0139646,25.2915025 56.2190763,24.5267154 56.2190763,23.5293421 C56.2190763,22.5362321 56.0139646,21.772866 55.6039781,21.2385335 C55.1939916,20.7044378 54.6075522,20.4372716 53.8448967,20.4372716 C53.0869783,20.4372716 52.505039,20.7032536 52.0993157,21.2352176 C51.6938294,21.7671817 51.4910862,22.5319688 51.4910862,23.5293421 L51.4910862,23.5293421 Z M37.7168653,28.4169688 L37.7168653,18.62182 L41.1679997,18.62182 L42.4581191,23.3898377 C42.5734648,23.8109562 42.6776786,24.2199953 42.7707605,24.6164814 C42.8638423,25.0134412 42.9457922,25.4002165 43.0166103,25.7770441 C43.1009287,25.3779526 43.196379,24.9603869 43.3027245,24.5236364 C43.4090699,24.0868859 43.5310474,23.6181607 43.6684201,23.1169871 L44.885353,18.62182 L48.3300924,18.62182 L48.3300924,28.4169688 L46.0423629,28.4169688 L46.0423629,24.0745697 C46.0423629,23.7685601 46.0501789,23.3398625 46.0655742,22.7880031 C46.0812062,22.2361437 46.1044175,21.5985448 46.1354448,20.8759169 L44.2536753,28.4169688 L41.7665185,28.4169688 L39.9245397,20.8759169 C39.955567,21.7449178 39.9799625,22.5262844 39.9977262,23.2202535 C40.01549,23.9139857 40.0242534,24.4558974 40.0242534,24.8459886 L40.0242534,28.4169688 L37.7168653,28.4169688 Z M84.157846,17.1666165 L84.157846,13.4760273 L80.7732663,7.37146769 L83.5860912,7.37146769 L85.3880424,11.3214072 L87.1835986,7.37146769 L90.0163189,7.37146769 L86.5983435,13.4760273 L86.5983435,17.1666165 L84.157846,17.1666165 Z M76.4284987,7.37146769 L79.1681371,7.37146769 L82.6261401,17.1666165 L79.9329242,17.1666165 L79.3341686,15.3712972 L76.0625662,15.3712972 L75.5038381,17.1666165 L72.9039409,17.1666165 L76.4284987,7.37146769 Z M76.6610849,13.3429178 L78.8022046,13.3429178 L77.7117494,9.96496996 L76.6610849,13.3429178 Z M64.6956839,17.1666165 L64.6956839,7.37146769 L68.8784465,7.37146769 C70.3282024,7.37146769 71.4397372,7.79377038 72.2132877,8.63813893 C72.9870751,9.48274433 73.3736135,10.6963613 73.3736135,12.2789898 C73.3736135,13.9149094 72.9735747,15.1384741 72.173497,15.9496837 C71.3731825,16.7608933 70.1661973,17.1666165 68.5525415,17.1666165 L64.6956839,17.1666165 Z M67.2159997,15.1117101 L68.5790687,15.1117101 C69.3549877,15.1117101 69.9236634,14.883624 70.2848589,14.4267413 C70.6462913,13.9703322 70.8267706,13.2543361 70.8267706,12.2789898 C70.8267706,11.2991433 70.6462913,10.5821998 70.2848589,10.1279224 C69.9236634,9.67340819 69.3549877,9.4462695 68.5790687,9.4462695 L67.2159997,9.4462695 L67.2159997,15.1117101 Z M55.1840439,17.1666165 L55.1840439,7.37146769 L57.8971552,7.37146769 L59.7457657,10.5900158 C60.0472752,11.1129796 60.3331525,11.63168 60.6036347,12.1461172 C60.8741168,12.6603175 61.1289669,13.167886 61.3684218,13.6688228 C61.3328944,12.9284312 61.3063672,12.2346989 61.2886035,11.5873892 C61.2708398,10.9400794 61.2620764,10.3704563 61.2620764,9.87828303 L61.2620764,7.37146769 L63.6824416,7.37146769 L63.6824416,17.1666165 L60.976199,17.1666165 L59.0541651,13.8549865 C58.8279738,13.4648953 58.582124,13.0271974 58.316142,12.5416559 C58.05016,12.0563512 57.7687828,11.5319664 57.4715366,10.9689751 C57.5203276,11.6075214 57.555855,12.2013031 57.577882,12.7510309 C57.6001459,13.3007586 57.6112778,13.7884318 57.6112778,14.2140504 L57.6112778,17.1666165 L55.1840439,17.1666165 Z M46.0182043,7.37146769 L48.4852289,7.37146769 L48.4852289,13.4892908 C48.4852289,14.1631277 48.6126539,14.6429849 48.8677409,14.9290991 C49.1225909,15.2149765 49.5446568,15.3577967 50.1344121,15.3577967 C50.7151671,15.3577967 51.1317854,15.2149765 51.3847407,14.9290991 C51.6372223,14.6429849 51.7637,14.1631277 51.7637,13.4892908 L51.7637,7.37146769 L54.2572517,7.37146769 L54.2572517,13.1899131 C54.2572517,14.0101229 54.1774335,14.6640645 54.0180337,15.1517376 C53.8583971,15.6394108 53.5945468,16.0517658 53.2267195,16.3885659 C52.8408916,16.7388663 52.3918249,17.0015324 51.8799931,17.1765642 C51.3679244,17.3518329 50.7907221,17.4392303 50.1476757,17.4392303 C49.5048661,17.4392303 48.9274269,17.3518329 48.4153583,17.1765642 C47.9032896,17.0015324 47.4544598,16.7388663 47.0688687,16.3885659 C46.6965413,16.0472657 46.4281908,15.6315948 46.2642909,15.14179 C46.1001542,14.6519852 46.0182043,14.0013595 46.0182043,13.1899131 L46.0182043,7.37146769 Z M37.2445874,13.9149094 L39.6519259,13.9149094 C39.6696897,14.4734006 39.8335895,14.8935717 40.1440992,15.1749489 C40.4543721,15.456563 40.9086495,15.5972516 41.5071683,15.5972516 C42.0171053,15.5972516 42.4116966,15.5129332 42.6909422,15.3445332 C42.9701878,15.1761331 43.1096921,14.9388099 43.1096921,14.6330372 C43.1096921,14.4779008 43.0765332,14.3393438 43.0102153,14.2173663 C42.9436606,14.0953888 42.8505787,14.0034912 42.7307329,13.9414366 C42.5490693,13.8438546 42.1033185,13.6908498 41.394191,13.4826591 C40.6848267,13.2742315 40.086308,13.0726725 39.5986348,12.8775085 C38.8937706,12.5982629 38.3584907,12.2292514 37.992795,11.770237 C37.6270994,11.3114595 37.4442515,10.7761796 37.4442515,10.1643973 C37.4442515,9.22907849 37.7954994,8.48513414 38.4982319,7.93327475 C39.2009645,7.38141537 40.1528627,7.10548567 41.3541635,7.10548567 C42.5334372,7.10548567 43.4689928,7.39586319 44.1605935,7.97638137 C44.8519572,8.55737324 45.1977575,9.34205571 45.1977575,10.3304288 L42.8373152,10.3304288 C42.784024,9.87401974 42.6232032,9.53698287 42.3550895,9.31979186 C42.0869759,9.10260084 41.6999638,8.99388691 41.1947637,8.99388691 C40.7911721,8.99388691 40.4631356,9.0770211 40.2104171,9.24328946 C39.9576987,9.40955783 39.8314579,9.6213013 39.8314579,9.87828303 C39.8314579,10.3129019 40.4321083,10.7228884 41.6336459,11.1087163 C41.8508369,11.1795343 42.0171053,11.2328254 42.132451,11.268116 C42.154478,11.2771163 42.1876369,11.2880114 42.2319278,11.3015118 C43.4732561,11.7048665 44.2491752,12.0307715 44.559448,12.2789898 C44.8742211,12.5359715 45.1136759,12.8386652 45.2775758,13.186834 C45.4417125,13.534766 45.5236625,13.9215412 45.5236625,14.346923 C45.5236625,15.3225062 45.1501508,16.0816089 44.4031274,16.6247048 C43.6563408,17.1678008 42.6087554,17.4392303 41.2610816,17.4392303 C39.988726,17.4392303 39.0202483,17.1479054 38.3551748,16.5647819 C37.6901013,15.9818952 37.3201424,15.0984465 37.2445874,13.9149094 L37.2445874,13.9149094 Z"/>
</svg>
