<svg xmlns="http://www.w3.org/2000/svg" width="142" height="33">
  <path fill="#F1F1F2" fill-rule="evenodd" d="M142 .6245592v1.3303735h-3.03608v30.4205081h-1.71404l-17.63166-27.027617v25.868247h3.58189v1.2032533h-8.7909v-1.2032533h3.7694V1.9549327h-3.7694V.6245592h10.22911l13.25683 20.2019149V1.9549327h-3.79419V.6245592H142zm-27.11435 21.8281472C114.88565 29.4751757 108.13645 33 104.35814 33c-2.13754 0-4.63534-.8207603-6.45916-1.420122-1.07267-.3521993-1.99879-.6565516-2.44067-.6565516-1.14177 0-1.95839 1.0240393-1.96647 1.0345147l-.06269.0798394h-.69181V19.6068h.90216l.00669.2058271c.00056.0195352.08526 1.9951355 2.05479 6.0929915 2.0456 4.2592335 5.72863 5.7767483 8.49333 5.7767483 1.90685 0 6.34214-.5585927 6.34214-5.7345636 0-3.7646257-5.2026-5.3846293-8.31112-6.3528943-.59178-.1843101-1.10304-.3434226-1.48948-.4906442-.18778-.0710627-.39257-.1441073-.60961-.2219648-2.62038-.9374051-7.00664-2.5067305-7.00664-9.1455744C93.1196 2.3971637 100.05575 0 102.44628 0c1.44211 0 2.81346.4354361 4.02321.8196278.9264.2944432 1.72631.5484004 2.36434.5484004 1.42595 0 2.46296-1.0410264 2.47327-1.0515018l.0613-.0625692h.67676l.05628 12.1772064h-.84226l-.01254-.198466c-.11869-1.8609374-1.89709-7.7296991-5.20148-9.9196201-.95482-.6327697-2.15454-.9815716-3.37878-.9815716-2.68753 0-5.58012 1.6791754-5.58012 5.3659435 0 4.392016 5.89162 5.9367101 8.72291 6.6787635.45303.1189097.84449.2213986 1.12338.3125627.20451.0665329.44829.1347644.72134.2112064 2.34706.657401 7.23176 2.0257123 7.23176 8.5527244zm-40.89081-7.9366587V1.9379456h3.48605c2.87336 0 5.58736 0 5.58736 6.3664839 0 6.2116182-2.15342 6.2116182-4.23607 6.2116182h-4.83734zm10.35226 9.2177695c0 4.3113273-.44383 7.3627777-6.18305 7.3627777l-4.16921-.0687978V16.0058168h4.41802c3.5621.0804056 5.93424 1.4255012 5.93424 7.7280004zm-2.0743-8.5142203c4.83622-1.1627673 6.91999-3.2451033 6.91999-6.8381592 0-3.7377294-4.44504-7.7721669-11.62637-7.7721669h-16.0597v1.3286748h5.28256v29.1226932h-5.28256v1.3714256h16.82701c2.78365 0 5.83812-.8402954 8.17042-2.2476771 2.00575-1.2100481 4.39628-3.3917587 4.39628-6.9137518 0-5.6903972-6.01059-7.5230227-8.62763-8.0510386zM59.29562.8810645l.43659-.3170926v13.0545904l-.40761-1.2734667c-.58371-1.8229995-3.81732-10.9176125-10.17283-10.9176125-5.08948 0-7.66974 5.05423-7.66974 15.0228296 0 7.4244975.91191 12.3337709 2.568 13.82354.02396.021517.04458.0399197.06046.0557744 1.16238 1.1375698 4.082 1.1375698 5.04128 1.1375698 5.79883 0 9.25701-6.7373691 10.1667-11.2661313l.41374-2.0596866v13.8926209l-.43659-.3170926c-.96485-.7015674-1.40534-1.0217744-2.42424-1.0217744-1.12226 0-2.62233.6188969-3.35676 1.035081-.74335.4212802-2.56355 1.0897228-4.28261 1.0897228-3.54623 0-7.11808-1.420122-9.79893-3.8959926-2.26431-2.0908295-4.96326-5.9519986-4.96326-12.4736314 0-9.9937971 9.69361-16.3684915 14.76219-16.3684915 1.53099 0 3.22637.3541812 4.12268.8615294.80214.4538388 2.44346.9597714 3.51669.9597714 1.0189 0 1.45939-.3202069 2.42424-1.0220575zM15.95021 24.7465318c-4.47095 0-8.09575-3.7147968-8.09575-8.295936 0-4.5819885 3.6248-8.296219 8.09575-8.296219 4.47207 0 8.09658 3.7142305 8.09658 8.296219 0 4.5811392-3.62451 8.295936-8.09658 8.295936zm0 1.3048928c-6.54998-.028595-11.87573-4.4344838-14.69644-9.7174736 2.84857-5.2543947 8.20218-9.5139114 14.69644-9.5139114 6.60794 0 11.90471 4.231488 14.69672 9.5139114-2.79201 5.2829898-8.03167 9.7455023-14.69672 9.7174736zm0-25.9444058C7.14093.1070188 0 7.4247806 0 16.4505958c0 9.0252491 7.14093 16.3441433 15.95021 16.3441433 8.80928 0 15.95021-7.3188942 15.95021-16.3441433 0-9.0258152-7.14093-16.343577-15.95021-16.343577z"/>
</svg>
