<svg xmlns="http://www.w3.org/2000/svg" width="164" height="27">
  <path fill="#F1F1F2" fill-rule="evenodd" d="M64.78639 18.2809464v1.0767241h-1.33058v1.2103726h1.27771v1.0769753h-1.27771v1.469128h1.33058v1.0767241H62.2997v-5.9099241h2.48669zm-2.80316-1.6266422v-5.9101753h1.14806v2.3722599h.81546v-2.3722599h1.15208v5.9101753h-1.15208v-2.4611913h-.81546v2.4611913h-1.14806zm.97157-7.5365663V4.300616h-.87212V3.2075626h2.90462V4.300616h-.86406v4.8171219H62.9548zm93.96831 17.3665097c-.97433-3.5929323-1.89529-7.1381331-2.76262-10.636356-.86759-3.4977204-1.68759-6.9723287-2.46001-10.42282l.14276 21.059176h-4.67026V.5160036h7.02301c1.04583 3.936851 2.00531 7.665944 2.87894 11.1875302.87338 3.5218374 1.64881 6.8125535 2.32606 9.8716458l-.1425-21.059176H164v25.968244h-7.07689zM135.20378 6.8833972v13.2332056c0 .8066638.12488 1.3962745.37413 1.769837.24975.3733112.64754.5602181 1.19437.5602181.64175 0 1.08738-.1715825 1.33713-.5157524.24925-.3439186.37412-1.0254755.37412-2.0454241V6.9190703c0-.9129294-.12185-1.5354498-.36531-1.8675611-.24396-.3318602-.66844-.4979158-1.27469-.4979158-.58208 0-1.00102.1808776-1.25656.5423815-.25554.3617552-.38319.9576464-.38319 1.7874223zm8.35989 13.3402248c0 2.5611765-.48742 4.3310135-1.46151 5.3087573C141.12758 26.5108768 139.37479 27 136.84353 27c-2.55492 0-4.3198-.4921378-5.29388-1.4764133-.97458-.9837732-1.46175-2.7505955-1.46175-5.2999647V6.7768804c0-2.5614276.48717-4.3312646 1.46175-5.3092597.97408-.9784975 2.73896-1.4673695 5.29388-1.4673695 2.53126 0 4.28405.488872 5.25863 1.4673695.97409.9779951 1.46151 2.7478321 1.46151 5.3092597V20.223622zm-22.85103 6.2606256h5.24076V.5157524h-5.24076v25.9684952zm-12.41432 0V5.3183036h-3.83238v-4.8023h12.76277v4.8023h-3.79688v21.165944h-5.13351zm-13.25345-9.2845472H97.879L96.48874 4.9625777l-1.44387 12.2371227zm-6.50639 9.2845472L92.99499.5160036h6.96963l4.45626 25.968244h-5.36513l-.58838-4.5533421h-3.97488l-.58837 4.5533421h-5.36564zm-8.54719 0c-.97459-3.5929323-1.8958-7.1381331-2.76313-10.636356-.86734-3.4977204-1.68734-6.9723287-2.45976-10.42282l.1425 21.059176h-4.67V.5160036h7.02301c1.04558 3.936851 2.00531 7.665944 2.87894 11.1875302.87312 3.5218374 1.64856 6.8125535 2.32606 9.8716458L82.32616.5160036h4.74151v25.968244h-7.07638zM56.36332.5157524v4.7312051h-5.84676v5.3183036h5.61488v4.7312051h-5.61488v6.4563251h5.84676v4.7312051H45.43643V.5157524h10.92689zM42.4238 20.2233708c0 2.5375619-.49019 4.3016208-1.47057 5.2914232C39.97286 26.5045964 38.211 27 35.66817 27c-2.55517 0-4.3198-.492389-5.29414-1.4764133-.97458-.9840244-1.46175-2.7508467-1.46175-5.3002159V6.7766292c0-2.5611764.48717-4.3310134 1.46175-5.3092597C31.34837.4891232 33.113 0 35.66817 0c2.54283 0 4.30469.4951524 5.28506 1.485206.98038.9903048 1.47057 2.7541125 1.47057 5.2914232v2.9169024h-5.15138V6.8833972c0-.8297759-.1279-1.4256671-.38319-1.7874223-.25579-.3617552-.67473-.5426328-1.25681-.5426328-.55867 0-.95974.1750996-1.20319.5245451-.24371.3499479-.36532.9280025-.36532 1.7344151v13.3753954c0 .8302784.11582 1.4141111.34744 1.7520005.23188.3378894.63873.5069597 1.22107.5069597.59416 0 1.01612-.1869069 1.26562-.5602181.2495-.3738137.37438-1.0166828.37438-1.9298634v-3.0593435h5.15138v3.3261379zm-24.1665-3.0239216h2.83413l-1.3905-12.2371227-1.44363 12.2371227zm-6.50638 9.2845472L16.20717.5157524h6.96989l4.45625 25.968244h-5.36538l-.58838-4.5533421h-3.97487l-.58838 4.5533421h-5.36538zM10.94476.5157524v4.7312051H5.09801v5.3183036h5.63275v4.7312051H5.09801v11.1875302H0V.5157524h10.94476z"/>
</svg>
