<svg xmlns="http://www.w3.org/2000/svg">

	<symbol id="caret" viewBox="0 0 100 100">
		<path fill-rule="evenodd" d="M25.654 14.566A8.824 8.824 0 1 1 39.052 3.08l35.294 41.177a8.824 8.824 0 0 1 0 11.484L39.052 96.92a8.824 8.824 0 0 1-13.398-11.485L56.026 50z"/>
	</symbol>

	<symbol id="cbs-eye" viewBox="0 0 100 100">
		<path fill-rule="evenodd" d="M100 50.275c0 27.614-22.386 50-50 50s-50-22.386-50-50 22.386-50 50-50 50 22.386 50 50Zm-3.005-.001c-3.93-8.646-9.992-15.677-18.196-21.093-8.64-5.851-18.24-8.778-28.799-8.778-10.56 0-20.206 2.927-28.93 8.778-8.118 5.416-14.14 12.447-18.065 21.093 3.925 8.648 9.947 15.721 18.064 21.225 8.725 5.766 18.372 8.647 28.931 8.647 10.56 0 20.16-2.882 28.799-8.647 8.204-5.504 14.267-12.577 18.196-21.225ZM50 76.827c14.664 0 26.552-11.888 26.552-26.552S64.664 23.723 50 23.723 23.448 35.61 23.448 50.275 35.336 76.827 50 76.827Z"/>
	</symbol>

	<symbol id="icon-gallery" viewBox="0 0 100 100">
		<path fill-rule="evenodd" d="M96.096 23.574c-2.604-2.654-5.748-3.98-9.428-3.98H75.004l-2.656-7.22c-.662-1.734-1.867-3.23-3.62-4.49C66.97 6.63 65.175 6 63.334 6H36.67c-1.842 0-3.64.63-5.391 1.884-1.755 1.26-2.962 2.756-3.622 4.49L25 19.594H13.335c-3.683 0-6.824 1.326-9.43 3.98C1.302 26.227 0 29.43 0 33.182v47.572c0 3.75 1.302 6.954 3.905 9.609 2.606 2.654 5.747 3.98 9.43 3.98H86.67c3.679 0 6.823-1.326 9.427-3.98 2.603-2.655 3.904-5.858 3.904-9.61v-47.57c0-3.752-1.3-6.956-3.904-9.61ZM73.27 56.452c0 12.852-10.418 23.27-23.27 23.27s-23.27-10.418-23.27-23.27S37.148 33.182 50 33.182 73.27 43.6 73.27 56.452Zm-23.269 15.01c8.285 0 15-6.716 15-15 0-8.285-6.716-15-15-15-8.284 0-15 6.715-15 15 0 8.284 6.716 15 15 15Z"/>
	</symbol>

	<symbol id="icon-video" viewBox="0 0 100 100">
		<path fill-rule="evenodd" d="M96.574 44.074c5.211 3.274 5.209 8.583 0 11.855L28.436 98.734C23.224 102.008 19 98.707 19 91.421V8.583c0-7.313 4.226-10.586 9.436-7.314l68.138 42.805Z"/>
	</symbol>

	<symbol id="logo-taboola" viewBox="0 0 76 11">
		<path fill-rule="evenodd" d="M50.342 9.49h.932V4.993h4.65v-.856h-4.65V.855h5.16V0h-6.092v9.49ZM16.547.007h-2.602v9.435H16.4l.005-.733h.026c.326.436.717.924 1.992.932 1.934.01 2.878-1.89 2.888-3.598.01-1.603-.597-3.552-2.883-3.566-.778-.007-1.476.334-1.874.91h-.026l.019-3.38Zm-.127 6.034c.005-.802.22-1.68 1.153-1.675.933.004 1.138.887 1.134 1.688-.005.816-.222 1.696-1.154 1.69-.932-.006-1.137-.889-1.133-1.703ZM0 2.42h2.626l.001 7.023h2.878V2.42h2.63V.023H0V2.42ZM13.29 7.92c0 .512.019 1.09.305 1.526l-2.654-.015a1.805 1.805 0 0 1-.087-.645h-.027c-.555.628-1.358.807-2.199.802-1.314-.008-2.4-.645-2.393-2.077.01-1.813 1.798-2.035 3.157-2.203.256-.032.497-.062.708-.1.355-.065.71-.168.713-.6 0-.46-.43-.635-.85-.638-.802-.003-.963.402-.977.691l-2.419-.014c.09-1.919 1.905-2.221 3.522-2.214 3.234.02 3.226 1.353 3.218 2.658v.03l-.018 2.799ZM10.8 6.366c-.327.15-.671.26-1.025.326-.579.129-.883.27-.885.73 0 .316.338.633.811.636.592 0 1.053-.349 1.098-1.058l.002-.634Zm14.402.821c-2.563-.015-3.71-1.717-3.699-3.61C21.514 1.685 22.68.01 25.24.027c1.6.012 2.65.674 3.211 1.631.564-.973 1.627-1.643 3.25-1.634 2.564.013 3.71 1.703 3.703 3.596-.007 1.892-1.178 3.58-3.74 3.566l-.004.003c-1.601-.01-2.65-.679-3.208-1.641-.565.975-1.628 1.649-3.25 1.64Zm.03-5.27c-.985-.006-1.122.953-1.127 1.675-.004.722.122 1.697 1.11 1.703.99.007 1.124-.962 1.129-1.69.004-.727-.122-1.683-1.111-1.688Zm5.332 1.676c.004-.723.141-1.682 1.127-1.676.99.006 1.116.964 1.111 1.69-.004.726-.137 1.696-1.127 1.689-.99-.007-1.114-.98-1.11-1.703ZM38.5.027h-2.547v9.42H38.5V.026Zm7.519 8.008V5.07c.008-1.305.017-2.64-3.218-2.657-1.616-.008-3.432.295-3.522 2.214l2.42.013c.013-.289.174-.695.975-.691.421.002.85.176.85.636-.002.434-.357.537-.713.601-.21.039-.452.069-.708.1-1.358.169-3.145.39-3.155 2.203-.009 1.433 1.078 2.07 2.393 2.078.842.005 1.644-.175 2.2-.802h.026c-.008.231.024.462.093.682h2.616c-.262-.4-.26-.932-.257-1.412Zm-3.53-1.37a4.469 4.469 0 0 0 1.026-.322l-.007.63c-.043.71-.505 1.058-1.097 1.058-.473-.003-.81-.32-.81-.635.005-.46.307-.602.888-.73ZM28.333 8.392c-2.09-.012-4.003-.378-5.854-1.204l-.01 2.273c2.029.958 3.628 1.415 5.85 1.428 2.037.012 4.082-.492 5.968-1.428l.012-2.273c-2.107.803-3.77 1.217-5.966 1.204Zm31.275-5.99c-.995 0-1.777.378-2.315 1.123-.529.73-.787 1.609-.77 2.61-.017.994.248 1.833.79 2.495.542.662 1.322 1.013 2.296 1.013.824 0 1.506-.222 2.028-.656.521-.434.855-1.066.99-1.874l.036-.215h-.857l-.03.148c-.11.56-.358 1.005-.736 1.324-.378.32-.858.48-1.432.48-.72 0-1.259-.255-1.653-.78-.37-.493-.56-1.098-.576-1.8h5.291l.01-.175c.053-1.037-.186-1.916-.708-2.617-.533-.71-1.328-1.077-2.364-1.077ZM57.4 5.48c.077-.57.31-1.108.672-1.555a1.865 1.865 0 0 1 1.536-.73c.671 0 1.191.233 1.588.713.365.446.581.996.617 1.572h-4.413Zm6.52-1.955c.539-.745 1.32-1.124 2.316-1.124 1.036 0 1.83.366 2.364 1.077.522.7.76 1.58.707 2.617l-.009.175h-5.291c.015.703.206 1.307.576 1.8.394.525.933.78 1.653.78.574 0 1.054-.16 1.432-.48.377-.319.626-.764.736-1.324l.03-.148h.857l-.036.215c-.135.808-.47 1.44-.99 1.874-.522.434-1.204.656-2.029.656-.973 0-1.753-.35-2.295-1.013-.542-.662-.807-1.501-.79-2.496-.017-1 .241-1.88.77-2.609Zm.78.4a3.14 3.14 0 0 0-.671 1.555h4.413a2.752 2.752 0 0 0-.617-1.573c-.397-.479-.917-.712-1.589-.712-.599-.018-1.17.254-1.535.73ZM75.147 0v3.494a2.457 2.457 0 0 0-.667-.628 2.897 2.897 0 0 0-1.6-.465c-1.01 0-1.791.347-2.325 1.03-.518.666-.786 1.545-.786 2.604 0 1.015.253 1.875.75 2.555.513.699 1.276 1.053 2.27 1.053.995 0 1.793-.382 2.357-1.136v.984H76V0h-.855ZM72.89 8.851c-.736 0-1.282-.261-1.67-.798-.388-.537-.597-1.227-.597-2.018 0-.826.193-1.518.573-2.059.37-.527.921-.783 1.682-.783.734 0 1.278.264 1.662.81.393.557.593 1.241.593 2.032 0 .79-.2 1.46-.593 2.013-.384.54-.924.803-1.65.803Z"/>
	</symbol>

	<symbol id="logo-baltimore" viewBox="0 0 100 28">
		<path fill-rule="evenodd" d="M19.388 7.801c-.886.591-1.87.887-2.953.887a5.273 5.273 0 0 1-2.968-.887 5.177 5.177 0 0 1-1.852-2.176 5.09 5.09 0 0 1 1.852-2.164c.896-.6 1.885-.9 2.968-.9s2.067.3 2.953.9a5.063 5.063 0 0 1 1.866 2.164A5.15 5.15 0 0 1 19.388 7.8m.673-5.803c-1.001-1-2.208-1.501-3.62-1.501s-2.62.5-3.626 1.501C11.809 3 11.307 4.206 11.307 5.618c0 1.42.502 2.632 1.508 3.633 1.005 1 2.214 1.502 3.626 1.502s2.619-.501 3.62-1.502c1-1.001 1.501-2.212 1.501-3.633 0-1.412-.5-2.619-1.5-3.62m-3.62.912c-.752 0-1.393.264-1.924.79a2.599 2.599 0 0 0-.798 1.918c0 .75.265 1.392.798 1.924a2.621 2.621 0 0 0 1.923.797c.751 0 1.392-.266 1.924-.797a2.622 2.622 0 0 0 .798-1.924 2.6 2.6 0 0 0-.798-1.917 2.634 2.634 0 0 0-1.924-.791m11.066 7.547c2.647 0 3.971-1.853 3.971-1.853L30.154 7.28s-.926 1.324-2.647 1.324a2.967 2.967 0 0 1-2.98-2.98 2.966 2.966 0 0 1 2.98-2.978c1.654 0 2.581 1.324 2.581 1.324l1.324-1.324S30.088.793 27.507.793c-2.847 0-5.031 2.184-5.031 4.832 0 2.648 2.184 4.832 5.03 4.832m6.7-1.92v-2.25h2.052c.794 0 1.258.463 1.258 1.125 0 .662-.464 1.125-1.258 1.125h-2.052Zm0-5.825h1.787c.662 0 1.06.397 1.06.927s-.398.927-1.06.927h-1.787V2.712Zm5.361 4.899c0-1.787-1.72-2.251-1.72-2.251s1.257-.463 1.257-1.92c0-1.323-1.125-2.449-2.979-2.449H32.22v9.267h4.17c1.986 0 3.177-1.191 3.177-2.647Zm2.688-4.105c0-.53.397-.926 1.39-.926 1.06 0 1.722.794 1.722.794L46.69 2.05S45.631.792 43.58.792c-2.12 0-3.377 1.258-3.377 2.714 0 3.244 4.634 2.516 4.634 4.104 0 .597-.464 1.06-1.523 1.06-1.39 0-2.184-.993-2.184-.993L39.806 9s1.191 1.456 3.575 1.456c2.184 0 3.508-1.323 3.508-2.847 0-3.243-4.634-2.515-4.634-4.104m9.93.993 4.5 5.76h1.788V.99h-1.985v5.76L51.986.99h-1.787v9.267h1.986V4.5ZM66.84 8.405H61.81V6.419h3.84V4.632h-3.84V2.844h4.898V.991h-6.884v9.267h7.017V8.405Zm5.427 1.853 1.88-6.023h.08l1.88 6.023h1.92L81.073.991H79.02l-1.919 6.222h-.066L75.115.991h-1.853l-1.92 6.222h-.066L69.356.991h-2.052l3.045 9.267h1.92Zm13.69-2.647c0 .596-.463 1.059-1.522 1.059-1.39 0-2.185-.993-2.185-.993L80.927 9s1.192 1.456 3.575 1.456c2.184 0 3.508-1.324 3.508-2.846 0-3.244-4.633-2.516-4.633-4.105 0-.53.397-.926 1.39-.926 1.059 0 1.72.794 1.72.794l1.325-1.324S86.752.793 84.7.793c-2.119 0-3.377 1.257-3.377 2.713 0 3.244 4.634 2.516 4.634 4.105M7.22 25.329c-.473.455-1.107.682-1.903.682H1.4v-5.038h3.918c.398 0 .759.072 1.082.214.324.144.597.334.821.57.224.236.398.513.522.83.125.317.187.65.187.998 0 .71-.236 1.29-.709 1.744ZM1.4 15.563h3.637c.71 0 1.26.19 1.651.568.393.38.588.875.588 1.484 0 .66-.195 1.179-.588 1.558-.391.38-.942.569-1.65.569H1.398v-4.18Zm6.846 5.485a4.357 4.357 0 0 0-1.063-.728c.273-.136.522-.33.746-.578.187-.211.358-.488.513-.83.156-.342.233-.775.233-1.297 0-.46-.09-.896-.27-1.306-.18-.41-.43-.768-.746-1.073a3.428 3.428 0 0 0-1.148-.718 4.036 4.036 0 0 0-1.474-.261H0v13.06h5.317c.61 0 1.16-.094 1.652-.28.49-.187.91-.448 1.259-.784.348-.336.618-.73.811-1.185.193-.454.29-.948.29-1.483 0-.61-.113-1.12-.336-1.53a4.086 4.086 0 0 0-.747-1.007Zm5.373 1.324 2.52-6.156 2.518 6.156h-5.038Zm1.866-8.115-5.41 13.06h1.492l1.493-3.638h6.156l1.493 3.638h1.492l-5.41-13.06h-1.306Zm9.701 0h-1.399v13.06h8.116V26.01h-6.717V14.257Zm6.717 1.306h4.104v11.754h1.4V15.563h4.104v-1.306h-9.608v1.306Zm11.194 11.754h1.4v-13.06h-1.4v13.06Zm11.194-5.97-5.41-7.09h-1.213v13.06h1.4V16.682l5.223 6.903 5.223-6.903v10.635h1.4v-13.06H59.7l-5.41 7.09Zm20.578 1.585a5.183 5.183 0 0 1-2.817 2.854 5.297 5.297 0 0 1-2.09.411 5.298 5.298 0 0 1-2.09-.41 5.168 5.168 0 0 1-1.687-1.138 5.31 5.31 0 0 1-1.13-1.717 5.537 5.537 0 0 1-.41-2.145c0-.771.137-1.486.41-2.146.274-.66.65-1.231 1.13-1.716a5.176 5.176 0 0 1 1.688-1.139 5.314 5.314 0 0 1 2.09-.41c.746 0 1.442.137 2.089.41a5.19 5.19 0 0 1 2.817 2.855c.274.66.41 1.375.41 2.146 0 .771-.136 1.486-.41 2.145m-.15-6.903a6.728 6.728 0 0 0-2.135-1.436 6.6 6.6 0 0 0-2.621-.523c-.934 0-1.807.175-2.622.523a6.722 6.722 0 0 0-2.136 1.436 6.732 6.732 0 0 0-1.437 2.136 6.6 6.6 0 0 0-.522 2.622c0 .932.174 1.806.522 2.62a6.73 6.73 0 0 0 1.437 2.137 6.716 6.716 0 0 0 2.136 1.437 6.598 6.598 0 0 0 2.622.522c.932 0 1.806-.174 2.621-.522a6.722 6.722 0 0 0 2.136-1.437 6.73 6.73 0 0 0 1.436-2.136 6.595 6.595 0 0 0 .523-2.621c0-.933-.174-1.807-.523-2.622a6.732 6.732 0 0 0-1.436-2.136m5.69 4.758v-5.224h3.825c.796 0 1.43.236 1.903.709.473.472.709 1.107.709 1.903s-.236 1.43-.709 1.903c-.473.472-1.107.709-1.903.709H80.41Zm6.474.373c.336-.286.647-.669.933-1.148.286-.478.43-1.091.43-1.837 0-.56-.1-1.08-.3-1.558a3.715 3.715 0 0 0-.83-1.241 3.853 3.853 0 0 0-1.268-.82 4.267 4.267 0 0 0-1.614-.3H79.01v13.06h1.4v-5.223h3.73l2.892 5.223h1.586l-3.078-5.41a4.441 4.441 0 0 0 1.343-.746Zm5.373 4.85v-4.85h6.064v-1.306h-6.064v-4.291h7.556v-1.306h-8.955v13.06H100V26.01h-7.743Z"/>
	</symbol>
	
	<symbol id="recirc-entertainment" viewBox="0 0 440 24">
		<path fill-rule="evenodd" d="M12 24.33c6.627 0 12-5.373 12-12s-5.373-12-12-12-12 5.373-12 12 5.373 12 12 12Zm11.279-12c-.943-2.075-2.398-3.763-4.367-5.062C16.838 5.863 14.534 5.16 12 5.16s-4.85.702-6.943 2.107C3.109 8.568 1.663 10.255.72 12.33c.942 2.075 2.388 3.773 4.336 5.094C7.15 18.808 9.466 19.499 12 19.499s4.838-.691 6.912-2.075c1.969-1.321 3.424-3.019 4.367-5.094M12 18.702a6.372 6.372 0 1 0 0-12.744 6.372 6.372 0 0 0 0 12.744Zm14.138-6.371c0-6.197 5.112-11.31 11.774-11.31 6.042 0 9.14 4.339 9.14 4.339l-3.098 3.098s-2.17-3.098-6.042-3.098a6.942 6.942 0 0 0-6.972 6.97 6.942 6.942 0 0 0 6.972 6.972c4.028 0 6.196-3.098 6.196-3.098l3.099 3.098s-3.099 4.338-9.295 4.338c-6.662 0-11.774-5.113-11.774-11.31M48.942 1.488h9.14c4.338 0 6.972 2.633 6.972 5.731 0 3.409-2.944 4.493-2.944 4.493s4.028 1.085 4.028 5.267c0 3.409-2.788 6.197-7.436 6.197h-9.76V1.487Zm8.83 8.365c1.55 0 2.479-.93 2.479-2.169 0-1.239-.93-2.169-2.479-2.169H53.59v4.338h4.182Zm.62 9.295c1.86 0 2.943-1.084 2.943-2.634 0-1.548-1.084-2.633-2.943-2.633h-4.803v5.267h4.803Zm8.303 1.085 3.099-3.099s1.858 2.324 5.112 2.324c2.478 0 3.563-1.085 3.563-2.479 0-3.718-10.844-2.014-10.844-9.605 0-3.408 2.943-6.351 7.9-6.351 4.803 0 7.282 2.943 7.282 2.943l-3.099 3.098S78.16 5.205 75.68 5.205c-2.324 0-3.253.929-3.253 2.168 0 3.718 10.845 2.014 10.845 9.605 0 3.564-3.099 6.662-8.211 6.662-5.577 0-8.366-3.408-8.366-3.408M91.017 1.487h4.182l10.535 13.477V1.487h4.648v21.688h-4.183L95.664 9.697v13.478h-4.647V1.487Zm22.525 0h16.112v4.337h-11.465v4.183h8.986v4.183h-8.986v4.648h11.775v4.337h-16.422V1.487Zm17.506 0h4.802l4.493 14.562h.155l4.492-14.562h4.338l4.493 14.562h.155l4.493-14.562h4.802l-7.126 21.688h-4.493l-4.4-14.097h-.186l-4.4 14.097h-4.492l-7.126-21.688Zm31.882 18.745 3.099-3.099s1.858 2.324 5.112 2.324c2.478 0 3.563-1.085 3.563-2.479 0-3.718-10.845-2.014-10.845-9.605 0-3.408 2.944-6.351 7.901-6.351 4.803 0 7.282 2.943 7.282 2.943l-3.099 3.098s-1.55-1.858-4.028-1.858c-2.324 0-3.253.929-3.253 2.168 0 3.718 10.844 2.014 10.844 9.605 0 3.564-3.098 6.662-8.21 6.662-5.577 0-8.366-3.408-8.366-3.408m28.153 2.948h14.203v-2.405H193.78V13.3h11.277v-2.405h-11.277V3.908h11.505V1.503h-14.203V23.18Zm33.833 0h2.6V1.503h-2.698V18.63l-12.48-17.127h-2.762V23.18h2.697V5.695l12.643 17.485Zm13.032 0h2.698V3.907h6.89V1.503H231.09v2.406h6.857V23.18Zm13.163 0h14.202v-2.405h-11.505V13.3h11.278v-2.405h-11.278V3.908h11.505V1.503h-14.202V23.18Zm31.037 0h3.185l-5.85-8.84c2.958-.26 5.623-2.405 5.623-6.305 0-3.998-2.828-6.532-6.793-6.532h-8.71V23.18h2.698v-8.612h4.322l5.525 8.612Zm.163-15.145c0 2.438-1.755 4.16-4.323 4.16h-5.687V3.908h5.687c2.568 0 4.323 1.69 4.323 4.127ZM294.4 23.18h2.697V3.907h6.89V1.503h-16.445v2.406h6.858V23.18Zm26.552 0h2.99l-8.742-21.677h-3.348l-8.71 21.677h2.99l1.918-4.81h10.985l1.917 4.81Zm-7.41-19.273 4.68 12.058h-9.392l4.712-12.057Zm13.228 19.273h2.697V1.503h-2.697V23.18Zm23.107 0h2.6V1.503h-2.697V18.63L337.3 1.503h-2.763V23.18h2.698V5.695l12.642 17.485Zm26.195 0h2.698V1.503h-3.868l-6.76 16.51-6.727-16.51h-3.868V23.18h2.698V5.142l7.345 18.038h1.105l7.377-18.038V23.18Zm7.768 0h14.202v-2.405h-11.505V13.3h11.278v-2.405h-11.278V3.908h11.505V1.503h-14.202V23.18Zm33.832 0h2.6V1.503h-2.697V18.63l-12.48-17.127h-2.763V23.18h2.698V5.695l12.642 17.485Zm13.033 0h2.697V3.907h6.89V1.503h-16.445v2.406h6.858V23.18Z"/>
	</symbol>
	
	<symbol id="recirc-us" viewBox="0 0 440 24">
		<path fill-rule="evenodd" d="M12 24.33c6.627 0 12-5.373 12-12s-5.373-12-12-12-12 5.373-12 12 5.373 12 12 12Zm11.279-12c-.943-2.075-2.398-3.763-4.367-5.062C16.838 5.863 14.534 5.16 12 5.16s-4.85.702-6.943 2.107C3.109 8.568 1.663 10.255.72 12.33c.942 2.075 2.388 3.773 4.336 5.094C7.15 18.808 9.466 19.499 12 19.499s4.838-.691 6.912-2.075c1.969-1.321 3.424-3.019 4.367-5.094M12 18.702a6.372 6.372 0 1 0 0-12.744 6.372 6.372 0 0 0 0 12.744Zm14.138-6.371c0-6.197 5.112-11.31 11.774-11.31 6.042 0 9.14 4.339 9.14 4.339l-3.098 3.098s-2.17-3.098-6.042-3.098a6.942 6.942 0 0 0-6.972 6.97 6.942 6.942 0 0 0 6.972 6.972c4.028 0 6.196-3.098 6.196-3.098l3.099 3.098s-3.099 4.338-9.295 4.338c-6.662 0-11.774-5.113-11.774-11.31M48.942 1.488h9.14c4.338 0 6.972 2.633 6.972 5.731 0 3.409-2.944 4.493-2.944 4.493s4.028 1.085 4.028 5.267c0 3.409-2.788 6.197-7.436 6.197h-9.76V1.487Zm8.83 8.365c1.55 0 2.479-.93 2.479-2.169 0-1.239-.93-2.169-2.479-2.169H53.59v4.338h4.182Zm.62 9.295c1.86 0 2.943-1.084 2.943-2.634 0-1.548-1.084-2.633-2.943-2.633h-4.803v5.267h4.803Zm8.303 1.085 3.099-3.099s1.858 2.324 5.112 2.324c2.478 0 3.563-1.085 3.563-2.479 0-3.718-10.844-2.014-10.844-9.605 0-3.408 2.943-6.351 7.9-6.351 4.803 0 7.282 2.943 7.282 2.943l-3.099 3.098S78.16 5.205 75.68 5.205c-2.324 0-3.253.929-3.253 2.168 0 3.718 10.845 2.014 10.845 9.605 0 3.564-3.099 6.662-8.211 6.662-5.577 0-8.366-3.408-8.366-3.408M91.017 1.487h4.182l10.535 13.477V1.487h4.648v21.688h-4.183L95.664 9.697v13.478h-4.647V1.487Zm22.525 0h16.112v4.337h-11.465v4.183h8.986v4.183h-8.986v4.648h11.775v4.337h-16.422V1.487Zm17.506 0h4.802l4.493 14.562h.155l4.492-14.562h4.338l4.493 14.562h.155l4.493-14.562h4.802l-7.126 21.688h-4.493l-4.4-14.097h-.186l-4.4 14.097h-4.492l-7.126-21.688Zm31.882 18.745 3.099-3.099s1.858 2.324 5.112 2.324c2.478 0 3.563-1.085 3.563-2.479 0-3.718-10.845-2.014-10.845-9.605 0-3.408 2.944-6.351 7.901-6.351 4.803 0 7.282 2.943 7.282 2.943l-3.099 3.098s-1.55-1.858-4.028-1.858c-2.324 0-3.253.929-3.253 2.168 0 3.718 10.844 2.014 10.844 9.605 0 3.564-3.098 6.662-8.21 6.662-5.577 0-8.366-3.408-8.366-3.408m28.153-5.47c0 5.33 2.958 8.808 8.84 8.808 5.883 0 8.84-3.445 8.84-8.84V1.502h-2.697v13.196c0 3.964-2.145 6.467-6.143 6.467-3.997 0-6.142-2.503-6.142-6.467V1.502h-2.698v13.26Zm21.19 6.955c0 .976.813 1.788 1.788 1.788.975 0 1.787-.813 1.787-1.788 0-.974-.812-1.787-1.787-1.787-.975 0-1.788.813-1.788 1.787Zm6.76-1.592c1.788 2.015 4.55 3.445 8.32 3.445 5.85 0 7.995-3.218 7.995-6.37 0-4.55-4.03-5.655-7.572-6.597-2.763-.748-5.265-1.398-5.265-3.575 0-2.048 1.852-3.445 4.452-3.445 2.373 0 4.648.812 6.273 2.6L234.86 4.2c-1.82-1.918-4.388-3.022-7.703-3.022-4.257 0-7.442 2.437-7.442 6.012 0 4.257 3.867 5.232 7.345 6.142 2.86.78 5.492 1.495 5.492 4.095 0 1.658-1.235 3.738-5.102 3.738-3.055 0-5.395-1.495-6.825-3.088l-1.593 2.048Zm19.76 1.592c0 .976.813 1.788 1.788 1.788.975 0 1.787-.813 1.787-1.788 0-.974-.812-1.787-1.787-1.787-.975 0-1.788.813-1.788 1.787Z"/>
	</symbol>
	
	<symbol id="recirc-crime" viewBox="0 0 440 24">
		<path fill-rule="evenodd" d="M12 24.33c6.627 0 12-5.373 12-12s-5.373-12-12-12-12 5.373-12 12 5.373 12 12 12Zm11.279-12c-.943-2.075-2.398-3.763-4.367-5.062C16.838 5.863 14.534 5.16 12 5.16s-4.85.702-6.943 2.107C3.109 8.568 1.663 10.255.72 12.33c.942 2.075 2.388 3.773 4.336 5.094C7.15 18.808 9.466 19.499 12 19.499s4.838-.691 6.912-2.075c1.969-1.321 3.424-3.019 4.367-5.094M12 18.702a6.372 6.372 0 1 0 0-12.744 6.372 6.372 0 0 0 0 12.744Zm14.138-6.371c0-6.197 5.112-11.31 11.774-11.31 6.042 0 9.14 4.339 9.14 4.339l-3.098 3.098s-2.17-3.098-6.042-3.098a6.942 6.942 0 0 0-6.972 6.97 6.942 6.942 0 0 0 6.972 6.972c4.028 0 6.196-3.098 6.196-3.098l3.099 3.098s-3.099 4.338-9.295 4.338c-6.662 0-11.774-5.113-11.774-11.31M48.942 1.488h9.14c4.338 0 6.972 2.633 6.972 5.731 0 3.409-2.944 4.493-2.944 4.493s4.028 1.085 4.028 5.267c0 3.409-2.788 6.197-7.436 6.197h-9.76V1.487Zm8.83 8.365c1.55 0 2.479-.93 2.479-2.169 0-1.239-.93-2.169-2.479-2.169H53.59v4.338h4.182Zm.62 9.295c1.86 0 2.943-1.084 2.943-2.634 0-1.548-1.084-2.633-2.943-2.633h-4.803v5.267h4.803Zm8.303 1.085 3.099-3.099s1.858 2.324 5.112 2.324c2.478 0 3.563-1.085 3.563-2.479 0-3.718-10.844-2.014-10.844-9.605 0-3.408 2.943-6.351 7.9-6.351 4.803 0 7.282 2.943 7.282 2.943l-3.099 3.098S78.16 5.205 75.68 5.205c-2.324 0-3.253.929-3.253 2.168 0 3.718 10.845 2.014 10.845 9.605 0 3.564-3.099 6.662-8.211 6.662-5.577 0-8.366-3.408-8.366-3.408M91.017 1.487h4.182l10.535 13.477V1.487h4.648v21.688h-4.183L95.664 9.697v13.478h-4.647V1.487Zm22.525 0h16.112v4.337h-11.465v4.183h8.986v4.183h-8.986v4.648h11.775v4.337h-16.422V1.487Zm17.506 0h4.802l4.493 14.562h.155l4.492-14.562h4.338l4.493 14.562h.155l4.493-14.562h4.802l-7.126 21.688h-4.493l-4.4-14.097h-.186l-4.4 14.097h-4.492l-7.126-21.688Zm31.882 18.745 3.099-3.099s1.858 2.324 5.112 2.324c2.478 0 3.563-1.085 3.563-2.479 0-3.718-10.845-2.014-10.845-9.605 0-3.408 2.944-6.351 7.901-6.351 4.803 0 7.282 2.943 7.282 2.943l-3.099 3.098s-1.55-1.858-4.028-1.858c-2.324 0-3.253.929-3.253 2.168 0 3.718 10.844 2.014 10.844 9.605 0 3.564-3.098 6.662-8.21 6.662-5.577 0-8.366-3.408-8.366-3.408m38.326 3.338c3.932 0 6.532-1.82 8.352-4.29l-2.307-1.268c-1.235 1.853-3.478 3.153-6.045 3.153-4.648 0-8.255-3.672-8.255-8.807 0-5.168 3.607-8.808 8.255-8.808 2.567 0 4.81 1.333 6.045 3.152l2.275-1.267c-1.723-2.437-4.388-4.29-8.32-4.29-6.143 0-11.05 4.55-11.05 11.213 0 6.662 4.907 11.212 11.05 11.212Zm24.342-.39h3.185l-5.85-8.84c2.958-.26 5.623-2.405 5.623-6.305 0-3.998-2.828-6.532-6.793-6.532h-8.71V23.18h2.698v-8.612h4.322l5.525 8.612Zm.163-15.145c0 2.438-1.755 4.16-4.323 4.16h-5.687V3.908h5.687c2.568 0 4.323 1.69 4.323 4.127Zm7.052 15.145h2.698V1.503h-2.698V23.18Zm26.293 0h2.697V1.503h-3.867l-6.76 16.51-6.728-16.51h-3.867V23.18h2.697V5.142l7.345 18.038h1.105l7.378-18.038V23.18Zm7.767 0h14.203v-2.405H269.57V13.3h11.277v-2.405h-11.277V3.908h11.505V1.503h-14.203V23.18Z"/>
	</symbol>
	
	<symbol id="recirc-politics" viewBox="0 0 440 24">
		<path fill-rule="evenodd" d="M12 24.33c6.627 0 12-5.373 12-12s-5.373-12-12-12-12 5.373-12 12 5.373 12 12 12Zm11.279-12c-.943-2.075-2.398-3.763-4.367-5.062C16.838 5.863 14.534 5.16 12 5.16s-4.85.702-6.943 2.107C3.109 8.568 1.663 10.255.72 12.33c.942 2.075 2.388 3.773 4.336 5.094C7.15 18.808 9.466 19.499 12 19.499s4.838-.691 6.912-2.075c1.969-1.321 3.424-3.019 4.367-5.094M12 18.702a6.372 6.372 0 1 0 0-12.744 6.372 6.372 0 0 0 0 12.744Zm14.138-6.371c0-6.197 5.112-11.31 11.774-11.31 6.042 0 9.14 4.339 9.14 4.339l-3.098 3.098s-2.17-3.098-6.042-3.098a6.942 6.942 0 0 0-6.972 6.97 6.942 6.942 0 0 0 6.972 6.972c4.028 0 6.196-3.098 6.196-3.098l3.099 3.098s-3.099 4.338-9.295 4.338c-6.662 0-11.774-5.113-11.774-11.31M48.942 1.488h9.14c4.338 0 6.972 2.633 6.972 5.731 0 3.409-2.944 4.493-2.944 4.493s4.028 1.085 4.028 5.267c0 3.409-2.788 6.197-7.436 6.197h-9.76V1.487Zm8.83 8.365c1.55 0 2.479-.93 2.479-2.169 0-1.239-.93-2.169-2.479-2.169H53.59v4.338h4.182Zm.62 9.295c1.86 0 2.943-1.084 2.943-2.634 0-1.548-1.084-2.633-2.943-2.633h-4.803v5.267h4.803Zm8.303 1.085 3.099-3.099s1.858 2.324 5.112 2.324c2.478 0 3.563-1.085 3.563-2.479 0-3.718-10.844-2.014-10.844-9.605 0-3.408 2.943-6.351 7.9-6.351 4.803 0 7.282 2.943 7.282 2.943l-3.099 3.098S78.16 5.205 75.68 5.205c-2.324 0-3.253.929-3.253 2.168 0 3.718 10.845 2.014 10.845 9.605 0 3.564-3.099 6.662-8.211 6.662-5.577 0-8.366-3.408-8.366-3.408M91.017 1.487h4.182l10.535 13.477V1.487h4.648v21.688h-4.183L95.664 9.697v13.478h-4.647V1.487Zm22.525 0h16.112v4.337h-11.465v4.183h8.986v4.183h-8.986v4.648h11.775v4.337h-16.422V1.487Zm17.506 0h4.802l4.493 14.562h.155l4.492-14.562h4.338l4.493 14.562h.155l4.493-14.562h4.802l-7.126 21.688h-4.493l-4.4-14.097h-.186l-4.4 14.097h-4.492l-7.126-21.688Zm31.882 18.745 3.099-3.099s1.858 2.324 5.112 2.324c2.478 0 3.563-1.085 3.563-2.479 0-3.718-10.845-2.014-10.845-9.605 0-3.408 2.944-6.351 7.901-6.351 4.803 0 7.282 2.943 7.282 2.943l-3.099 3.098s-1.55-1.858-4.028-1.858c-2.324 0-3.253.929-3.253 2.168 0 3.718 10.844 2.014 10.844 9.605 0 3.564-3.098 6.662-8.21 6.662-5.577 0-8.366-3.408-8.366-3.408m28.153 2.948h2.698v-8.612h6.012c4.29 0 6.793-2.99 6.793-6.533s-2.438-6.532-6.793-6.532h-8.71V23.18Zm12.708-15.145c0 2.438-1.755 4.127-4.323 4.127h-5.687V3.907h5.687c2.568 0 4.323 1.69 4.323 4.128Zm5.492 4.322c0 6.403 4.323 11.213 10.758 11.213 6.402 0 10.757-4.81 10.757-11.213 0-6.402-4.355-11.212-10.757-11.212-6.435 0-10.758 4.81-10.758 11.213Zm18.72 0c0 5.038-3.12 8.808-7.962 8.808-4.875 0-7.963-3.77-7.963-8.807 0-5.07 3.088-8.808 7.963-8.808 4.842 0 7.962 3.737 7.962 8.808Zm7.02 10.823h12.773v-2.405H237.72V1.503h-2.698V23.18Zm16.575 0h2.698V1.503h-2.698V23.18Zm13.13 0h2.698V3.907h6.89V1.503H257.87v2.406h6.857V23.18Zm13.163 0h2.697V1.503h-2.697V23.18Zm17.94.39c3.932 0 6.532-1.82 8.352-4.29l-2.307-1.268c-1.235 1.853-3.478 3.153-6.045 3.153-4.648 0-8.255-3.672-8.255-8.807 0-5.168 3.607-8.808 8.255-8.808 2.567 0 4.81 1.333 6.045 3.152l2.275-1.267c-1.723-2.437-4.388-4.29-8.32-4.29-6.143 0-11.05 4.55-11.05 11.213 0 6.662 4.907 11.212 11.05 11.212Zm10.497-3.445c1.788 2.015 4.55 3.445 8.32 3.445 5.85 0 7.995-3.218 7.995-6.37 0-4.55-4.03-5.655-7.572-6.597-2.763-.748-5.265-1.398-5.265-3.575 0-2.048 1.852-3.445 4.452-3.445 2.373 0 4.648.812 6.273 2.6l1.625-1.983c-1.82-1.918-4.388-3.022-7.703-3.022-4.257 0-7.442 2.437-7.442 6.012 0 4.257 3.867 5.232 7.345 6.142 2.86.78 5.492 1.495 5.492 4.095 0 1.658-1.235 3.738-5.102 3.738-3.055 0-5.395-1.495-6.825-3.088l-1.593 2.048Z"/>
	</symbol>
	
	<symbol id="recirc-space" viewBox="0 0 440 24">
		<path fill-rule="evenodd" d="M12 24.33c6.627 0 12-5.373 12-12s-5.373-12-12-12-12 5.373-12 12 5.373 12 12 12Zm11.279-12c-.943-2.075-2.398-3.763-4.367-5.062C16.838 5.863 14.534 5.16 12 5.16s-4.85.702-6.943 2.107C3.109 8.568 1.663 10.255.72 12.33c.942 2.075 2.388 3.773 4.336 5.094C7.15 18.808 9.466 19.499 12 19.499s4.838-.691 6.912-2.075c1.969-1.321 3.424-3.019 4.367-5.094M12 18.702a6.372 6.372 0 1 0 0-12.744 6.372 6.372 0 0 0 0 12.744Zm14.138-6.371c0-6.197 5.112-11.31 11.774-11.31 6.042 0 9.14 4.339 9.14 4.339l-3.098 3.098s-2.17-3.098-6.042-3.098a6.942 6.942 0 0 0-6.972 6.97 6.942 6.942 0 0 0 6.972 6.972c4.028 0 6.196-3.098 6.196-3.098l3.099 3.098s-3.099 4.338-9.295 4.338c-6.662 0-11.774-5.113-11.774-11.31M48.942 1.488h9.14c4.338 0 6.972 2.633 6.972 5.731 0 3.409-2.944 4.493-2.944 4.493s4.028 1.085 4.028 5.267c0 3.409-2.788 6.197-7.436 6.197h-9.76V1.487Zm8.83 8.365c1.55 0 2.479-.93 2.479-2.169 0-1.239-.93-2.169-2.479-2.169H53.59v4.338h4.182Zm.62 9.295c1.86 0 2.943-1.084 2.943-2.634 0-1.548-1.084-2.633-2.943-2.633h-4.803v5.267h4.803Zm8.303 1.085 3.099-3.099s1.858 2.324 5.112 2.324c2.478 0 3.563-1.085 3.563-2.479 0-3.718-10.844-2.014-10.844-9.605 0-3.408 2.943-6.351 7.9-6.351 4.803 0 7.282 2.943 7.282 2.943l-3.099 3.098S78.16 5.205 75.68 5.205c-2.324 0-3.253.929-3.253 2.168 0 3.718 10.845 2.014 10.845 9.605 0 3.564-3.099 6.662-8.211 6.662-5.577 0-8.366-3.408-8.366-3.408M91.017 1.487h4.182l10.535 13.477V1.487h4.648v21.688h-4.183L95.664 9.697v13.478h-4.647V1.487Zm22.525 0h16.112v4.337h-11.465v4.183h8.986v4.183h-8.986v4.648h11.775v4.337h-16.422V1.487Zm17.506 0h4.802l4.493 14.562h.155l4.492-14.562h4.338l4.493 14.562h.155l4.493-14.562h4.802l-7.126 21.688h-4.493l-4.4-14.097h-.186l-4.4 14.097h-4.492l-7.126-21.688Zm31.882 18.745 3.099-3.099s1.858 2.324 5.112 2.324c2.478 0 3.563-1.085 3.563-2.479 0-3.718-10.845-2.014-10.845-9.605 0-3.408 2.944-6.351 7.901-6.351 4.803 0 7.282 2.943 7.282 2.943l-3.099 3.098s-1.55-1.858-4.028-1.858c-2.324 0-3.253.929-3.253 2.168 0 3.718 10.844 2.014 10.844 9.605 0 3.564-3.098 6.662-8.21 6.662-5.577 0-8.366-3.408-8.366-3.408m26.853-.107c1.788 2.015 4.55 3.445 8.32 3.445 5.85 0 7.995-3.218 7.995-6.37 0-4.55-4.03-5.655-7.572-6.597-2.763-.748-5.265-1.398-5.265-3.575 0-2.048 1.852-3.445 4.452-3.445 2.373 0 4.648.812 6.273 2.6L205.61 4.2c-1.82-1.918-4.388-3.022-7.703-3.022-4.257 0-7.442 2.437-7.442 6.012 0 4.257 3.867 5.232 7.345 6.142 2.86.78 5.492 1.495 5.492 4.095 0 1.658-1.235 3.738-5.102 3.738-3.055 0-5.395-1.495-6.825-3.088l-1.593 2.048Zm20.345 3.055h2.698v-8.612h6.012c4.29 0 6.793-2.99 6.793-6.533s-2.438-6.532-6.793-6.532h-8.71V23.18Zm12.708-15.145c0 2.438-1.755 4.127-4.323 4.127h-5.687V3.907h5.687c2.568 0 4.323 1.69 4.323 4.128ZM242.27 23.18h2.99l-8.743-21.677h-3.347l-8.71 21.677h2.99l1.917-4.81h10.985l1.918 4.81Zm-7.41-19.273 4.68 12.058h-9.393l4.713-12.057Zm22.197 19.663c3.933 0 6.533-1.82 8.353-4.29l-2.308-1.268c-1.235 1.853-3.477 3.153-6.045 3.153-4.647 0-8.255-3.672-8.255-8.807 0-5.168 3.608-8.808 8.255-8.808 2.568 0 4.81 1.333 6.045 3.152l2.275-1.267c-1.722-2.437-4.387-4.29-8.32-4.29-6.142 0-11.05 4.55-11.05 11.213 0 6.662 4.908 11.212 11.05 11.212Zm11.798-.39h14.202v-2.405h-11.505V13.3h11.278v-2.405h-11.278V3.908h11.505V1.503h-14.202V23.18Z"/>
	</symbol>
	
	<symbol id="recirc-sports" viewBox="0 0 440 24">
		<path fill-rule="evenodd" d="M12 24.33c6.627 0 12-5.373 12-12s-5.373-12-12-12-12 5.373-12 12 5.373 12 12 12Zm11.279-12c-.943-2.075-2.398-3.763-4.367-5.062C16.838 5.863 14.534 5.16 12 5.16s-4.85.702-6.943 2.107C3.109 8.568 1.663 10.255.72 12.33c.942 2.075 2.388 3.773 4.336 5.094C7.15 18.808 9.466 19.499 12 19.499s4.838-.691 6.912-2.075c1.969-1.321 3.424-3.019 4.367-5.094M12 18.702a6.372 6.372 0 1 0 0-12.744 6.372 6.372 0 0 0 0 12.744Zm14.138-6.371c0-6.197 5.112-11.31 11.774-11.31 6.042 0 9.14 4.339 9.14 4.339l-3.098 3.098s-2.17-3.098-6.042-3.098a6.942 6.942 0 0 0-6.972 6.97 6.942 6.942 0 0 0 6.972 6.972c4.028 0 6.196-3.098 6.196-3.098l3.099 3.098s-3.099 4.338-9.295 4.338c-6.662 0-11.774-5.113-11.774-11.31M48.942 1.488h9.14c4.338 0 6.972 2.633 6.972 5.731 0 3.409-2.944 4.493-2.944 4.493s4.028 1.085 4.028 5.267c0 3.409-2.788 6.197-7.436 6.197h-9.76V1.487Zm8.83 8.365c1.55 0 2.479-.93 2.479-2.169 0-1.239-.93-2.169-2.479-2.169H53.59v4.338h4.182Zm.62 9.295c1.86 0 2.943-1.084 2.943-2.634 0-1.548-1.084-2.633-2.943-2.633h-4.803v5.267h4.803Zm8.303 1.085 3.099-3.099s1.858 2.324 5.112 2.324c2.478 0 3.563-1.085 3.563-2.479 0-3.718-10.844-2.014-10.844-9.605 0-3.408 2.943-6.351 7.9-6.351 4.803 0 7.282 2.943 7.282 2.943l-3.099 3.098S78.16 5.205 75.68 5.205c-2.324 0-3.253.929-3.253 2.168 0 3.718 10.845 2.014 10.845 9.605 0 3.564-3.099 6.662-8.211 6.662-5.577 0-8.366-3.408-8.366-3.408M91.017 1.487h4.182l10.535 13.477V1.487h4.648v21.688h-4.183L95.664 9.697v13.478h-4.647V1.487Zm22.525 0h16.112v4.337h-11.465v4.183h8.986v4.183h-8.986v4.648h11.775v4.337h-16.422V1.487Zm17.506 0h4.802l4.493 14.562h.155l4.492-14.562h4.338l4.493 14.562h.155l4.493-14.562h4.802l-7.126 21.688h-4.493l-4.4-14.097h-.186l-4.4 14.097h-4.492l-7.126-21.688Zm31.882 18.745 3.099-3.099s1.858 2.324 5.112 2.324c2.478 0 3.563-1.085 3.563-2.479 0-3.718-10.845-2.014-10.845-9.605 0-3.408 2.944-6.351 7.901-6.351 4.803 0 7.282 2.943 7.282 2.943l-3.099 3.098s-1.55-1.858-4.028-1.858c-2.324 0-3.253.929-3.253 2.168 0 3.718 10.844 2.014 10.844 9.605 0 3.564-3.098 6.662-8.21 6.662-5.577 0-8.366-3.408-8.366-3.408m26.853-.107c1.788 2.015 4.55 3.445 8.32 3.445 5.85 0 7.995-3.218 7.995-6.37 0-4.55-4.03-5.655-7.572-6.597-2.763-.748-5.265-1.398-5.265-3.575 0-2.048 1.852-3.445 4.452-3.445 2.373 0 4.648.812 6.273 2.6L205.61 4.2c-1.82-1.918-4.388-3.022-7.703-3.022-4.257 0-7.442 2.437-7.442 6.012 0 4.257 3.867 5.232 7.345 6.142 2.86.78 5.492 1.495 5.492 4.095 0 1.658-1.235 3.738-5.102 3.738-3.055 0-5.395-1.495-6.825-3.088l-1.593 2.048Zm20.345 3.055h2.698v-8.612h6.012c4.29 0 6.793-2.99 6.793-6.533s-2.438-6.532-6.793-6.532h-8.71V23.18Zm12.708-15.145c0 2.438-1.755 4.127-4.323 4.127h-5.687V3.907h5.687c2.568 0 4.323 1.69 4.323 4.128Zm5.492 4.322c0 6.403 4.323 11.213 10.758 11.213 6.402 0 10.757-4.81 10.757-11.213 0-6.402-4.355-11.212-10.757-11.212-6.435 0-10.758 4.81-10.758 11.213Zm18.72 0c0 5.038-3.12 8.808-7.962 8.808-4.875 0-7.963-3.77-7.963-8.807 0-5.07 3.088-8.808 7.963-8.808 4.842 0 7.962 3.737 7.962 8.808Zm19.565 10.823h3.185l-5.85-8.84c2.958-.26 5.623-2.405 5.623-6.305 0-3.998-2.828-6.532-6.793-6.532h-8.71V23.18h2.698v-8.612h4.322l5.525 8.612Zm.163-15.145c0 2.438-1.755 4.16-4.323 4.16h-5.687V3.908h5.687c2.568 0 4.323 1.69 4.323 4.127Zm12.09 15.145h2.697V3.907h6.89V1.503h-16.445v2.406h6.858V23.18Zm11.765-3.055c1.787 2.015 4.55 3.445 8.32 3.445 5.85 0 7.995-3.218 7.995-6.37 0-4.55-4.03-5.655-7.573-6.597-2.762-.748-5.265-1.398-5.265-3.575 0-2.048 1.853-3.445 4.453-3.445 2.372 0 4.647.812 6.272 2.6l1.625-1.983c-1.82-1.918-4.387-3.022-7.702-3.022-4.258 0-7.443 2.437-7.443 6.012 0 4.257 3.868 5.232 7.345 6.142 2.86.78 5.493 1.495 5.493 4.095 0 1.658-1.235 3.738-5.103 3.738-3.055 0-5.395-1.495-6.825-3.088l-1.592 2.048Z"/>
	</symbol>
	
	<symbol id="recirc-world" viewBox="0 0 440 24">
		<path fill-rule="evenodd" d="M12 24.33c6.627 0 12-5.373 12-12s-5.373-12-12-12-12 5.373-12 12 5.373 12 12 12Zm11.279-12c-.943-2.075-2.398-3.763-4.367-5.062C16.838 5.863 14.534 5.16 12 5.16s-4.85.702-6.943 2.107C3.109 8.568 1.663 10.255.72 12.33c.942 2.075 2.388 3.773 4.336 5.094C7.15 18.808 9.466 19.499 12 19.499s4.838-.691 6.912-2.075c1.969-1.321 3.424-3.019 4.367-5.094M12 18.702a6.372 6.372 0 1 0 0-12.744 6.372 6.372 0 0 0 0 12.744Zm14.138-6.371c0-6.197 5.112-11.31 11.774-11.31 6.042 0 9.14 4.339 9.14 4.339l-3.098 3.098s-2.17-3.098-6.042-3.098a6.942 6.942 0 0 0-6.972 6.97 6.942 6.942 0 0 0 6.972 6.972c4.028 0 6.196-3.098 6.196-3.098l3.099 3.098s-3.099 4.338-9.295 4.338c-6.662 0-11.774-5.113-11.774-11.31M48.942 1.488h9.14c4.338 0 6.972 2.633 6.972 5.731 0 3.409-2.944 4.493-2.944 4.493s4.028 1.085 4.028 5.267c0 3.409-2.788 6.197-7.436 6.197h-9.76V1.487Zm8.83 8.365c1.55 0 2.479-.93 2.479-2.169 0-1.239-.93-2.169-2.479-2.169H53.59v4.338h4.182Zm.62 9.295c1.86 0 2.943-1.084 2.943-2.634 0-1.548-1.084-2.633-2.943-2.633h-4.803v5.267h4.803Zm8.303 1.085 3.099-3.099s1.858 2.324 5.112 2.324c2.478 0 3.563-1.085 3.563-2.479 0-3.718-10.844-2.014-10.844-9.605 0-3.408 2.943-6.351 7.9-6.351 4.803 0 7.282 2.943 7.282 2.943l-3.099 3.098S78.16 5.205 75.68 5.205c-2.324 0-3.253.929-3.253 2.168 0 3.718 10.845 2.014 10.845 9.605 0 3.564-3.099 6.662-8.211 6.662-5.577 0-8.366-3.408-8.366-3.408M91.017 1.487h4.182l10.535 13.477V1.487h4.648v21.688h-4.183L95.664 9.697v13.478h-4.647V1.487Zm22.525 0h16.112v4.337h-11.465v4.183h8.986v4.183h-8.986v4.648h11.775v4.337h-16.422V1.487Zm17.506 0h4.802l4.493 14.562h.155l4.492-14.562h4.338l4.493 14.562h.155l4.493-14.562h4.802l-7.126 21.688h-4.493l-4.4-14.097h-.186l-4.4 14.097h-4.492l-7.126-21.688Zm31.882 18.745 3.099-3.099s1.858 2.324 5.112 2.324c2.478 0 3.563-1.085 3.563-2.479 0-3.718-10.845-2.014-10.845-9.605 0-3.408 2.944-6.351 7.901-6.351 4.803 0 7.282 2.943 7.282 2.943l-3.099 3.098s-1.55-1.858-4.028-1.858c-2.324 0-3.253.929-3.253 2.168 0 3.718 10.844 2.014 10.844 9.605 0 3.564-3.098 6.662-8.21 6.662-5.577 0-8.366-3.408-8.366-3.408m44.728 2.948h2.925l6.175-21.677h-2.99l-4.777 18.07-4.973-18.07h-2.242l-4.973 18.07-4.81-18.07h-2.99l6.175 21.677h2.925l4.778-17.485 4.777 17.485Zm10.595-10.822c0 6.402 4.323 11.212 10.758 11.212 6.402 0 10.757-4.81 10.757-11.213 0-6.402-4.355-11.212-10.757-11.212-6.435 0-10.758 4.81-10.758 11.213Zm18.72 0c0 5.037-3.12 8.807-7.962 8.807-4.875 0-7.963-3.77-7.963-8.807 0-5.07 3.088-8.808 7.963-8.808 4.842 0 7.962 3.737 7.962 8.808Zm19.565 10.822h3.185l-5.85-8.84c2.958-.26 5.623-2.405 5.623-6.305 0-3.998-2.828-6.532-6.793-6.532h-8.71V23.18h2.698v-8.612h4.322l5.525 8.612Zm.163-15.145c0 2.438-1.755 4.16-4.323 4.16h-5.687V3.908h5.687c2.568 0 4.323 1.69 4.323 4.127Zm7.052 15.145h12.773v-2.405H266.45V1.503h-2.698V23.18Zm16.575 0h7.41c6.728 0 11.115-4.648 11.115-10.822 0-6.143-4.387-10.856-11.115-10.856h-7.41V23.18Zm2.698-2.405V3.908h4.712c5.363 0 8.32 3.77 8.32 8.45 0 4.647-3.055 8.417-8.32 8.417h-4.712Z"/>
	</symbol>

	<symbol id="recirc-face-the-nation" viewBox="0 0 440 24">
		<path fill-rule="evenodd" d="M55.445 17.029v1.231h-1.519v1.385h1.459v1.231h-1.459v1.68h1.519v1.232h-2.838v-6.76h2.838Zm-3.2-1.335v-6.76h1.31v2.713h.932V8.934H55.8v6.76h-1.314v-2.815h-.931v2.815h-1.31Zm1.11-8.095v-5.51h-.996V.839h3.315v1.25h-.986v5.51h-1.333Zm78.42 16.272a448.386 448.386 0 0 1-2.45-9.454 415.19 415.19 0 0 1-2.181-9.265l.126 18.72h-4.142V.788h6.229c.927 3.499 1.779 6.814 2.553 9.944.775 3.13 1.463 6.055 2.064 8.775l-.127-18.72h4.205v23.083h-6.276ZM112.836 6.45V18.21c0 .717.11 1.241.332 1.573.222.333.575.498 1.06.498.569 0 .964-.152 1.185-.458.222-.306.332-.912.332-1.818V6.48c0-.811-.108-1.365-.324-1.66-.216-.295-.593-.443-1.13-.443-.517 0-.888.161-1.115.483-.227.321-.34.85-.34 1.589Zm7.415 11.857c0 2.277-.432 3.85-1.296 4.72-.865.869-2.42 1.304-4.664 1.304-2.267 0-3.832-.437-4.696-1.312-.864-.875-1.296-2.446-1.296-4.712V6.354c0-2.277.432-3.85 1.296-4.72.864-.87 2.43-1.304 4.696-1.304 2.245 0 3.8.435 4.664 1.304.864.87 1.296 2.443 1.296 4.72v11.952Zm-18.973 5.565h4.649V.79h-4.649V23.87Zm-10.04 0V5.057H87.84V.79h11.32v4.268H95.79v18.814h-4.553Zm-10.623-8.253h2.513L81.894 4.741l-1.28 10.877Zm-5.771 8.253L78.795.79h6.182L88.93 23.87h-4.76l-.521-4.047h-3.526l-.521 4.047h-4.76Zm-7.905 0a446.701 446.701 0 0 1-2.45-9.454c-.77-3.11-1.498-6.198-2.183-9.265l.127 18.72h-4.143V.788h6.23a624.18 624.18 0 0 1 2.553 9.944c.775 3.13 1.462 6.055 2.063 8.775L69.01.788h4.205v23.083h-6.276ZM49.518.79v4.205h-5.186v4.727h4.98v4.206h-4.98v5.739h5.185v4.205h-9.691V.79h9.691ZM37.153 18.306c0 2.256-.435 3.824-1.304 4.704-.87.88-2.433 1.32-4.688 1.32-2.267 0-3.832-.437-4.696-1.312-.864-.875-1.296-2.446-1.296-4.712V6.354c0-2.277.432-3.85 1.296-4.72C27.33.764 28.896.33 31.162.33c2.255 0 3.818.44 4.688 1.32.869.88 1.304 2.448 1.304 4.704v2.593h-4.57V6.449c0-.738-.113-1.268-.34-1.59-.226-.32-.597-.482-1.114-.482-.495 0-.851.156-1.067.467-.216.31-.324.825-.324 1.541v11.89c0 .737.103 1.257.308 1.557.206.3.567.45 1.083.45.527 0 .901-.165 1.123-.498.221-.331.332-.903.332-1.715v-2.72h4.569v2.957ZM15.557 15.62h2.514L16.838 4.74l-1.28 10.878Zm-5.77 8.252L13.738.79h6.182l3.952 23.082h-4.759l-.521-4.047h-3.526l-.522 4.047H9.786ZM9.706.79v4.205H4.522v4.727h4.996v4.206H4.522v9.944H0V.79h9.707Z"/>
	</symbol>

	<symbol id="recirc-uplift" viewBox="0 0 440 24">
		<path fill-rule="evenodd" d="M28.727 5.184h1.56V1.752h1.283V.33h-4.126v1.422h1.283v3.432Zm3.502 0h1.56V3.416h1.457v1.768h1.56V.33h-1.56v1.699H33.79V.33h-1.56v4.854Zm5.617 0h3.919V3.901h-2.358v-.59h1.733V2.203h-1.733v-.59h2.288V.33h-3.849v4.854ZM13.044 6.832a6.004 6.004 0 0 1 4.19 10.3l-.068.066h.002l-3.514 3.281h.002L9.532 24.33l-3.518-3.29-.01.009-3.909-3.656h.003a6.004 6.004 0 0 1 7.426-9.422 5.976 5.976 0 0 1 3.52-1.14Zm20.114.098h-4.291a.52.52 0 0 0-.516.515v9.731c0 .484-.2.946-.547 1.267a1.57 1.57 0 0 1-1.205.418 1.63 1.63 0 0 1-1.492-1.617V7.445a.52.52 0 0 0-.516-.515h-4.29a.52.52 0 0 0-.517.515v9.742c0 1.952.804 3.835 2.206 5.167a6.828 6.828 0 0 0 5.1 1.89 6.937 6.937 0 0 0 6.583-6.935V7.445a.52.52 0 0 0-.515-.515m10.754 6.466c0 1.02-.808 1.817-1.84 1.817H39.93v-3.657h2.144a1.82 1.82 0 0 1 1.84 1.84M42.007 6.93h-6.87a.509.509 0 0 0-.51.508v16.307c0 .28.228.509.51.509h4.282c.281 0 .509-.228.509-.51v-3.817h2.165c3.542 0 6.423-2.91 6.423-6.488 0-3.589-2.92-6.51-6.51-6.51M59.79 18.932h-5.362V7.438a.509.509 0 0 0-.509-.508h-4.283a.509.509 0 0 0-.509.508v16.307c0 .281.228.509.509.509H59.79c.28 0 .508-.228.508-.509V19.44a.509.509 0 0 0-.508-.509m6.199-11.946-4.283.021a.508.508 0 0 0-.506.511l.08 16.307c.001.28.23.507.511.506l4.283-.021a.509.509 0 0 0 .506-.511L66.5 7.49a.509.509 0 0 0-.511-.506m12.724.447a.509.509 0 0 0-.512-.506l-10.218.05a.509.509 0 0 0-.506.511l.08 16.307c.001.28.23.507.511.506l4.283-.021a.509.509 0 0 0 .506-.511l-.03-5.992 4.732-.024a.509.509 0 0 0 .506-.51l-.018-3.632a.508.508 0 0 0-.511-.506l-4.73.023-.004-.917 5.427-.027a.508.508 0 0 0 .506-.511l-.022-4.24Zm14.378-.6-12.849.063a.508.508 0 0 0-.506.511l.02 4.262c.002.28.231.507.512.506l3.73-.018.058 11.558c.001.28.23.507.511.506l4.283-.022a.508.508 0 0 0 .506-.51L89.3 12.129l3.818-.018a.508.508 0 0 0 .506-.512l-.02-4.261a.509.509 0 0 0-.512-.506"/>
	</symbol>

	<symbol id="recirc-evening-news" viewBox="0 0 440 24">
		<path fill-rule="evenodd" d="m72.335 18.302.837-.167c.725-.224.949-.28.949-1.842V4.349c0-1.507-.224-1.675-.95-1.842l-.836-.168v-.67h13.73l.223 5.08h-.781c-.614-1.396-1.06-2.121-1.452-2.68-.78-1.172-1.34-1.283-3.125-1.283-1.284 0-1.898.167-2.288.223v6.474h.67c1.785 0 2.176-.223 2.455-.725a8.433 8.433 0 0 0 .782-1.898h.725v6.53h-.725c-.224-.781-.447-1.283-.782-2.009-.279-.614-.614-.725-2.456-.725h-.67v4.855c0 2.233.056 2.512 2.512 2.512 2.01 0 2.4-.223 3.293-1.507.447-.67.949-1.73 1.619-3.349h.781l-.335 5.972H72.28l.056-.837Zm17.19-9.432c-.558-1.452-.837-1.787-1.507-1.954l-.502-.167v-.67h7.535v.67l-.67.167c-.502.167-.781.39-.781 1.005 0 .335.111.781.334 1.34l2.121 5.804h.112l2.01-5.805c.223-.614.334-1.06.334-1.395 0-.558-.223-.837-.781-.949l-.67-.167v-.67h4.633v.67l-.503.167c-.67.223-.949.614-1.563 2.233l-3.85 9.934h-2.122L89.525 8.87Zm11.498 3.572c0-4.354 3.237-6.754 6.53-6.754s5.581 1.73 5.693 6.251h-8.26c.055 4.075 1.618 5.247 4.186 5.247 1.562 0 2.735-.447 3.683-.95v.838c-.893.949-2.79 2.288-5.302 2.288-4.353 0-6.53-2.679-6.53-6.92Zm3.963-1.507 4.297-.224c0-3.014-.39-4.13-1.897-4.13-1.284.056-2.289 1.284-2.4 4.354Zm8.818 7.367.67-.167c.837-.224.949-.335.949-1.452V8.981c0-1.06-.112-1.172-.837-1.618l-.838-.559v-.502l5.303-.614.279.168-.056 1.618h.112c1.339-.949 2.958-1.786 4.8-1.786 2.12 0 3.292 1.116 3.292 3.349v7.702c0 1.117.112 1.228.893 1.451l.67.168v.67h-6.977v-.67l.614-.168c.726-.223.838-.279.838-1.45v-6.698c0-1.507-.558-2.01-1.73-2.01-.893 0-1.786.224-2.345.335v8.428c0 1.228.056 1.228.837 1.451l.615.168v.67h-7.089v-.782Zm16.186 0 .67-.167c.837-.224.949-.335.949-1.452V8.981c0-1.06-.112-1.172-.838-1.618l-.837-.559v-.502l5.47-.614.223.168a38.121 38.121 0 0 0-.111 2.902v7.981c0 1.117.111 1.228.948 1.451l.67.168v.67h-7.144v-.726Zm1.228-15.907c0-1.228.949-2.065 2.177-2.065 1.228 0 2.176.837 2.176 2.065s-.948 2.065-2.176 2.065c-1.228 0-2.177-.893-2.177-2.065Zm6.865 15.907.67-.167c.837-.224.949-.335.949-1.452V8.981c0-1.06-.112-1.172-.838-1.618l-.837-.559v-.502l5.303-.614.279.168-.056 1.618h.111c1.34-.949 2.959-1.786 4.8-1.786 2.121 0 3.294 1.116 3.294 3.349v7.702c0 1.117.111 1.228.893 1.451l.67.168v.67h-6.977v-.67l.614-.168c.725-.223.837-.279.837-1.45v-6.698c0-1.507-.558-2.01-1.73-2.01-.894 0-1.787.224-2.345.335v8.428c0 1.228.056 1.228.838 1.451l.613.168v.67h-6.976l-.112-.782Zm15.07 3.07c0-1.172 1.116-2.065 3.125-2.512v-.111c-1.395-.28-2.176-1.228-2.176-2.4 0-1.396 1.116-2.4 1.897-2.959v-.111c-1.228-.614-2.009-1.675-2.009-3.182 0-2.846 2.456-4.353 5.358-4.353 1.228 0 2.177.223 3.07.614.781-.726 1.786-1.228 2.846-1.228.95 0 1.563.446 1.563 1.34 0 .78-.335 1.45-1.228 1.45-.781 0-1.004-.334-1.284-.892-.223-.503-.78-.447-1.395-.112v.056c.949.558 1.73 1.563 1.73 2.902 0 2.847-2.455 4.298-5.358 4.298-.948 0-1.841-.168-2.567-.447-.223.224-.558.67-.558 1.117 0 .502.335.837 1.228.837h4.353c2.4 0 4.242.725 4.242 3.349 0 2.902-2.4 5.302-7.368 5.302-3.46-.056-5.47-1.172-5.47-2.958Zm10.493-.67c0-1.116-.67-1.674-2.177-1.674h-4.186c-.447.223-1.005.837-1.005 1.841 0 1.452.893 2.4 3.182 2.4 2.79.056 4.186-.948 4.186-2.567Zm-2.512-10.716c0-2.623-.502-3.35-1.674-3.35s-1.675.727-1.675 3.127c0 2.623.503 3.293 1.675 3.293 1.172 0 1.674-.67 1.674-3.07Zm12.893-5.47h-.112v11.33c0 1.898.168 2.01 1.173 2.177l.893.167v.726h-5.191v-.726l.725-.167c.782-.167 1.06-.28 1.06-2.065V4.293c0-1.507-.222-1.675-.948-1.842l-.837-.168v-.67h6.586l6.865 10.103h.112V4.683c0-1.897-.168-1.953-1.172-2.176l-.95-.168v-.725h5.247v.725l-.725.168c-.782.167-1.06.279-1.06 2.065v14.4h-1.787l-9.879-14.456Zm14.233 7.87c0-4.354 3.237-6.754 6.53-6.754s5.581 1.73 5.693 6.251h-8.26c.055 4.075 1.618 5.247 4.186 5.247 1.562 0 2.734-.447 3.683-.949v.837c-.893.95-2.79 2.289-5.302 2.289-4.354-.056-6.53-2.68-6.53-6.921Zm3.962-1.507 4.298-.223c0-3.014-.39-4.13-1.898-4.13-1.283 0-2.288 1.227-2.4 4.353Zm10.103-2.177c-.559-1.451-.838-1.786-1.507-1.953l-.503-.168v-.67h7.033v.67l-.558.168c-.447.111-.614.334-.614.781 0 .39.167.949.39 1.619l1.842 5.804h.168l1.842-5.358-.28-.837c-.502-1.507-.725-1.786-1.283-1.954l-.502-.167v-.67h7.032v.67l-.67.167c-.502.112-.725.447-.725.95 0 .334.111.78.279 1.395l1.897 5.804h.112l1.786-5.804c.223-.67.28-1.06.28-1.452 0-.502-.224-.781-.782-.948l-.67-.168v-.67h4.632v.67l-.446.168c-.67.223-.949.614-1.563 2.232l-3.572 9.99h-2.177l-2.679-7.702h-.055l-2.791 7.703h-2.121l-3.795-10.27Zm19.423 9.99-.168-3.906h.726a11.706 11.706 0 0 0 1.618 2.456c.503.614 1.117.948 2.177.948 1.228 0 2.065-.614 2.065-1.786 0-1.172-.725-1.674-2.958-2.511-2.232-.837-3.628-1.954-3.628-4.13 0-2.4 1.898-4.187 5.303-4.187 1.45 0 2.679.224 3.404.503l.168 3.404h-.67a13.937 13.937 0 0 0-1.451-2.12c-.558-.614-1.005-.782-1.898-.782-1.06 0-1.786.614-1.786 1.619 0 .949.503 1.563 2.456 2.288 3.014 1.116 4.13 2.288 4.13 4.242 0 2.623-1.953 4.465-5.637 4.465-1.395.056-2.846-.167-3.851-.502Zm-184.13-2.79c-.502.67-1.116 1.228-1.841 1.73-.614.447-1.396.837-2.345 1.172-.948.391-2.009.558-3.237.558-1.34 0-2.567-.223-3.74-.725-1.171-.502-2.12-1.116-2.957-1.954-.838-.837-1.507-1.786-1.954-2.846-.502-1.116-.725-2.288-.725-3.516 0-1.228.223-2.4.725-3.517.502-1.116 1.116-2.065 1.954-2.846.837-.837 1.841-1.451 2.958-1.954 1.172-.502 2.4-.725 3.74-.725 1.227 0 2.288.167 3.18.558.894.39 1.675.781 2.289 1.172a9.123 9.123 0 0 1 1.842 1.73L35.05 7.195c-.39-.446-.781-.893-1.284-1.228-.39-.335-.893-.614-1.507-.837-.614-.28-1.283-.39-2.065-.39-.781 0-1.507.167-2.177.446-.67.279-1.283.67-1.786 1.172a5.511 5.511 0 0 0-1.172 1.786 5.617 5.617 0 0 0-.446 2.177c0 .781.167 1.507.446 2.176.28.67.67 1.284 1.172 1.786a5.516 5.516 0 0 0 1.786 1.173c.67.279 1.396.446 2.177.446.782 0 1.507-.112 2.121-.39.614-.28 1.116-.559 1.563-.838a8.97 8.97 0 0 0 1.284-1.228l2.455 2.456Zm1.34-14.288h7.312c.837 0 1.618.111 2.344.39.67.224 1.284.559 1.786 1.005.502.39.837.893 1.116 1.451.279.558.39 1.172.39 1.786 0 .67-.111 1.284-.39 1.73-.223.447-.502.838-.837 1.117a3.324 3.324 0 0 1-1.172.781c.614.168 1.116.447 1.618.837.39.335.782.782 1.117 1.284.334.558.502 1.228.502 2.065 0 .67-.112 1.34-.39 1.898a4.61 4.61 0 0 1-1.173 1.563c-.502.446-1.116.781-1.842 1.06-.725.28-1.562.39-2.511.39h-7.814l-.056-17.357Zm7.033 6.697c.613 0 1.116-.167 1.45-.502a1.64 1.64 0 0 0 .503-1.228 1.64 1.64 0 0 0-.502-1.228c-.335-.335-.838-.502-1.451-.502h-3.35v3.46h3.35Zm.502 7.368c.725 0 1.34-.168 1.73-.558.39-.391.614-.893.614-1.507 0-.614-.223-1.117-.614-1.507-.39-.391-1.005-.558-1.73-.558h-3.851v4.186l3.85-.056Zm9.098-1.563c.278.335.67.67 1.06.949.335.223.781.446 1.284.614a5.35 5.35 0 0 0 1.73.279c1.004 0 1.73-.168 2.177-.558.446-.391.67-.838.67-1.396 0-.502-.224-.893-.67-1.172a7.295 7.295 0 0 0-1.62-.781c-.669-.223-1.339-.447-2.064-.726-.726-.223-1.451-.558-2.065-1.004-.67-.391-1.172-.95-1.619-1.563-.446-.614-.67-1.451-.67-2.456 0-.67.168-1.34.447-1.953.279-.614.725-1.173 1.228-1.619.558-.447 1.172-.837 1.953-1.116.782-.28 1.675-.391 2.68-.391.948 0 1.785.112 2.51.39.727.224 1.34.503 1.843.838.558.335 1.06.725 1.45 1.172L63.46 6.079a5.64 5.64 0 0 0-.893-.726 8.397 8.397 0 0 0-1.005-.502c-.334-.223-.78-.28-1.283-.28-.95 0-1.619.168-2.01.503-.39.335-.614.726-.614 1.228s.224.893.67 1.172c.447.28.95.558 1.619.782.67.223 1.34.446 2.065.725.726.223 1.451.558 2.065 1.005.67.39 1.172.949 1.619 1.563.446.613.67 1.45.67 2.455 0 .726-.168 1.396-.447 2.01a4.65 4.65 0 0 1-1.284 1.674c-.558.502-1.283.893-2.065 1.172-.781.28-1.73.447-2.735.447-1.116 0-2.12-.168-2.958-.447a10.268 10.268 0 0 1-2.065-.949 6.798 6.798 0 0 1-1.674-1.34l2.456-2.455Zm-36.168-3.851c0 .335 0 .67-.056 1.004-.055.335-.055.614-.111.95-.056.334-.112.613-.224.892-.111.28-.167.614-.334.893-.112.28-.28.558-.391.838-.168.279-.335.558-.502.78-.168.28-.391.503-.559.782-.223.224-.446.503-.67.726-.223.223-.502.446-.725.67-.223.223-.502.39-.781.558-.28.167-.503.335-.782.502-.279.168-.558.28-.837.39-.279.112-.558.224-.893.336-.279.111-.614.167-.893.223-.335.056-.614.112-.949.112-.335 0-.67.055-1.004.055-.335 0-.67 0-1.005-.055-.335-.056-.614-.056-.949-.112-.335-.056-.614-.112-.893-.223-.279-.112-.614-.168-.893-.335-.279-.112-.558-.28-.837-.39a9.525 9.525 0 0 1-.782-.503c-.279-.168-.502-.39-.78-.558-.224-.224-.503-.447-.727-.67-.223-.223-.446-.502-.67-.726-.223-.223-.39-.502-.557-.781-.168-.28-.335-.502-.503-.781-.167-.28-.279-.559-.39-.838-.112-.279-.224-.558-.335-.893-.112-.279-.168-.614-.224-.893-.055-.335-.111-.614-.111-.949C0 10.935 0 10.6 0 10.265c0-.335 0-.67.056-1.005.056-.335.056-.614.111-.949.056-.335.112-.614.224-.893.111-.279.167-.614.335-.893.111-.279.279-.558.39-.837.168-.279.335-.558.503-.781.167-.28.39-.503.558-.782.223-.223.446-.446.725-.67.224-.223.503-.446.726-.67.223-.222.502-.39.781-.557.28-.168.503-.335.782-.503.279-.167.558-.279.837-.39.279-.112.558-.224.893-.335.279-.112.614-.168.893-.223.279-.056.614-.112.949-.112.335-.056.67-.056 1.004-.056.335 0 .67 0 1.005.056.335.056.614.056.949.112.335.055.614.111.893.223.279.111.614.167.893.335.279.111.558.279.837.39.28.168.558.335.782.503.279.167.502.39.78.558.224.223.503.446.726.67.224.223.447.502.67.725.224.223.39.502.558.782.168.279.335.502.503.78.167.28.279.56.39.838.112.28.224.558.335.893.112.28.168.614.224.893.055.335.111.614.111.949-.056.28 0 .614 0 .949Zm-.614.056c-.111-.224-.223-.391-.279-.614a4.908 4.908 0 0 0-.335-.558c-.111-.168-.223-.391-.39-.559-.112-.167-.28-.334-.447-.502-.167-.167-.279-.335-.446-.502-.168-.168-.335-.335-.503-.447-.167-.167-.335-.279-.558-.446-.223-.168-.39-.28-.558-.39-.223-.168-.447-.28-.614-.392-.223-.223-.447-.335-.67-.446-.223-.112-.446-.223-.67-.223a3.146 3.146 0 0 0-.67-.224 14.688 14.688 0 0 0-.725-.167 3.267 3.267 0 0 0-.725-.112c-.224-.111-.503-.111-.726-.167H8.93c-.223 0-.502.056-.725.056-.224.055-.503.055-.726.111-.223.056-.502.112-.726.168-.223.056-.446.167-.67.223-.223.056-.446.112-.67.223-.222.28-.446.335-.669.447-.223.111-.446.279-.67.39-.223.112-.39.28-.558.391-.167.112-.335.28-.558.447-.167.167-.335.279-.502.446-.168.168-.335.39-.447.502-.167.168-.279.335-.446.503-.112.167-.28.39-.39.558-.113.167-.224.39-.336.558-.111.223-.223.39-.279.614.112.223.223.39.28.614.11.223.222.39.334.558.112.168.223.39.39.558.112.168.28.335.447.503.168.334.335.502.503.614.167.111.334.334.502.446.167.167.335.28.558.447.168.167.39.279.558.39.223.168.447.28.67.39l.67.336c.223.111.446.223.67.279.223.112.446.167.67.223.223.056.446.112.725.168.223.055.502.111.725.111.224.056.503.056.726.056h1.563c.223 0 .502-.056.725-.056.224-.056.503-.056.726-.111.223-.056.446-.112.726-.168.223-.056.446-.167.67-.223.223-.112.446-.168.67-.28l.669-.334c.223-.112.446-.28.614-.39.223-.112.39-.28.558-.391.167-.168.39-.28.558-.447.167-.167.335-.335.502-.446.168-.168.335-.335.447-.503.167-.167.279-.335.446-.502.112-.168.28-.39.391-.558.112-.168.223-.391.335-.558.056-.224.167-.447.223-.614Zm-3.963-.056v.502c0 .168-.055.335-.055.502-.056.168-.056.335-.112.503a3.849 3.849 0 0 1-.167.446c-.056.168-.112.28-.224.447-.056.167-.167.279-.279.446-.111.112-.223.28-.279.391-.111.112-.223.28-.335.39-.111.112-.279.224-.39.336-.112.111-.28.223-.391.279-.112.111-.28.167-.447.279-.167.056-.279.167-.446.223-.168.056-.28.112-.447.167-.167.056-.335.112-.502.112-.167.056-.335.056-.502.056H9.265c-.167 0-.335-.056-.502-.056-.168-.056-.335-.056-.503-.112a3.851 3.851 0 0 1-.446-.167 1.672 1.672 0 0 1-.447-.223c-.167-.056-.279-.168-.446-.28a1.696 1.696 0 0 0-.39-.278c-.112-.112-.28-.224-.391-.335-.112-.112-.224-.28-.335-.391a1.696 1.696 0 0 1-.28-.39c-.111-.112-.167-.28-.279-.447-.167-.112-.223-.28-.279-.39-.055-.168-.111-.28-.167-.447-.056-.168-.112-.335-.112-.503 0-.167-.055-.335-.055-.502V9.818c0-.167.055-.335.055-.502.056-.167.056-.335.112-.502.056-.224.112-.335.167-.503.056-.167.112-.279.224-.446.055-.168.167-.28.279-.447.111-.111.223-.279.279-.39.111-.112.223-.28.335-.391.111-.112.279-.223.39-.335.112-.112.28-.223.391-.279.112-.112.28-.167.447-.28.167-.055.279-.167.446-.222.168-.056.28-.112.447-.168.167-.056.335-.111.502-.111.167-.056.335-.056.502-.056h1.005c.167 0 .335.056.502.056.168.055.335.055.503.111.167.056.334.112.446.168.167.055.28.111.447.223.167.056.279.167.446.279.112.112.28.167.39.28.112.11.28.222.391.334.112.112.224.279.335.39.112.112.224.28.28.391.111.112.167.28.278.447.056.167.168.279.224.446.056.168.111.28.167.447.056.167.112.335.112.502.056.168.056.335.056.503 0 .167.055.334.055.502Z"/>
	</symbol>
	
	<symbol id="recirc-hours" viewBox="0 0 440 24">
		<path fill-rule="evenodd" d="M12 24.33c6.627 0 12-5.373 12-12s-5.373-12-12-12-12 5.373-12 12 5.373 12 12 12Zm10.284-12.004c0 5.682-4.606 10.288-10.288 10.288S1.708 18.008 1.708 12.326 6.314 2.037 11.996 2.037s10.288 4.607 10.288 10.289Zm4.54-.024h.447v2.119h.806v-2.12h.657v-.745h-.657v-.18c0-.268.15-.417.388-.417.18 0 .329.06.329.06v-.747s-.24-.09-.538-.09c-.596 0-.985.389-.985 1.075v.299h-.447v.746Zm26.563-1.642a.463.463 0 0 0-.925 0 .463.463 0 0 0 .925 0Zm7.282-.418h-.806v4.179h.806v-1.552c0-.388.269-.657.627-.657.328 0 .537.21.537.567v1.642h.806v-1.76c0-.747-.478-1.225-1.075-1.225-.567 0-.865.478-.865.478h-.03v-1.672Zm10.386 0h-.806v4.179h.806v-1.552c0-.388.269-.657.627-.657.328 0 .537.21.537.567v1.642h.806v-1.76c0-.747-.478-1.225-1.074-1.225-.567 0-.866.478-.866.478h-.03v-1.672Zm5.193 1.194c.866 0 1.552.687 1.552 1.522 0 .836-.686 1.523-1.552 1.523a1.535 1.535 0 0 1-1.552-1.523c0-.835.687-1.522 1.552-1.522Zm8.656.06h-.806v2.925h.806v-1.373c0-.478.298-.776.686-.776.18 0 .269.03.269.03v-.866h-.06c-.567 0-.866.478-.866.478h-.03v-.418Zm3.491 2.268c-.477 0-.776-.328-.776-.328l-.477.507s.448.538 1.253.538c.806 0 1.224-.418 1.224-.926 0-.602-.593-.8-1.031-.947-.257-.087-.461-.155-.461-.276 0-.09.09-.18.298-.18.418 0 .657.24.657.24l.477-.508s-.388-.448-1.134-.448c-.746 0-1.164.418-1.164.896 0 .602.593.8 1.032.948.257.086.46.154.46.275 0 .12-.089.21-.358.21Zm-8.923-2.268h.805v1.642c0 .358.21.567.538.567.358 0 .626-.269.626-.657v-1.552h.806v2.925h-.806v-.418h-.03s-.298.478-.865.478c-.597 0-1.074-.478-1.074-1.224v-1.761Zm-3.224.686c.418 0 .746.329.746.776 0 .448-.328.777-.746.777s-.746-.329-.746-.777c0-.447.328-.776.746-.776Zm-11.58.12h-.507v-.746h.268c.21 0 .329-.12.329-.358v-.538h.716v.896h.657v.746h-.657v.985c0 .268.15.418.388.418.18 0 .328-.06.328-.06v.746s-.238.09-.537.09c-.597 0-.985-.388-.985-1.075v-1.104Zm-7.491.597c0-.418-.299-.717-.686-.717-.388 0-.687.299-.687.717s.299.716.687.716c.387 0 .686-.298.686-.716Zm-.776 2.03c-.478 0-.776-.359-.776-.359l-.507.508s.417.597 1.283.597c.925 0 1.582-.657 1.582-1.552v-2.627h-.806v.418h-.03s-.269-.478-.895-.478c-.657 0-1.254.597-1.254 1.463 0 .865.597 1.462 1.254 1.462.626 0 .895-.477.895-.477h.03v.239c0 .477-.328.805-.776.805Zm-3.88-.508h.806v-2.925h-.806v2.925Zm-2.507-1.76c-.09-.27-.328-.508-.657-.508-.328 0-.567.238-.656.507h1.313Zm-.597 1.82c.806 0 1.254-.478 1.254-.478l-.418-.567s-.269.328-.776.328c-.448 0-.687-.238-.776-.507h2.119s.03-.15.03-.358c0-.806-.657-1.463-1.463-1.463-.835 0-1.522.687-1.522 1.522 0 .836.687 1.523 1.552 1.523Zm-7.88.358s.15.06.329.06c.269 0 .424-.15.507-.359l.06-.149-1.134-2.895h.866l.686 1.94h.03l.657-1.94h.865l-1.194 3.164c-.245.656-.597 1.015-1.134 1.015-.298 0-.537-.09-.537-.09v-.746Zm-3.491-2.537h.507v1.104c0 .687.388 1.075.985 1.075.299 0 .537-.09.537-.09v-.746s-.149.06-.328.06c-.239 0-.388-.15-.388-.418v-.985h.657v-.746h-.657v-.896h-.716v.538c0 .238-.12.358-.329.358h-.268v.746Zm-3.074-.806h.806v.418h.03s.298-.478.865-.478h.06v.866s-.09-.03-.269-.03c-.388 0-.686.298-.686.776v1.373h-.806v-2.925Zm-3.224.686c.418 0 .747.329.747.776 0 .448-.329.777-.747.777-.417 0-.746-.329-.746-.777 0-.447.329-.776.746-.776Zm0-.746c.866 0 1.552.687 1.552 1.522 0 .836-.686 1.523-1.552 1.523a1.535 1.535 0 0 1-1.552-1.523c0-.835.687-1.522 1.552-1.522Zm-15.835-1.251-.022.109s-.116.436-.662.764h-.013c-.545-.328-.661-.764-.661-.764l-.023-.11V6.314l.027-.103c.229-.462.646-.475.646-.475h.034s.418.013.647.475l.027.103v3.872Zm-.027 7.794.027-.103v-3.872l-.022-.109s-.116-.437-.662-.764h-.013c-.545.327-.661.764-.661.764l-.023.11v3.871l.027.103c.229.462.646.475.646.475h.034s.418-.013.647-.475Zm-10.088-4.07L7.79 9.923v3.984H5.798Zm11.163-1.812c.644.187 1.075.45 1.294.954l.023.054c.106.25.16.374.16.913v2.866c0 .965-.255 1.686-.762 2.161-.507.476-1.33.714-2.467.714-1.15 0-1.972-.235-2.467-.703-.495-.468-.743-1.192-.743-2.172V15.65h-1.696v3.759H7.79v-3.76H2.727L8.358 4.756h1.945v9.153h1.708c.035-.482.15-.728.343-1.005.237-.339.61-.58 1.12-.724-.497-.201-.855-.492-1.074-.873-.218-.381-.328-1.774-.328-2.694V7.038c0-.819.273-1.47.817-1.95.543-.482 1.324-.723 2.338-.723.99 0 1.761.241 2.312.722.55.482.825 1.132.825 1.951v1.574c0 .719-.049 1.807-.146 2.108-.194.604-.613 1.118-1.257 1.377Z"/>
	</symbol>
	
	<symbol id="recirc-cbs-news-philadelphia" viewBox="0 0 440 24">
		<path fill-rule="evenodd" d="M12 24.33c6.627 0 12-5.373 12-12s-5.373-12-12-12-12 5.373-12 12 5.373 12 12 12Zm11.278-12c-.942 2.076-2.398 3.773-4.366 5.094-2.074 1.383-4.378 2.075-6.912 2.075s-4.849-.692-6.943-2.075C3.109 16.103 1.664 14.406.722 12.33c.942-2.075 2.387-3.762 4.335-5.062C7.15 5.864 9.466 5.16 12 5.16s4.838.703 6.912 2.107c1.968 1.3 3.424 2.987 4.366 5.062M12 18.69a6.36 6.36 0 1 0 0-12.72 6.36 6.36 0 0 0 0 12.72Zm32.107-2.486 3.098 3.098s-3.098 4.337-9.295 4.337c-6.66 0-11.773-5.112-11.773-11.309 0-6.196 5.112-11.308 11.773-11.308 6.042 0 9.14 4.338 9.14 4.338l-3.098 3.098S41.783 5.36 37.91 5.36a6.942 6.942 0 0 0-6.97 6.97 6.942 6.942 0 0 0 6.97 6.972c4.028 0 6.197-3.098 6.197-3.098Zm22.028.774c0 3.408-2.788 6.196-7.435 6.196h-9.76V1.487h9.14c4.338 0 6.971 2.633 6.971 5.731 0 3.408-2.943 4.493-2.943 4.493s4.027 1.084 4.027 5.267Zm-4.802-.465c0-1.549-1.084-2.634-2.943-2.634h-4.803v5.268h4.803c1.859 0 2.943-1.085 2.943-2.634Zm-7.746-6.661h4.183c1.55 0 2.479-.93 2.479-2.169 0-1.24-.93-2.169-2.479-2.169h-4.183v4.338Zm18.838-2.479c0-1.239.93-2.168 3.253-2.168 2.478 0 4.028 1.858 4.028 1.858l3.098-3.098s-2.479-2.943-7.28-2.943c-4.958 0-7.902 2.943-7.902 6.351 0 7.591 10.844 5.887 10.844 9.605 0 1.394-1.084 2.479-3.562 2.479-3.254 0-5.113-2.324-5.113-2.324l-3.098 3.098s2.788 3.408 8.365 3.408c5.112 0 8.211-3.098 8.211-6.66 0-7.592-10.844-5.888-10.844-9.606Zm33.306 7.591L95.197 1.487h-4.184v21.687h4.648V9.697l10.534 13.477h4.184V1.487h-4.648v13.477Zm12.454-.775h8.986v-4.182h-8.986V5.824h11.464V1.487h-16.11v21.687h16.42v-4.337h-11.774v-4.648Zm40.278-12.702-4.493 14.562h-.155l-4.492-14.562h-4.338l-4.492 14.562h-.155l-4.493-14.562h-4.802l7.126 21.687h4.493l4.4-14.097h.185l4.4 14.097h4.492l7.126-21.687h-4.802Zm10.193 5.886c0-1.239.93-2.168 3.253-2.168 2.479 0 4.028 1.858 4.028 1.858l3.098-3.098s-2.478-2.943-7.28-2.943c-4.958 0-7.901 2.943-7.901 6.351 0 7.591 10.843 5.887 10.843 9.605 0 1.394-1.084 2.479-3.562 2.479-3.253 0-5.112-2.324-5.112-2.324l-3.098 3.098s2.788 3.408 8.365 3.408c5.112 0 8.21-3.098 8.21-6.66 0-7.592-10.844-5.888-10.844-9.606Zm20.127 15.801h2.324V15.12h5.887c4.027 0 6.97-2.943 6.97-6.816 0-3.873-2.943-6.816-6.97-6.816h-8.21v21.687Zm2.324-10.224V3.656h5.887c2.788 0 4.647 1.858 4.647 4.647 0 2.788-1.859 4.647-4.647 4.647h-5.887Zm16.738 10.224h2.324V13.26h12.083v9.914h2.324V1.487h-2.324v9.604h-12.083V1.487h-2.324v21.687Zm22.16 0h2.324V1.487h-2.324v21.687Zm7.754 0h13.477v-2.168h-11.154V1.486h-2.323v21.688Zm13.64 0h2.478l2.479-6.041h10.224l2.479 6.041h2.478l-8.985-21.687h-2.168l-8.985 21.687Zm5.886-8.21 4.183-10.224 4.183 10.224h-8.366Zm17.048 8.21h6.816c6.352 0 11.309-4.957 11.309-10.843 0-5.887-4.957-10.844-11.309-10.844h-6.816v21.687Zm2.324-2.168V3.656h4.492c5.113 0 8.985 3.872 8.985 8.675 0 4.802-3.872 8.675-8.985 8.675h-4.492Zm19.836 2.168h15.182v-2.168h-12.858V12.95h10.07v-2.169h-10.07V3.656h12.548v-2.17h-14.872v21.688Zm18.753 0h13.477v-2.168h-11.154V1.486h-2.323v21.688Zm16.273 0h2.324V15.12h5.886c4.028 0 6.971-2.943 6.971-6.816 0-3.873-2.943-6.816-6.97-6.816h-8.211v21.687Zm2.324-10.224V3.656h5.886c2.789 0 4.648 1.858 4.648 4.647 0 2.788-1.86 4.647-4.648 4.647h-5.886Zm16.738 10.224h2.324V13.26h12.083v9.914h2.323V1.487h-2.323v9.604h-12.083V1.487h-2.324v21.687Zm22.16 0h2.324V1.487h-2.324v21.687Zm5.12 0h2.478l2.479-6.041h10.224l2.479 6.041h2.478l-8.985-21.687h-2.168l-8.985 21.687Zm5.887-8.21L387.93 4.74l4.183 10.224h-8.365Z"/>
	</symbol>
	
	<symbol id="recirc-cbs-news-sacramento" viewBox="0 0 440 24">
		<path fill-rule="evenodd" d="M388.63 12.33c0-1.28-.228-2.468-.682-3.562a8.837 8.837 0 0 0-1.875-2.85 8.612 8.612 0 0 0-2.804-1.89 8.826 8.826 0 0 0-3.47-.682 8.82 8.82 0 0 0-3.47.681 8.602 8.602 0 0 0-2.803 1.89 8.83 8.83 0 0 0-1.875 2.85c-.455 1.095-.682 2.283-.682 3.564 0 1.28.227 2.468.682 3.563a8.824 8.824 0 0 0 1.875 2.85 8.594 8.594 0 0 0 2.803 1.89 8.811 8.811 0 0 0 3.47.682c1.24 0 2.396-.227 3.47-.682a8.605 8.605 0 0 0 2.804-1.89 8.832 8.832 0 0 0 1.875-2.85c.454-1.095.681-2.283.681-3.563Zm2.323 0c0 1.55-.29 3.001-.868 4.354a11.179 11.179 0 0 1-2.385 3.547 11.176 11.176 0 0 1-3.548 2.386c-1.353.578-2.804.868-4.353.868-1.55 0-3-.29-4.353-.868a11.169 11.169 0 0 1-3.547-2.386 11.164 11.164 0 0 1-2.386-3.547c-.579-1.353-.867-2.804-.867-4.353 0-1.55.288-3 .867-4.353a11.17 11.17 0 0 1 2.386-3.548 11.177 11.177 0 0 1 3.547-2.385c1.353-.579 2.804-.868 4.353-.868 1.55 0 3 .29 4.353.868A11.184 11.184 0 0 1 387.7 4.43a11.184 11.184 0 0 1 2.385 3.548c.578 1.353.868 2.804.868 4.353Zm-39.038-8.674h6.816v19.519h2.324V3.655h6.816V1.488h-15.956v2.169Zm-4.957 15.336L333.635 1.487h-2.014v21.688h2.324V5.67l13.323 17.505h2.013V1.487h-2.323v17.505Zm-31.602-6.041h10.069v-2.17h-10.07V3.657h12.549v-2.17h-14.872v21.689h15.181v-2.17h-12.857v-8.054Zm-17.816.31-8.985-11.774h-2.013v21.688h2.323V5.515l8.675 11.463 8.676-11.463v17.66h2.323V1.487h-2.013L297.54 13.26Zm-19.518 1.703L273.84 4.74l-4.182 10.224h8.365Zm-3.098-13.477 8.985 21.688h-2.479l-2.478-6.042h-10.224l-2.479 6.042h-2.479l8.985-21.688h2.169ZM255.405 12.33c1.322 0 2.375-.393 3.16-1.178.785-.784 1.177-1.838 1.177-3.16s-.392-2.375-1.177-3.16c-.785-.785-1.838-1.177-3.16-1.177h-6.351v8.675h6.351Zm2.169 1.859 5.112 8.985h-2.634l-4.802-8.676h-6.196v8.676h-2.324V1.487h8.675c.97 0 1.864.165 2.68.496.816.33 1.518.785 2.106 1.363a6.17 6.17 0 0 1 1.38 2.06c.33.795.495 1.658.495 2.587 0 1.24-.238 2.257-.712 3.052-.475.795-.992 1.43-1.55 1.906-.66.537-1.404.95-2.23 1.239Zm-17.506 5.267c-.62.475-1.394.903-2.323 1.286-.93.382-2.014.573-3.254.573a8.813 8.813 0 0 1-3.47-.682 8.6 8.6 0 0 1-2.803-1.89 8.815 8.815 0 0 1-1.874-2.85c-.455-1.095-.682-2.283-.682-3.563 0-1.281.227-2.469.682-3.563a8.82 8.82 0 0 1 1.874-2.85 8.607 8.607 0 0 1 2.804-1.89 8.822 8.822 0 0 1 3.47-.682c1.239 0 2.313.19 3.222.573.909.382 1.662.81 2.262 1.286a8.542 8.542 0 0 1 1.797 1.859l1.549-1.394a11.848 11.848 0 0 0-2.2-2.231c-.744-.558-1.663-1.074-2.757-1.55-1.095-.474-2.386-.712-3.874-.712-1.549 0-3 .29-4.352.868a11.175 11.175 0 0 0-3.547 2.385 11.163 11.163 0 0 0-2.387 3.548c-.578 1.353-.867 2.804-.867 4.353s.289 3 .867 4.353a11.157 11.157 0 0 0 2.387 3.547 11.167 11.167 0 0 0 3.547 2.386c1.353.578 2.803.868 4.352.868 1.488 0 2.784-.233 3.889-.698 1.105-.465 2.04-.976 2.804-1.533a11.31 11.31 0 0 0 2.292-2.262l-1.549-1.394a8.797 8.797 0 0 1-1.859 1.859Zm-23.391-4.493L212.495 4.74l-4.183 10.224h8.365Zm-3.098-13.477 8.985 21.688h-2.48l-2.478-6.042h-10.224l-2.478 6.042h-2.479l8.985-21.688h2.169Zm-15.135 10.952c-.878-.444-1.823-.8-2.835-1.069a29.442 29.442 0 0 1-2.834-.898c-.878-.33-1.607-.749-2.185-1.255-.578-.506-.867-1.224-.867-2.153 0-.496.103-.966.31-1.41.206-.444.505-.836.898-1.177.392-.341.878-.615 1.456-.821.578-.207 1.24-.31 1.983-.31.806 0 1.503.114 2.091.34.59.228 1.09.476 1.503.744.475.33.878.692 1.209 1.085l1.549-1.55a8.204 8.204 0 0 0-1.611-1.394c-.538-.35-1.199-.67-1.984-.96-.784-.29-1.704-.434-2.757-.434-1.074 0-2.04.16-2.897.48-.857.32-1.59.75-2.2 1.286a5.451 5.451 0 0 0-1.874 4.12c0 .972.17 1.782.511 2.433.341.65.785 1.198 1.333 1.642a7.098 7.098 0 0 0 1.874 1.084c.701.28 1.425.532 2.169.76.743.227 1.466.448 2.169.666.702.216 1.326.48 1.874.79.547.31.991.687 1.332 1.13.34.445.512 1.018.512 1.72 0 1.177-.42 2.143-1.255 2.897-.837.754-2.071 1.13-3.703 1.13-1.012 0-1.89-.134-2.633-.402-.744-.268-1.353-.578-1.828-.93a5.838 5.838 0 0 1-1.425-1.332l-1.394 1.58a7.471 7.471 0 0 0 1.765 1.642c.599.414 1.358.786 2.278 1.116.919.33 1.998.496 3.237.496 1.157 0 2.19-.156 3.098-.466.91-.309 1.674-.743 2.293-1.3a5.518 5.518 0 0 0 1.41-1.968c.32-.754.48-1.575.48-2.463 0-1.28-.29-2.298-.867-3.052a6.286 6.286 0 0 0-2.185-1.797Zm-29.789-5.065c0-1.24.93-2.17 3.253-2.17 2.48 0 4.028 1.86 4.028 1.86l3.098-3.099s-2.478-2.943-7.28-2.943c-4.958 0-7.901 2.943-7.901 6.352 0 7.59 10.844 5.886 10.844 9.604 0 1.394-1.084 2.479-3.563 2.479-3.254 0-5.112-2.324-5.112-2.324l-3.099 3.098s2.789 3.408 8.366 3.408c5.112 0 8.21-3.098 8.21-6.661 0-7.59-10.844-5.887-10.844-9.604Zm-10.193-5.887-4.493 14.562h-.154l-4.493-14.562h-4.338l-4.492 14.562h-.155l-4.492-14.562h-4.802l7.125 21.688h4.493l4.4-14.097h.185l4.4 14.097h4.492l7.126-21.688h-4.802ZM118.185 14.19h8.985v-4.183h-8.985V5.824h11.463V1.487h-16.11v21.688h16.42v-4.338h-11.773V14.19Zm-12.455.774L95.196 1.487h-4.183v21.688h4.648V9.697l10.534 13.478h4.183V1.487h-4.648v13.477Zm-33.305-7.59c0-1.24.929-2.17 3.252-2.17 2.479 0 4.028 1.86 4.028 1.86l3.098-3.099s-2.478-2.943-7.28-2.943c-4.958 0-7.901 2.943-7.901 6.352 0 7.59 10.844 5.886 10.844 9.604 0 1.394-1.084 2.479-3.563 2.479-3.253 0-5.112-2.324-5.112-2.324l-3.099 3.098s2.789 3.408 8.366 3.408c5.112 0 8.21-3.098 8.21-6.661 0-7.59-10.843-5.887-10.843-9.604Zm-11.092 9.14c0-1.55-1.084-2.634-2.943-2.634h-4.803v5.267h4.803c1.859 0 2.943-1.085 2.943-2.634Zm-7.746-6.662h4.183c1.55 0 2.479-.93 2.479-2.168 0-1.24-.93-2.17-2.479-2.17h-4.183v4.338Zm12.548 7.126c0 3.408-2.788 6.197-7.436 6.197H48.94V1.487h9.14c4.337 0 6.971 2.634 6.971 5.731 0 3.409-2.944 4.493-2.944 4.493s4.028 1.084 4.028 5.267ZM37.91 19.302a6.942 6.942 0 0 1-6.97-6.971 6.942 6.942 0 0 1 6.97-6.971c3.873 0 6.042 3.098 6.042 3.098L47.05 5.36s-3.098-4.338-9.14-4.338c-6.66 0-11.773 5.112-11.773 11.309 0 6.196 5.112 11.308 11.773 11.308 6.197 0 9.295-4.337 9.295-4.337l-3.098-3.098s-2.17 3.098-6.197 3.098ZM18.912 7.268C16.838 5.864 14.534 5.162 12 5.162s-4.849.702-6.943 2.106C3.109 8.568 1.663 10.255.72 12.33c.942 2.076 2.388 3.773 4.336 5.094C7.15 18.807 9.466 19.499 12 19.499s4.838-.692 6.912-2.075c1.969-1.32 3.424-3.018 4.367-5.094-.943-2.075-2.398-3.762-4.367-5.062Zm1.574-3.424C22.83 6.187 24 9.01 24 12.314c0 3.326-1.171 6.16-3.514 8.502-2.343 2.343-5.166 3.514-8.47 3.514-3.305 0-6.134-1.17-8.487-3.514C1.176 18.474 0 15.64 0 12.315 0 9.01 1.176 6.187 3.53 3.844 5.881 1.502 8.71.33 12.014.33c3.305 0 6.128 1.172 8.471 3.514Zm-3.968 3.984c1.244 1.234 1.866 2.73 1.866 4.487 0 1.756-.622 3.257-1.866 4.501-1.245 1.245-2.745 1.867-4.503 1.867-1.756 0-3.257-.622-4.501-1.867-1.245-1.244-1.867-2.745-1.867-4.501 0-1.758.622-3.253 1.867-4.487 1.244-1.234 2.745-1.85 4.501-1.85 1.758 0 3.258.616 4.503 1.85Z"/>
	</symbol>

</svg>
