<svg xmlns="http://www.w3.org/2000/svg">

	<symbol id="caret" viewBox="0 0 100 100">
		<path fill-rule="evenodd" d="M25.654 14.566A8.824 8.824 0 1 1 39.052 3.08l35.294 41.177a8.824 8.824 0 0 1 0 11.484L39.052 96.92a8.824 8.824 0 0 1-13.398-11.485L56.026 50z"/>
	</symbol>

	<symbol id="cbs-eye" viewBox="0 0 100 100">
		<path fill-rule="evenodd" d="M100 50.275c0 27.614-22.386 50-50 50s-50-22.386-50-50 22.386-50 50-50 50 22.386 50 50Zm-3.005-.001c-3.93-8.646-9.992-15.677-18.196-21.093-8.64-5.851-18.24-8.778-28.799-8.778-10.56 0-20.206 2.927-28.93 8.778-8.118 5.416-14.14 12.447-18.065 21.093 3.925 8.648 9.947 15.721 18.064 21.225 8.725 5.766 18.372 8.647 28.931 8.647 10.56 0 20.16-2.882 28.799-8.647 8.204-5.504 14.267-12.577 18.196-21.225ZM50 76.827c14.664 0 26.552-11.888 26.552-26.552S64.664 23.723 50 23.723 23.448 35.61 23.448 50.275 35.336 76.827 50 76.827Z"/>
	</symbol>

	<symbol id="icon-gallery" viewBox="0 0 100 100">
		<path fill-rule="evenodd" d="M96.096 23.574c-2.604-2.654-5.748-3.98-9.428-3.98H75.004l-2.656-7.22c-.662-1.734-1.867-3.23-3.62-4.49C66.97 6.63 65.175 6 63.334 6H36.67c-1.842 0-3.64.63-5.391 1.884-1.755 1.26-2.962 2.756-3.622 4.49L25 19.594H13.335c-3.683 0-6.824 1.326-9.43 3.98C1.302 26.227 0 29.43 0 33.182v47.572c0 3.75 1.302 6.954 3.905 9.609 2.606 2.654 5.747 3.98 9.43 3.98H86.67c3.679 0 6.823-1.326 9.427-3.98 2.603-2.655 3.904-5.858 3.904-9.61v-47.57c0-3.752-1.3-6.956-3.904-9.61ZM73.27 56.452c0 12.852-10.418 23.27-23.27 23.27s-23.27-10.418-23.27-23.27S37.148 33.182 50 33.182 73.27 43.6 73.27 56.452Zm-23.269 15.01c8.285 0 15-6.716 15-15 0-8.285-6.716-15-15-15-8.284 0-15 6.715-15 15 0 8.284 6.716 15 15 15Z"/>
	</symbol>

	<symbol id="icon-video" viewBox="0 0 100 100">
		<path fill-rule="evenodd" d="M96.574 44.074c5.211 3.274 5.209 8.583 0 11.855L28.436 98.734C23.224 102.008 19 98.707 19 91.421V8.583c0-7.313 4.226-10.586 9.436-7.314l68.138 42.805Z"/>
	</symbol>

	<symbol id="logo-taboola" viewBox="0 0 76 11">
		<path fill-rule="evenodd" d="M50.342 9.49h.932V4.993h4.65v-.856h-4.65V.855h5.16V0h-6.092v9.49ZM16.547.007h-2.602v9.435H16.4l.005-.733h.026c.326.436.717.924 1.992.932 1.934.01 2.878-1.89 2.888-3.598.01-1.603-.597-3.552-2.883-3.566-.778-.007-1.476.334-1.874.91h-.026l.019-3.38Zm-.127 6.034c.005-.802.22-1.68 1.153-1.675.933.004 1.138.887 1.134 1.688-.005.816-.222 1.696-1.154 1.69-.932-.006-1.137-.889-1.133-1.703ZM0 2.42h2.626l.001 7.023h2.878V2.42h2.63V.023H0V2.42ZM13.29 7.92c0 .512.019 1.09.305 1.526l-2.654-.015a1.805 1.805 0 0 1-.087-.645h-.027c-.555.628-1.358.807-2.199.802-1.314-.008-2.4-.645-2.393-2.077.01-1.813 1.798-2.035 3.157-2.203.256-.032.497-.062.708-.1.355-.065.71-.168.713-.6 0-.46-.43-.635-.85-.638-.802-.003-.963.402-.977.691l-2.419-.014c.09-1.919 1.905-2.221 3.522-2.214 3.234.02 3.226 1.353 3.218 2.658v.03l-.018 2.799ZM10.8 6.366c-.327.15-.671.26-1.025.326-.579.129-.883.27-.885.73 0 .316.338.633.811.636.592 0 1.053-.349 1.098-1.058l.002-.634Zm14.402.821c-2.563-.015-3.71-1.717-3.699-3.61C21.514 1.685 22.68.01 25.24.027c1.6.012 2.65.674 3.211 1.631.564-.973 1.627-1.643 3.25-1.634 2.564.013 3.71 1.703 3.703 3.596-.007 1.892-1.178 3.58-3.74 3.566l-.004.003c-1.601-.01-2.65-.679-3.208-1.641-.565.975-1.628 1.649-3.25 1.64Zm.03-5.27c-.985-.006-1.122.953-1.127 1.675-.004.722.122 1.697 1.11 1.703.99.007 1.124-.962 1.129-1.69.004-.727-.122-1.683-1.111-1.688Zm5.332 1.676c.004-.723.141-1.682 1.127-1.676.99.006 1.116.964 1.111 1.69-.004.726-.137 1.696-1.127 1.689-.99-.007-1.114-.98-1.11-1.703ZM38.5.027h-2.547v9.42H38.5V.026Zm7.519 8.008V5.07c.008-1.305.017-2.64-3.218-2.657-1.616-.008-3.432.295-3.522 2.214l2.42.013c.013-.289.174-.695.975-.691.421.002.85.176.85.636-.002.434-.357.537-.713.601-.21.039-.452.069-.708.1-1.358.169-3.145.39-3.155 2.203-.009 1.433 1.078 2.07 2.393 2.078.842.005 1.644-.175 2.2-.802h.026c-.008.231.024.462.093.682h2.616c-.262-.4-.26-.932-.257-1.412Zm-3.53-1.37a4.469 4.469 0 0 0 1.026-.322l-.007.63c-.043.71-.505 1.058-1.097 1.058-.473-.003-.81-.32-.81-.635.005-.46.307-.602.888-.73ZM28.333 8.392c-2.09-.012-4.003-.378-5.854-1.204l-.01 2.273c2.029.958 3.628 1.415 5.85 1.428 2.037.012 4.082-.492 5.968-1.428l.012-2.273c-2.107.803-3.77 1.217-5.966 1.204Zm31.275-5.99c-.995 0-1.777.378-2.315 1.123-.529.73-.787 1.609-.77 2.61-.017.994.248 1.833.79 2.495.542.662 1.322 1.013 2.296 1.013.824 0 1.506-.222 2.028-.656.521-.434.855-1.066.99-1.874l.036-.215h-.857l-.03.148c-.11.56-.358 1.005-.736 1.324-.378.32-.858.48-1.432.48-.72 0-1.259-.255-1.653-.78-.37-.493-.56-1.098-.576-1.8h5.291l.01-.175c.053-1.037-.186-1.916-.708-2.617-.533-.71-1.328-1.077-2.364-1.077ZM57.4 5.48c.077-.57.31-1.108.672-1.555a1.865 1.865 0 0 1 1.536-.73c.671 0 1.191.233 1.588.713.365.446.581.996.617 1.572h-4.413Zm6.52-1.955c.539-.745 1.32-1.124 2.316-1.124 1.036 0 1.83.366 2.364 1.077.522.7.76 1.58.707 2.617l-.009.175h-5.291c.015.703.206 1.307.576 1.8.394.525.933.78 1.653.78.574 0 1.054-.16 1.432-.48.377-.319.626-.764.736-1.324l.03-.148h.857l-.036.215c-.135.808-.47 1.44-.99 1.874-.522.434-1.204.656-2.029.656-.973 0-1.753-.35-2.295-1.013-.542-.662-.807-1.501-.79-2.496-.017-1 .241-1.88.77-2.609Zm.78.4a3.14 3.14 0 0 0-.671 1.555h4.413a2.752 2.752 0 0 0-.617-1.573c-.397-.479-.917-.712-1.589-.712-.599-.018-1.17.254-1.535.73ZM75.147 0v3.494a2.457 2.457 0 0 0-.667-.628 2.897 2.897 0 0 0-1.6-.465c-1.01 0-1.791.347-2.325 1.03-.518.666-.786 1.545-.786 2.604 0 1.015.253 1.875.75 2.555.513.699 1.276 1.053 2.27 1.053.995 0 1.793-.382 2.357-1.136v.984H76V0h-.855ZM72.89 8.851c-.736 0-1.282-.261-1.67-.798-.388-.537-.597-1.227-.597-2.018 0-.826.193-1.518.573-2.059.37-.527.921-.783 1.682-.783.734 0 1.278.264 1.662.81.393.557.593 1.241.593 2.032 0 .79-.2 1.46-.593 2.013-.384.54-.924.803-1.65.803Z"/>
	</symbol>

</svg>
