<svg xmlns="http://www.w3.org/2000/svg">

	<symbol id="caret" viewBox="0 0 100 100">
		<path fill-rule="evenodd" d="M25.654 14.566A8.824 8.824 0 1 1 39.052 3.08l35.294 41.177a8.824 8.824 0 0 1 0 11.484L39.052 96.92a8.824 8.824 0 0 1-13.398-11.485L56.026 50z"/>
	</symbol>

	<symbol id="cbs-eye" viewBox="0 0 100 100">
		<path fill-rule="evenodd" d="M100 50.275c0 27.614-22.386 50-50 50s-50-22.386-50-50 22.386-50 50-50 50 22.386 50 50Zm-3.005-.001c-3.93-8.646-9.992-15.677-18.196-21.093-8.64-5.851-18.24-8.778-28.799-8.778-10.56 0-20.206 2.927-28.93 8.778-8.118 5.416-14.14 12.447-18.065 21.093 3.925 8.648 9.947 15.721 18.064 21.225 8.725 5.766 18.372 8.647 28.931 8.647 10.56 0 20.16-2.882 28.799-8.647 8.204-5.504 14.267-12.577 18.196-21.225ZM50 76.827c14.664 0 26.552-11.888 26.552-26.552S64.664 23.723 50 23.723 23.448 35.61 23.448 50.275 35.336 76.827 50 76.827Z"/>
	</symbol>

	<symbol id="icon-gallery" viewBox="0 0 100 100">
		<path fill-rule="evenodd" d="M96.096 23.574c-2.604-2.654-5.748-3.98-9.428-3.98H75.004l-2.656-7.22c-.662-1.734-1.867-3.23-3.62-4.49C66.97 6.63 65.175 6 63.334 6H36.67c-1.842 0-3.64.63-5.391 1.884-1.755 1.26-2.962 2.756-3.622 4.49L25 19.594H13.335c-3.683 0-6.824 1.326-9.43 3.98C1.302 26.227 0 29.43 0 33.182v47.572c0 3.75 1.302 6.954 3.905 9.609 2.606 2.654 5.747 3.98 9.43 3.98H86.67c3.679 0 6.823-1.326 9.427-3.98 2.603-2.655 3.904-5.858 3.904-9.61v-47.57c0-3.752-1.3-6.956-3.904-9.61ZM73.27 56.452c0 12.852-10.418 23.27-23.27 23.27s-23.27-10.418-23.27-23.27S37.148 33.182 50 33.182 73.27 43.6 73.27 56.452Zm-23.269 15.01c8.285 0 15-6.716 15-15 0-8.285-6.716-15-15-15-8.284 0-15 6.715-15 15 0 8.284 6.716 15 15 15Z"/>
	</symbol>

	<symbol id="icon-video" viewBox="0 0 100 100">
		<path fill-rule="evenodd" d="M96.574 44.074c5.211 3.274 5.209 8.583 0 11.855L28.436 98.734C23.224 102.008 19 98.707 19 91.421V8.583c0-7.313 4.226-10.586 9.436-7.314l68.138 42.805Z"/>
	</symbol>

	<symbol id="logo-taboola" viewBox="0 0 76 11">
		<path fill-rule="evenodd" d="M50.342 9.49h.932V4.993h4.65v-.856h-4.65V.855h5.16V0h-6.092v9.49ZM16.547.007h-2.602v9.435H16.4l.005-.733h.026c.326.436.717.924 1.992.932 1.934.01 2.878-1.89 2.888-3.598.01-1.603-.597-3.552-2.883-3.566-.778-.007-1.476.334-1.874.91h-.026l.019-3.38Zm-.127 6.034c.005-.802.22-1.68 1.153-1.675.933.004 1.138.887 1.134 1.688-.005.816-.222 1.696-1.154 1.69-.932-.006-1.137-.889-1.133-1.703ZM0 2.42h2.626l.001 7.023h2.878V2.42h2.63V.023H0V2.42ZM13.29 7.92c0 .512.019 1.09.305 1.526l-2.654-.015a1.805 1.805 0 0 1-.087-.645h-.027c-.555.628-1.358.807-2.199.802-1.314-.008-2.4-.645-2.393-2.077.01-1.813 1.798-2.035 3.157-2.203.256-.032.497-.062.708-.1.355-.065.71-.168.713-.6 0-.46-.43-.635-.85-.638-.802-.003-.963.402-.977.691l-2.419-.014c.09-1.919 1.905-2.221 3.522-2.214 3.234.02 3.226 1.353 3.218 2.658v.03l-.018 2.799ZM10.8 6.366c-.327.15-.671.26-1.025.326-.579.129-.883.27-.885.73 0 .316.338.633.811.636.592 0 1.053-.349 1.098-1.058l.002-.634Zm14.402.821c-2.563-.015-3.71-1.717-3.699-3.61C21.514 1.685 22.68.01 25.24.027c1.6.012 2.65.674 3.211 1.631.564-.973 1.627-1.643 3.25-1.634 2.564.013 3.71 1.703 3.703 3.596-.007 1.892-1.178 3.58-3.74 3.566l-.004.003c-1.601-.01-2.65-.679-3.208-1.641-.565.975-1.628 1.649-3.25 1.64Zm.03-5.27c-.985-.006-1.122.953-1.127 1.675-.004.722.122 1.697 1.11 1.703.99.007 1.124-.962 1.129-1.69.004-.727-.122-1.683-1.111-1.688Zm5.332 1.676c.004-.723.141-1.682 1.127-1.676.99.006 1.116.964 1.111 1.69-.004.726-.137 1.696-1.127 1.689-.99-.007-1.114-.98-1.11-1.703ZM38.5.027h-2.547v9.42H38.5V.026Zm7.519 8.008V5.07c.008-1.305.017-2.64-3.218-2.657-1.616-.008-3.432.295-3.522 2.214l2.42.013c.013-.289.174-.695.975-.691.421.002.85.176.85.636-.002.434-.357.537-.713.601-.21.039-.452.069-.708.1-1.358.169-3.145.39-3.155 2.203-.009 1.433 1.078 2.07 2.393 2.078.842.005 1.644-.175 2.2-.802h.026c-.008.231.024.462.093.682h2.616c-.262-.4-.26-.932-.257-1.412Zm-3.53-1.37a4.469 4.469 0 0 0 1.026-.322l-.007.63c-.043.71-.505 1.058-1.097 1.058-.473-.003-.81-.32-.81-.635.005-.46.307-.602.888-.73ZM28.333 8.392c-2.09-.012-4.003-.378-5.854-1.204l-.01 2.273c2.029.958 3.628 1.415 5.85 1.428 2.037.012 4.082-.492 5.968-1.428l.012-2.273c-2.107.803-3.77 1.217-5.966 1.204Zm31.275-5.99c-.995 0-1.777.378-2.315 1.123-.529.73-.787 1.609-.77 2.61-.017.994.248 1.833.79 2.495.542.662 1.322 1.013 2.296 1.013.824 0 1.506-.222 2.028-.656.521-.434.855-1.066.99-1.874l.036-.215h-.857l-.03.148c-.11.56-.358 1.005-.736 1.324-.378.32-.858.48-1.432.48-.72 0-1.259-.255-1.653-.78-.37-.493-.56-1.098-.576-1.8h5.291l.01-.175c.053-1.037-.186-1.916-.708-2.617-.533-.71-1.328-1.077-2.364-1.077ZM57.4 5.48c.077-.57.31-1.108.672-1.555a1.865 1.865 0 0 1 1.536-.73c.671 0 1.191.233 1.588.713.365.446.581.996.617 1.572h-4.413Zm6.52-1.955c.539-.745 1.32-1.124 2.316-1.124 1.036 0 1.83.366 2.364 1.077.522.7.76 1.58.707 2.617l-.009.175h-5.291c.015.703.206 1.307.576 1.8.394.525.933.78 1.653.78.574 0 1.054-.16 1.432-.48.377-.319.626-.764.736-1.324l.03-.148h.857l-.036.215c-.135.808-.47 1.44-.99 1.874-.522.434-1.204.656-2.029.656-.973 0-1.753-.35-2.295-1.013-.542-.662-.807-1.501-.79-2.496-.017-1 .241-1.88.77-2.609Zm.78.4a3.14 3.14 0 0 0-.671 1.555h4.413a2.752 2.752 0 0 0-.617-1.573c-.397-.479-.917-.712-1.589-.712-.599-.018-1.17.254-1.535.73ZM75.147 0v3.494a2.457 2.457 0 0 0-.667-.628 2.897 2.897 0 0 0-1.6-.465c-1.01 0-1.791.347-2.325 1.03-.518.666-.786 1.545-.786 2.604 0 1.015.253 1.875.75 2.555.513.699 1.276 1.053 2.27 1.053.995 0 1.793-.382 2.357-1.136v.984H76V0h-.855ZM72.89 8.851c-.736 0-1.282-.261-1.67-.798-.388-.537-.597-1.227-.597-2.018 0-.826.193-1.518.573-2.059.37-.527.921-.783 1.682-.783.734 0 1.278.264 1.662.81.393.557.593 1.241.593 2.032 0 .79-.2 1.46-.593 2.013-.384.54-.924.803-1.65.803Z"/>
	</symbol>

	<symbol id="logo-baltimore" viewBox="0 0 100 28">
		<path fill-rule="evenodd" d="M19.388 7.801c-.886.591-1.87.887-2.953.887a5.273 5.273 0 0 1-2.968-.887 5.177 5.177 0 0 1-1.852-2.176 5.09 5.09 0 0 1 1.852-2.164c.896-.6 1.885-.9 2.968-.9s2.067.3 2.953.9a5.063 5.063 0 0 1 1.866 2.164A5.15 5.15 0 0 1 19.388 7.8m.673-5.803c-1.001-1-2.208-1.501-3.62-1.501s-2.62.5-3.626 1.501C11.809 3 11.307 4.206 11.307 5.618c0 1.42.502 2.632 1.508 3.633 1.005 1 2.214 1.502 3.626 1.502s2.619-.501 3.62-1.502c1-1.001 1.501-2.212 1.501-3.633 0-1.412-.5-2.619-1.5-3.62m-3.62.912c-.752 0-1.393.264-1.924.79a2.599 2.599 0 0 0-.798 1.918c0 .75.265 1.392.798 1.924a2.621 2.621 0 0 0 1.923.797c.751 0 1.392-.266 1.924-.797a2.622 2.622 0 0 0 .798-1.924 2.6 2.6 0 0 0-.798-1.917 2.634 2.634 0 0 0-1.924-.791m11.066 7.547c2.647 0 3.971-1.853 3.971-1.853L30.154 7.28s-.926 1.324-2.647 1.324a2.967 2.967 0 0 1-2.98-2.98 2.966 2.966 0 0 1 2.98-2.978c1.654 0 2.581 1.324 2.581 1.324l1.324-1.324S30.088.793 27.507.793c-2.847 0-5.031 2.184-5.031 4.832 0 2.648 2.184 4.832 5.03 4.832m6.7-1.92v-2.25h2.052c.794 0 1.258.463 1.258 1.125 0 .662-.464 1.125-1.258 1.125h-2.052Zm0-5.825h1.787c.662 0 1.06.397 1.06.927s-.398.927-1.06.927h-1.787V2.712Zm5.361 4.899c0-1.787-1.72-2.251-1.72-2.251s1.257-.463 1.257-1.92c0-1.323-1.125-2.449-2.979-2.449H32.22v9.267h4.17c1.986 0 3.177-1.191 3.177-2.647Zm2.688-4.105c0-.53.397-.926 1.39-.926 1.06 0 1.722.794 1.722.794L46.69 2.05S45.631.792 43.58.792c-2.12 0-3.377 1.258-3.377 2.714 0 3.244 4.634 2.516 4.634 4.104 0 .597-.464 1.06-1.523 1.06-1.39 0-2.184-.993-2.184-.993L39.806 9s1.191 1.456 3.575 1.456c2.184 0 3.508-1.323 3.508-2.847 0-3.243-4.634-2.515-4.634-4.104m9.93.993 4.5 5.76h1.788V.99h-1.985v5.76L51.986.99h-1.787v9.267h1.986V4.5ZM66.84 8.405H61.81V6.419h3.84V4.632h-3.84V2.844h4.898V.991h-6.884v9.267h7.017V8.405Zm5.427 1.853 1.88-6.023h.08l1.88 6.023h1.92L81.073.991H79.02l-1.919 6.222h-.066L75.115.991h-1.853l-1.92 6.222h-.066L69.356.991h-2.052l3.045 9.267h1.92Zm13.69-2.647c0 .596-.463 1.059-1.522 1.059-1.39 0-2.185-.993-2.185-.993L80.927 9s1.192 1.456 3.575 1.456c2.184 0 3.508-1.324 3.508-2.846 0-3.244-4.633-2.516-4.633-4.105 0-.53.397-.926 1.39-.926 1.059 0 1.72.794 1.72.794l1.325-1.324S86.752.793 84.7.793c-2.119 0-3.377 1.257-3.377 2.713 0 3.244 4.634 2.516 4.634 4.105M7.22 25.329c-.473.455-1.107.682-1.903.682H1.4v-5.038h3.918c.398 0 .759.072 1.082.214.324.144.597.334.821.57.224.236.398.513.522.83.125.317.187.65.187.998 0 .71-.236 1.29-.709 1.744ZM1.4 15.563h3.637c.71 0 1.26.19 1.651.568.393.38.588.875.588 1.484 0 .66-.195 1.179-.588 1.558-.391.38-.942.569-1.65.569H1.398v-4.18Zm6.846 5.485a4.357 4.357 0 0 0-1.063-.728c.273-.136.522-.33.746-.578.187-.211.358-.488.513-.83.156-.342.233-.775.233-1.297 0-.46-.09-.896-.27-1.306-.18-.41-.43-.768-.746-1.073a3.428 3.428 0 0 0-1.148-.718 4.036 4.036 0 0 0-1.474-.261H0v13.06h5.317c.61 0 1.16-.094 1.652-.28.49-.187.91-.448 1.259-.784.348-.336.618-.73.811-1.185.193-.454.29-.948.29-1.483 0-.61-.113-1.12-.336-1.53a4.086 4.086 0 0 0-.747-1.007Zm5.373 1.324 2.52-6.156 2.518 6.156h-5.038Zm1.866-8.115-5.41 13.06h1.492l1.493-3.638h6.156l1.493 3.638h1.492l-5.41-13.06h-1.306Zm9.701 0h-1.399v13.06h8.116V26.01h-6.717V14.257Zm6.717 1.306h4.104v11.754h1.4V15.563h4.104v-1.306h-9.608v1.306Zm11.194 11.754h1.4v-13.06h-1.4v13.06Zm11.194-5.97-5.41-7.09h-1.213v13.06h1.4V16.682l5.223 6.903 5.223-6.903v10.635h1.4v-13.06H59.7l-5.41 7.09Zm20.578 1.585a5.183 5.183 0 0 1-2.817 2.854 5.297 5.297 0 0 1-2.09.411 5.298 5.298 0 0 1-2.09-.41 5.168 5.168 0 0 1-1.687-1.138 5.31 5.31 0 0 1-1.13-1.717 5.537 5.537 0 0 1-.41-2.145c0-.771.137-1.486.41-2.146.274-.66.65-1.231 1.13-1.716a5.176 5.176 0 0 1 1.688-1.139 5.314 5.314 0 0 1 2.09-.41c.746 0 1.442.137 2.089.41a5.19 5.19 0 0 1 2.817 2.855c.274.66.41 1.375.41 2.146 0 .771-.136 1.486-.41 2.145m-.15-6.903a6.728 6.728 0 0 0-2.135-1.436 6.6 6.6 0 0 0-2.621-.523c-.934 0-1.807.175-2.622.523a6.722 6.722 0 0 0-2.136 1.436 6.732 6.732 0 0 0-1.437 2.136 6.6 6.6 0 0 0-.522 2.622c0 .932.174 1.806.522 2.62a6.73 6.73 0 0 0 1.437 2.137 6.716 6.716 0 0 0 2.136 1.437 6.598 6.598 0 0 0 2.622.522c.932 0 1.806-.174 2.621-.522a6.722 6.722 0 0 0 2.136-1.437 6.73 6.73 0 0 0 1.436-2.136 6.595 6.595 0 0 0 .523-2.621c0-.933-.174-1.807-.523-2.622a6.732 6.732 0 0 0-1.436-2.136m5.69 4.758v-5.224h3.825c.796 0 1.43.236 1.903.709.473.472.709 1.107.709 1.903s-.236 1.43-.709 1.903c-.473.472-1.107.709-1.903.709H80.41Zm6.474.373c.336-.286.647-.669.933-1.148.286-.478.43-1.091.43-1.837 0-.56-.1-1.08-.3-1.558a3.715 3.715 0 0 0-.83-1.241 3.853 3.853 0 0 0-1.268-.82 4.267 4.267 0 0 0-1.614-.3H79.01v13.06h1.4v-5.223h3.73l2.892 5.223h1.586l-3.078-5.41a4.441 4.441 0 0 0 1.343-.746Zm5.373 4.85v-4.85h6.064v-1.306h-6.064v-4.291h7.556v-1.306h-8.955v13.06H100V26.01h-7.743Z"/>
	</symbol>
	
	<symbol id="recirc-entertainment" viewBox="0 0 440 24">
		<path fill-rule="evenodd" d="M12 24.33c6.627 0 12-5.373 12-12s-5.373-12-12-12-12 5.373-12 12 5.373 12 12 12Zm11.279-12c-.943-2.075-2.398-3.763-4.367-5.062C16.838 5.863 14.534 5.16 12 5.16s-4.85.702-6.943 2.107C3.109 8.568 1.663 10.255.72 12.33c.942 2.075 2.388 3.773 4.336 5.094C7.15 18.808 9.466 19.499 12 19.499s4.838-.691 6.912-2.075c1.969-1.321 3.424-3.019 4.367-5.094M12 18.702a6.372 6.372 0 1 0 0-12.744 6.372 6.372 0 0 0 0 12.744Zm14.138-6.371c0-6.197 5.112-11.31 11.774-11.31 6.042 0 9.14 4.339 9.14 4.339l-3.098 3.098s-2.17-3.098-6.042-3.098a6.942 6.942 0 0 0-6.972 6.97 6.942 6.942 0 0 0 6.972 6.972c4.028 0 6.196-3.098 6.196-3.098l3.099 3.098s-3.099 4.338-9.295 4.338c-6.662 0-11.774-5.113-11.774-11.31M48.942 1.488h9.14c4.338 0 6.972 2.633 6.972 5.731 0 3.409-2.944 4.493-2.944 4.493s4.028 1.085 4.028 5.267c0 3.409-2.788 6.197-7.436 6.197h-9.76V1.487Zm8.83 8.365c1.55 0 2.479-.93 2.479-2.169 0-1.239-.93-2.169-2.479-2.169H53.59v4.338h4.182Zm.62 9.295c1.86 0 2.943-1.084 2.943-2.634 0-1.548-1.084-2.633-2.943-2.633h-4.803v5.267h4.803Zm8.303 1.085 3.099-3.099s1.858 2.324 5.112 2.324c2.478 0 3.563-1.085 3.563-2.479 0-3.718-10.844-2.014-10.844-9.605 0-3.408 2.943-6.351 7.9-6.351 4.803 0 7.282 2.943 7.282 2.943l-3.099 3.098S78.16 5.205 75.68 5.205c-2.324 0-3.253.929-3.253 2.168 0 3.718 10.845 2.014 10.845 9.605 0 3.564-3.099 6.662-8.211 6.662-5.577 0-8.366-3.408-8.366-3.408M91.017 1.487h4.182l10.535 13.477V1.487h4.648v21.688h-4.183L95.664 9.697v13.478h-4.647V1.487Zm22.525 0h16.112v4.337h-11.465v4.183h8.986v4.183h-8.986v4.648h11.775v4.337h-16.422V1.487Zm17.506 0h4.802l4.493 14.562h.155l4.492-14.562h4.338l4.493 14.562h.155l4.493-14.562h4.802l-7.126 21.688h-4.493l-4.4-14.097h-.186l-4.4 14.097h-4.492l-7.126-21.688Zm31.882 18.745 3.099-3.099s1.858 2.324 5.112 2.324c2.478 0 3.563-1.085 3.563-2.479 0-3.718-10.845-2.014-10.845-9.605 0-3.408 2.944-6.351 7.901-6.351 4.803 0 7.282 2.943 7.282 2.943l-3.099 3.098s-1.55-1.858-4.028-1.858c-2.324 0-3.253.929-3.253 2.168 0 3.718 10.844 2.014 10.844 9.605 0 3.564-3.098 6.662-8.21 6.662-5.577 0-8.366-3.408-8.366-3.408m28.153 2.948h14.203v-2.405H193.78V13.3h11.277v-2.405h-11.277V3.908h11.505V1.503h-14.203V23.18Zm33.833 0h2.6V1.503h-2.698V18.63l-12.48-17.127h-2.762V23.18h2.697V5.695l12.643 17.485Zm13.032 0h2.698V3.907h6.89V1.503H231.09v2.406h6.857V23.18Zm13.163 0h14.202v-2.405h-11.505V13.3h11.278v-2.405h-11.278V3.908h11.505V1.503h-14.202V23.18Zm31.037 0h3.185l-5.85-8.84c2.958-.26 5.623-2.405 5.623-6.305 0-3.998-2.828-6.532-6.793-6.532h-8.71V23.18h2.698v-8.612h4.322l5.525 8.612Zm.163-15.145c0 2.438-1.755 4.16-4.323 4.16h-5.687V3.908h5.687c2.568 0 4.323 1.69 4.323 4.127ZM294.4 23.18h2.697V3.907h6.89V1.503h-16.445v2.406h6.858V23.18Zm26.552 0h2.99l-8.742-21.677h-3.348l-8.71 21.677h2.99l1.918-4.81h10.985l1.917 4.81Zm-7.41-19.273 4.68 12.058h-9.392l4.712-12.057Zm13.228 19.273h2.697V1.503h-2.697V23.18Zm23.107 0h2.6V1.503h-2.697V18.63L337.3 1.503h-2.763V23.18h2.698V5.695l12.642 17.485Zm26.195 0h2.698V1.503h-3.868l-6.76 16.51-6.727-16.51h-3.868V23.18h2.698V5.142l7.345 18.038h1.105l7.377-18.038V23.18Zm7.768 0h14.202v-2.405h-11.505V13.3h11.278v-2.405h-11.278V3.908h11.505V1.503h-14.202V23.18Zm33.832 0h2.6V1.503h-2.697V18.63l-12.48-17.127h-2.763V23.18h2.698V5.695l12.642 17.485Zm13.033 0h2.697V3.907h6.89V1.503h-16.445v2.406h6.858V23.18Z"/>
	</symbol>
	
	<symbol id="recirc-us" viewBox="0 0 440 24">
		<path fill-rule="evenodd" d="M12 24.33c6.627 0 12-5.373 12-12s-5.373-12-12-12-12 5.373-12 12 5.373 12 12 12Zm11.279-12c-.943-2.075-2.398-3.763-4.367-5.062C16.838 5.863 14.534 5.16 12 5.16s-4.85.702-6.943 2.107C3.109 8.568 1.663 10.255.72 12.33c.942 2.075 2.388 3.773 4.336 5.094C7.15 18.808 9.466 19.499 12 19.499s4.838-.691 6.912-2.075c1.969-1.321 3.424-3.019 4.367-5.094M12 18.702a6.372 6.372 0 1 0 0-12.744 6.372 6.372 0 0 0 0 12.744Zm14.138-6.371c0-6.197 5.112-11.31 11.774-11.31 6.042 0 9.14 4.339 9.14 4.339l-3.098 3.098s-2.17-3.098-6.042-3.098a6.942 6.942 0 0 0-6.972 6.97 6.942 6.942 0 0 0 6.972 6.972c4.028 0 6.196-3.098 6.196-3.098l3.099 3.098s-3.099 4.338-9.295 4.338c-6.662 0-11.774-5.113-11.774-11.31M48.942 1.488h9.14c4.338 0 6.972 2.633 6.972 5.731 0 3.409-2.944 4.493-2.944 4.493s4.028 1.085 4.028 5.267c0 3.409-2.788 6.197-7.436 6.197h-9.76V1.487Zm8.83 8.365c1.55 0 2.479-.93 2.479-2.169 0-1.239-.93-2.169-2.479-2.169H53.59v4.338h4.182Zm.62 9.295c1.86 0 2.943-1.084 2.943-2.634 0-1.548-1.084-2.633-2.943-2.633h-4.803v5.267h4.803Zm8.303 1.085 3.099-3.099s1.858 2.324 5.112 2.324c2.478 0 3.563-1.085 3.563-2.479 0-3.718-10.844-2.014-10.844-9.605 0-3.408 2.943-6.351 7.9-6.351 4.803 0 7.282 2.943 7.282 2.943l-3.099 3.098S78.16 5.205 75.68 5.205c-2.324 0-3.253.929-3.253 2.168 0 3.718 10.845 2.014 10.845 9.605 0 3.564-3.099 6.662-8.211 6.662-5.577 0-8.366-3.408-8.366-3.408M91.017 1.487h4.182l10.535 13.477V1.487h4.648v21.688h-4.183L95.664 9.697v13.478h-4.647V1.487Zm22.525 0h16.112v4.337h-11.465v4.183h8.986v4.183h-8.986v4.648h11.775v4.337h-16.422V1.487Zm17.506 0h4.802l4.493 14.562h.155l4.492-14.562h4.338l4.493 14.562h.155l4.493-14.562h4.802l-7.126 21.688h-4.493l-4.4-14.097h-.186l-4.4 14.097h-4.492l-7.126-21.688Zm31.882 18.745 3.099-3.099s1.858 2.324 5.112 2.324c2.478 0 3.563-1.085 3.563-2.479 0-3.718-10.845-2.014-10.845-9.605 0-3.408 2.944-6.351 7.901-6.351 4.803 0 7.282 2.943 7.282 2.943l-3.099 3.098s-1.55-1.858-4.028-1.858c-2.324 0-3.253.929-3.253 2.168 0 3.718 10.844 2.014 10.844 9.605 0 3.564-3.098 6.662-8.21 6.662-5.577 0-8.366-3.408-8.366-3.408m28.153-5.47c0 5.33 2.958 8.808 8.84 8.808 5.883 0 8.84-3.445 8.84-8.84V1.502h-2.697v13.196c0 3.964-2.145 6.467-6.143 6.467-3.997 0-6.142-2.503-6.142-6.467V1.502h-2.698v13.26Zm21.19 6.955c0 .976.813 1.788 1.788 1.788.975 0 1.787-.813 1.787-1.788 0-.974-.812-1.787-1.787-1.787-.975 0-1.788.813-1.788 1.787Zm6.76-1.592c1.788 2.015 4.55 3.445 8.32 3.445 5.85 0 7.995-3.218 7.995-6.37 0-4.55-4.03-5.655-7.572-6.597-2.763-.748-5.265-1.398-5.265-3.575 0-2.048 1.852-3.445 4.452-3.445 2.373 0 4.648.812 6.273 2.6L234.86 4.2c-1.82-1.918-4.388-3.022-7.703-3.022-4.257 0-7.442 2.437-7.442 6.012 0 4.257 3.867 5.232 7.345 6.142 2.86.78 5.492 1.495 5.492 4.095 0 1.658-1.235 3.738-5.102 3.738-3.055 0-5.395-1.495-6.825-3.088l-1.593 2.048Zm19.76 1.592c0 .976.813 1.788 1.788 1.788.975 0 1.787-.813 1.787-1.788 0-.974-.812-1.787-1.787-1.787-.975 0-1.788.813-1.788 1.787Z"/>
	</symbol>
	
	<symbol id="recirc-crime" viewBox="0 0 440 24">
		<path fill-rule="evenodd" d="M12 24.33c6.627 0 12-5.373 12-12s-5.373-12-12-12-12 5.373-12 12 5.373 12 12 12Zm11.279-12c-.943-2.075-2.398-3.763-4.367-5.062C16.838 5.863 14.534 5.16 12 5.16s-4.85.702-6.943 2.107C3.109 8.568 1.663 10.255.72 12.33c.942 2.075 2.388 3.773 4.336 5.094C7.15 18.808 9.466 19.499 12 19.499s4.838-.691 6.912-2.075c1.969-1.321 3.424-3.019 4.367-5.094M12 18.702a6.372 6.372 0 1 0 0-12.744 6.372 6.372 0 0 0 0 12.744Zm14.138-6.371c0-6.197 5.112-11.31 11.774-11.31 6.042 0 9.14 4.339 9.14 4.339l-3.098 3.098s-2.17-3.098-6.042-3.098a6.942 6.942 0 0 0-6.972 6.97 6.942 6.942 0 0 0 6.972 6.972c4.028 0 6.196-3.098 6.196-3.098l3.099 3.098s-3.099 4.338-9.295 4.338c-6.662 0-11.774-5.113-11.774-11.31M48.942 1.488h9.14c4.338 0 6.972 2.633 6.972 5.731 0 3.409-2.944 4.493-2.944 4.493s4.028 1.085 4.028 5.267c0 3.409-2.788 6.197-7.436 6.197h-9.76V1.487Zm8.83 8.365c1.55 0 2.479-.93 2.479-2.169 0-1.239-.93-2.169-2.479-2.169H53.59v4.338h4.182Zm.62 9.295c1.86 0 2.943-1.084 2.943-2.634 0-1.548-1.084-2.633-2.943-2.633h-4.803v5.267h4.803Zm8.303 1.085 3.099-3.099s1.858 2.324 5.112 2.324c2.478 0 3.563-1.085 3.563-2.479 0-3.718-10.844-2.014-10.844-9.605 0-3.408 2.943-6.351 7.9-6.351 4.803 0 7.282 2.943 7.282 2.943l-3.099 3.098S78.16 5.205 75.68 5.205c-2.324 0-3.253.929-3.253 2.168 0 3.718 10.845 2.014 10.845 9.605 0 3.564-3.099 6.662-8.211 6.662-5.577 0-8.366-3.408-8.366-3.408M91.017 1.487h4.182l10.535 13.477V1.487h4.648v21.688h-4.183L95.664 9.697v13.478h-4.647V1.487Zm22.525 0h16.112v4.337h-11.465v4.183h8.986v4.183h-8.986v4.648h11.775v4.337h-16.422V1.487Zm17.506 0h4.802l4.493 14.562h.155l4.492-14.562h4.338l4.493 14.562h.155l4.493-14.562h4.802l-7.126 21.688h-4.493l-4.4-14.097h-.186l-4.4 14.097h-4.492l-7.126-21.688Zm31.882 18.745 3.099-3.099s1.858 2.324 5.112 2.324c2.478 0 3.563-1.085 3.563-2.479 0-3.718-10.845-2.014-10.845-9.605 0-3.408 2.944-6.351 7.901-6.351 4.803 0 7.282 2.943 7.282 2.943l-3.099 3.098s-1.55-1.858-4.028-1.858c-2.324 0-3.253.929-3.253 2.168 0 3.718 10.844 2.014 10.844 9.605 0 3.564-3.098 6.662-8.21 6.662-5.577 0-8.366-3.408-8.366-3.408m38.326 3.338c3.932 0 6.532-1.82 8.352-4.29l-2.307-1.268c-1.235 1.853-3.478 3.153-6.045 3.153-4.648 0-8.255-3.672-8.255-8.807 0-5.168 3.607-8.808 8.255-8.808 2.567 0 4.81 1.333 6.045 3.152l2.275-1.267c-1.723-2.437-4.388-4.29-8.32-4.29-6.143 0-11.05 4.55-11.05 11.213 0 6.662 4.907 11.212 11.05 11.212Zm24.342-.39h3.185l-5.85-8.84c2.958-.26 5.623-2.405 5.623-6.305 0-3.998-2.828-6.532-6.793-6.532h-8.71V23.18h2.698v-8.612h4.322l5.525 8.612Zm.163-15.145c0 2.438-1.755 4.16-4.323 4.16h-5.687V3.908h5.687c2.568 0 4.323 1.69 4.323 4.127Zm7.052 15.145h2.698V1.503h-2.698V23.18Zm26.293 0h2.697V1.503h-3.867l-6.76 16.51-6.728-16.51h-3.867V23.18h2.697V5.142l7.345 18.038h1.105l7.378-18.038V23.18Zm7.767 0h14.203v-2.405H269.57V13.3h11.277v-2.405h-11.277V3.908h11.505V1.503h-14.203V23.18Z"/>
	</symbol>
	
	<symbol id="recirc-politics" viewBox="0 0 440 24">
		<path fill-rule="evenodd" d="M12 24.33c6.627 0 12-5.373 12-12s-5.373-12-12-12-12 5.373-12 12 5.373 12 12 12Zm11.279-12c-.943-2.075-2.398-3.763-4.367-5.062C16.838 5.863 14.534 5.16 12 5.16s-4.85.702-6.943 2.107C3.109 8.568 1.663 10.255.72 12.33c.942 2.075 2.388 3.773 4.336 5.094C7.15 18.808 9.466 19.499 12 19.499s4.838-.691 6.912-2.075c1.969-1.321 3.424-3.019 4.367-5.094M12 18.702a6.372 6.372 0 1 0 0-12.744 6.372 6.372 0 0 0 0 12.744Zm14.138-6.371c0-6.197 5.112-11.31 11.774-11.31 6.042 0 9.14 4.339 9.14 4.339l-3.098 3.098s-2.17-3.098-6.042-3.098a6.942 6.942 0 0 0-6.972 6.97 6.942 6.942 0 0 0 6.972 6.972c4.028 0 6.196-3.098 6.196-3.098l3.099 3.098s-3.099 4.338-9.295 4.338c-6.662 0-11.774-5.113-11.774-11.31M48.942 1.488h9.14c4.338 0 6.972 2.633 6.972 5.731 0 3.409-2.944 4.493-2.944 4.493s4.028 1.085 4.028 5.267c0 3.409-2.788 6.197-7.436 6.197h-9.76V1.487Zm8.83 8.365c1.55 0 2.479-.93 2.479-2.169 0-1.239-.93-2.169-2.479-2.169H53.59v4.338h4.182Zm.62 9.295c1.86 0 2.943-1.084 2.943-2.634 0-1.548-1.084-2.633-2.943-2.633h-4.803v5.267h4.803Zm8.303 1.085 3.099-3.099s1.858 2.324 5.112 2.324c2.478 0 3.563-1.085 3.563-2.479 0-3.718-10.844-2.014-10.844-9.605 0-3.408 2.943-6.351 7.9-6.351 4.803 0 7.282 2.943 7.282 2.943l-3.099 3.098S78.16 5.205 75.68 5.205c-2.324 0-3.253.929-3.253 2.168 0 3.718 10.845 2.014 10.845 9.605 0 3.564-3.099 6.662-8.211 6.662-5.577 0-8.366-3.408-8.366-3.408M91.017 1.487h4.182l10.535 13.477V1.487h4.648v21.688h-4.183L95.664 9.697v13.478h-4.647V1.487Zm22.525 0h16.112v4.337h-11.465v4.183h8.986v4.183h-8.986v4.648h11.775v4.337h-16.422V1.487Zm17.506 0h4.802l4.493 14.562h.155l4.492-14.562h4.338l4.493 14.562h.155l4.493-14.562h4.802l-7.126 21.688h-4.493l-4.4-14.097h-.186l-4.4 14.097h-4.492l-7.126-21.688Zm31.882 18.745 3.099-3.099s1.858 2.324 5.112 2.324c2.478 0 3.563-1.085 3.563-2.479 0-3.718-10.845-2.014-10.845-9.605 0-3.408 2.944-6.351 7.901-6.351 4.803 0 7.282 2.943 7.282 2.943l-3.099 3.098s-1.55-1.858-4.028-1.858c-2.324 0-3.253.929-3.253 2.168 0 3.718 10.844 2.014 10.844 9.605 0 3.564-3.098 6.662-8.21 6.662-5.577 0-8.366-3.408-8.366-3.408m28.153 2.948h2.698v-8.612h6.012c4.29 0 6.793-2.99 6.793-6.533s-2.438-6.532-6.793-6.532h-8.71V23.18Zm12.708-15.145c0 2.438-1.755 4.127-4.323 4.127h-5.687V3.907h5.687c2.568 0 4.323 1.69 4.323 4.128Zm5.492 4.322c0 6.403 4.323 11.213 10.758 11.213 6.402 0 10.757-4.81 10.757-11.213 0-6.402-4.355-11.212-10.757-11.212-6.435 0-10.758 4.81-10.758 11.213Zm18.72 0c0 5.038-3.12 8.808-7.962 8.808-4.875 0-7.963-3.77-7.963-8.807 0-5.07 3.088-8.808 7.963-8.808 4.842 0 7.962 3.737 7.962 8.808Zm7.02 10.823h12.773v-2.405H237.72V1.503h-2.698V23.18Zm16.575 0h2.698V1.503h-2.698V23.18Zm13.13 0h2.698V3.907h6.89V1.503H257.87v2.406h6.857V23.18Zm13.163 0h2.697V1.503h-2.697V23.18Zm17.94.39c3.932 0 6.532-1.82 8.352-4.29l-2.307-1.268c-1.235 1.853-3.478 3.153-6.045 3.153-4.648 0-8.255-3.672-8.255-8.807 0-5.168 3.607-8.808 8.255-8.808 2.567 0 4.81 1.333 6.045 3.152l2.275-1.267c-1.723-2.437-4.388-4.29-8.32-4.29-6.143 0-11.05 4.55-11.05 11.213 0 6.662 4.907 11.212 11.05 11.212Zm10.497-3.445c1.788 2.015 4.55 3.445 8.32 3.445 5.85 0 7.995-3.218 7.995-6.37 0-4.55-4.03-5.655-7.572-6.597-2.763-.748-5.265-1.398-5.265-3.575 0-2.048 1.852-3.445 4.452-3.445 2.373 0 4.648.812 6.273 2.6l1.625-1.983c-1.82-1.918-4.388-3.022-7.703-3.022-4.257 0-7.442 2.437-7.442 6.012 0 4.257 3.867 5.232 7.345 6.142 2.86.78 5.492 1.495 5.492 4.095 0 1.658-1.235 3.738-5.102 3.738-3.055 0-5.395-1.495-6.825-3.088l-1.593 2.048Z"/>
	</symbol>
	
	<symbol id="recirc-space" viewBox="0 0 440 24">
		<path fill-rule="evenodd" d="M12 24.33c6.627 0 12-5.373 12-12s-5.373-12-12-12-12 5.373-12 12 5.373 12 12 12Zm11.279-12c-.943-2.075-2.398-3.763-4.367-5.062C16.838 5.863 14.534 5.16 12 5.16s-4.85.702-6.943 2.107C3.109 8.568 1.663 10.255.72 12.33c.942 2.075 2.388 3.773 4.336 5.094C7.15 18.808 9.466 19.499 12 19.499s4.838-.691 6.912-2.075c1.969-1.321 3.424-3.019 4.367-5.094M12 18.702a6.372 6.372 0 1 0 0-12.744 6.372 6.372 0 0 0 0 12.744Zm14.138-6.371c0-6.197 5.112-11.31 11.774-11.31 6.042 0 9.14 4.339 9.14 4.339l-3.098 3.098s-2.17-3.098-6.042-3.098a6.942 6.942 0 0 0-6.972 6.97 6.942 6.942 0 0 0 6.972 6.972c4.028 0 6.196-3.098 6.196-3.098l3.099 3.098s-3.099 4.338-9.295 4.338c-6.662 0-11.774-5.113-11.774-11.31M48.942 1.488h9.14c4.338 0 6.972 2.633 6.972 5.731 0 3.409-2.944 4.493-2.944 4.493s4.028 1.085 4.028 5.267c0 3.409-2.788 6.197-7.436 6.197h-9.76V1.487Zm8.83 8.365c1.55 0 2.479-.93 2.479-2.169 0-1.239-.93-2.169-2.479-2.169H53.59v4.338h4.182Zm.62 9.295c1.86 0 2.943-1.084 2.943-2.634 0-1.548-1.084-2.633-2.943-2.633h-4.803v5.267h4.803Zm8.303 1.085 3.099-3.099s1.858 2.324 5.112 2.324c2.478 0 3.563-1.085 3.563-2.479 0-3.718-10.844-2.014-10.844-9.605 0-3.408 2.943-6.351 7.9-6.351 4.803 0 7.282 2.943 7.282 2.943l-3.099 3.098S78.16 5.205 75.68 5.205c-2.324 0-3.253.929-3.253 2.168 0 3.718 10.845 2.014 10.845 9.605 0 3.564-3.099 6.662-8.211 6.662-5.577 0-8.366-3.408-8.366-3.408M91.017 1.487h4.182l10.535 13.477V1.487h4.648v21.688h-4.183L95.664 9.697v13.478h-4.647V1.487Zm22.525 0h16.112v4.337h-11.465v4.183h8.986v4.183h-8.986v4.648h11.775v4.337h-16.422V1.487Zm17.506 0h4.802l4.493 14.562h.155l4.492-14.562h4.338l4.493 14.562h.155l4.493-14.562h4.802l-7.126 21.688h-4.493l-4.4-14.097h-.186l-4.4 14.097h-4.492l-7.126-21.688Zm31.882 18.745 3.099-3.099s1.858 2.324 5.112 2.324c2.478 0 3.563-1.085 3.563-2.479 0-3.718-10.845-2.014-10.845-9.605 0-3.408 2.944-6.351 7.901-6.351 4.803 0 7.282 2.943 7.282 2.943l-3.099 3.098s-1.55-1.858-4.028-1.858c-2.324 0-3.253.929-3.253 2.168 0 3.718 10.844 2.014 10.844 9.605 0 3.564-3.098 6.662-8.21 6.662-5.577 0-8.366-3.408-8.366-3.408m26.853-.107c1.788 2.015 4.55 3.445 8.32 3.445 5.85 0 7.995-3.218 7.995-6.37 0-4.55-4.03-5.655-7.572-6.597-2.763-.748-5.265-1.398-5.265-3.575 0-2.048 1.852-3.445 4.452-3.445 2.373 0 4.648.812 6.273 2.6L205.61 4.2c-1.82-1.918-4.388-3.022-7.703-3.022-4.257 0-7.442 2.437-7.442 6.012 0 4.257 3.867 5.232 7.345 6.142 2.86.78 5.492 1.495 5.492 4.095 0 1.658-1.235 3.738-5.102 3.738-3.055 0-5.395-1.495-6.825-3.088l-1.593 2.048Zm20.345 3.055h2.698v-8.612h6.012c4.29 0 6.793-2.99 6.793-6.533s-2.438-6.532-6.793-6.532h-8.71V23.18Zm12.708-15.145c0 2.438-1.755 4.127-4.323 4.127h-5.687V3.907h5.687c2.568 0 4.323 1.69 4.323 4.128ZM242.27 23.18h2.99l-8.743-21.677h-3.347l-8.71 21.677h2.99l1.917-4.81h10.985l1.918 4.81Zm-7.41-19.273 4.68 12.058h-9.393l4.713-12.057Zm22.197 19.663c3.933 0 6.533-1.82 8.353-4.29l-2.308-1.268c-1.235 1.853-3.477 3.153-6.045 3.153-4.647 0-8.255-3.672-8.255-8.807 0-5.168 3.608-8.808 8.255-8.808 2.568 0 4.81 1.333 6.045 3.152l2.275-1.267c-1.722-2.437-4.387-4.29-8.32-4.29-6.142 0-11.05 4.55-11.05 11.213 0 6.662 4.908 11.212 11.05 11.212Zm11.798-.39h14.202v-2.405h-11.505V13.3h11.278v-2.405h-11.278V3.908h11.505V1.503h-14.202V23.18Z"/>
	</symbol>
	
	<symbol id="recirc-sports" viewBox="0 0 440 24">
		<path fill-rule="evenodd" d="M12 24.33c6.627 0 12-5.373 12-12s-5.373-12-12-12-12 5.373-12 12 5.373 12 12 12Zm11.279-12c-.943-2.075-2.398-3.763-4.367-5.062C16.838 5.863 14.534 5.16 12 5.16s-4.85.702-6.943 2.107C3.109 8.568 1.663 10.255.72 12.33c.942 2.075 2.388 3.773 4.336 5.094C7.15 18.808 9.466 19.499 12 19.499s4.838-.691 6.912-2.075c1.969-1.321 3.424-3.019 4.367-5.094M12 18.702a6.372 6.372 0 1 0 0-12.744 6.372 6.372 0 0 0 0 12.744Zm14.138-6.371c0-6.197 5.112-11.31 11.774-11.31 6.042 0 9.14 4.339 9.14 4.339l-3.098 3.098s-2.17-3.098-6.042-3.098a6.942 6.942 0 0 0-6.972 6.97 6.942 6.942 0 0 0 6.972 6.972c4.028 0 6.196-3.098 6.196-3.098l3.099 3.098s-3.099 4.338-9.295 4.338c-6.662 0-11.774-5.113-11.774-11.31M48.942 1.488h9.14c4.338 0 6.972 2.633 6.972 5.731 0 3.409-2.944 4.493-2.944 4.493s4.028 1.085 4.028 5.267c0 3.409-2.788 6.197-7.436 6.197h-9.76V1.487Zm8.83 8.365c1.55 0 2.479-.93 2.479-2.169 0-1.239-.93-2.169-2.479-2.169H53.59v4.338h4.182Zm.62 9.295c1.86 0 2.943-1.084 2.943-2.634 0-1.548-1.084-2.633-2.943-2.633h-4.803v5.267h4.803Zm8.303 1.085 3.099-3.099s1.858 2.324 5.112 2.324c2.478 0 3.563-1.085 3.563-2.479 0-3.718-10.844-2.014-10.844-9.605 0-3.408 2.943-6.351 7.9-6.351 4.803 0 7.282 2.943 7.282 2.943l-3.099 3.098S78.16 5.205 75.68 5.205c-2.324 0-3.253.929-3.253 2.168 0 3.718 10.845 2.014 10.845 9.605 0 3.564-3.099 6.662-8.211 6.662-5.577 0-8.366-3.408-8.366-3.408M91.017 1.487h4.182l10.535 13.477V1.487h4.648v21.688h-4.183L95.664 9.697v13.478h-4.647V1.487Zm22.525 0h16.112v4.337h-11.465v4.183h8.986v4.183h-8.986v4.648h11.775v4.337h-16.422V1.487Zm17.506 0h4.802l4.493 14.562h.155l4.492-14.562h4.338l4.493 14.562h.155l4.493-14.562h4.802l-7.126 21.688h-4.493l-4.4-14.097h-.186l-4.4 14.097h-4.492l-7.126-21.688Zm31.882 18.745 3.099-3.099s1.858 2.324 5.112 2.324c2.478 0 3.563-1.085 3.563-2.479 0-3.718-10.845-2.014-10.845-9.605 0-3.408 2.944-6.351 7.901-6.351 4.803 0 7.282 2.943 7.282 2.943l-3.099 3.098s-1.55-1.858-4.028-1.858c-2.324 0-3.253.929-3.253 2.168 0 3.718 10.844 2.014 10.844 9.605 0 3.564-3.098 6.662-8.21 6.662-5.577 0-8.366-3.408-8.366-3.408m26.853-.107c1.788 2.015 4.55 3.445 8.32 3.445 5.85 0 7.995-3.218 7.995-6.37 0-4.55-4.03-5.655-7.572-6.597-2.763-.748-5.265-1.398-5.265-3.575 0-2.048 1.852-3.445 4.452-3.445 2.373 0 4.648.812 6.273 2.6L205.61 4.2c-1.82-1.918-4.388-3.022-7.703-3.022-4.257 0-7.442 2.437-7.442 6.012 0 4.257 3.867 5.232 7.345 6.142 2.86.78 5.492 1.495 5.492 4.095 0 1.658-1.235 3.738-5.102 3.738-3.055 0-5.395-1.495-6.825-3.088l-1.593 2.048Zm20.345 3.055h2.698v-8.612h6.012c4.29 0 6.793-2.99 6.793-6.533s-2.438-6.532-6.793-6.532h-8.71V23.18Zm12.708-15.145c0 2.438-1.755 4.127-4.323 4.127h-5.687V3.907h5.687c2.568 0 4.323 1.69 4.323 4.128Zm5.492 4.322c0 6.403 4.323 11.213 10.758 11.213 6.402 0 10.757-4.81 10.757-11.213 0-6.402-4.355-11.212-10.757-11.212-6.435 0-10.758 4.81-10.758 11.213Zm18.72 0c0 5.038-3.12 8.808-7.962 8.808-4.875 0-7.963-3.77-7.963-8.807 0-5.07 3.088-8.808 7.963-8.808 4.842 0 7.962 3.737 7.962 8.808Zm19.565 10.823h3.185l-5.85-8.84c2.958-.26 5.623-2.405 5.623-6.305 0-3.998-2.828-6.532-6.793-6.532h-8.71V23.18h2.698v-8.612h4.322l5.525 8.612Zm.163-15.145c0 2.438-1.755 4.16-4.323 4.16h-5.687V3.908h5.687c2.568 0 4.323 1.69 4.323 4.127Zm12.09 15.145h2.697V3.907h6.89V1.503h-16.445v2.406h6.858V23.18Zm11.765-3.055c1.787 2.015 4.55 3.445 8.32 3.445 5.85 0 7.995-3.218 7.995-6.37 0-4.55-4.03-5.655-7.573-6.597-2.762-.748-5.265-1.398-5.265-3.575 0-2.048 1.853-3.445 4.453-3.445 2.372 0 4.647.812 6.272 2.6l1.625-1.983c-1.82-1.918-4.387-3.022-7.702-3.022-4.258 0-7.443 2.437-7.443 6.012 0 4.257 3.868 5.232 7.345 6.142 2.86.78 5.493 1.495 5.493 4.095 0 1.658-1.235 3.738-5.103 3.738-3.055 0-5.395-1.495-6.825-3.088l-1.592 2.048Z"/>
	</symbol>
	
	<symbol id="recirc-world" viewBox="0 0 440 24">
		<path fill-rule="evenodd" d="M12 24.33c6.627 0 12-5.373 12-12s-5.373-12-12-12-12 5.373-12 12 5.373 12 12 12Zm11.279-12c-.943-2.075-2.398-3.763-4.367-5.062C16.838 5.863 14.534 5.16 12 5.16s-4.85.702-6.943 2.107C3.109 8.568 1.663 10.255.72 12.33c.942 2.075 2.388 3.773 4.336 5.094C7.15 18.808 9.466 19.499 12 19.499s4.838-.691 6.912-2.075c1.969-1.321 3.424-3.019 4.367-5.094M12 18.702a6.372 6.372 0 1 0 0-12.744 6.372 6.372 0 0 0 0 12.744Zm14.138-6.371c0-6.197 5.112-11.31 11.774-11.31 6.042 0 9.14 4.339 9.14 4.339l-3.098 3.098s-2.17-3.098-6.042-3.098a6.942 6.942 0 0 0-6.972 6.97 6.942 6.942 0 0 0 6.972 6.972c4.028 0 6.196-3.098 6.196-3.098l3.099 3.098s-3.099 4.338-9.295 4.338c-6.662 0-11.774-5.113-11.774-11.31M48.942 1.488h9.14c4.338 0 6.972 2.633 6.972 5.731 0 3.409-2.944 4.493-2.944 4.493s4.028 1.085 4.028 5.267c0 3.409-2.788 6.197-7.436 6.197h-9.76V1.487Zm8.83 8.365c1.55 0 2.479-.93 2.479-2.169 0-1.239-.93-2.169-2.479-2.169H53.59v4.338h4.182Zm.62 9.295c1.86 0 2.943-1.084 2.943-2.634 0-1.548-1.084-2.633-2.943-2.633h-4.803v5.267h4.803Zm8.303 1.085 3.099-3.099s1.858 2.324 5.112 2.324c2.478 0 3.563-1.085 3.563-2.479 0-3.718-10.844-2.014-10.844-9.605 0-3.408 2.943-6.351 7.9-6.351 4.803 0 7.282 2.943 7.282 2.943l-3.099 3.098S78.16 5.205 75.68 5.205c-2.324 0-3.253.929-3.253 2.168 0 3.718 10.845 2.014 10.845 9.605 0 3.564-3.099 6.662-8.211 6.662-5.577 0-8.366-3.408-8.366-3.408M91.017 1.487h4.182l10.535 13.477V1.487h4.648v21.688h-4.183L95.664 9.697v13.478h-4.647V1.487Zm22.525 0h16.112v4.337h-11.465v4.183h8.986v4.183h-8.986v4.648h11.775v4.337h-16.422V1.487Zm17.506 0h4.802l4.493 14.562h.155l4.492-14.562h4.338l4.493 14.562h.155l4.493-14.562h4.802l-7.126 21.688h-4.493l-4.4-14.097h-.186l-4.4 14.097h-4.492l-7.126-21.688Zm31.882 18.745 3.099-3.099s1.858 2.324 5.112 2.324c2.478 0 3.563-1.085 3.563-2.479 0-3.718-10.845-2.014-10.845-9.605 0-3.408 2.944-6.351 7.901-6.351 4.803 0 7.282 2.943 7.282 2.943l-3.099 3.098s-1.55-1.858-4.028-1.858c-2.324 0-3.253.929-3.253 2.168 0 3.718 10.844 2.014 10.844 9.605 0 3.564-3.098 6.662-8.21 6.662-5.577 0-8.366-3.408-8.366-3.408m44.728 2.948h2.925l6.175-21.677h-2.99l-4.777 18.07-4.973-18.07h-2.242l-4.973 18.07-4.81-18.07h-2.99l6.175 21.677h2.925l4.778-17.485 4.777 17.485Zm10.595-10.822c0 6.402 4.323 11.212 10.758 11.212 6.402 0 10.757-4.81 10.757-11.213 0-6.402-4.355-11.212-10.757-11.212-6.435 0-10.758 4.81-10.758 11.213Zm18.72 0c0 5.037-3.12 8.807-7.962 8.807-4.875 0-7.963-3.77-7.963-8.807 0-5.07 3.088-8.808 7.963-8.808 4.842 0 7.962 3.737 7.962 8.808Zm19.565 10.822h3.185l-5.85-8.84c2.958-.26 5.623-2.405 5.623-6.305 0-3.998-2.828-6.532-6.793-6.532h-8.71V23.18h2.698v-8.612h4.322l5.525 8.612Zm.163-15.145c0 2.438-1.755 4.16-4.323 4.16h-5.687V3.908h5.687c2.568 0 4.323 1.69 4.323 4.127Zm7.052 15.145h12.773v-2.405H266.45V1.503h-2.698V23.18Zm16.575 0h7.41c6.728 0 11.115-4.648 11.115-10.822 0-6.143-4.387-10.856-11.115-10.856h-7.41V23.18Zm2.698-2.405V3.908h4.712c5.363 0 8.32 3.77 8.32 8.45 0 4.647-3.055 8.417-8.32 8.417h-4.712Z"/>
	</symbol>

</svg>
