<svg xmlns="http://www.w3.org/2000/svg">

	<!-- <symbol id="caret" viewBox="0 0 100 100">
		<path fill-rule="evenodd" d="M25.654 14.566A8.824 8.824 0 1 1 39.052 3.08l35.294 41.177a8.824 8.824 0 0 1 0 11.484L39.052 96.92a8.824 8.824 0 0 1-13.398-11.485L56.026 50z"/>
	</symbol> -->

	<symbol id="cbs-eye" viewBox="0 0 24 24">
		<path fill-rule="evenodd" d="M12 .341c6.627 0 12 5.373 12 12s-5.373 12-12 12-12-5.373-12-12 5.373-12 12-12Zm0 4.831c-2.534 0-4.85.702-6.943 2.107-1.948 1.3-3.394 2.987-4.336 5.062.942 2.075 2.388 3.773 4.336 5.094C7.15 18.819 9.466 19.51 12 19.51s4.839-.691 6.912-2.075c1.969-1.321 3.424-3.019 4.367-5.094-.943-2.075-2.398-3.763-4.367-5.062C16.84 5.874 14.534 5.172 12 5.172Zm0 .797a6.372 6.372 0 1 1 0 12.744 6.372 6.372 0 0 1 0-12.744Z"/>
	</symbol>

	<symbol id="icon-comments" viewBox="0 0 24 24">
		<path fill-rule="evenodd" d="M12.602 18.466c-.792 0-1.46-.14-2.004-.417a2.78 2.78 0 0 1-1.234-1.222c-.278-.537-.418-1.192-.418-1.965v-4.587c0-.784.14-1.446.418-1.987a2.8 2.8 0 0 1 1.234-1.232c.544-.28 1.212-.42 2.004-.42h7.742c.793 0 1.46.14 2.004.42.544.28.955.69 1.234 1.232.279.54.418 1.203.418 1.987v4.579c0 1.164-.31 2.058-.929 2.68-.619.62-1.518.932-2.697.932h-.166v2.01c0 .312-.078.564-.236.755-.157.19-.38.285-.67.285-.204 0-.392-.054-.562-.163a6.06 6.06 0 0 1-.633-.49l-2.795-2.397h-2.71ZM0 12.696V6.318c0-.81.149-1.501.447-2.074a3.022 3.022 0 0 1 1.302-1.31c.57-.3 1.266-.45 2.086-.45h10.597c1.053 0 1.897.246 2.531.74.634.492 1.032 1.19 1.194 2.092v.143h-5.555c-1.015 0-1.881.194-2.6.582A3.96 3.96 0 0 0 8.35 7.703c-.381.719-.572 1.577-.572 2.572v4.587c0 .94.18 1.765.54 2.475l-2.023 1.779c-.199.18-.412.345-.637.492-.172.107-.361.16-.567.16-.293 0-.519-.095-.676-.285-.157-.19-.236-.445-.236-.764v-2.188h-.372c-.805 0-1.49-.15-2.058-.45-.566-.301-1-.737-1.3-1.307C.15 14.204 0 13.51 0 12.696Z"/>
	</symbol>

	<symbol id="icon-gallery" viewBox="0 0 24 24">
		<path fill-rule="evenodd" d="M23.063 5.658c-.625-.637-1.38-.956-2.263-.956H18l-.637-1.732c-.159-.416-.448-.775-.869-1.078-.42-.3-.852-.452-1.293-.452H8.8c-.443 0-.874.151-1.294.452-.421.303-.711.662-.87 1.078L6 4.702H3.2c-.884 0-1.637.319-2.263.956A3.173 3.173 0 0 0 0 7.964V19.38c0 .9.312 1.669.937 2.306.626.637 1.38.955 2.264.955h17.6c.882 0 1.637-.318 2.262-.955A3.174 3.174 0 0 0 24 19.381V7.964c0-.9-.312-1.67-.937-2.306Zm-5.478 7.89a5.585 5.585 0 1 1-11.17 0 5.585 5.585 0 0 1 11.17 0ZM12 17.152a3.6 3.6 0 1 0 0-7.2 3.6 3.6 0 0 0 0 7.2Z"/>
	</symbol>

	<symbol id="icon-link" viewBox="0 0 24 24">
		<path fill-rule="evenodd" d="M14.464 1.648a5.558 5.558 0 0 1 7.9 0 5.653 5.653 0 0 1 0 7.955l-5.079 5.115a5.576 5.576 0 0 1-2.59 1.478h-.043l-.232.048-.127.024-.276.04h-.135c-.06 0-.117.007-.17.014-.04.005-.077.01-.114.01l-.239.029H13.055a5.507 5.507 0 0 1-.594-.056 6.441 6.441 0 0 1-.482-.1l-.236-.065a3.186 3.186 0 0 1-.348-.119 2.781 2.781 0 0 1-.162-.062l-.085-.035a5.542 5.542 0 0 1-1.763-1.198 1.614 1.614 0 0 1 0-2.266 1.627 1.627 0 0 1 2.243 0c.934.94 2.448.94 3.383 0l1.309-1.31.031-.036 3.743-3.765a2.424 2.424 0 0 0 0-3.411 2.383 2.383 0 0 0-3.388 0l-3.004 3.021a.397.397 0 0 1-.435.089 6.661 6.661 0 0 0-2.549-.503h-.148a.404.404 0 0 1-.291-.687l4.185-4.21Zm-1.183 15.807h.16a.4.4 0 0 1 .283.687L9.533 22.36A5.534 5.534 0 0 1 5.585 24C2.498 23.998-.002 21.478 0 18.371c0-1.488.588-2.916 1.633-3.97l5.078-5.115a5.563 5.563 0 0 1 7.904 0c.323.327.492.778.462 1.238a1.612 1.612 0 0 1-.463 1.02 1.629 1.629 0 0 1-2.243 0 2.384 2.384 0 0 0-3.385 0l-5.098 5.127a2.423 2.423 0 0 0 0 3.412 2.386 2.386 0 0 0 3.39 0l3.013-3.038a.397.397 0 0 1 .435-.088 6.68 6.68 0 0 0 2.555.498Z"/>
	</symbol>

	<symbol id="icon-video" viewBox="0 0 24 24">
		<path fill-rule="evenodd" d="M20.778 10.578c1.25.786 1.25 2.06 0 2.845L4.425 23.696c-1.251.786-2.265-.006-2.265-1.755V2.06C2.16.305 3.174-.48 4.425.305l16.353 10.273Z"/>
	</symbol>

	<symbol id="logo-taboola" viewBox="0 0 76 11">
		<path fill-rule="evenodd" d="M50.342 9.49h.932V4.993h4.65v-.856h-4.65V.855h5.16V0h-6.092v9.49ZM16.547.007h-2.602v9.435H16.4l.005-.733h.026c.326.436.717.924 1.992.932 1.934.01 2.878-1.89 2.888-3.598.01-1.603-.597-3.552-2.883-3.566-.778-.007-1.476.334-1.874.91h-.026l.019-3.38Zm-.127 6.034c.005-.802.22-1.68 1.153-1.675.933.004 1.138.887 1.134 1.688-.005.816-.222 1.696-1.154 1.69-.932-.006-1.137-.889-1.133-1.703ZM0 2.42h2.626l.001 7.023h2.878V2.42h2.63V.023H0V2.42ZM13.29 7.92c0 .512.019 1.09.305 1.526l-2.654-.015a1.805 1.805 0 0 1-.087-.645h-.027c-.555.628-1.358.807-2.199.802-1.314-.008-2.4-.645-2.393-2.077.01-1.813 1.798-2.035 3.157-2.203.256-.032.497-.062.708-.1.355-.065.71-.168.713-.6 0-.46-.43-.635-.85-.638-.802-.003-.963.402-.977.691l-2.419-.014c.09-1.919 1.905-2.221 3.522-2.214 3.234.02 3.226 1.353 3.218 2.658v.03l-.018 2.799ZM10.8 6.366c-.327.15-.671.26-1.025.326-.579.129-.883.27-.885.73 0 .316.338.633.811.636.592 0 1.053-.349 1.098-1.058l.002-.634Zm14.402.821c-2.563-.015-3.71-1.717-3.699-3.61C21.514 1.685 22.68.01 25.24.027c1.6.012 2.65.674 3.211 1.631.564-.973 1.627-1.643 3.25-1.634 2.564.013 3.71 1.703 3.703 3.596-.007 1.892-1.178 3.58-3.74 3.566l-.004.003c-1.601-.01-2.65-.679-3.208-1.641-.565.975-1.628 1.649-3.25 1.64Zm.03-5.27c-.985-.006-1.122.953-1.127 1.675-.004.722.122 1.697 1.11 1.703.99.007 1.124-.962 1.129-1.69.004-.727-.122-1.683-1.111-1.688Zm5.332 1.676c.004-.723.141-1.682 1.127-1.676.99.006 1.116.964 1.111 1.69-.004.726-.137 1.696-1.127 1.689-.99-.007-1.114-.98-1.11-1.703ZM38.5.027h-2.547v9.42H38.5V.026Zm7.519 8.008V5.07c.008-1.305.017-2.64-3.218-2.657-1.616-.008-3.432.295-3.522 2.214l2.42.013c.013-.289.174-.695.975-.691.421.002.85.176.85.636-.002.434-.357.537-.713.601-.21.039-.452.069-.708.1-1.358.169-3.145.39-3.155 2.203-.009 1.433 1.078 2.07 2.393 2.078.842.005 1.644-.175 2.2-.802h.026c-.008.231.024.462.093.682h2.616c-.262-.4-.26-.932-.257-1.412Zm-3.53-1.37a4.469 4.469 0 0 0 1.026-.322l-.007.63c-.043.71-.505 1.058-1.097 1.058-.473-.003-.81-.32-.81-.635.005-.46.307-.602.888-.73ZM28.333 8.392c-2.09-.012-4.003-.378-5.854-1.204l-.01 2.273c2.029.958 3.628 1.415 5.85 1.428 2.037.012 4.082-.492 5.968-1.428l.012-2.273c-2.107.803-3.77 1.217-5.966 1.204Zm31.275-5.99c-.995 0-1.777.378-2.315 1.123-.529.73-.787 1.609-.77 2.61-.017.994.248 1.833.79 2.495.542.662 1.322 1.013 2.296 1.013.824 0 1.506-.222 2.028-.656.521-.434.855-1.066.99-1.874l.036-.215h-.857l-.03.148c-.11.56-.358 1.005-.736 1.324-.378.32-.858.48-1.432.48-.72 0-1.259-.255-1.653-.78-.37-.493-.56-1.098-.576-1.8h5.291l.01-.175c.053-1.037-.186-1.916-.708-2.617-.533-.71-1.328-1.077-2.364-1.077ZM57.4 5.48c.077-.57.31-1.108.672-1.555a1.865 1.865 0 0 1 1.536-.73c.671 0 1.191.233 1.588.713.365.446.581.996.617 1.572h-4.413Zm6.52-1.955c.539-.745 1.32-1.124 2.316-1.124 1.036 0 1.83.366 2.364 1.077.522.7.76 1.58.707 2.617l-.009.175h-5.291c.015.703.206 1.307.576 1.8.394.525.933.78 1.653.78.574 0 1.054-.16 1.432-.48.377-.319.626-.764.736-1.324l.03-.148h.857l-.036.215c-.135.808-.47 1.44-.99 1.874-.522.434-1.204.656-2.029.656-.973 0-1.753-.35-2.295-1.013-.542-.662-.807-1.501-.79-2.496-.017-1 .241-1.88.77-2.609Zm.78.4a3.14 3.14 0 0 0-.671 1.555h4.413a2.752 2.752 0 0 0-.617-1.573c-.397-.479-.917-.712-1.589-.712-.599-.018-1.17.254-1.535.73ZM75.147 0v3.494a2.457 2.457 0 0 0-.667-.628 2.897 2.897 0 0 0-1.6-.465c-1.01 0-1.791.347-2.325 1.03-.518.666-.786 1.545-.786 2.604 0 1.015.253 1.875.75 2.555.513.699 1.276 1.053 2.27 1.053.995 0 1.793-.382 2.357-1.136v.984H76V0h-.855ZM72.89 8.851c-.736 0-1.282-.261-1.67-.798-.388-.537-.597-1.227-.597-2.018 0-.826.193-1.518.573-2.059.37-.527.921-.783 1.682-.783.734 0 1.278.264 1.662.81.393.557.593 1.241.593 2.032 0 .79-.2 1.46-.593 2.013-.384.54-.924.803-1.65.803Z"/>
	</symbol>

</svg>
