<svg xmlns="http://www.w3.org/2000/svg">

	<symbol id="caret-right" viewBox="0 0 100 100">
		<path fill-rule="evenodd" d="M25.654 14.566A8.824 8.824 0 1 1 39.052 3.08l35.294 41.177a8.824 8.824 0 0 1 0 11.484L39.052 96.92a8.824 8.824 0 0 1-13.398-11.485L56.026 50z"/>
	</symbol>

	<symbol id="checkmark" viewBox="0 0 100 100">
		<path fill-rule="evenodd" d="M50 100c27.614 0 50-22.386 50-50S77.614 0 50 0 0 22.386 0 50s22.386 50 50 50zm17.878-68.75L41.104 58.412l-8.323-7.585-4.656 4.723 12.979 12.307 31.43-31.884z"/>
	</symbol>

	<symbol id="al" viewBox="0 0 100 100">
		<path fill-rule="evenodd" d="m19.74 79.48-.52-.311-2.804.312h3.324ZM55.584.52 19.844 0l1.247 1.766-6.65 50.286.416 25.143 1.559-.104 2.493 1.35 1.87-6.857 1.35 2.39-.31 1.766.31 1.35h1.248l.935 2.079-3.948.831 5.506-.52 1.455-.83h-.52v-.416l.727.208 2.182-1.974-.52-1.767.52-1.974-3.22-3.324.519-2.078 37.09.207L64 65.974l-1.35-1.662.934-6.026-1.558-4.883 1.558-5.507 1.974-1.766-1.454-1.247.104-1.766-1.663-3.325-1.454-4.675L55.584.519Z"/>
	</symbol>

	<symbol id="ca" viewBox="0 0 100 100">
		<path fill-rule="evenodd" d="m46.12 78.072-1.445-2.12h-.29l.964 2.024zm-8.481-3.759h-.386l.964.386v-.29zm8.481-1.253-1.83-.385 1.252 1.156h.771zm-12.337-4.915h-1.446l.675 1.156.964-.578zm-1.928-.193-.578-.29-.385.29.963.193zm3.47-.193-.867-.096 1.06.867 1.831-.578-.192-.29zM32.723 9.253 32.627 0H5.639l-.097 1.735.482.867.675 2.12-1.157 5.784.578-.675-1.156 1.157-.675 2.313.097 1.639 2.506 2.12 1.156 2.506-.385 2.7.674 2.312v1.446l3.952 4.145 1.831 2.988-.963-.868-.193 2.024.482-.77 2.795 2.12.482-.482-.482-2.12.867-.097 1.543.964.963-.868.772.868 1.542-.868-.482.868 1.06-.771 1.157.867-1.446-.867-.29.867h-3.18l-.482-.096-.964.096-.193.386.579 1.445.867.675 1.06 2.313h-.674l-1.735-1.253-.097-1.735-.867.29v2.216l1.446 3.374 1.253 1.446h1.542l.964 1.06-.482 1.735-.771.193.578 2.698 2.506 2.506 1.639 2.796 2.698 2.024v1.735l1.832.482v5.204l.964.579 6.265.385 2.313 1.157 1.253 1.446 2.313.77 2.12-.192.868 2.313 1.831-.096 4.53 3.084 1.736 2.313.578 3.47.867-.385.193.578-.771-.193.771 1.157 18.699-3.277.096-2.024-1.445-.675-.868-2.891 1.446-1.157-.193-3.566 2.699-3.277-1.831-1.157-2.41-4.241-38.458-32.193z"/>
	</symbol>

</svg>
