<svg xmlns="http://www.w3.org/2000/svg">
	
	<symbol id="cbs-news-logo" viewBox="0 0 100 14">
		<path fill-rule="evenodd" d="M6.685 13.37a6.685 6.685 0 1 0 0-13.37 6.685 6.685 0 0 0 0 13.37Zm3.85-9.505c1.097.724 1.908 1.664 2.433 2.82-.525 1.156-1.336 2.102-2.433 2.838a6.786 6.786 0 0 1-3.85 1.156 6.869 6.869 0 0 1-3.868-1.156C1.732 8.787.927 7.84.402 6.685a6.636 6.636 0 0 1 2.415-2.82A6.797 6.797 0 0 1 6.685 2.69c1.412 0 2.695.391 3.85 1.174Zm-.3 2.82a3.55 3.55 0 1 1-7.1 0 3.55 3.55 0 0 1 7.1 0ZM21.12.385c-3.71 0-6.559 2.848-6.559 6.3s2.848 6.3 6.559 6.3c3.452 0 5.178-2.416 5.178-2.416l-1.726-1.726s-1.208 1.726-3.452 1.726a3.867 3.867 0 0 1-3.884-3.884 3.867 3.867 0 0 1 3.884-3.883c2.158 0 3.366 1.726 3.366 1.726l1.726-1.726S24.486.385 21.12.385Zm6.145.26h5.092c2.416 0 3.883 1.467 3.883 3.192 0 1.9-1.64 2.503-1.64 2.503s2.244.604 2.244 2.934c0 1.9-1.553 3.453-4.142 3.453h-5.437V.644Zm6.3 3.451c0 .69-.518 1.209-1.381 1.209h-2.33V2.888h2.33c.863 0 1.38.518 1.38 1.208Zm-1.036 6.387c1.036 0 1.64-.604 1.64-1.467 0-.863-.604-1.467-1.64-1.467h-2.675v2.934h2.675Zm6.352-1.122-1.726 1.726s1.553 1.899 4.66 1.899c2.848 0 4.574-1.726 4.574-3.711 0-2.488-2.09-3.184-3.812-3.757-1.205-.4-2.23-.742-2.23-1.594 0-.69.519-1.208 1.813-1.208 1.381 0 2.244 1.035 2.244 1.035l1.726-1.726S44.75.385 42.074.385c-2.761 0-4.401 1.64-4.401 3.539 0 2.488 2.09 3.183 3.812 3.756 1.205.401 2.229.742 2.229 1.595 0 .776-.604 1.38-1.985 1.38-1.813 0-2.848-1.294-2.848-1.294ZM50.704.644h2.33l5.869 7.509V.644h2.589v12.083h-2.33l-5.87-7.509v7.509h-2.588V.644Zm21.524 0h-8.976v12.083H72.4V10.31h-6.559V7.721h5.006v-2.33h-5.006V3.06h6.387V.644Zm.776 0h2.676l2.503 8.113h.086L80.772.644h2.416l2.503 8.113h.086L88.28.644h2.676l-3.97 12.083h-2.503l-2.451-7.854h-.104l-2.45 7.854h-2.503L73.005.644Zm19.488 8.717-1.726 1.726s1.553 1.899 4.66 1.899c2.848 0 4.574-1.726 4.574-3.711 0-2.488-2.09-3.184-3.812-3.757-1.205-.4-2.23-.742-2.23-1.594 0-.69.519-1.208 1.813-1.208 1.38 0 2.244 1.035 2.244 1.035l1.726-1.726s-1.38-1.64-4.056-1.64c-2.762 0-4.402 1.64-4.402 3.539 0 2.488 2.091 3.183 3.813 3.756 1.205.401 2.229.742 2.229 1.595 0 .776-.605 1.38-1.985 1.38-1.813 0-2.848-1.294-2.848-1.294Z"/>
	</symbol>

</svg>
