<svg xmlns="http://www.w3.org/2000/svg" version="1.1" xmlns:xlink="http://www.w3.org/1999/xlink" xmlns:svgjs="http://svgjs.com/svgjs" width="300" height="300"><svg height="300" viewBox="0 0 300 300" width="300" xmlns="http://www.w3.org/2000/svg"><path d="m150 238.235294c-61.7647059 0-111.7058824-40.852941-138.1764706-89.294118 26.7352941-48.264705 77.1176471-87.1764701 138.1764706-87.1764701 61.058824 0 111.970588 38.8235291 138.176471 87.3529411-26.205883 48.264706-75.529412 89.117647-138.176471 89.117647zm0 61.764706c82.842712 0 150-67.157288 150-150 0-82.8427125-67.157288-150-150-150-82.8427125 0-150 67.1572875-150 150 0 82.842712 67.1572875 150 150 150zm0-73.5c42.249783 0 76.5-34.250217 76.5-76.5s-34.250217-76.5-76.5-76.5-76.5 34.250217-76.5 76.5 34.250217 76.5 76.5 76.5z" fill="#101010" fill-rule="evenodd"></path></svg><style>@media (prefers-color-scheme: light) { :root { filter: none; } }
@media (prefers-color-scheme: dark) { :root { filter: none; } }
</style></svg>