<svg xmlns="http://www.w3.org/2000/svg" version="1.1" xmlns:xlink="http://www.w3.org/1999/xlink" width="1000" height="1000"><svg width="1000" height="1000" viewBox="0 0 1000 1000" fill="none" xmlns="http://www.w3.org/2000/svg">
<path d="M500 0C776.142 0 1000 223.858 1000 500C1000 776.142 776.142 1000 500 1000C223.858 1000 0 776.142 0 500C0.000131948 223.858 223.858 0 500 0ZM500 201.284C394.405 201.284 297.942 230.551 210.691 289.063C129.522 343.224 69.3013 413.532 30.0488 499.989C69.3013 586.467 129.522 657.203 210.691 712.237C297.942 769.896 394.405 798.715 500 798.715C605.595 798.715 701.591 769.896 787.987 712.237C870.031 657.203 930.658 586.467 969.951 499.989C930.658 413.532 870.031 343.224 787.987 289.063C701.591 230.551 605.595 201.284 500 201.284ZM500 234.48C646.643 234.48 765.52 353.357 765.52 500C765.52 646.643 646.643 765.52 500 765.52C353.358 765.519 234.48 646.643 234.48 500C234.48 353.358 353.358 234.481 500 234.48Z" fill="#101010"></path>
</svg><style>@media (prefers-color-scheme: light) { :root { filter: none; } }
@media (prefers-color-scheme: dark) { :root { filter: invert(100%); } }
</style></svg>