<svg xmlns="http://www.w3.org/2000/svg" viewBox="0 0 192 192" fill="none">

<style>
path {
	fill: #101010;
}
@media (prefers-color-scheme: dark) {
	path {
		fill: #F2F2F2;
	}
}
</style>

<path fill-rule="nonzero" d="M96 0c53.02 0 96 42.98 96 96s-42.98 96-96 96S0 149.02 0 96 42.98 0 96 0Zm0 38.648c-20.274 0-38.795 5.618-55.547 16.852C24.87 65.899 13.303 79.4 5.766 96c7.536 16.603 19.103 30.183 34.687 40.75C57.205 147.82 75.726 153.351 96 153.351c20.274 0 38.709-5.53 55.297-16.6 15.751-10.568 27.393-24.149 34.937-40.751-7.544-16.599-19.186-30.101-34.937-40.5C134.709 44.266 116.274 38.648 96 38.648Zm0 6.375c28.155 0 50.977 22.822 50.977 50.977 0 28.155-22.822 50.977-50.977 50.977-28.155 0-50.977-22.822-50.977-50.977 0-28.155 22.822-50.977 50.977-50.977Z"></path>

</svg>
