<svg xmlns="http://www.w3.org/2000/svg">

	<symbol id="cbs-news-247" viewBox="0 0 100 14">
		<path fill-rule="evenodd" d="m63.322 10.065 1.204-1.204s.723.903 1.987.903c.963 0 1.385-.422 1.385-.964 0-1.445-4.215-.782-4.215-3.733 0-1.324 1.144-2.468 3.07-2.468 1.867 0 2.83 1.144 2.83 1.144L68.38 4.947s-.602-.722-1.565-.722c-.903 0-1.264.36-1.264.842 0 1.445 4.214.783 4.214 3.733 0 1.385-1.204 2.59-3.191 2.59-2.167 0-3.251-1.325-3.251-1.325ZM50.93 2.78h1.866l1.747 5.66h.06l1.746-5.66h1.685l1.747 5.66h.06l1.746-5.66h1.866l-2.77 8.429H58.94l-1.71-5.48h-.072l-1.71 5.48H53.7l-2.77-8.43Zm-6.803 0h6.261v1.685h-4.455v1.626h3.492v1.626h-3.492v1.806h4.576v1.686h-6.383v-8.43Zm-8.755 0H37l4.094 5.238V2.78h1.806v8.429h-1.625L37.179 5.97v5.238h-1.806v-8.43Zm-9.452 7.285 1.204-1.204s.722.903 1.987.903c.963 0 1.385-.422 1.385-.964 0-1.445-4.215-.782-4.215-3.733 0-1.324 1.144-2.468 3.07-2.468 1.867 0 2.83 1.144 2.83 1.144l-1.204 1.204s-.602-.722-1.565-.722c-.903 0-1.265.36-1.265.842 0 1.445 4.215.783 4.215 3.733 0 1.385-1.204 2.59-3.191 2.59-2.168 0-3.251-1.325-3.251-1.325Zm-3.227-.422c.722 0 1.144-.421 1.144-1.023 0-.602-.422-1.024-1.144-1.024h-1.867v2.047h1.867Zm-.241-3.612c.602 0 .963-.362.963-.843 0-.482-.361-.843-.963-.843h-1.626V6.03h1.626ZM19.021 2.78h3.552c1.686 0 2.71 1.023 2.71 2.227 0 1.325-1.144 1.746-1.144 1.746s1.565.422 1.565 2.047c0 1.325-1.084 2.409-2.89 2.409h-3.793v-8.43Zm-8.863 4.214c0-2.408 1.987-4.395 4.576-4.395 2.348 0 3.553 1.686 3.553 1.686l-1.205 1.204s-.843-1.204-2.348-1.204a2.698 2.698 0 0 0-2.71 2.71 2.698 2.698 0 0 0 2.71 2.708c1.566 0 2.409-1.204 2.409-1.204l1.204 1.204s-1.204 1.686-3.613 1.686c-2.589 0-4.576-1.987-4.576-4.395Zm-3.013-.006c0 .683-.242 1.266-.725 1.75a2.384 2.384 0 0 1-1.75.725 2.384 2.384 0 0 1-1.75-.726 2.384 2.384 0 0 1-.725-1.75c0-.682.242-1.263.725-1.743a2.394 2.394 0 0 1 1.75-.72c.683 0 1.266.24 1.75.72.483.48.725 1.06.725 1.744Zm1.902.006A4.606 4.606 0 0 0 7.35 5.026a4.686 4.686 0 0 0-2.686-.818c-.985 0-1.885.273-2.699.818A4.63 4.63 0 0 0 .28 6.994a4.71 4.71 0 0 0 1.685 1.98 4.793 4.793 0 0 0 2.699.806c.985 0 1.88-.269 2.686-.806a4.683 4.683 0 0 0 1.697-1.98Zm.28-.006c0 1.292-.454 2.394-1.365 3.304-.91.91-2.008 1.366-3.292 1.366-1.284 0-2.384-.455-3.298-1.366C.457 9.382 0 8.28 0 6.988c0-1.284.457-2.382 1.372-3.292.914-.91 2.013-1.366 3.298-1.366 1.284 0 2.382.455 3.292 1.366.91.91 1.366 2.008 1.366 3.292Zm87.94 4.207h-1.864l2.195-6.733H93.75V2.78H100l-2.734 8.416Zm-6.415-8.43h1.502l-3.606 11.06h-1.503l3.606-11.06Zm-6.555 5.034V4.913L82.193 7.8h2.104Zm-3.967-.24 3.614-4.78H86.1V7.8h.962v1.683H86.1v1.713h-1.803V9.482H80.33V7.558Zm-.632 1.953v1.683h-5.95c0-3.967 4.087-3.967 4.087-5.83 0-.602-.48-1.083-1.202-1.083-1.022 0-1.443 1.022-1.443 1.022l-1.443-.721s.662-1.984 3.006-1.984c1.803 0 2.945 1.142 2.945 2.645 0 2.404-2.644 2.765-3.606 4.268h3.606Z"/>
	</symbol>

</svg>
