<svg xmlns="http://www.w3.org/2000/svg" width="34" height="34" viewBox="0 0 34 34">
  <path fill="#F5F5F5" fill-rule="evenodd" d="M8.22864981,16.7862466 C8.22864981,21.5130721 12.081807,25.2801061 16.8300855,25.2801061 C21.5789859,25.2801061 25.3932788,21.5130721 25.3932788,16.7862466 C25.3932788,12.1352842 21.5789859,8.32938594 16.8300855,8.32938594 C12.081807,8.32938594 8.22864981,12.1352842 8.22864981,16.7862466 L8.22864981,16.7862466 Z M32.4895798,16.7899776 C30.1132641,21.7257373 24.5003338,26.5399296 16.8384802,26.5399296 C9.13620776,26.5399296 3.56400713,21.7257373 1.18800238,16.7899776 C3.56400713,11.9350556 9.13620776,7.1199305 16.8384802,7.1199305 C24.5003338,7.1199305 30.1132641,11.9350556 32.4895798,16.7899776 L32.4895798,16.7899776 Z M16.8384802,0 C7.45665036,0 0,7.56578117 0,16.7899776 C0,26.0953226 7.45665036,33.6611037 16.8384802,33.6611037 C26.2622834,33.6611037 33.6368525,26.0953226 33.6368525,16.7899776 C33.6368525,7.56578117 26.2622834,0 16.8384802,0 L16.8384802,0 Z"/>
</svg>
