<svg xmlns="http://www.w3.org/2000/svg" width="194" height="34" viewBox="0 0 194 34">
  <path fill="#F5F5F5" fill-rule="evenodd" d="M191.026181,18.037745 C189.36932,15.4223364 186.199552,14.3639852 183.10005,13.3305071 C179.273943,12.0542051 175.659878,10.8481697 175.659878,6.6558054 C175.659878,4.99459192 176.155786,1.13117461 180.747675,1.13117461 C186.444241,1.13117461 189.14484,10.1538988 189.14484,12.3797321 L189.14484,12.6020356 L189.691116,12.6020356 L189.705107,0.319999993 L189.503946,0.584587803 C189.48498,0.552874576 189.469123,0.523337746 189.445494,0.488204465 L189.37274,0.37814091 L189.282264,0.474524249 C188.76366,1.0310603 187.521869,1.7020127 186.757953,1.7020127 C186.258315,1.7020127 185.602908,1.47038178 184.843656,1.202063 C183.736802,0.810311364 182.359142,0.322798219 180.807992,0.322798219 C179.778556,0.322798219 178.824983,0.52053952 177.954113,0.872805077 C174.206355,2.34280645 171.984564,6.6781912 171.984564,10.7508536 C171.984564,16.8568936 176.58236,18.5121997 181.030296,20.1137177 C184.743853,21.4459842 188.251895,22.7042531 188.251895,26.6298532 C188.251895,30.6291399 185.238828,32.4193827 182.25281,32.4193827 C174.92923,32.4193827 172.253505,21.2127987 172.253505,20.2704184 L172.253505,20.1158941 L172.110484,20.1158941 C172.076595,20.0779626 172.037419,20.0645933 172.001042,20.0645933 C171.964666,20.0645933 171.92549,20.0779626 171.891601,20.1158941 L171.711892,20.1158941 L171.711892,32.8925938 L172.097737,32.4361721 C172.941557,31.4365836 173.571158,31.3569896 174.306781,31.3569896 C174.895652,31.3569896 175.440062,31.4738933 175.993178,31.6467615 C176.261186,31.7356829 176.540387,31.8342426 176.83047,31.9393315 C176.950793,31.984725 177.072982,32.0313621 177.197037,32.0789319 L177.280673,32.111267 C178.177038,32.4594906 179.156106,32.8344529 180.377066,33.05458 C181.116108,33.2134571 181.888729,33.3163696 182.699282,33.3163696 C187.029692,33.3163696 192.26082,28.5593855 192.26082,22.6513977 C192.26082,20.6991688 191.798491,19.2098907 191.026181,18.037745 L191.026181,18.037745 Z M174.923945,1.62490603 L174.923945,0.791967438 L167.617777,0.791967438 L167.617777,1.62490603 L170.898541,1.62490603 C170.818637,1.8885611 163.986301,24.4301367 163.865667,24.8293503 C163.746587,24.429204 157.06318,1.88762836 156.98514,1.62490603 L160.537022,1.62490603 L160.537022,0.791967438 L148.794733,0.791967438 L148.794733,1.62490603 L150.903973,1.62490603 C150.947812,1.77196835 153.864185,11.6717809 153.881597,11.7308545 C153.863564,11.7896173 150.023154,24.3906506 149.90283,24.7852005 C149.784683,24.3850542 143.138274,1.88731745 143.060235,1.62490603 L145.84105,1.62490603 L145.84105,0.791967438 L134.194833,0.791967438 L133.790023,0.791967438 L111.707979,0.791967438 L110.919812,0.791967438 L103.784335,0.791967438 L103.784335,1.62490603 L107.332797,1.62490603 L107.332797,21.8744237 C107.103964,21.4951086 94.5750629,0.791967438 94.5750629,0.791967438 L85.3088931,0.791967438 L85.3088931,1.62490603 L88.8576654,1.62490603 L88.8576654,31.916013 L85.3088931,31.916013 L85.3088931,32.7492625 L93.2325362,32.7492625 L93.2325362,31.916013 L89.683453,31.916013 L89.683453,4.30809382 C89.9129075,4.68585432 106.954725,32.7492625 106.954725,32.7492625 L108.159517,32.7492625 L108.159517,1.62490603 L110.919812,1.62490603 L111.707979,1.62490603 L114.468273,1.62490603 L114.468273,31.916013 L110.919812,31.916013 L110.919812,32.7492625 L135.776142,32.7492625 L135.776142,22.7745197 L135.084669,22.7745197 L135.06788,22.8584665 C133.908482,28.6150391 130.782552,31.916013 126.491628,31.916013 L120.270861,31.916013 L120.270861,16.027686 L122.749778,16.027686 C126.262795,16.027686 127.371826,19.1589008 128.047442,22.5428887 L128.064231,22.6271464 L128.756015,22.6271464 L128.756015,8.55051529 L128.062366,8.55051529 L128.04682,8.63663846 C127.328609,12.5728096 126.080289,15.1944365 122.325381,15.1944365 L120.270861,15.1944365 L120.270861,1.62490603 L126.298551,1.62490603 C129.755914,1.62490603 132.241672,4.0189438 133.487815,8.5486498 L133.509268,8.62575647 L134.194833,8.62575647 L134.194833,1.62490603 L137.017932,1.62490603 C137.062393,1.77352292 146.584134,33.9975822 146.584134,33.9975822 L147.857949,33.9975822 C147.857949,33.9975822 154.176654,13.3855388 154.298532,12.9897453 C154.417301,13.3867825 160.585835,33.9975822 160.585835,33.9975822 L161.859339,33.9975822 C161.859339,33.9975822 171.727438,1.77196835 171.77221,1.62490603 L174.923945,1.62490603 Z M66.022587,13.3519601 C62.1887065,12.0722381 58.5674912,10.8643372 58.5674912,6.6558054 C58.5674912,4.98806272 59.0652645,1.10909971 63.6773627,1.10909971 C69.3885419,1.10909971 72.0962919,10.1492351 72.0962919,12.3797321 L72.0962919,12.5799607 L72.598418,12.5799607 L72.61272,0.385602846 L72.2545471,0.856326635 C71.5870148,1.74802798 70.2314297,1.8173618 69.8319053,1.8173618 C69.7600841,1.8173618 69.713447,1.81487448 69.6826665,1.81425266 C69.1733894,1.81425266 68.3587948,1.53567372 67.7064972,1.29347171 C66.6036852,0.883065239 65.2313109,0.372544458 63.6773627,0.372544458 C58.2783412,0.372544458 54.9366376,5.76006218 54.9366376,10.7508536 C54.9366376,16.8407261 59.5266609,18.4938558 63.9671346,20.0928865 C67.6887751,21.4276402 71.2036578,22.6883965 71.2036578,26.6298532 C71.2036578,30.6446856 68.1793974,32.4414576 65.1824974,32.4414576 C57.8427507,32.4414576 55.1611175,21.2146642 55.1611175,20.2704184 L55.1611175,20.137969 L54.6636551,20.137969 L54.6636551,32.8322765 L55.0106351,32.42187 C55.860674,31.4148196 56.4952494,31.3352256 57.2361575,31.3352256 C58.2453843,31.3352256 59.1209181,31.67008 60.1344977,32.0587225 L60.2181336,32.0904357 C61.5864661,32.6217877 63.1369942,33.2243391 65.4700928,33.2243391 C69.8350144,33.2243391 75.107183,28.4735732 75.107183,22.574602 C75.107183,16.3799515 70.4901102,14.8409272 66.022587,13.3519601 L66.022587,13.3519601 Z M39.6228796,31.9803722 L36.346157,31.9803722 L36.346157,16.067483 L39.7783366,16.067483 C42.8762837,16.067483 45.9005441,16.6572868 45.9005441,23.7035307 C45.9005441,30.7852188 43.9638608,31.9803722 39.6228796,31.9803722 L39.6228796,31.9803722 Z M36.346157,1.61651135 L37.5919894,1.61651135 C43.1834667,1.61651135 44.9242742,2.51567463 44.9242742,8.13731059 C44.9242742,14.1587819 43.4275342,15.2606611 40.4794477,15.2606611 L36.346157,15.2606611 L36.346157,1.61651135 Z M44.3266975,15.6651603 C46.2469023,15.1288336 50.7818938,13.6209007 50.7818938,8.72338347 C50.7818938,6.32157285 49.6013534,4.2987664 47.3683691,2.87353664 C45.3281514,1.56396689 42.4795574,0.842335506 39.3474098,0.842335506 L24.8734306,0.842335506 L24.8734306,1.61651135 L29.9061954,1.61651135 L29.9061954,31.9803722 L24.8734306,31.9803722 L24.8734306,32.7548589 L40.0519409,32.7548589 C47.1930136,32.7548589 51.9907274,29.0083453 51.9907274,23.4321028 C51.9907274,19.6134571 49.4832061,17.0708024 44.3266975,15.6651603 L44.3266975,15.6651603 Z M20.7556856,2.16682913 C20.0178867,2.16682913 19.2294088,1.85342782 18.3165653,1.49028027 L18.2801884,1.47566731 C17.0020209,0.95861734 15.5531617,0.372544458 13.6562754,0.372544458 C10.9258287,0.372544458 7.49831283,2.18361848 4.92456678,4.98619724 C2.67790224,7.43371221 1.42108547e-14,11.7205944 1.42108547e-14,18.2426373 C1.42108547e-14,26.6799104 6.90197979,33.2243391 12.8395044,33.2243391 C15.2347858,33.2243391 16.6444698,32.5835453 17.8878149,32.0192364 L17.9179736,32.0055562 C18.881807,31.5699657 19.7141237,31.1940707 20.8343469,31.1940707 C21.7767272,31.1940707 22.6625211,31.7232463 23.2032006,32.6090403 L23.5685245,33.2050624 L23.5685245,20.0565095 L23.0934479,20.0565095 L23.0645329,20.2234703 C22.2844497,25.1502135 19.0543642,32.4793891 13.3531343,32.4793891 C7.71346532,32.4793891 6.557798,26.9283307 6.557798,18.5927264 C6.557798,10.4526871 7.40628229,1.10909971 14.0250194,1.10909971 C19.9308308,1.10909971 22.4523433,9.83427918 23.0844314,12.5081395 L23.1195647,12.6586219 L23.5822047,12.6586219 L23.5822047,0.672576464 L23.2227882,1.18993735 C22.659412,2.00359928 21.8609849,2.16682913 20.7556856,2.16682913 L20.7556856,2.16682913 Z"/>
</svg>
