<svg xmlns="http://www.w3.org/2000/svg" width="18" height="19" viewBox="0 0 18 19">
  <path fill="#000000" fill-rule="evenodd" d="M9,18 C4.02943725,18 0,13.9705627 0,9 C0,4.02943725 4.02943725,0 9,0 C13.9705627,0 18,4.02943725 18,9 C18,13.9705627 13.9705627,18 9,18 Z M0.707389872,8.94333675 C2.29878551,11.8766426 5.30403458,14.3233285 9,14.3393845 C12.7608069,14.3554405 15.7175793,11.8766426 17.2929189,8.94333675 C15.7175793,6.01003086 12.7283862,3.66029846 9,3.66029846 C5.33583779,3.66029846 2.3148415,6.02608685 0.707389872,8.94333675 Z M9,13.59 C6.465013,13.59 4.41,11.534987 4.41,9 C4.41,6.465013 6.465013,4.41 9,4.41 C11.534987,4.41 13.59,6.465013 13.59,9 C13.59,11.534987 11.534987,13.59 9,13.59 Z" transform="translate(0 .5)"/>
</svg>
